/* XPM */
static char *_5b68fe764b0489c9b9b4c89c7c6fae2[] = {
/* columns rows colors chars-per-pixel */
"64 64 230 2 ",
"   c #000000",
".  c #0B0B0B",
"X  c #11100F",
"o  c #141414",
"O  c #1B1916",
"+  c #1B1B1B",
"@  c #28221E",
"#  c #331F20",
"$  c #272422",
"%  c #2C2C2C",
"&  c #352222",
"*  c #3B2224",
"=  c #342B25",
"-  c #3C3229",
";  c #333333",
":  c #3C3C3C",
">  c #5E251F",
",  c #64251C",
"<  c #6B2419",
"1  c #6C251A",
"2  c #742316",
"3  c #7B2416",
"4  c #732418",
"5  c #432424",
"6  c #4B2523",
"7  c #4A2B27",
"8  c #552521",
"9  c #5A2621",
"0  c #4A322B",
"q  c #53332A",
"w  c #593C2F",
"e  c #4E3734",
"r  c #453B36",
"t  c #633931",
"y  c #524735",
"u  c #654834",
"i  c #695436",
"p  c #755B3D",
"a  c #77613F",
"s  c #474747",
"d  c #555049",
"f  c #575757",
"g  c #725D43",
"h  c #665956",
"j  c #7B6746",
"k  c #69635B",
"l  c #736653",
"z  c #5F6161",
"x  c #626263",
"c  c #6C6C6B",
"v  c #73706A",
"b  c #737474",
"n  c #7B7B7B",
"m  c #832616",
"M  c #862718",
"N  c #892719",
"B  c #8C281A",
"V  c #932A1C",
"C  c #9A2B1F",
"Z  c #9D2B21",
"A  c #9A3C30",
"S  c #A42D22",
"D  c #AB2E24",
"F  c #B42F24",
"G  c #BA2E25",
"H  c #A83126",
"J  c #B23024",
"K  c #BD3027",
"L  c #B9332B",
"P  c #BB3A31",
"I  c #C52F24",
"U  c #C43227",
"Y  c #CB3326",
"T  c #C43228",
"R  c #CD3429",
"E  c #CF3B2D",
"W  c #D43426",
"Q  c #DB3625",
"!  c #D43528",
"~  c #DC3A28",
"^  c #CA3E33",
"/  c #E33624",
"(  c #E53925",
")  c #EC3C24",
"_  c #E53A28",
"`  c #EC3F29",
"'  c #F03C24",
"]  c #C5453C",
"[  c #D9483A",
"{  c #EF4029",
"}  c #E84B38",
"|  c #ED523D",
" . c #915750",
".. c #B14F48",
"X. c #846A45",
"o. c #886C47",
"O. c #846E4A",
"+. c #85704C",
"@. c #8C734C",
"#. c #92784D",
"$. c #826F50",
"%. c #8A7755",
"&. c #967C53",
"*. c #967D54",
"=. c #BA615B",
"-. c #8B766F",
";. c #B1706D",
":. c #CA534B",
">. c #D5544A",
",. c #D45A52",
"<. c #E95444",
"1. c #EA5948",
"2. c #DE665C",
"3. c #E86555",
"4. c #EB6A5B",
"5. c #F06552",
"6. c #C86A65",
"7. c #D17570",
"8. c #E67266",
"9. c #EA7366",
"0. c #7F807F",
"q. c #9D8255",
"w. c #958058",
"e. c #9B825A",
"r. c #A18556",
"t. c #A2865B",
"y. c #A48A5D",
"u. c #A88D5E",
"i. c #928671",
"p. c #A58C64",
"a. c #AA8E62",
"s. c #AD9263",
"d. c #AB936C",
"f. c #B29566",
"g. c #B49769",
"h. c #B5996A",
"j. c #BA9C6C",
"k. c #AE9976",
"l. c #BDA06E",
"z. c #BDA173",
"x. c #C9817C",
"c. c #D1867F",
"v. c #EA857A",
"b. c #F28374",
"n. c #C3A572",
"m. c #C4A975",
"M. c #C9A976",
"N. c #CAAB76",
"B. c #CDAD79",
"V. c #D3B37B",
"C. c #D9B77E",
"Z. c #DBB87F",
"A. c #807F80",
"S. c #8B8A89",
"D. c #978E86",
"F. c #989797",
"G. c #AC918A",
"H. c #B89695",
"J. c #B5A894",
"K. c #B7A896",
"L. c #9AA0A2",
"P. c #A8A8A7",
"I. c #B1AFAE",
"U. c #B5B6B7",
"Y. c #BCBDBD",
"T. c #D19995",
"R. c #EE9489",
"E. c #E99B94",
"W. c #D7B781",
"Q. c #DDBA81",
"!. c #D3A79B",
"~. c #E2BD83",
"^. c #EBA39B",
"/. c #F3A095",
"(. c #CDB2AD",
"). c #F2B1A8",
"_. c #E5C186",
"`. c #EAC385",
"'. c #EBC689",
"]. c #EDC98A",
"[. c #F3CC8B",
"{. c #F6D18D",
"}. c #F9D38E",
"|. c #FCD690",
" X c #FEDA92",
".X c #CCC3B5",
"XX c #ECC2BC",
"oX c #B7BCC0",
"OX c #BABEC1",
"+X c #BDC2C5",
"@X c #C9C5C5",
"#X c #C2C6CA",
"$X c #C5C9CC",
"%X c #CBCCCD",
"&X c #D5C7C6",
"*X c #D7D4CF",
"=X c #C5CCD0",
"-X c #CACED1",
";X c #CDD2D4",
":X c #CFD6D9",
">X c #D2D3D5",
",X c #DBD5D5",
"<X c #D3D6D9",
"1X c #D5D9DC",
"2X c #D9DBDD",
"3X c #E9CAC8",
"4X c #F1CDC8",
"5X c #EDD2CE",
"6X c #F4D0CB",
"7X c #EBD8D6",
"8X c #F3DBD7",
"9X c #E7E1DA",
"0X c #F4E2DE",
"qX c #D7DDE0",
"wX c #DCDEE2",
"eX c #E8DEE0",
"rX c #DEE1E3",
"tX c #E2E3E6",
"yX c #EAE5E4",
"uX c #E5E6E9",
"iX c #E6E8EB",
"pX c #ECECED",
"aX c #F4EAE7",
"sX c #EEF0EF",
"dX c #F2F2EF",
"fX c #EDEFF0",
"gX c #EEF1F1",
"hX c #F3F3F1",
"jX c #F9F7F6",
"kX c #FDFDFD",
/* pixels */
"                                                                                                                                ",
"                                                                                                                                ",
"                                            . s b D.S.S.i.k 0 7 0 0 r r s s s s + .                                             ",
"                                        . z OXdX0XXX/.b.4.1.} } } } <.1.8.R.).5X,XU.f o                                         ",
"                                    . d U.0X).9.| { ' } 5.b.E.^.E.E.v.4.} Q Q } 8.^.8X%Xz O                                     ",
"                                . d I.5XR.| { ' ' 5./.6XaXhXjXhXjXgXpXtX3XE.3._ / / } R.3X%Xf +                                 ",
"                              % D.6Xb.| ' ' ' | /.0XdXhXhXhXhXdXhXhXgXfXpXpX7XE.} ( / / [ v.5X%Xs .                             ",
"                          o S.,X).5.{ ' ' ' 4.4XhXjXdXhXhXhXhXdXdXhXgXgXgXfXpXfX3X4.) ) / Q [ ^.9XF..                           ",
"                        ; .XaXb.{ ' { { ' 9.0XhXhXhXhXhXhXhXhXhXhXhXhXhXdXdXdXsXpX7X9.{ ( ( Q Q 7.7Xb                           ",
"                      ; %X8X4.) ' ' ' ) 5.0XhXhXhXhXhXhXhXhXhXhXhXhXhXhXjXhXhXhXdXpX7X8.) ( ( Q Q 3.(.v                         ",
"                    : 2X6X1.) ) ) ) ) | 4XhXhXhXhXhXjXjXhXhXhXhXdXhXhXhXdXhXhXdXhXsXgX5X<.( ( / _ W [ (.S.o                     ",
"                  ; %X6X1.) ' ' { ) { ^.dXdXhXhXhXhXaXhXhXhXhXhXhXhXhXhXhXhXhXjXhXhXsXpX^.` ( ( _ Q W :.3XI.%                   ",
"                ; >X8X1.) ' ' ' ) ' 5.0XjXhXhXhXhXhXhXaXhXhXhXhXhXhXhXhXhXhXhXdXhXhXfXfX0X3.) ( _ Q Q ! :.4X%X%                 ",
"              ; %XaX4.( ) ' ' ' ' ' /.dXdXhXhXhXhXhXdXjXhXhXhXhXhXhXhXdXhXdXhXhXhXhXhXfXfX^._ ( _ / Q W Y ,.0XP.                ",
"              P.kXb.( ) ' ' ' ' ' } 6XdXdXhXhXhXhXhXhXhXhXhXhXhXhXhXhXjXhXdXdXhXhXhXgXgXfX5X} ( _ / Q Q ! Y 7.tXf               ",
"            : pX)._ ` ` ' ' ' ' ' 5.aXjXhXhXhXhXhXhXhXhXhXhXhXhXhXhXhXhXhXjXhXdXhXhXgXfXfXyX4.( _ _ / Q ! W T E.>X;             ",
"          + P.jX9.` { ` ` ' ' { ' b.hXhXhXhXhXhXhXhXhXjXhXhXhXhXhXhXhXhXhXhXhXhXhXhXfXpXfXfXv./ _ _ / Q W ! Y 6.fXI..           ",
"        + F.kXpX^.' _ ) ) ) ' ) ' R.hXhXhXhXhXjXhXhXhXaXfXhXhXhXhXhXhXhXhXhXfXhXfXfXfXpXiXiXE._ ( _ / Q Q ! ! c.qXfXf           ",
"        $ <XhXiX(.} ) ) ) ) ) ) ' R.hXhXhXhXhXhXfXhXfXfXfXfXhXhXhXhXhXhXhXfXhXfXpXfXfXpXpXiXE._ _ _ / Q W ! ! (.:XuXU.+         ",
"        % gXiXrX7X| ) ) ) { ) ) ) R.hXdXdXhXgXhXfXfXpXpXpXpXpXfXfXfXaXfXfXfXpXfXpXaXpXfXiXiXE./ _ / / Q ! ! [ (.:X;XjXn         ",
"      : L.pXrXuXyX1.( ( ) ) ) ) ) v.sXfXpXpXpXpXpXpXuXpXuXpXpXfXpXpXpXpXfXpXpXpXpXpXuXpXuXuXR._ / / / ~ ! ! >.&X<X%XiXY..       ",
"      L.kXuXrXuXtX4.( ) _ _ _ ) ( 3.yXiXpXiXyXiXuXuXuXuXuXpXuXuXpXpXpXuXpXiXiXuXuXuXuXuXuXwX2./ / Q Q Q Q W >.,X<X;X;XtX:       ",
"    . Y.jXqXrXuXuX8.( ( ( _ _ ( ( } 3XiXtXuXtXtXuXtXtXtXuXuXuXuXuXuXuXuXuXuXuXuXuXtXtXtXuX3X<./ Q Q Q ! ! W ,.>X<X;X$XuXA.      ",
"    X OXiXrXrXrX9X8.( ( ( _ _ ( ( ( ^.tXtXrXtXtXwXwXtXtXtXeXtXtXuXeXuXuXtXtXtXtXtXtXtXwXtX!.Q Q Q ~ ~ ! ! W ,.>X:X;X$X>X>X+     ",
"    ; I.wXqXrXtXtX8./ / ( ( / ( / / 3.1XwXwXwXwXqXqXwXwXwXwXwXwXwXwXwXwXwXwXwXwXwXwX2XwX,X2.Q Q Q ! ! Q W W >.,X1X;X=X$XgXb     ",
"    n ;X1XqXwXrXwX2.Q Q Q Q Q / ~ Q ~ !.qX<X>X<X>XqXqX<X2X2X2X2XwXwX2X2XwX2X2X2X2X2X<XwX!.E Q Q Q Q ! ! ! W :.%X:X;X;X+XtXS.    ",
"  . Y.tX<XqXqXrX,X>.Q Q Q Q Q Q ! Q Q >.&X;X>X>X<X;X;X>X>X<X<X<X<X<X<X<X<X<X,X<X<X<X<X&X,.! ! ! ! ! ! Y Y Y ] &X1X;X=X+X;XF..   ",
"  + >X2X<X1XqXwX*X[ Q Q W W W ! ! ! W W 7.@X-X-X-X;X-X;X;X;X>X;X;X>X<X>X>X>X>X>X:X>X-X7.! ! ! ! Y ! ! Y Y Y ] (.:X;X=X+X#XF.+   ",
"  x hX;X:X<X1XqX(.[ W W W ! ! ! ! ! Y Y ! 7.+X$X%X=X=X=X;X-X%X;X-X-X-X-X=X-X-X-X;X-X7.! Y ! ! Y Y R Y R R R T !.:X;X=X+X+XU.O   ",
"  n hX$X;X<X1X1XT.Q W W ! Y Y Y Y Y Y T T T 6.Y.#X#X#X#X#X#X$X$X#X$X$X$X$X$X$X$XY.7.^ Y Y Y Y Y Y Y Y Y T T U 7.;X;X$X+X+X2Xx   ",
"  n iX$X;X;X:X>X7.W Y Y Y Y Y Y T T T I L T I :.T.oXOXOX+XOXOX+X+X+X+X+XOXOXOXT.:.T Y T Y T T Y I T T T T T K :.$X$X$X+X+X-Xd   ",
"  n tX#X=X;X;X@X:.Y Y I T T T I I K I K K K L K L =.H.I.oXoXoXoXoXoXoXoXoXH.=.P G K U U T T T I I T T I T K T P (.=X+X+XoXrXn   ",
"  c qXoX=X=X=X!.T Y U I K I K K G G G F G F F F F F F ..;.;.G.G.A.T.A.6.] L F F G G G K K U K U K K T G K K K G x.$X#XOXOXwXn   ",
"  : -XoX+X=X+X=.K K K K K L G G F F D F D D D D S S S S Z S H S H L S S D D D D D D J F J J K J G G G K K L F F ..U.OXOX#XwXn   ",
"  z :XoXoX+XH.P G G F F F F H D D D S S S C C C Z V Z B B V V V C V C C C Z Z Z S S S D J D J J J J J J J J J D J d.oXOX#XtXn   ",
"  x qXP.oXU.=.F F F F D D S S S C C V V V B N N M m m m m m m m M M M N M V B V V C C C S S S D D D D D D D D D D ..I.#X#XtXx   ",
"  o L.I.I.0.L D S S S S S Z V V B N M m m 3 2 2 4 2 2 2 3 2 2 3 3 2 3 3 3 M M M M B B V V C C C Z Z S S S S D S D D ;.Y.$X1X;   ",
"    : L.D.A S Z Z Z Z Z V V N N m 3 2 4 < < < , , , , , , < < < < < 4 4 4 4 3 3 3 m m m M B B V V V V Z Z Z Z S D D L G.-XI.X   ",
"    o -.A Z V V Z N N N N 3 2 4 < < , , > > 9 9 9 9 > > > 9 > > , , , < < < 4 4 2 2 3 3 3 m m m B B B V C Z S D D D F L T.A.    ",
"  . S.-.3 N N m m N m 2 2 < , , > 9 9 8 9 8 8 8 8 8 8 8 8 8 8 > 8 8 9 9 > , , < < < 2 2 3 3 3 3 M B B V V Z S D D F F F 6.d     ",
"  o @XH.< 2 2 2 2 2 < , > 9 8 8 8 8 8 8 8 8 8 8 6 6 6 7 q 8 q q 8 7 7 7 6 6 > > > > , < 1 2 3 3 m M M B B Z S D D F F G E.F.    ",
"    n *Xt , , , , > 8 6 6 6 6 6 6 8 8 8 6 6 6 0 w u i p X.o.o.o. .O.o.o.X.p u u 7 7 5 > > , < 2 2 3 m N B Z Z S D F F ] eXI..   ",
"    $ 1X-.6 6 6 6 5 5 * 5 5 6 6 6 8 6 6 7 u g X.@.#.*.*.*.q.r.r.r.r.t.r.r.q.q.q.o.X.u q 6 8 > , < 4 3 m B V Z S D F F 7.jXA.    ",
"      P.7Xe # # & & & * 5 5 6 6 6 6 q u X.#.&.*.r.+.+.s.f.f.f.f.h.g.g.g.f.w.O.u.u.r.&.@.p w 6 6 8 > < 2 m B V Z H F ] 5XrX$     ",
"      $ S.F.* # # & & * 5 5 5 5 q i o.#.*.r.u.f.*.h l y.j.n.n.n.n.n.m.m.l.l k %.j.h.s.u.r.#.p w 5 8 9 , 2 m V S D L !.kX$Xo     ",
"        % tXA.* # & & & * 5 * w j #.q.u.f.h.n.n.@.P.P.*.V.B.V.V.Z.Z.C.Q.h.i..Xl N.n.n.l.f.u.r.@.u 5 7 8 < 3 B Z D c.jX>X:       ",
"        . x >XA.* # & * * 5 w X.q.r.s.j.n.N.B.C.$.D.i.e.[.[.{.{.}.}.}. Xz.k J.l Z.Z.C.N.n.j.s.r.#.u 5 6 > 2 N C x.aXP.%         ",
"            s &XF.- # & * 5 p q.u.j.N.B.Z.Z.`.[.j d y q. X X X X X X X Xz.y h y [.}.[.`.C.N.j.s.q.O.7 6 > 2 A T.@Xx o           ",
"              : Y.U.h * # 5 O.t.j.B.~.~.{.{.{.}.X.= = &.}.}. X X X X X Xm.= - y ].|.{.[.].~.N.h.y.@.q 6 ,  .H.c +               ",
"                X k %XP.h r +.s.B.~.~.[.{.{.{.{.j & $ &.}.}. X}.|. X X Xn.@ = r '.{.[.[.]._.V.l.s.@.w  .(..X%                   ",
"                    ; I.iX(.e.j.V.~.`.'.[.[.[.[.j @ + e.}.}.}.}.}.|.|.|.N.@ $ y ].{.{.].].~.V.l.d.e.I.aXkXF.                    ",
"                      . b iXk.g.N.C.~.~.~.~.[.[.$.o O p.}.[.}.}.}.}.}.}.V.= O y ].].].].'.Q.B.l.s.d.uX-.x +                     ",
"                          b J.p.z.N.V.C.Q.Z._._.p.X O n.'.`.`.[.[.[.[.[._.r . O.].'.'.'._.W.m.l.s.J.sX:                         ",
"                          + i.t.f.z.n.B.V.V.V.Z.V.+.&.C.~.~.`.`.`.`.`.~._.k.j B.'.'._._.W.B.z.l.u..XjX:                         ",
"                            f d.t.f.h.n.n.n.N.N.N.B.B.B.C.C.C.C.Z.C.Q.C.W.~.~._.W.W.Q.W.B.z.l.s.s.rXjX:                         ",
"                            : J.&.y.a.f.h.j.j.z.n.n.N.N.N.N.N.B.V.B.V.V.W.W.W.W.W.W.W.W.l.l.s.y.W.gXF.+                         ",
"                            $ ,Xi.%.e.y.a.s.s.h.f.h.j.j.l.n.l.l.n.n.n.N.N.N.N.B.N.m.l.h.f.s.s.z.7XF..                           ",
"                            . S.I.%.j j %.*.w.w.t.y.u.s.s.s.s.z.f.f.g.h.g.h.j.h.h.g.f.s.s.s.d.D.d .                             ",
"                                $ b v g i i j j O.@.*.&.w.q.q.q.r.r.r.t.p.y.a.a.s.s.u.u.s.k.d .                                 ",
"                                    y i.i.j i i i p a a j O.o.@.#.#.*.*.&.t.t.y.u.u.h.J.J.k                                     ",
"                                      o f P.K.K.i.%.+.j @.o.o.o.@.q.w.e.y.a.d.G.J.J.D.c %                                       ",
"                                          o s b I.9X9X*X.X.X.X.XK.J.D.G.-.h y y : O                                             ",
"                                                . : v i.n n S.c : ; o o                                                         ",
"                                                                                                                                "
};
