/* XPM */
static char *_80c2b33d9314ce99e54f8aa8978db13[] = {
/* columns rows colors chars-per-pixel */
"64 64 123 2 ",
"   c #030303",
".  c #090406",
"X  c #030905",
"o  c #090906",
"O  c #050508",
"+  c #090609",
"@  c #030C09",
"#  c #0D0C0C",
"$  c #100F0C",
"%  c #001307",
"&  c #00100A",
"*  c #00190E",
"=  c #11110E",
"-  c #070F11",
";  c #0C0D10",
":  c #100E11",
">  c #021411",
",  c #0C1515",
"<  c #011C15",
"1  c #0B1A16",
"2  c #061A18",
"3  c #0C1A19",
"4  c #131313",
"5  c #1A1917",
"6  c #111D1D",
"7  c #191919",
"8  c #201F1C",
"9  c #02231B",
"0  c #0A231E",
"q  c #012B1F",
"w  c #14201E",
"e  c #22211F",
"r  c #002B20",
"t  c #0B2C25",
"y  c #132725",
"u  c #122924",
"i  c #132C28",
"p  c #1A2D2B",
"a  c #093A2D",
"s  c #11332B",
"d  c #1C302E",
"f  c #0A3E31",
"g  c #143D33",
"h  c #183932",
"j  c #242422",
"k  c #282724",
"l  c #292927",
"z  c #232D2E",
"x  c #2C2C2B",
"c  c #302F2B",
"v  c #32312E",
"b  c #223634",
"n  c #253937",
"m  c #223F3B",
"M  c #343433",
"N  c #393836",
"B  c #3C3C3A",
"V  c #084035",
"C  c #14443A",
"Z  c #1C433A",
"A  c #164C3F",
"S  c #19493D",
"D  c #42413E",
"F  c #165041",
"G  c #1B5043",
"H  c #1E5748",
"J  c #254C43",
"K  c #2D4843",
"L  c #384C4A",
"P  c #255549",
"I  c #28534A",
"U  c #37544F",
"Y  c #2D5C52",
"T  c #2A6455",
"R  c #2F6E5D",
"E  c #316759",
"W  c #2F6D60",
"Q  c #367464",
"!  c #387263",
"~  c #3C766A",
"^  c #3C7C6E",
"/  c #3C7E70",
"(  c #444442",
")  c #494947",
"_  c #4A4A48",
"`  c #52514F",
"'  c #4A5D5B",
"]  c #5B5A56",
"[  c #5D5C5A",
"{  c #43635E",
"}  c #61605D",
"|  c #496C66",
" . c #407064",
".. c #43776A",
"X. c #487268",
"o. c #577A73",
"O. c #656462",
"+. c #6C6C6C",
"@. c #737371",
"#. c #787775",
"$. c #7B7A76",
"%. c #7F7E7B",
"&. c #3A8473",
"*. c #468374",
"=. c #588A7E",
"-. c #83827F",
";. c #499080",
":. c #569081",
">. c #549D8C",
",. c #5A9A89",
"<. c #649288",
"1. c #6EA497",
"2. c #6BAA99",
"3. c #878684",
"4. c #888783",
"5. c #8A8985",
"6. c #8E8E8B",
"7. c #93928E",
"8. c #959591",
"9. c #9C9B97",
"0. c #A2A19D",
"q. c #AEAEAC",
"w. c #DDDCD8",
/* pixels */
"4 7 5 4 4 4 4 4 4 4 4 4 4 4 # : 4 , $ 4 4 4 4 : # = # 4 $ 4 # 4 # # $ 4 : 4 4 4 4 # 4 4 4 $ , $ # : 4 5 5 4 5 5 4 4 4 7 7 7 7 7 ",
"4 7 5 7 4 4 4 4 4 4 4 : = 4 4 = 4 4 4 4 4 4 4 : 4 # ; # 4 ; 4 # # # : $ 4 ; 4 4 4 4 4 # ; 4 4 = # : 4 4 4 4 4 5 4 5 4 7 7 7 7 4 ",
"4 4 5 4 4 4 4 4 : 4 ; 4 : $ # 4 4 4 : 4 4 4 4 $ # 4 = 4 # 4 # 4 4 # = : # 4 = 4 : : , = 4 4 4 : # 4 4 4 4 4 4 4 4 4 7 7 4 7 7 7 ",
"7 4 5 5 4 4 4 4 4 4 : # # $ , 4 4 4 = 4 4 4 4 : ; # # # = # 4 ; ; 4 , $ 4 4 # # $ # $ 4 4 # 4 4 ; $ 4 4 4 4 4 4 4 4 5 4 7 7 7 4 ",
"7 4 7 4 4 4 4 4 4 4 : ; # # 4 4 4 4 $ 4 4 4 , 4 = # # : : # # 4 # 4 $ 4 # # ; = # 4 # # ; 4 # 4 # # ; 4 # 4 = : 4 4 4 4 7 7 7 4 ",
"4 7 4 4 4 7 : , $ = : $ 4 : 4 4 4 4 ; 4 : : $ # 4 # $ # # : = # = : ; # # 4 = : # 4 : 4 4 # 4 4 # # # # # = : $ 4 4 7 7 4 7 4 7 ",
"7 7 4 7 7 4 4 4 : 4 , $ : $ 4 4 4 4 # 4 = 4 4 4 # # # $ $ ; 4 4 ; = 4 # # : # , = # ; # $ 4 # 4 $ # # # 4 : 4 4 4 4 7 4 7 7 7 4 ",
"7 4 4 4 4 7 4 ; # 4 4 4 4 4 4 4 4 4 4 # = : # 4 # # # , ; $ # # # # # # 4 : $ $ ; = 4 4 # # 4 # : # # # , 4 4 4 4 4 4 4 4 4 7 7 ",
"7 4 7 4 7 4 4 4 4 4 4 4 4 4 4 4 4 ; $ ; = ; # 4 ; # # # # # # # # # # # # # # o ; , $ # # ; : 4 # : : 4 4 4 4 4 4 4 4 4 7 4 7 7 ",
"4 4 4 7 4 4 4 4 4 4 4 4 4 4 4 $ $ : : = 4 # # = ; # # # # # # # # # # # # # + # # # # # # ; # # # $ 4 4 4 4 4 4 4 4 4 4 4 7 7 4 ",
"4 7 4 4 4 4 4 4 4 4 4 4 4 $ # ; : ; $ $ # # = ; = # + # # # # + # # # # # + o # + # o + # o o # $ 4 : 4 4 4 4 4 : 4 4 4 4 7 4 7 ",
"4 4 7 4 7 4 4 4 4 4 ; 4 4 4 ; = $ ; # , # # # # # # # + # # # # o # # o # o # o + # + o o # # # # # $ , 4 4 = 4 4 4 4 4 4 4 7 4 ",
"4 5 4 5 4 4 4 4 : 4 4 4 4 4 # # ; # # # # # # # # # @ o # # + o # + + + @ o o o + + + + + # o # # 4 4 4 4 4 # 4 , 4 4 4 4 4 4 7 ",
"4 4 4 4 4 4 4 4 4 $ , = # 4 # 4 # # # # # # # # # + o # o # o + + + + o o o O o + o + o o @ # # ; # 4 # 4 4 4 4 ; 4 : 4 4 7 7 4 ",
"4 4 4 4 4 4 4 4 : 4 4 4 4 ; # ; # # # # # o # o # # o o o # + + + + o O + @ O o o o O o o # o # # # # 4 : 4 ; 4 4 : 4 4 4 4 4 4 ",
"4 4 5 4 4 4 4 4 $ # : = # = # # # o # # # # # @ + o + # + # + + @ o @ o o + O   O O   o + @ # @ # # # 4 4 4 4 4 : 4 4 4 4 4 7 4 ",
"4 4 5 4 4 4 4 , $ $ : # # : = # 4 : ; + o o o % o o X   o . . +   @ X @ O o O . . . o . @ @ & & # # # 4 4 # 4 4 , $ 4 4 4 4 7 7 ",
"4 4 4 4 4 4 : : , : # : # # # # ; ; + + + + o o o X X o . # + + O @   X O   o . . . . . + @ @ & @ # # , 4 # 4 # 4 : 4 4 4 4 5 4 ",
"4 4 4 4 4 4 4 : : $ $ ; # # # # + + + O   o o X o o     O + + + O O o O   o . . + + . . + @ @ @ o # # $ 4 4 4 ; 4 4 4 5 4 5 4 5 ",
"4 4 4 : # 4 : # ; $ : $ # # # # + ; + ; o o o   o   . .   + + +   o .     O . . . . . O o o + # o # # : # 4 # 4 $ : 4 4 5 4 4 4 ",
"4 ; 4 4 4 = # , # # , # # # # # o + o O . o               O O O . . . . . . . . . . . . + + + o # # # , $ : # $ # 4 4 4 4 4 4 ; ",
"4 4 $ 4 4 # $ $ 4 = $ # # # + + + + + O                   O     . . . . .   .   . .   .     . o o # # # # 4 4 = $ # = 4 : 4 4 : ",
"4 4 ; 4 4 4 : : : ; ; # # + # o o O   O   O   .         O     O . . . .     O O   O     O O + O o + # # : 4 # ; 4 ; 4 : $ , 4 ; ",
"4 4 4 4 4 $ 4 : $ , # # # # + o + O O O   o + o           O         .   O       X X X O O O + o + # # ; = # ; = 4 4 : 4 : 4 4 4 ",
"4 4 ; 4 4 : # # # = o + o = # o O     O ; , , , 6 @ @ O @               O   1 @ * 0 < % X X   # + + + # # # # 4 4 4 : 4 4 4 # 4 ",
"4 $ $ 4 # 4 # # # # # # o # o o +   O + > , p n 2 y p @   @ O O     O @ @ 3 < < q C Z t < @ O   + o o # # # 4 ; # 4 4 4 4 = , 4 ",
"4 # 4 ; 4 # ; # # @ # # # . O . .   O > 3 t m { @ 0 K i         +     O 6 ' < < C S P J 0 @   O + @ # # # # 4 = 4 4 4 4 4 4 $ : ",
"4 4 4 4 4 ; # # o + + # # O   .     O , 2 t g P * f | U &       O O O @ 1 L & 9 H A E ! Z &   O # o o o # 4 ; : # 4 # 4 : 4 $ 4 ",
"4 4 , $ : $ # o # o O O o o O       @ 1 t g C V % A <.o.i @       O O @ 6 d & 9 H R =.=.J - O   o o o + # # # ; # 4 ; 4 4 $ 4 ; ",
"4 4 4 $ : ; # o # # o O O o     . .   @ s Y ~ ^ q R 1.X.9       O   O O z b t q ! ,.2...t O O   O   o + # # # # # # = 4 4 4 : 4 ",
"4 4 # 4 $ # # o o 7 5 #     O   .     X 9 G ^ >.&.;...a X X     O O O + 4 y h S Q *.Q a @ O   .   O O o o # # # 4 # 4 # 4 4 4 = ",
"4 4 4 # : # # + + 7 j ;         .     O X * f T T A r @   @         O     6 t s S V * X &           O O o o o # ; # # 4 # 4 # 4 ",
"4 4 : $ ; ; # o o O l x     o           X   X X X 1     @     o     o         @   &   X           O o = ; # # O # # # 4 4 4 4 4 ",
"4 4 : : $ # # #     #   l M       o     X   o       =                           #   # X   o   O O     7 l o   4 # # # # 4 4 4 4 ",
"4 , $ $ # # # o 4 o     +.+.N 7       o     =               .               o         #         ; j ( # o 4 #   # # 4 4 4 4 4 4 ",
": $ , # : # # o   4 O     O 3.q.] B e e e = $ = = # = o k = 8 c # x 4 =           =     = = 4 ( B v ) o   O o # # $ # 4 4 4 4 4 ",
"4 : # # # ; # #   o O ; #   +.} # [ O.0.7.-.] 5.x 9.} D 0.8 7.6.5 #.7.k } 7 k = 7 7 N B B O.e @.N o 4   4 O O 4 $ , 4 4 4 4 4 4 ",
"4 $ = : = ; # # o o O   O   #   $   D v 4.} 7.] v w.%.D $.  5.7.4 _ 8.. _ 7 6.D [ ) } O.l v     + O #   # 4 $   : : 4 4 4 4 4 4 ",
"4 4 4 # # : 4 # o # #   4 #   o     o k $ D ` k D $.-.e e N 8 @.  8 B N 4 D =._ x k = 7     5   O O : = 4   O # : 4 4 4 4 4 4 4 ",
"4 4 # 4 4 4 # # # 4   # +   , O   5     o o   = 8 $ B 8 M _ 8 B . c $ k k 5 $ 4 o o     o   o   o ; O # # # 4 4 $ 4 4 5 4 4 7 4 ",
"4 4 4 4 4 4 4 : # : # # # o + +   o o                                                   o o   o o # # # # # $ , : 4 4 4 4 4 4 4 ",
"; 4 4 4 4 4 4 4 4 ; $ # # # + o o o o O o       . .                                 o o X o o o # o # # : : $ : # 4 4 4 4 4 4 4 ",
"4 4 4 4 4 4 = 4 ; $ ; # # o # + . . . . .   .   . . . . . + . + o           o X . o o o o o o # # ; # 4 4 4 4 ; 4 4 4 4 4 4 4 7 ",
"4 = 4 4 4 : , 4 4 $ 4 $ # # # o . # o + . . . . # + + + . o o o o   o   o o o o o o o o # # # = 4 ; : 4 $ 4 4 ; 4 4 4 4 4 4 4 4 ",
"$ 4 4 4 4 4 = 4 4 $ : ; $ # # # # + # . o + + + + + + + # . + # o o o o o o o o # # # # # $ = = 4 # 4 4 4 4 4 4 4 4 4 4 4 4 4 4 ",
"4 4 4 4 4 4 4 4 4 $ 4 $ : $ $ + # # # # # # # # # + + # # . # . o o o o # # # o # # $ $ = $ = = 4 4 4 4 4 5 5 4 4 4 4 4 4 4 4 4 ",
"4 : 4 4 4 4 : 4 4 4 : 4 : $ : : # # # : # $ # # # # # # # # # # # # # # # # # $ $ $ $ $ = = = = 4 4 4 4 4 4 4 4 4 4 4 7 4 7 7 7 ",
"4 4 4 4 4 4 = 4 : 4 4 : : : : : # # # # # . $ # # # # # # # $ # # # $ $ $ $ $ = # $ $ $ = = , = 4 4 4 4 4 5 4 4 4 4 4 7 7 7 7 7 ",
"4 4 4 4 4 4 4 4 4 4 4 4 , : 4 : $ : # ; $ ; # , # # # # 4 # # # # : ; $ ; $ = : 4 : : : : 4 : : 4 4 4 4 4 4 4 4 7 4 4 7 7 7 7 4 ",
"4 4 4 4 4 4 4 4 4 4 4 ; : : # 4 $ , : $ 4 $ = # # # # # ; # # # 4 $ : $ 4 4 ; $ # : 4 , 4 : 4 4 4 4 4 4 4 4 4 4 4 7 7 4 7 4 7 7 ",
"4 4 4 4 4 4 7 4 4 4 4 4 4 = 4 4 4 # : ; # $ ; # : # # # # 4 : $ # : = , $ 4 : 4 4 4 ; 4 4 4 4 : 7 4 4 4 4 4 7 4 4 7 4 7 7 7 7 4 ",
"4 4 4 4 4 4 4 4 4 7 4 4 4 4 : 4 # 4 4 4 4 ; 4 : : $ # # # = : : # 4 : = 4 ; 4 : # 4 4 4 : 4 4 4 4 4 4 4 4 4 4 4 7 4 7 7 7 7 7 7 ",
"4 4 4 5 4 4 4 4 4 4 4 4 4 4 4 4 4 4 4 : ; 4 : ; 4 $ # # : 4 , $ 4 4 4 = 4 , $ 4 4 4 4 4 4 4 4 4 4 4 4 5 4 5 4 4 4 7 7 7 7 7 7 7 ",
"4 7 4 4 5 4 5 4 4 4 5 4 4 4 4 4 4 4 4 4 4 4 4 , 4 : : $ 4 4 = 4 4 # 4 4 4 4 4 4 4 4 4 4 4 7 4 4 4 7 4 7 4 5 7 4 4 4 7 7 7 7 e w ",
"4 4 4 4 4 4 4 4 4 4 4 4 4 5 4 4 4 4 4 4 4 4 4 4 4 $ : 4 4 4 4 4 4 4 , $ 4 4 4 4 4 4 4 4 4 4 4 7 7 4 7 4 5 4 7 7 7 7 7 7 w 7 7 e ",
"7 4 7 4 4 5 4 5 4 7 5 4 5 4 4 7 5 4 4 4 4 4 4 4 = , 4 4 4 4 4 # 4 4 : 4 4 4 4 4 4 4 4 4 : 7 4 4 4 7 4 7 4 5 4 4 7 4 7 7 e 7 e 7 ",
"7 7 6 7 7 4 4 7 4 5 7 4 4 7 4 4 4 4 4 4 4 4 4 4 4 7 4 4 4 7 7 4 4 : : : 4 = 4 4 7 4 7 7 7 4 4 4 : 7 4 4 7 7 7 4 4 7 7 e 7 7 e e ",
"7 7 7 7 7 7 7 4 4 4 4 4 4 4 4 4 4 4 4 4 4 4 4 7 4 4 4 4 4 4 4 7 4 4 4 4 4 4 4 4 : 7 7 4 7 7 7 : 4 4 7 7 7 4 7 4 7 7 7 7 e 7 6 e ",
"7 7 7 7 7 7 7 7 7 7 4 4 4 4 4 4 4 4 4 4 4 4 4 4 4 4 7 4 4 7 4 4 5 4 4 4 4 5 7 7 : 7 4 7 4 7 7 7 7 4 7 7 4 7 4 7 7 7 7 e e e 7 7 ",
"7 7 7 7 7 7 7 7 7 4 4 7 4 4 4 4 : 4 4 4 4 7 4 4 4 7 4 4 7 4 7 4 4 4 5 4 4 4 5 4 7 : 7 4 7 4 4 7 7 7 4 7 7 7 7 7 7 7 7 e 7 e 7 7 ",
"7 7 7 7 7 7 4 7 7 4 7 4 4 4 4 4 : 4 4 4 4 7 7 4 4 4 7 4 7 4 7 7 4 7 7 4 4 4 4 4 : 4 7 7 7 4 4 7 7 4 7 7 7 4 7 7 7 7 7 7 7 7 7 7 ",
"7 7 7 7 7 7 7 7 7 7 7 4 7 4 4 4 4 4 4 7 7 4 4 4 4 7 4 7 7 4 4 4 4 4 4 4 5 4 4 4 7 4 4 4 4 7 7 7 4 7 7 4 7 7 7 7 7 7 7 7 7 7 7 : ",
"7 7 7 7 7 7 7 7 4 7 4 7 7 4 7 4 4 7 7 4 4 4 7 4 4 4 7 7 4 7 4 7 7 7 7 4 7 4 5 4 4 7 7 4 4 7 7 7 7 4 4 4 7 4 7 7 7 : 7 : 7 7 7 7 ",
"e 7 7 7 7 7 7 7 7 7 7 7 7 7 7 7 4 7 4 4 4 4 4 7 4 4 7 4 7 7 7 4 4 7 4 7 7 5 7 4 7 7 4 7 4 4 4 7 4 7 4 7 4 4 7 6 7 7 7 7 7 7 7 7 "
};
