/* XPM */
static char *_579137365385[] = {
/* columns rows colors chars-per-pixel */
"64 64 234 2 ",
"   c #220B00",
".  c #3C2109",
"X  c #422D00",
"o  c #563A05",
"O  c #51320F",
"+  c #554313",
"@  c #6D4E1F",
"#  c #5D4B22",
"$  c #6B4C25",
"%  c #775728",
"&  c #725637",
"*  c #665531",
"=  c #7C6529",
"-  c #7C653B",
";  c #766346",
":  c #7F6C5B",
">  c #85663A",
",  c #96773B",
"<  c #826848",
"1  c #9A7A4A",
"2  c #8A7757",
"3  c #8E724D",
"4  c #8D7D63",
"5  c #9D865A",
"6  c #A88749",
"7  c #B28B4E",
"8  c #B0934F",
"9  c #AA8D5C",
"0  c #A48759",
"q  c #AD9257",
"w  c #BA9455",
"e  c #B2925B",
"r  c #BC935B",
"t  c #B4995A",
"y  c #B39454",
"u  c #B38B58",
"i  c #928264",
"p  c #998869",
"a  c #9E8E77",
"s  c #A68D64",
"d  c #AE9865",
"f  c #A4936B",
"g  c #AC926A",
"h  c #B39D65",
"j  c #B39B6C",
"k  c #B59668",
"l  c #A59473",
"z  c #AA9973",
"x  c #AA9779",
"c  c #B09D7C",
"v  c #BA9A77",
"b  c #B68D61",
"n  c #BCA266",
"m  c #AFA17D",
"M  c #BBA372",
"N  c #B6A579",
"B  c #C19A5F",
"V  c #C39C65",
"C  c #C6AA6C",
"Z  c #C8B46F",
"A  c #C3AC74",
"S  c #C5AA7B",
"D  c #CDAA7A",
"F  c #C7A576",
"G  c #D2A87B",
"H  c #CBB57D",
"J  c #CCB578",
"K  c #D4BC7B",
"L  c #D5B675",
"P  c #DBC17B",
"I  c #AA9A84",
"U  c #AFA588",
"Y  c #B2A381",
"T  c #B8A788",
"R  c #BFB288",
"E  c #B6A995",
"W  c #BBAC94",
"Q  c #B8AE9C",
"!  c #BDB494",
"~  c #BBB59C",
"^  c #BAADA2",
"/  c #BEB3A6",
"(  c #BDB9B0",
")  c #CCA782",
"_  c #C8AC86",
"`  c #C4B48E",
"'  c #C9B386",
"]  c #D9B786",
"[  c #C4A895",
"{  c #C2B393",
"}  c #CDB595",
"|  c #CBBB9C",
" . c #C8B39B",
".. c #D4BD93",
"X. c #DABD9D",
"o. c #E4BC95",
"O. c #CBBCA3",
"+. c #C6BBAB",
"@. c #CDBEAB",
"#. c #C3B6A6",
"$. c #D8BDA2",
"%. c #C2BDB9",
"&. c #BCC1BD",
"*. c #D5C385",
"=. c #DCC584",
"-. c #DAC48A",
";. c #D7C78C",
":. c #CAC19C",
">. c #DCC393",
",. c #D9C894",
"<. c #D8C29B",
"1. c #D6C999",
"2. c #CFC389",
"3. c #E3CC94",
"4. c #E4CB9C",
"5. c #E5C799",
"6. c #E5D19B",
"7. c #E4C78D",
"8. c #CDC3A4",
"9. c #CDC2AA",
"0. c #C6C0A8",
"q. c #DCCCA5",
"w. c #D9C4A9",
"e. c #D4CBAD",
"r. c #DCCDAD",
"t. c #D7C4A6",
"y. c #C9C4B4",
"u. c #D2C4B4",
"i. c #D3CABB",
"p. c #DDCDBB",
"a. c #D7C9B4",
"s. c #DCD2BC",
"d. c #D8D1B7",
"f. c #D6D3AA",
"g. c #E4CEAA",
"h. c #E6CFA3",
"j. c #E6D2A4",
"k. c #ECD4A3",
"l. c #EBD5AC",
"z. c #E7D8A9",
"x. c #F8D4AA",
"c. c #E3CEB3",
"v. c #E2D5B0",
"b. c #E6DCB2",
"n. c #E4D4BA",
"m. c #EBDEBA",
"M. c #EAD8B6",
"N. c #F5DDB9",
"B. c #EBE1B7",
"V. c #F4E4BF",
"C. c #FBE1BA",
"Z. c #CCCCC6",
"A. c #CCCECC",
"S. c #C7CBCA",
"D. c #D5CDC2",
"F. c #D5D2C5",
"G. c #DED5C3",
"H. c #D5D4CE",
"J. c #DDD5CB",
"K. c #DDD9CE",
"L. c #DED8C0",
"P. c #D4D3D1",
"I. c #DEDCD4",
"U. c #DAD9D6",
"Y. c #E2D4C2",
"T. c #E4DBC3",
"R. c #EADBC4",
"E. c #E3DBCC",
"W. c #EADDCB",
"Q. c #E8D6C0",
"!. c #F4DAC6",
"~. c #E3DDD3",
"^. c #E3DEDB",
"/. c #E9DFD5",
"(. c #FBDFD3",
"). c #EDE2C4",
"_. c #EDE2CD",
"`. c #EFEACC",
"'. c #F3E4C4",
"]. c #FBE6CD",
"[. c #F4EACC",
"{. c #FAEACC",
"}. c #F8E7C6",
"|. c #FDF2CC",
" X c #E5E1D4",
".X c #ECE4D3",
"XX c #E5E4DC",
"oX c #EBE5DA",
"OX c #ECE9DC",
"+X c #EBEBD8",
"@X c #F3E5D3",
"#X c #FCE4D3",
"$X c #F3ECD4",
"%X c #FDECD2",
"&X c #F4ECDD",
"*X c #FCECDB",
"=X c #FEF3D4",
"-X c #FDF3DC",
";X c #FFFBDE",
":X c #F4F1D9",
">X c #E1DFE0",
",X c #E5E4E3",
"<X c #EAE6E1",
"1X c #E4ECE5",
"2X c #ECEAE3",
"3X c #ECECEB",
"4X c #EAE7EC",
"5X c #F4EDE3",
"6X c #FBEEE3",
"7X c #F3EDEA",
"8X c #FBEDE9",
"9X c #F0E6E4",
"0X c #ECF1EC",
"qX c #E9F6E9",
"wX c #F4F2E5",
"eX c #FDF4E4",
"rX c #FFFCE4",
"tX c #F5F3EB",
"yX c #FCF5EB",
"uX c #F5FAED",
"iX c #FEFCEC",
"pX c #EFEDF0",
"aX c #F4EFF1",
"sX c #F1EEFB",
"dX c #EDF4F3",
"fX c #ECF9F2",
"gX c #F7F7F7",
"hX c #FBF6F4",
"jX c #F6FAF4",
"kX c #FDFCF4",
"lX c #F7F6FB",
"zX c #FAF6FB",
"xX c #F6FCFC",
"cX c #FDFDFD",
/* pixels */
"gXgXgXgXxXzXcXcXcXcXcXcXcXcXcXcXcXkXyXiXkXkXcXcXcXsXcXzXhXcXcXcXcXkXxXxXcXcXcXcXcXkXkXyXiXcXzXcXcXcXcXgXcXcXcXcXcXgXgXgXcXgXgXcX",
"gXgXgXcXgXcXcXcXcXcXcXcXcXcXcXcXcXcXkXkXcXkXcXcXcXcXcXcXcXcXcXzXkXkXcXcXcXcXcXcXcXcXkXkXcXcXhX4X4XgXcXcXcXcXcXcXcXcXgXgXgXgXgXgX",
"gXgXgXgXgXgXcXcXcXcXcXcXcXcXcXcXxXcXcXcXcXcXcXcXlXcXgXcXcXcXcXcXcXcXcXcXcXcXcXcXcXzXcXcXcXzXXXA.A.4XcXcXcXcXcXcXcXcXzXgXgXgXgXkX",
"gXgXgXcXgXgXcXcXcXcXcXcXcXcXcXcXcXcXcXcXcXcXcXuXXXtXcXcXcXxXxXcXcXcXcXcXcXcXcXcXcXcXcXcXcXkXXXI.Z.4XcXgXcXcXcXcXcXgXgXgXgXlXzXxX",
"gXgXgXcXgXgXcXcXcXcXcXcXcXcXcXcXcXcXxXcXlXkXiX+X/ y.cXgXcXcXxXxXcXcXcXkXkXkXkXcXcXcXcXcXgXuXqXtXZ.3XcXcXcXcXcXcXcXcXgXgXkXgXgXgX",
"cXgXgXgXcXgXcXcXcXcXcXcXcXcXcXcXcXkXcXcXzXkXrXm.:.! uXjXcXxXxXxXcXcXcXcXkXiXkXcXcXcXcXzXhXwX:XrXH.3XcXcXcXcXcXcXcXzXgXzXxXzXlXkX",
"gXgXgXxXgXgXcXcXcXcXcXcXcXcXcXcXkXkXcXkXiXrX|.<.f.! L.iXcXcXcXcXcXcXcXcXkXkXkXcXcXzXcXkXwX$XT.).XXgXxXcXcXcXcXcXcXgXgXxXcXgXgXxX",
"gXgXgXcXcXzXgXcXcXcXcXcXcXcXcXcXkXiXiXrX=XC.k.k d > p ;XiXcXcXxXcXcXcXcXcXcXcXkXkX6X9X.XY.a.! E kXcXzXcXcXcXcXcXcXcXgXgXgXgXgXgX",
"gXgXzXxXgXgXcXcXcXcXcXcXcXcX4XK.@X'.'.j.A C 1 r b $ F _ r.yXkXhXcXxXxXcXcXcXgXkXyXeXT.8.O.c I $XcXcXcXcXcXcXcXcXcXgXgXcXgXgXgXgX",
"gXgXgXgXcXgXcXcXcXcXcXcXcX3XA.( E - = n y 6 V ] G F F 0 ; O.kXzXkXkXcXcXcXzXaXyX&X=X{ ` Y c =XeXcXcXcXcXcXcXcXcXcXgXgXgXcXgXgXgX",
"gXgXgXcXgXgXcXcXcXcXcXcXcXcXgXoX%X..n 8 6 y L G o.x.G 1 O < (.kX;XiXkXhXzXaX8XyXG.8.m.c Y -X-XyXkXcXcXcXcXcXcXcXcXcXgXgXcXgXgXcX",
"cXgXgXgXcXgXcXcXcXcXcXgXgXcXcXkXe.2.H q n C G 5.o.) 1 % @ $ [ eX;XrXiX:X6XyXyXeXW.! Y { {.rX*XkXcXcXcXcXcXcXcXcXcXgXgXgXgXgXgXgX",
"gXgXgXcXcXgXcXcXcXcXcXcXcXcXcXkX{.l...>.N.h.l.%XX.X.k g D - < g z.z.h.$.c.@X-XyXrX_.I +.yXyXkXyXcXcXcXcXcXcXcXcXcXcXgXkXcXgXgXxX",
"gXgXgXgXzXzXkXcXgXcXcXcXcXcXcXkX;XV.R p.].!.-Xw.T %X} $...p 9 M e 9 9 9 S X.c.n.n.Q i.kXkXyXkXcXcXcXcXcXcXcXcXcXcXgXgXgXgXgXgXzX",
"xXgXgXzXgXxXcXcXcXcXcXgXgXgXcXiXrX_.@.9XkXhXY.I W 6X!.$.R N h q r B 7 7 e e s l : ^ 7XcXcXcXcXxXcXcXcXcXcXcXcXcXcXgXgXzXcXgXgXcX",
"gXgXgXkXgXgXcXcXcXcXcXcXcXcXcXkX-X%X/.#.Y.kX^ E 6XE.Y.I T q.' n h B B 7 7 , - ; u.hXzXsXcXcXdXxXcXcXcXcXcXcXcXcXcXxXgXgXgXgXgXgX",
"gXgXgXgXkXxXcXcXcXcXcXcXcXcXcXiX-X|.{ i i a E #.-X@X#.E s.@Xd.8.N H F B u > : m.iXcXcXzXcXcXcXcXcXcXcXcXcXxXcXcXcXlXzXzXzXgXgXkX",
"xXgXgXkXxXgXcXcXcXcXcXcXcXcXgXwX'.f ` z x 8.{.W a.u.^ / E.OXE.s.f.H o.F e M V.iXkXcXcXcXcXcXcXcXcXcXcXcXjXjXxXcXcXxXzXzXzXkXtXjX",
"zXgXgXzXgXgXcXcXcXcXcXcXcXgX3X5X=X` z Y 4 -X9.E +.+./ +.G.E. X:X`.B.x.] > D ;XrXkXxXcXcXcXcXcXcXcXcXcXcXxXxXxXcXcXzXzXzXgXgXjXgX",
"gXgXgXcXgXzXcXcXcXcXcXcXcXgX3XtX-Xr.8.p n.rXG.p.u.i.i.i.G.E..XeX:XrXN.o.3 ) -XrXcXcXcXcXzXzXcXcXcXcXcXcXcXxXxXcXcXxXzXzXzXgXgXkX",
"gXgXzXxXcXgXcXcXcXcXcXcXxXtXdXyX*X[.9.U  .i./ / i.E./. X.XOXOXwX:X-X}.) D _ =XkXcXxXcXcXkXkXcXcXcXkXkXkXkXxXxXcXcXzXgXzXzXgXgXkX",
"gXgXgXgXgXgXcXcXcXcXcXcXcXgX4XXX5X*XE.y.i.i.oXoX~.oXOXoXOX:XuXeXhX*XN.] D j n.iXcXxXcXcXuXkXcXtXcXkXcXkXxXcXcXcXcXzXzXzXkXgXgXgX",
"zXgXgXcXgXgXcXcXcXcXcXcXcXzXgX,X~.6X5X6XkX5XyXwX5XOXOXOXOX5XuXeX7XeXM.7.C M } kXcXcXcXcXuXkXhXH.&XiXkXkXkXxXcXcXcXxXkXzXgXgXgXxX",
"kXgXgXgXcXgXcXcXcXcXcXcXcXcXcXgX<XU.~.hX2XkXkX5XOXI.oXyXtXwXwXtX7XyXq.M ] H c 6XcXcXcXcXjXcXgX%.@..XkXkXkXcXxXcXcXxXzXzXgXlXgXkX",
"gXgXgXcXxXzXcXcXcXcXcXcXcXcXcXcXgXgXtX7X7X3X2XXXXXOXtX2XwXtXOXwX8XeXf.;.=.Z i m.zX7XcXxXxXcXaX~.I 8.eXkXgXcXcXlXcXcXhXhXzXgXzXgX",
"gXgXgXgXgXcXcXcXcXcXcXcXcXcXcXcXcXcXzXgXtXXXH.Z.F.~.wXOXoXOX X2X5XeXB.;.M t - W yXcXcXcXcXgXcX5XQ %XrXeXcXcXxXxXcXzXgXkXkXzXzXxX",
"xXgXgXcXgXgXcXcXcXcXcXcXcXcXcXcXcXcXcXcXcXcXjXtXi.K.OX XK. X/.&X8XiX|.z.*.*.h ' iXhXlXlXcXcX8X@X* i p.yXcXgXcXcXcXxXgXhXgXgXlXzX",
"gXgXgXgXgXgXcXcXcXcXcXcXcXcXcXcXcXcXcXcXcXcXkXkXI.I.XXK.J. XXXwX6X&X`.b.2.*.n 9 ].hXcXzXlXcXiX%Xz v n.iXcXxXcXcXcXgXhXhXkXlXzXxX",
"gXgXgXgXkXxXcXcXcXcXcXcXcXcXcXcXcXcXcXcXkXkXkXiXtXI.I.K.K.+X&X9XyX&X:X`.1.;.Z 9 g iXzXcXzXkXrX> j l.;XeXcXcXcXcXcXgXkXgXgXzXlXzX",
"zXgXgXcXgXzXcXcXcXcXcXcXcXcXcXcXcXcXcXcXcXcXkXkXuXF.F.I.~..X X/.oXXXwX-XB.;.L Z S eXzXzXcXkXN.% o g }.yXhXzXcXcXcXgXgXtXkXhXlXlX",
"kXgXgXgXgXgXcXcXcXcXcXcXcXcXcXcXcXcXcXcXkXuXuXuXrXi.F. XE.E.~.oXhXhXhXyX[.6.P L 0 c.zXcXcXW.1 t V ' {.iXcXcXcXxXcXgXhXkXgXzXlXzX",
"xXzXgXgXcXgXcXcXcXcXcXcXcXcXcXcXcXcXcXcXkXcXkXkXiXd.L.+XE.K. X7XaXaXXX.X}.k.P L 9 !.zXzXhXI o 8 -.|.;XeXcXcXcXcXcXcXkXgXgXlXzXxX",
"gXgXzXxXgXgXcXcXcXcXcXcXcXcXcXcXcXcXcXcXcXkXkXkXeXF.F.Y.E.I.~.1X4X^.OX=XB.3.] h & (.8XaXI & , > N :XiXwXcXcXgXcXcXkXgXkXxXzXlXxX",
"gXgXgXgXcXgXcXcXcXcXcXcXcXcXcXcXcXcXcXcXcXcXkXkX:XT.s.G.K.~.I.XX>X^.[.}.6.-.H g < !.8X[ O % w H s.kXkXuXkXkXkXcXcXgXgXgXxXzXzXzX",
"gXgXgXcXgXgXcXcXcXcXcXcXcXcXcXcXcXcXcXcXcXcXkXkX6XE.R.T.T. X~.I.^.~.$X}.h.5.-._ v *X#.. 4 1 1 l.rXkXkXkXkXcXkXkXcXkXgXgXcXgXlXgX",
"cXgXgXgXcXgXcXcXcXcXcXcXcXcXcXcXcXcXcXcXcXcXkXkX-XW.W._.E..XI./.^..X[.'.k.k.k.5...T . & < v !.#XiXuXjXkXcXcXcXcXkXgXgXgXxXgXxXgX",
"gXgXgXcXcXgXcXcXcXcXcXcXcXcXcXcXcXcXcXcXcXcXcXkXyXT.W.@X@XW.~.oX$X[.'.M.h.h.5.>.n   # 2 T r.%XiXkXkXkXcXkXcXcXkXcXxXgXgXzXzXlXgX",
"gXgXgXgXzXzXkXcXcXcXcXcXcXcXcXcXcXcXcXcXcXcXcXkXiXQ.Q.].@XE.E.+X:X[.m.g.4.5.7.-.' X * l a.-XiXiXkXcXcXcXkXcXcXkXcXkXgXgXxXzXxXgX",
"xXgXgXzXgXxXcXcXcXcXcXcXcXcXcXcXcXcXcXcXcXcXcXkXeXp.p.R._..XE.$X$X).v.h.k.7.7.5.A + Y O.iXkXkXhXkXkXkXkXkXcXcXcXcXgXgXcXgXgXzXgX",
"gXgXgXkXgXgXcXcXcXcXcXcXcXcXcXcXcXcXcXcXcXcXcXkX&Xp.a.p.R.@X/.+X+XB.g.6.6.=.=.3.H # { -XiXhXcXcXcXcXkXcXcXcXgXcXcXkXgXgXgXgXzXcX",
"gXgXgXgXkXxXcXcXcXcXcXcXcXcXcXcXcXcXcXcXcXcXcXkXeX@.@.Y.W.E..X&X&Xs.v.z.P C Z J d R ;XkXkXcXcXcXcXcXcXcXcXcXcXcXcXgXgXcXgXgXgXgX",
"xXgXgXkXxXgXcXcXcXcXcXcXcXcXcXcXcXcXcXcXcXcXcXcXkXD.Y.#X@XoX XOX5XG.r.,.Z P P Z 5 f.rXkXzXcXcXcXcXcXcXcXcXcXcXcXcXzXgXgXcXgXgXgX",
"zXgXgXzXgXgXcXcXcXcXcXcXcXcXcXcXcXcXcXcXcXcXcXcXkXE.W.eXeX&XXXOX2X X).z.=.=.K h f %XkXzXcXcXcXcXcXcXcXcXcXcXcXcXcXcXgXgXcXgXgXcX",
"gXgXgXcXgXzXcXcXcXcXcXcXcXcXcXcXcXcXcXcXcXcXcXcXhX~.oXyXyXyXXX1X,XtXrX|.k.,.K j T '.iXhXcXcXcXgXcXcXcXcXcXcXcXcXcXgXgXgXgXgXgXgX",
"gXgXzXxXcXgXcXcXcXcXcXcXcXcXcXcXcXcXcXcXcXcXcXcXzXoX9XyXyXtX0XqX1XwXuX=XV.k.<._ c T yXyXcXcXcXcXcXcXcXcXcXcXcXcXcXcXgXgXcXgXgXxX",
"gXgXgXgXgXgXcXcXcXcXcXcXcXcXcXcXcXcXcXcXcXcXcXcXcX2XyXyXtXjXdXdX1X1X+X-X-X{.g.} c 4 ;XkXcXgXcXcXcXcXcXcXcXcXcXcXcXgXgXcXgXgXgXzX",
"zXgXgXcXgXgXcXcXcXcXcXcXcXcXcXcXcXcXcXcXcXcXcXcXcX7XhXkXjXgXdX0XqXqX+XwXiXeX!.w.} p [.iXcXgXcXcXcXcXcXcXcXcXcXcXcXgXgXgXcXgXgXcX",
"kXgXgXgXcXgXcXcXcXcXcXcXcXcXcXcXcXcXcXcXcXcXcXcXcX2XtXyX0XjXdX1XfXuX1XXXyXyX6X].n.Y r.rXkXcXcXcXcXcXcXcXcXcXcXcXcXzXgXgXgXgXgXgX",
"gXgXgXcXxXzXcXcXcXcXcXcXcXcXcXcXcXcXcXcXcXcXcXcXcXhX5XeXyXwXkXU.xXfXcXS.,XkXyX*X;X:.T rXuXcXlXcXcXcXcXcXcXcXcXcXcXgXgXgXcXgXgXcX",
"gXgXgXgXgXcXcXcXcXcXcXcXcXcXcXcXcXcXcXcXcXcXcXcXcX9X.X@X:X:X^.gXcXxXxXdXA.2XeX[.V.B.v.).iXcXcXxXcXcXcXcXcXcXcXcXcXcXgXgXgXgXgXgX",
"xXgXgXcXgXgXcXcXcXcXcXcXcXcXcXcXcXcXcXcXxXcXcXcXcXoXG.T.=XE.K.cXcXjXcXcX,XJ.~.].b.<.z R iXkXlXxXcXcXcXcXcXcXcXcXcXcXzXgXcXgXgXcX",
"gXgXgXgXgXgXcXcXcXcXcXcXcXcXcXcXcXcXcXkXkXcXcXcXzXeX9.r.d.+.$XcXcX0XcXgXcXoXE '.g.1.T f W.kXcXcXcXcXcXcXcXcXcXcXcXgXgXgXgXgXgXgX",
"gXgXgXgXkXxXcXcXcXcXcXcXcXcXcXcXcXcXcXkXkXcXcXcXcXrX0.:.T ~ kXiXcXcXkXcXyXkXI W t.<.h.p I 6XcXzXcXcXcXcXcXcXcXcXcXcXgXxXgXgXgXgX",
"zXgXgXcXgXzXcXcXcXcXcXcXcXcXcXcXcXcXkXkXkXcXcXcXcX&X).:.U f.iXiXkXcXkXkXyXkXT.x } <.l.} 2 eXyXcXcXcXcXcXcXcXcXcXcXgXgXgXcXgXgXcX",
"kXgXgXgXgXgXcXcXcXcXcXcXcXcXcXcXcXcXkXkXkXkXcXcXkXeXR.e.! d.uXiXkXcXcXgXcXeXiX@.x $.M.c.; /.iXzXcXcXcXcXcXcXcXcXcXgXgXlXgXgXgXgX",
"xXzXgXgXcXgXcXcXcXcXcXcXcXcXcXcXcXcXcXcXkXcXcXcXhXkX8.O.! ~ kXkXcXcXkXcXcXkXiXiX%XO.c.Q.a.D.kXhXcXcXcXcXcXcXcXcXcXcXgXkXgXgXlXcX",
"gXgXzXxXgXgXcXcXcXcXcXcXcXcXcXcXcXcXcXcXcXcXcXcXcXkX@X$X0.Q kXzXcXcXxXcXcXcXkXkXiX*XY.*XoX%.<XcXcXcXcXcXcXcXcXcXcXgXgXgXcXgXgXgX",
"gXgXgXgXcXgXcXcXcXcXcXcXcXcXcXcXcXcXcXcXcXcXcXcXcXyXyXeXT.E.cXcXcXcXcXcXxXcXcXcXyXkX6XyXkXOXXXkXcXcXcXcXcXcXcXcXcXxXgXgXgXgXgXcX",
"gXgXgXcXgXgXcXcXcXcXcXcXcXcXcXcXcXcXcXcXcXcXcXcXcXhXkXeX XOXcXcXcXcXcXxXxXcXcXcXzXcXcX8XhXhX2X0XcXcXcXcXcXcXcXcXcXzXgXcXgXgXgXgX",
"cXgXgXgXcXgXcXcXcXcXcXcXcXcXcXcXcXcXcXcXcXcXcXcXzXcX5X&XF.A.cXlXcXcXcXcXxXxXcXcXcXgXcXzX^.3X3XA.gXcXcXcXcXcXcXcXcXgXgXgXcXgXgXcX",
"gXgXgXcXcXgXcXcXcXcXcXcXcXcXcXcXcXcXcXcXcXcXcXcXzXcX<X~.Z.H.cXcXcXcXcXcXcXcXxXcXcXcXzXcX3X,X0X&.kXcXcXcXcXcXcXcXcXgXgXgXgXgXgXcX",
"gXgXgXgXzXzXkXcXcXcXcXcXcXcXcXcXcXcXcXkXxXcXcXcXcXaXtX/.I.kXcXcXcXcXcXcXcXxXcXcXxXcXzXcXcXgXkXqXcXcXcXcXcXcXcXcXcXcXgXzXgXgXgXgX",
"xXgXgXzXgXxXcXcXcXcXcXcXcXcXcXcXcXcXkXjXjXcXcXcXcX7XkX5XtXcXlXcXcXcXcXcXcXcXcXcXzXcXzXcXcXcXcXcXcXcXcXcXcXcXcXcXcXgXgXxXcXgXgXcX",
"gXgXgXkXgXgXcXcXcXcXcXcXcXcXcXcXcXkXkXkXkXxXcXcXxXcXkXkXkXgXcXzXcXcXkXcXkXxXcXcXcXzXcXcXgXzXgXjXcXcXcXcXcXcXcXcXcXcXgXgXgXgXgXgX"
};
