/* XPM */
static char *_579136565038[] = {
/* columns rows colors chars-per-pixel */
"64 64 242 2 ",
"   c #010101",
".  c #0B0101",
"X  c #020A01",
"o  c #0B0A06",
"O  c #020209",
"+  c #0D0D0A",
"@  c #0C020D",
"#  c #130101",
"$  c #1B0101",
"%  c #130B05",
"&  c #1D0C00",
"*  c #120708",
"=  c #15090A",
"-  c #1B0D0D",
";  c #1F0508",
":  c #0E130D",
">  c #1A1514",
",  c #110B12",
"<  c #240201",
"1  c #2B0201",
"2  c #2B0B02",
"3  c #2B090B",
"4  c #330201",
"5  c #3B0001",
"6  c #340B02",
"7  c #3B0B04",
"8  c #310609",
"9  c #350B0C",
"0  c #3E0C0C",
"q  c #2B120A",
"w  c #3A140E",
"e  c #250814",
"r  c #221214",
"t  c #2A1414",
"y  c #3E1211",
"u  c #3C0D13",
"i  c #332727",
"p  c #2F2E2B",
"a  c #430301",
"s  c #4B0201",
"d  c #430C02",
"f  c #4B0901",
"g  c #46050C",
"h  c #530200",
"j  c #550B04",
"k  c #540908",
"l  c #5C0A04",
"z  c #431302",
"x  c #4E190C",
"c  c #4A140A",
"v  c #5C1401",
"b  c #53120C",
"n  c #591805",
"m  c #470A11",
"M  c #540A12",
"N  c #4A1312",
"B  c #4C1817",
"V  c #5C1A16",
"C  c #630301",
"Z  c #6C0200",
"A  c #620E0B",
"S  c #670B05",
"D  c #730200",
"F  c #7A0100",
"G  c #780C01",
"H  c #641204",
"J  c #65110D",
"K  c #6C1501",
"L  c #791306",
"P  c #6D1C1B",
"I  c #671A14",
"U  c #751715",
"Y  c #4A2418",
"T  c #5A2118",
"R  c #7A2209",
"E  c #6A261A",
"W  c #782717",
"Q  c #7D371B",
"!  c #6C2A0D",
"~  c #402D2F",
"^  c #4F2C2F",
"/  c #682721",
"(  c #772622",
")  c #793024",
"_  c #7A373A",
"`  c #6C332F",
"'  c #7E4220",
"]  c #4F4745",
"[  c #5D4F4F",
"{  c #585753",
"}  c #645457",
"|  c #736969",
" . c #7B716F",
".. c #7D7878",
"X. c #6F6969",
"o. c #830C00",
"O. c #831401",
"+. c #8C1302",
"@. c #891C06",
"#. c #961803",
"$. c #871B18",
"%. c #960900",
"&. c #A61807",
"*. c #832000",
"=. c #97230A",
"-. c #8A3605",
";. c #872613",
":. c #992916",
">. c #893618",
",. c #953B1B",
"<. c #963F09",
"1. c #A52705",
"2. c #AA3407",
"3. c #B33100",
"4. c #AB2617",
"5. c #A03C1C",
"6. c #AA3819",
"7. c #BB3516",
"8. c #8B2C2A",
"9. c #952A24",
"0. c #873729",
"q. c #983928",
"w. c #802E34",
"e. c #A93B27",
"r. c #B33A27",
"t. c #A73A35",
"y. c #C63816",
"u. c #CD3621",
"i. c #9C4A10",
"p. c #AD440C",
"a. c #BA4E18",
"s. c #BC581A",
"d. c #864429",
"f. c #99482A",
"g. c #964235",
"h. c #904A30",
"j. c #945236",
"k. c #A74F28",
"l. c #B74827",
"z. c #AE512F",
"x. c #A4433E",
"c. c #AA4A32",
"v. c #BE4B30",
"b. c #B44334",
"n. c #A95639",
"m. c #B9573A",
"M. c #B65824",
"N. c #BD6122",
"B. c #BF722E",
"V. c #BE673B",
"C. c #C54714",
"Z. c #C25618",
"A. c #C8492A",
"S. c #C65836",
"D. c #D35A3C",
"F. c #D65734",
"G. c #C94E2C",
"H. c #CA6428",
"J. c #C96832",
"K. c #D96736",
"L. c #D47438",
"P. c #E86234",
"I. c #E77A3A",
"U. c #E3662C",
"Y. c #9F4F50",
"T. c #9A5256",
"R. c #A74E47",
"E. c #B74B45",
"W. c #A65546",
"Q. c #BA5A47",
"!. c #B95A53",
"~. c #AB5D53",
"^. c #9D6044",
"/. c #BC6849",
"(. c #BB6553",
"). c #BC7450",
"_. c #837E7C",
"`. c #CB5945",
"'. c #D0594B",
"]. c #C86D48",
"[. c #D86546",
"{. c #C9794C",
"}. c #D47444",
"|. c #C36A58",
" X c #D46655",
".X c #CA7757",
"XX c #D77757",
"oX c #E66C48",
"OX c #FF7F4B",
"+X c #E47857",
"@X c #F46F46",
"#X c #C96C69",
"$X c #D87768",
"%X c #FF7D63",
"&X c #EC7F6A",
"*X c #C18A54",
"=X c #D5855B",
"-X c #DC9A5A",
";X c #CF8D52",
":X c #E28452",
">X c #E38A5B",
",X c #EB8A54",
"<X c #C78B68",
"1X c #DD8B6A",
"2X c #D78968",
"3X c #DE9A74",
"4X c #D39C6B",
"5X c #E98664",
"6X c #F28269",
"7X c #FC8869",
"8X c #ED986B",
"9X c #FB9166",
"0X c #E28D70",
"qX c #F58B76",
"wX c #E79A76",
"eX c #F8967B",
"rX c #DBA37A",
"tX c #DEA26C",
"yX c #E3A171",
"uX c #EEA477",
"iX c #F8A17B",
"pX c #E9A069",
"aX c #938585",
"sX c #AEA8A7",
"dX c #BAB4B4",
"fX c #E49F82",
"gX c #DCB083",
"hX c #E8A585",
"jX c #F7A683",
"kX c #EAB28F",
"lX c #C7BBBC",
"zX c #C7C4BF",
"xX c #D3CFCB",
"cX c #EADBDD",
"vX c #EEE8E7",
"bX c #F4EDEB",
"nX c #FAECEC",
"mX c #F1E7E6",
"MX c #F3F1ED",
"NX c #FEF4F4",
"BX c #FFFCFB",
"VX c #FCF8F6",
/* pixels */
"                                                                                                                                ",
"                                                                                                                                ",
"                                                                                                                                ",
"                                                                                                                                ",
"                                                                                                                                ",
"                                                                                                                                ",
"                                                                                                                                ",
"                                                                                                                                ",
"                                                                                                                                ",
"                                                                                                                                ",
"                                                                                                                                ",
"                                                                                                                                ",
"                                                                                                                                ",
"                                      O                                     O X X                                               ",
"                                X     X o   O                         X O X . O O o . O   X                                     ",
"                                . . . . O . X . O                       . . . X . o o X .                                       ",
". . .   .                     . . - . * = . r * * . .             .   . . . * - *   %     X :           X   X                   ",
"  . . .         X     X   X . # . . - t ~ e . r * * @               o . . - r # ~ aX .p +     :                                 ",
"                  X         . . - . aXcXNXlX} . = * . O X X       X .   . # r  .nXNXBXvX{   :                                   ",
"            X   O X       . . . . X.NXnXnXBXcXi = = . .             .   - . t nXBXNXMXBXxX>   X                     .           ",
"  X X               O     . @ . . xXBXvXBXNXBX| = o . .         .   * # . * [ NXBXNXmXBXVXp X                 O           .     ",
"  O       X     O     O O   O O > zXbXMXBXbXBX..* . O           X     . * . ] nXmXBXNXMXbXp   >       O   O   .   .         .   ",
"O X O X           .   O O   O O   _.BXBXbXBXvXp o     .           :     >   - sXBXbXBXBX..O o     O     O O O                   ",
"O             O . . . . O   X O + > sXMXBXVX| @ . .               %     . . @ . _.lXdXX.  X = X O   O           O               ",
"    .     . . # . $ $ .   X X X +   - ] { p X X                         . .   . @ o . . . X       X O     .           X   X     ",
"@ O @     # ; $ < $ $ . .   X   X       . o .   .         . .             . X . o . . o . O     X X     O . . O       X X       ",
". @ . . . ; q w 4 1 < < $     X   = %     . +   .                         O   . . . . . O   .         . # . . . X X             ",
". . . . . ; w B a a a 4 < . X X   . * % *       X           .                           .       X     . $ $ $ . .   X X X X   X ",
"O O   . # < N B V A h a 4 2 &   $ . . # . .   .                                             X . X o # $ $ < 1 ; #   X   X X O   ",
"  O   X . $ 7 b P 8.8.S a 4 2 & & $ . . . . o . . .       . .                       .   . . . . . # $ $ 1 0 u 3 # X   X   O O O ",
"  O       $ 4 j U t.E.t.W v 7 q $ $ $ . . . .   X                 X                     . @ . . . ; < < M ` ^ 8 $ .         . . ",
"    X     . 1 f U $.t.'.|.W.! z 0 8 8 8 1 < < < $ # # . . . .   . O O .   .   . # . $ . # $ $ ; < 6 d b _ Y._ 8 $ .       O O . ",
"O .   X     $ 4 P U Z `.$X2X<X' 0.P h h h A k k k 5 4 $ ; # # . @ e e . # $ $ $ < 4 1 N 5 m m 5 a j Q g.#XY.V u $     X X       ",
".   X   X   # < M U 8.$.q.eX3X).|.Q.!.U S C $.U S A j f 7 4 < 9 3 3 < 3 9 3 6 4 a a h A A J b 8.;.f.0X$X!.( 0 < # . X X       X ",
".     X     . $ 4 ( 8.x.q./.3XhX3X2X0XwX`.:.O.O.G 9.L C h l a f f f d x d 5 k k h S W Z ;.n.Q.]..XQ.(.q.E b N < # .             ",
".           . $ < g j R.g.W h.n.j.2XiXiXXX5XG.F =.[.r.o.@.c.q.L v Q d.0.v f 0.0.S $.e.G S.XX>XV.c.0.q.E E T w $ .     X         ",
"          . . # < $ g V E 0.h v v f.pX8XeX9X[.#.A.%X'.1.`.5X&Xm.R (.2X*Xf.>.V.].,.l.l.l.+XM.m.@.Z q.(.h.` w # . .               ",
"            . . $ $ 1 7 N ) P 0.! K d.].5XD.v.l.+X%X'.A.qXqXeX.X>.wXhXwX;X/.,X=XJ.[.S.l.l.G e.Z 9.R.~./ Y - . %   .   .         ",
"        . . .     # . 2 4 5 P R.>.0.K L $.e.:.r.7XeXXX$XwXwXgX<Xd.hXhXwX8X{.-X,XJ.K.S.r.o.Z t.$.x.8.( 7 q & X     . .   X   X   ",
"      . . # . . o   o . < B 5 _ ( x.!.E.'.=.+.6. X6XXX0X<XfXkX<X^.kXrX3XyX{.=X9Xl.1.A.S.#.Z 9.9.8.l V < o   X X     . . .       ",
"X     . . . .     X   X $ < g M P U #XE.qXb.:.F =.m.z.8X2XrXgX4X*XwXtXyXuX}.5.l.+.F &.4.4.r.'.:.C s 1 $   X X X     . . . .     ",
"X       . .     X   X   . $ 1 g s h 8.!. Xb.o.C C @.*.=XpXtX;X*X*X-X-XpXpXk.D +.#.F &.#.&.G.'.t.h 4 < #   X           .         ",
"      . . . .     X X     . $ 1 a f H (.E.S.#.Z F 1.+.G.}.M.i.i.i.B.;XL.J.a.3.A.A.&.u.&.%.4.=.G 4 < $     X   X                 ",
"      X   .         X     . # $ 4 4 a Q q.5.6.D 1.P.3.Z.K.a.2.H.-.J.:XN.Z.Z.C.,XP.y.u.7.#.+.F a < # # .                         ",
"  O     . .         X         . $ $ 1 7 v R 6.o.7.@XC.P.,XK.K.9XJ.{.:XL.:XZ.3.I.U.y.2.v.9.S l 4 #   O   .         X X       O   ",
"                                  # $ 6 5 W ,.=.D.F.1.P.9XG.S.9X].XX8XJ.L.L.p.L.K.Z.@.f.W 5 4 $       O   . .                 . ",
"O                           X     O . < < b H W m.:.O.[.+X5.z.=X,.{.1Xd.-.k.>.c.f.;.s T 6 $ #   O   O   . . .                 . ",
"              . .         X X O , O @ # $ 4 5 I W H S W.n.l W h.n h.^.n c E a T / N 1 3 # %   X X X   O O . . O   X X   X     . ",
"                                O O O . $ $ < 1 7 d c x x c z z 6 B Y 6 < 2 3 < $ & $ $ .                                       ",
"                                O     . . . * $ $ $ ; 2 2 1 1 2 ; q t & # # # # . . O O O   O O                                 ",
"                                  O       . . # # . . $ $ $ $ $ # # $ . . . . . .       O   O                                   ",
"                                    O           . . . . . # # $ # . . # . . . . .   O   O   O                                   ",
"                                X                       . . .   . .   . .   .         O O                                       ",
"                                  X X   X                       . X .   .       .         O O                                   ",
"                                X                     X   X       . X                 O     O   O                               ",
"                                                    X       X       X       X                                                   ",
"                                                    O       O                       O         O                                 ",
"                                    .           O O   O O O   O   X                       O                                     ",
"                                  . .   .   . .           O                     O                                               ",
"                                .   . . .                           X       X         O     O                                   ",
"                                . .   .   .                       O O   O                                                       ",
"                                                                      O   O     O                                               ",
"                                                                  O         O             O                                     ",
"                                                                O   O   O O   O     O                                           "
};
