/* XPM */
static char *a3bbd29375fe4713ac8baa87cbbf285b[] = {
/* columns rows colors chars-per-pixel */
"64 64 256 2 ",
"   c black",
".  c #010101",
"X  c #020202",
"o  c gray1",
"O  c #040404",
"+  c gray2",
"@  c #060606",
"#  c #070707",
"$  c gray3",
"%  c #090909",
"&  c gray4",
"*  c #0B0B0B",
"=  c #0C0C0C",
"-  c gray5",
";  c #0E0E0E",
":  c gray6",
">  c #101010",
",  c #111111",
"<  c gray7",
"1  c #131313",
"2  c gray8",
"3  c #151515",
"4  c #161616",
"5  c gray9",
"6  c #181818",
"7  c #191919",
"8  c gray10",
"9  c #1B1B1B",
"0  c gray11",
"q  c #1D1D1D",
"w  c #1E1E1E",
"e  c gray12",
"r  c #202020",
"t  c gray13",
"y  c #222222",
"u  c #232323",
"i  c gray14",
"p  c #252525",
"a  c gray15",
"s  c #272727",
"d  c #282828",
"f  c gray16",
"g  c #2A2A2A",
"h  c gray17",
"j  c #2C2C2C",
"k  c #2D2D2D",
"l  c gray18",
"z  c #2F2F2F",
"x  c gray19",
"c  c #313131",
"v  c #323232",
"b  c gray20",
"n  c #343434",
"m  c #353535",
"M  c gray21",
"N  c #373737",
"B  c gray22",
"V  c #393939",
"C  c #3A3A3A",
"Z  c gray23",
"A  c #3C3C3C",
"S  c gray24",
"D  c #3E3E3E",
"F  c #3F3F3F",
"G  c gray25",
"H  c #414141",
"J  c gray26",
"K  c #434343",
"L  c #444444",
"P  c gray27",
"I  c #464646",
"U  c gray28",
"Y  c #484848",
"T  c #494949",
"R  c gray29",
"E  c #4B4B4B",
"W  c #4C4C4C",
"Q  c gray30",
"!  c #4E4E4E",
"~  c gray31",
"^  c #505050",
"/  c #515151",
"(  c gray32",
")  c #535353",
"_  c gray33",
"`  c #555555",
"'  c #565656",
"]  c gray34",
"[  c #585858",
"{  c gray35",
"}  c #5A5A5A",
"|  c #5B5B5B",
" . c gray36",
".. c #5D5D5D",
"X. c gray37",
"o. c #5F5F5F",
"O. c #606060",
"+. c gray38",
"@. c #626262",
"#. c gray39",
"$. c #646464",
"%. c #656565",
"&. c gray40",
"*. c #676767",
"=. c #686868",
"-. c DimGray",
";. c #6A6A6A",
":. c gray42",
">. c #6C6C6C",
",. c #6D6D6D",
"<. c gray43",
"1. c #6F6F6F",
"2. c gray44",
"3. c #717171",
"4. c #727272",
"5. c gray45",
"6. c #747474",
"7. c gray46",
"8. c #767676",
"9. c #777777",
"0. c gray47",
"q. c #797979",
"w. c gray48",
"e. c #7B7B7B",
"r. c #7C7C7C",
"t. c gray49",
"y. c #7E7E7E",
"u. c gray50",
"i. c #808080",
"p. c #818181",
"a. c gray51",
"s. c #838383",
"d. c #848484",
"f. c gray52",
"g. c #868686",
"h. c gray53",
"j. c #888888",
"k. c #898989",
"l. c gray54",
"z. c #8B8B8B",
"x. c gray55",
"c. c #8D8D8D",
"v. c #8E8E8E",
"b. c gray56",
"n. c #909090",
"m. c gray57",
"M. c #929292",
"N. c #939393",
"B. c gray58",
"V. c #959595",
"C. c gray59",
"Z. c #979797",
"A. c #989898",
"S. c gray60",
"D. c #9A9A9A",
"F. c #9B9B9B",
"G. c gray61",
"H. c #9D9D9D",
"J. c gray62",
"K. c #9F9F9F",
"L. c #A0A0A0",
"P. c gray63",
"I. c #A2A2A2",
"U. c gray64",
"Y. c #A4A4A4",
"T. c #A5A5A5",
"R. c gray65",
"E. c #A7A7A7",
"W. c gray66",
"Q. c #A9A9A9",
"!. c #AAAAAA",
"~. c gray67",
"^. c #ACACAC",
"/. c gray68",
"(. c #AEAEAE",
"). c #AFAFAF",
"_. c gray69",
"`. c #B1B1B1",
"'. c #B2B2B2",
"]. c gray70",
"[. c #B4B4B4",
"{. c gray71",
"}. c #B6B6B6",
"|. c #B7B7B7",
" X c gray72",
".X c #B9B9B9",
"XX c gray73",
"oX c #BBBBBB",
"OX c #BCBCBC",
"+X c gray74",
"@X c gray",
"#X c gray75",
"$X c #C0C0C0",
"%X c #C1C1C1",
"&X c gray76",
"*X c #C3C3C3",
"=X c gray77",
"-X c #C5C5C5",
";X c #C6C6C6",
":X c gray78",
">X c #C8C8C8",
",X c gray79",
"<X c #CACACA",
"1X c #CBCBCB",
"2X c gray80",
"3X c #CDCDCD",
"4X c #CECECE",
"5X c gray81",
"6X c #D0D0D0",
"7X c gray82",
"8X c #D2D2D2",
"9X c LightGray",
"0X c gray83",
"qX c #D5D5D5",
"wX c gray84",
"eX c #D7D7D7",
"rX c #D8D8D8",
"tX c gray85",
"yX c #DADADA",
"uX c gray86",
"iX c gainsboro",
"pX c #DDDDDD",
"aX c gray87",
"sX c #DFDFDF",
"dX c gray88",
"fX c #E1E1E1",
"gX c #E2E2E2",
"hX c gray89",
"jX c #E4E4E4",
"kX c gray90",
"lX c #E6E6E6",
"zX c #E7E7E7",
"xX c gray91",
"cX c #E9E9E9",
"vX c #EAEAEA",
"bX c gray92",
"nX c #ECECEC",
"mX c gray93",
"MX c #EEEEEE",
"NX c #EFEFEF",
"BX c gray94",
"VX c #F1F1F1",
"CX c gray95",
"ZX c #F3F3F3",
"AX c #F4F4F4",
"SX c gray96",
"DX c #F6F6F6",
"FX c gray97",
"GX c #F8F8F8",
"HX c #F9F9F9",
"JX c gray98",
"KX c #FBFBFB",
"LX c gray99",
"PX c #FDFDFD",
"IX c #FEFEFE",
"UX c white",
/* pixels */
"UXUXUXUXUXUXUXUXUXUXUXUXUXUXUXUXKXUXUXUXPXUXUXUXUXUXLXLXUXUXUXJXIXIXIXUXUXUXPXFXPXUXUXPXKXUXUXUXUXUXUXUXUXUXUXUXUXUXUXUXUXUXUXUX",
"UXUXUXUXUXUXUXUXUXUXUXUXUXUXUXUXUXJXSXKXUXUXUXUXFXUXUXUXUXLXUXUXUXUXUXPXGXJXUXUXIXKXPXUXUXLXKXUXUXUXUXUXUXUXUXUXUXUXUXUXUXUXUXUX",
"UXUXUXUXUXUXUXUXUXUXUXUXUXUXUXUXJXUXUXIXFXJXUXUXUXUXUXPXLXLXPXIXUXUXLXIXUXUXHXZXUXUXIXKXLXUXUXUXUXUXUXUXUXUXUXUXUXUXUXUXUXUXUXUX",
"UXUXUXUXUXUXUXUXUXUXUXUXUXUXUXUXPXUXUXUXUXUXUXJXUXUXKXIXUXUXLXHXGXJXLXPXJXJXUXUXUXUXUXUXIXLXPXUXUXUXUXUXUXUXUXUXUXUXUXUXUXUXUXUX",
"UXUXUXUXUXUXUXUXUXUXUXUXUXUXUXUXUXJXHXUXPXSXDXUXAXGXIXUXUXKXUXUXUXLXHXUXUXUXIXJXGXBXAXUXUXFXGXUXUXUXUXUXUXUXUXUXUXUXUXUXUXUXUXUX",
"UXUXUXUXUXUXUXUXUXUXUXUXUXUXUXUXPXUXUXHXKXUXUXKXUXmX*XF.9.[ U K K Y ..a.~.5XmXUXJXUXUXIXHXUXUXUXUXUXUXUXUXUXUXUXUXUXUXUXUXUXUXUX",
"UXUXUXUXUXUXUXUXUXUXUXUXUXUXUXUXUXUXGXDXUXUXqXG.K y X     X X X   X %       l +. XfXPXHXKXUXUXAXUXUXUXUXUXUXUXUXUXUXUXUXUXUXUXUX",
"UXUXUXUXUXUXUXUXUXUXUXUXUXUXUXUXUXDXUXUX4XO.3 + +     O & + . . #     + # .       s p.sXUXKXDXUXUXUXUXUXUXUXUXUXUXUXUXUXUXUXUXUX",
"UXUXUXUXUXUXUXUXUXJXZXUXFXUXFXLXIXUX8X...   # . . . . . . . . .         . . X X * O   2 r.lXUXHXJXUXUXJXUXUXBXUXUXUXUXUXUXUXUXUX",
"UXUXUXUXUXUXUXUXHXUXUXUXUXVXUXUXFXd.8   . + X                           . . . X   X @   O v H.UXIXLXHXGXUXUXUXDXUXUXUXUXUXUXUXUX",
"UXUXUXUXUXUXUXUXUXUXFXAXUXJXUXiXP *     $ o . O                         . . . . @     #     5 X.LXUXAXIXIXZXUXUXUXUXUXUXUXUXUXUX",
"UXUXUXUXUXUXUXUXLXUXDXUXUXZX4X8     * &     .                           . . . . X     + &     + D CXFXUXUXLXUXLXUXUXUXUXUXUXUXUX",
"UXUXUXUXUXUXUXUXUXGXUXUXGX+XX   - O X       o                   . . . .           + o     X @ *   w bXLXFXUXUXPXUXUXUXUXUXUXUXUX",
"UXUXUXUXUXUXUXUXUXSXFXLX%X.   6     X o   . @ . . . . . . . . . . . . .         . +     O O     4   r VXAXDXUXLXUXUXUXUXUXUXUXUX",
"UXUXUXUXUXUXUXUXUXUXHXzX  . 3   @ + o     @ +   X X X X X X X X X . . .                 .     &   ;   z UXUXGXLXUXUXUXUXUXUXUXUX",
"UXUXUXUXUXUXUXUXKXUXMX3 + %   - @     % +   o O X X X X X X X X X X . .           X   . @       o   <   R UXUXUXUXUXUXUXUXUXUXUX",
"UXIXPXUXPXUXUXIXIXUXY & O O .   + o     $       .   . O     &     O     %     O                 O   $ #   v.UXUXPXUXGXUXKXUXUXIX",
"UXUXLXUXUXLXUXPXUXM.2   O   O X 4 9.3.5.4.2.#.>.{ ..( =.5.-.<.>.2.<.Z .   O . X                   :     : > 8XHXLXUXUXUXLXUXUXPX",
"IXUXLXUXUXHXUXIXcXa   . O   @   x k.7.j.q.w.i.MXUXUXHXPXL.y.q.i.u.r.U $   $ .                     &     .    .GXPXHXUXUXIXUXUXIX",
"PXUXIXUXUXGXUXJXg.    + X   #     @   @     B ZXHXHXUXiX= o   .   o       O . o                       =   :   @XUXSXUXIXUXUXPXUX",
"PXUXUXPXUXJXUXiX7     . X X . X X   @ O X   h.UXGXCXUXD.  % +   # O o @ #     O                   X     *     T KXJXKXLXUXUXJXUX",
"PXUXUXKXUXPXUXZ.  =     @ +   @   X o # o @ eXLXUXUXPXD + # X o             O #                   + X   $   O + <XUXKXUXUXUXHXUX",
"UXUXUXHXUXUXcXS . &     X +   o + .   o   J UXUXHXUX1X@ %     X o $ & .   X O                       #     =     1.JXLXUXHXUXPXUX",
"UXPXUXHXUXUXqX  +   # .   @ O       +     D.UXVXLXFXc.  X   #         .   X O                   +   o   %   X   y MXPXUXCXUXUXUX",
"UXDXUXUXGXUXg.  . . . . . . . .   $     , VXLXUXLXUXB   @ X         @     7 j.= +   &   o     .   X n |   #   # + {.UXUXIXIXUXUX",
"UXUXUXUXGXUX~   . . . . . . . . O     @ ~ PXCXUXUXUXS . o   o     %   * & H.cXk   o O   $ + X   % O ).] @ + O %   z.LXIXLXUXIXUX",
"UXUXUXPXKXAX< . . . . . . . . . +   + # R.UXFXUXUXvXW @ .   O   +   &   s |.I.P   =     #     .   R [.6     .     ( JXUXJXUXPXIX",
"KXUXUXKXUXqX  # . . . . . . . . .   # 7 cXUXUXLXdX].;.. +         $ O   I.J 0.@.  @     O     #   #XT   . O   o X u GXUXHXUXJXIX",
"IXLXLXLXUX!.. @ . . . . . . . .   &   ..UXFXIXPXP.1.c.  & .   . .   . z 3X  h.2.      $ .   +   Y @Xo O o     O # @ nXUXHXUXJXUX",
"UXKXUXLXUXk.* . . . . . . . . .   $   XXUXIXJXUX' G T.  * O   X -   + R.) O -.r..   o X   %     }.I   $     o   o   wXLXKXUXJXUX",
"UXIXUXGXUXu.#   . . . . . . . .     j CXIXUXLXvX6 M ^.  O X   o   # j :XX   +.G.o . O     +   R  X  &     @ $       *XKXUXIXJXUX",
"PXUXUXAXUXs.  O . . . . . . . . + X 3.IXPXPXKX X  S ~.%     o o . @ T.` @   A U..   X   @   # ].U O X   o     o   % .XPXUXLXHXUX",
"UXPXUXJXLXx.  %   %     . o     O   7XUXKXAXUX'   s ^.;     #     N $X  & % a |.o   . O   + R |.X X .             $ |.UXUXJXUXPX",
"UXJXUXKXUXx.O +   . . . + O . +   M JXCXHXUXjX2   ,  X> # #   o   P.| o *   y '.;   X + $   [.T X X .               *XUXPXLXUXUX",
"UXJXIXKXUXZ.=   X   . +     . o . r.UXPXLXUXG.  o X #Xw     @   m XX  @ o   < }.>     X @ Y }.  X . .           X   tXUXGXIXUXUX",
"IXUXIXHXUX}.O   @   . X     @   ; ;XUXUXDXPXI X @   ^.N     -   L.[       $   .X9 =   @   '.P   . .         . . + = BXUXGXUXIXUX",
"KXUXUXFXUXpX.       o o   @ =   S UXIXHXGXqX*   O   C.T & *   b oX. ,     %   `.m   % . L `.  # . .         . .   k PXUXJXUXLXIX",
"KXUXUXGXUXGXr X     O O   X X   V.UXHXFXUXx.  O   $ V.( @ o   R. .  @ . .   @ P.K   =   XXQ   o           . . X   o.PXUXLXUXPXUX",
"UXUXUXLXUXIXO.X X     o .     2 hXJXFXUXUXV   *   % k.*.    F }.O     . .   $ m.' @ O K [.+   X           . X X   D.LXKXUXUXIXUX",
"UXDXUXUXUXJXV.  $     X @   ; J UXUXUXUX*X@ .   O   :.s.O $ B.X.  @ O X   #   d.6.    XXJ   .             . X X & ;XIXJXUXPXIXUX",
"JXUXUXGXUXUXjX@   O   $   O   !.UXJXLXUX2.  *   + o ^ D.  C OX    @ @   . +   <.u.# U '.    $     +   . =   ,   F FXLXUXHXUXLXUX",
"UXLXUXKXUXUXVX_ &   *     % 9 vXIXPXKXKXv X   o O   E Y.+ E.~ X o       $ &   X.Q.   XK       o . X . o   $     l.UXJXUXJXUXKXUX",
"UXGXUXIXUXLXUX X  o   * + . X.LXPXHXUX;X  @   O   @ h I.a %X  @ @       X O   I p.U '.  X X     +   X +     - = uXUXHXLXIXUXJXUX",
"UXDXUXPXUXPXUXFXn %   =     {.UXUXDXUX*.  %       X w [.J.Y O X X   O o       n T.'.F   X @ @   .       +   + @.UXPXKXKXUXUXKXIX",
"UXGXUXKXUXUXUXUX`.. $   + g vXUXLXUXVX0 o $ o   X   $ vX@XX + X     @ O   % . 9 UXC.O #   o X     &     % # @ sXUXSXUXLXUXUXUXLX",
"UXLXUXKXUXUXLXJXPXL   = X 8.HXGXSXUX'.X . +   X o     Z.H $       O       %     V.B       @   @   O .   +   a.UXUXJXUXIXJXUXUXUX",
"PXUXUXUXPXIXUXHXUX;X, @   #XUXUXGXUX{     o   X O   > .     $   X #       .   < + %     . X   X o     o + k LXFXUXUXIXUXJXIXUXUX",
"PXUXPXUXKXJXUXUXCXUXm.  x UXKXIXUXvX3   O X X     #   @   =   #   #   X     : E j       O   >   X   +   @ :XJXIXIXUXDXUXUXIXUXUX",
"UXUXUXUXUXUXUXUXUXKXSX .@.UXPXHXPXY.  + o   o X . . . . . . . .   . . &   $ t gX2 . %     $       >   o l.UXUXGXUXUXUXUXUXUXUXUX",
"UXUXUXUXUXUXUXUXUXUXPXlXvXUXUXHXPX[   @     +                     $     <   oX(.= *     +     o & $   :.UXAXCXUXUXUXUXUXUXUXUXUX",
"UXUXUXUXUXUXUXUXPXUXVXUXUXZXUXKXfX%     @ @ o                   +   *     W UXA   $   o O   =       :.UXKXUXUXJXUXUXUXUXUXUXUXUX",
"UXUXUXUXUXUXUXUXJXLXUXPXLXIXLXLXH.  $ @       +                   +   $ * aXtX$ $     + o   @   & ;.LXLXUXUXUXKXUXUXUXUXUXUXUXUX",
"UXUXUXUXUXUXUXUXUXSXUXUXUXUXAXUXd   4 o   &                       X .   OXAXC.  O   ; %     X + s.UXIXLXKXUXDXUXUXUXUXUXUXUXUXUX",
"UXUXUXUXUXUXUXUXUXIXFXKXJXSXIXUXV.%   1     * . . . . . . . . . $     c.DXIXg   X .     $   r  XUXAXUXUXKXAXUXDXUXUXUXUXUXUXUXUX",
"UXUXUXUXUXUXUXUXSXUXUXUXUXUXUXAXGXfXE   & >   X X X X X X X X X   @ 4.DXFX6X+ . &   4 o   5.GXPXUXBXUXUXZXUXAXUXUXUXUXUXUXUXUXUX",
"UXUXUXUXUXUXUXUXUXKXUXKXLXUXLXUXLXDXAX|.M   O   X X X X X X X X @ 0.UXKXIXw.+ O   X   ^ 5XPXUXGXIXUXHXPXUXGXUXUXUXUXUXUXUXUXUXUX",
"UXUXUXUXUXUXUXUXUXUXUXUXUXUXUXUXUXKXLXUXSX X] *   . + O     $ 5 ].KXJXUXKX7 &   7 1.9XUXUXHXHXIXUXUXUXUXUXUXUXUXUXUXUXUXUXUXUXUX",
"UXUXUXUXUXUXUXUXUXUXUXUXUXUXUXUXUXUXKXPXUXPXVXlX/.o.t 4 8 n x.BXLXUXHXUX3XB %.{.NXFXHXAXSXIXUXUXUXUXUXUXUXUXUXUXUXUXUXUXUXUXUXUX",
"UXUXUXUXUXUXUXUXUXUXUXUXUXUXUXUXFXKXUXIXLXLXUXUXSXUXUXVXNXPXUXUXHXJXUXUXZXKXUXUXUXUXUXPXIXUXUXHXUXUXUXUXUXUXUXUXUXUXUXUXUXUXUXUX",
"UXUXUXUXUXUXUXUXUXUXUXUXUXUXUXUXUXUXUXUXUXUXLXKXKXUXUXIXLXIXKXSXUXDXUXUXGXUXDXvXBXJXUXUXLXPXUXUXUXUXUXUXUXUXUXUXUXUXUXUXUXUXUXUX",
"UXUXUXUXUXUXUXUXUXUXUXUXUXUXUXUXLXGXSXGXIXUXUXPXUXDXDXUXUXPXUXUXUXSXFXUXUXHXLXUXUXUXUXKXPXUXUXUXUXUXUXUXUXUXUXUXUXUXUXUXUXUXUXUX",
"UXUXUXUXUXUXUXUXUXUXUXUXUXUXUXUXPXUXUXUXUXUXUXIXSXUXUXGXHXUXUXNXKXUXUXNXUXUXIXCXJXKXPXUXUXUXUXKXUXUXUXUXUXUXUXUXUXUXUXUXUXUXUXUX",
"UXUXUXUXUXUXUXUXUXUXUXUXUXUXUXUXUXUXIXGXAXSXIXUXUXUXLXKXLXUXUXUXUXUXUXLXUXHXIXUXUXUXUXUXLXHXLXUXUXUXUXUXUXUXUXUXUXUXUXUXUXUXUXUX",
"UXUXUXUXUXUXUXUXUXUXUXUXUXUXUXUXLXUXUXUXUXUXIXIXLXPXUXUXUXIXKXKXUXZXUXUXHXUXIXLXUXIXIXUXUXUXUXIXUXUXUXUXUXUXUXUXUXUXUXUXUXUXUXUX"
};
