/* XPM */
static char *_36d4a92f51b4002f86e986512973ae5[] = {
/* columns rows colors chars-per-pixel */
"64 64 256 2 ",
"   c black",
".  c #010101",
"X  c gray1",
"o  c gray2",
"O  c #070707",
"+  c gray3",
"@  c #2A2A2A",
"#  c gray17",
"$  c #2C2C2C",
"%  c #2D2D2D",
"&  c gray18",
"*  c #2F2F2F",
"=  c gray19",
"-  c #313131",
";  c #323232",
":  c gray20",
">  c #343434",
",  c #353535",
"<  c gray21",
"1  c #373737",
"2  c gray22",
"3  c #393939",
"4  c gray23",
"5  c #3C3C3C",
"6  c gray24",
"7  c #3E3E3E",
"8  c #3F3F3F",
"9  c gray25",
"0  c #414141",
"q  c gray26",
"w  c #434343",
"e  c gray27",
"r  c #464646",
"t  c gray28",
"y  c #484848",
"u  c #494949",
"i  c gray29",
"p  c #4B4B4B",
"a  c #4C4C4C",
"s  c gray30",
"d  c #4E4E4E",
"f  c gray31",
"g  c #505050",
"h  c #515151",
"j  c gray32",
"k  c #535353",
"l  c gray33",
"z  c #555555",
"x  c #565656",
"c  c gray34",
"v  c #585858",
"b  c gray35",
"n  c #5A5A5A",
"m  c #5B5B5B",
"M  c gray36",
"N  c #5D5D5D",
"B  c gray37",
"V  c #5F5F5F",
"C  c #606060",
"Z  c gray38",
"A  c #626262",
"S  c gray39",
"D  c #646464",
"F  c #656565",
"G  c gray40",
"H  c #676767",
"J  c #686868",
"K  c DimGray",
"L  c #6A6A6A",
"P  c gray42",
"I  c #6C6C6C",
"U  c #6D6D6D",
"Y  c gray43",
"T  c #6F6F6F",
"R  c gray44",
"E  c #717171",
"W  c #727272",
"Q  c gray45",
"!  c #747474",
"~  c gray46",
"^  c #767676",
"/  c #777777",
"(  c gray47",
")  c #797979",
"_  c gray48",
"`  c #7B7B7B",
"'  c #7C7C7C",
"]  c gray49",
"[  c #7E7E7E",
"{  c gray50",
"}  c #808080",
"|  c #818181",
" . c gray51",
".. c #838383",
"X. c #848484",
"o. c gray52",
"O. c #868686",
"+. c gray53",
"@. c #888888",
"#. c #898989",
"$. c gray54",
"%. c #8B8B8B",
"&. c gray55",
"*. c #8D8D8D",
"=. c #8E8E8E",
"-. c gray56",
";. c #909090",
":. c gray57",
">. c #929292",
",. c #939393",
"<. c gray58",
"1. c #959595",
"2. c gray59",
"3. c #979797",
"4. c #989898",
"5. c gray60",
"6. c #9A9A9A",
"7. c #9B9B9B",
"8. c gray61",
"9. c #9D9D9D",
"0. c gray62",
"q. c #9F9F9F",
"w. c #A0A0A0",
"e. c gray63",
"r. c #A2A2A2",
"t. c gray64",
"y. c #A7A7A7",
"u. c gray66",
"i. c #A9A9A9",
"p. c #AAAAAA",
"a. c gray67",
"s. c #AFAFAF",
"d. c gray69",
"f. c gray71",
"g. c #B6B6B6",
"h. c #B7B7B7",
"j. c gray73",
"k. c #C3C3C3",
"l. c gray77",
"z. c #C6C6C6",
"x. c black",
"c. c black",
"v. c black",
"b. c black",
"n. c black",
"m. c black",
"M. c black",
"N. c black",
"B. c black",
"V. c black",
"C. c black",
"Z. c black",
"A. c black",
"S. c black",
"D. c black",
"F. c black",
"G. c black",
"H. c black",
"J. c black",
"K. c black",
"L. c black",
"P. c black",
"I. c black",
"U. c black",
"Y. c black",
"T. c black",
"R. c black",
"E. c black",
"W. c black",
"Q. c black",
"!. c black",
"~. c black",
"^. c black",
"/. c black",
"(. c black",
"). c black",
"_. c black",
"`. c black",
"'. c black",
"]. c black",
"[. c black",
"{. c black",
"}. c black",
"|. c black",
" X c black",
".X c black",
"XX c black",
"oX c black",
"OX c black",
"+X c black",
"@X c black",
"#X c black",
"$X c black",
"%X c black",
"&X c black",
"*X c black",
"=X c black",
"-X c black",
";X c black",
":X c black",
">X c black",
",X c black",
"<X c black",
"1X c black",
"2X c black",
"3X c black",
"4X c black",
"5X c black",
"6X c black",
"7X c black",
"8X c black",
"9X c black",
"0X c black",
"qX c black",
"wX c black",
"eX c black",
"rX c black",
"tX c black",
"yX c black",
"uX c black",
"iX c black",
"pX c black",
"aX c black",
"sX c black",
"dX c black",
"fX c black",
"gX c black",
"hX c black",
"jX c black",
"kX c black",
"lX c black",
"zX c black",
"xX c black",
"cX c black",
"vX c black",
"bX c black",
"nX c black",
"mX c black",
"MX c black",
"NX c black",
"BX c black",
"VX c black",
"CX c black",
"ZX c black",
"AX c black",
"SX c black",
"DX c black",
"FX c black",
"GX c black",
"HX c black",
"JX c black",
"KX c black",
"LX c black",
"PX c black",
"IX c black",
"UX c black",
/* pixels */
"3 q 9 q 9 q 0 e w e w e w e w e e e e e e e e t r t r t r 2 $ % % % % 4 i u u u p p p p p p p p p p p p p p i y i y i y y y y y ",
"6 H D L F P G Q T ~ T ! R ~ E ^ ( ( ( ( ( ( ( } ] } ] { { <   X X X X t :.%.=.&.:.:.:.>.>.>.>.>.>.>.>.>.>.>.;.%.;.$.:.#.+.#.+.o.",
"6 D H H U R U K T Q E W E _ _ ` _ ! ) ' ' ' ~ ) ] [ ] ^ { 4           w *.+.:.,.:.-.$.3.4.4.2.>.4.4.4.2.>.4.4.3.3.:.4.2.-.,.+.$.",
"7 G i K J U F a P ( W ^ h T ~ ) ! k U ] ' ' b K [ X.| M G 1           w ] Q =.:.,.] R >.3.4.%.` 5.4.4.=.) 4.4.4.:./ 3.4.2.%.Q $.",
"6 S Z H I J I I Y E R W U E ( ` _ / ) ` ' ' ( _ ' ] ' _ ` ,           w =.@.&.*.:.;.&.,.:.<.-.,.4.4.4.3.1.4.4.4.3.<.4.4.4.1.&.>.",
"7 K G I J I J Y J Y E / W / Q ( ~ ) ~ ) ' ' ' ' ' ' ' X. .,           q %.o.&.&.*.*.&.;.,.;.,.;.3.3.2.4.4.4.4.4.4.4.4.4.4.4.2.=.",
"6 D F H I J I P K L L P P P P I W ^ ~ ^ ^ / } { ' ' ' ] ] ,           w -.$.%.%.&.@. ...+.$.O.$.+.*.+.-.-.-.-.-.:.7.4.4.4.4.4.1.",
"7 K G I H I G d h j j j j j j j l n N B N B 1.-.` ' ' ' ' ,           q $.o.+.o.*.~ h b b b b b m D A D S F F F Q s.5.4.4.4.4.2.",
"6 D F H D H K w S P L P P P P I W R Q / ^ / y.<._ ' ' ' ' ,           5 @.$.%.$.&.E M o.X.X.X.X.+.&.@.*.@.;.;.;.6.k.5.4.4.4.4.2.",
"7 J C P G I F 9 Z Y K Y R R E / ! / ~ ) ~ _ p.<._ ' ' / ) <           9 o.} O.X.O.L V -.&.&.&.&.*.;.<.:.2.4.3.5.r.z.5.4.4.4.,.2.",
"6 C q D F H K 0 G R U T T R R E R W / ~ / ' p.<._ ' ' B G 1           6 E H o.o...R B *.&.%.&.&.&.*.;.<.:.1.:.4.r.z.5.4.4.,./ <.",
"7 J B P G I D 9 Z Y K Y K Y R R R / ! / ~ ) i.<._ ' ' ^ ( <           9 ..' o...o.L m O.@.X.&.&.&.&.*.;.<.;.1.4.e.z.5.4.4.3.:.2.",
"6 D F H F H Z 9 F J I T U T R R R Q E W / ^ y.1.) ` ' ] ] ,           6 ..[ X.o...T N %.%.#.&.%.&.&.&.*.;.<.:.2.7.z.5.4.4.4.4.2.",
"8 K G I G P A 9 Z I J U K Y R R R / Q ^ ! / i.<.! ) ' ' ' ,           9 +.| X. .o.P M O.+.X.#.X.&.&.&.&.*.;.<.:.q.z.4.4.4.4.4.2.",
"u F F H F G Z 9 F K I J P T T R R W E Q E Q y.-.~ ` ` ' ' ,           5  .[ { [ ..Q D +...#.%.#.&.%.&.&.&.*.;.<.6.l.:.3.4.3.4.2.",
"a L G P F D Z 9 Z I J P K Y K Y R R R ^ Q ^ u.:.) ' ^ ) ] ,           4 } | ..} o.Y S X.o.X.@.X.#...&.&.&.&.*.=.4.l.1.;.2.:.2.2.",
"a F C H D D Z 9 B J P K P T U T T R R W E Q e.&./ ^ / ( ) ,           4 [ ` [ [ { I F O...o...#.%.@.&.%.&.&.&.&.2.j.:.<.;.,.%.<.",
"a D 7 H F D Z 9 V P K P K U K Y L Y R R R / e.=.Q ^ _ V A :           4 T H ] | ..I S X.o...o.X.@.X.#...&.&.&.&.1.g.*.;.,.$.I &.",
"a F N H D F Z 9 B J P K P K P T U T R R R Q q.%.R W ( U Y >           4 _ ! ' [ { U Z { ..o...o...@.%.@.&.%.&.&.1.h.*.&.-.$. .:.",
"a K L P G P A 9 V P J P K P K U L Y R R R E 0.=.W ~ ~ / ^ ;           4 | ] ' ' ' U Z | o. .o...o.X.@.X.$...&.&.1.h.*.&.&.*.<.=.",
"a H P K F J Z 9 B J F J P K P K P T T R R E 0.%.R W W Q ^ :           4 } ' ' ' ' U Z { } [ ..o...o...@.%.@.&.%.1.h.*.&.&.*.-.$.",
"a K K P G P A 9 V P G L K P K P K Y L Y R E 0.@.Y R ~ ! W ;           4 } ' ' ' ' U Z | ..{ o. .o...o.X.#.X.$.X.1.h.*.&.&.&.&.$.",
"a U I K F J Z 9 B H F J F J P K P T U Y R E 0.@.Y R W W ~ :           4 } ' ' ' ' U Z { { [ } ] ..o...o...+.%.+.1.h.*.&.&.&.&.$.",
"a U H P G L A 9 B D D L G L K P K U L Y R E 0.@.Y R R W Q ;           4 { _ ' ' ' U Z ] ' { ..{ o. .o...o.X.#.X.1.h.*.&.&.%.@.$.",
"a L d G P K Z 9 B D D H F J P K P K L T T R 0.@.Y R R b V ;           4 E K ] ' ' U Z ] ' [ } [ | ] ..o...o...+.1.h.*.%.&.+.J @.",
"a P b K K P A 9 B D D D D L K L L L K Y P Y 0.@.Y R R A L >           4 ( E ] ' ' U Z ] ' ' ' { ..[ o...o...o.o.<.h.%.X.&.#.( #.",
"a U I L P K Z 9 B D D D D J F J P L L Y I T 0.@.Y R R E Q ;           4 } ' ' ' ' U Z ] ' ' ' [ } [ | ] ..o...o.*.g.&.O.&.&.*.$.",
"a U L P L L A 9 B D D D D L G K L L L Y P Y 0.@.Y R R R R =           4 ] ( ' ' ' U Z ] ' ' ' ' ' [ ..[ o...o.X.-.g.%.o.$.X.$. .",
"a U P T P K Z 9 B F D D D J F J L L L L L T 0.@.Y R R R R =           2 _ ) ' ' ' U Z ] ' ' ' ' ' [ | [  .] X.o.=.f.X.O.%.o.....",
"a U P T L L A 9 V L F D D D D K L L L L L Y 0.@.Y R R R R =           2 _ ( ) ( ' U Z ] ' ' ' ' ' ' ' [ ..[ X...-.f.O.o.$.X.o. .",
"a U K T P L H 0 B K F D D D D K G J L L L L 7.X.I R R Y Y =           2 ) ! ^ ) ' I Z ] ' ' ' ' ' ' ' [ | [  .] =.f.o.X...X.| ..",
"a P c U P L H 0 V L F D D D D K G J L L L P 8.X.I R R n C -           2 I D / ( _ J Z ] ' ' ' ' ' ' ' ' ' [  .[ -.f.o.X.X.{ F | ",
"a P n U P L H 0 S L F D D D D J G K G J L P 8.X.P R R N A -           2 P S / ( _ J Z ] ' ' ' ' ' ' ' ' ' [  .[ -.f.o.X.X.} L | ",
"a Y E R P L H 0 S L F D D D D D D K G J L L 7.X.J U R W E =           2 ( Q ^ ( _ K Z ] ' ' ' ' ' ' ' ' ' ' ' [ *.d.o.X.X.X.O...",
"s U R T L L H 0 S P F F D D D D D J G K L P 8.o.J L Y R R =           2 / Q ^ ^ ^ J Z ] ' ' ' ' ' ' ' ' ' ' ' [ &.a.X.] X.X.X. .",
"j Y R T P L H 0 D L F K F D D D D D D J L L 7.X.J L U U U =           , ! Q ^ ^ ^ K V ) ' ' ' ' ' ' ' ' ' ' ' ' o.a...] ..X.....",
"v Y R T L T H 0 S P G L F D D D D D D K G K 8.o.J L U I U =           < ! Q ! Q ^ J V ( ' ' ' ' ' ' ' ' ' ' ' ' O.a.X.[ ..] X.| ",
"c Y T T P T K y F L F J F D D D D D D J G J 7.X.J L L U T =           , Q Y R W ^ K V ) _ ( ' ' ' ' ' ' ' ' ' ' O.p.] ]  .] |  .",
"c U Z Y L T J d F P G L F D D D D D D K G K 8.o.J L L v N *           < G B E Q ^ G m / ^ / ' ' ' ' ' ' ' ' ' ' O.p.] ] .._ L _ ",
"c I N Y R R K d G K F J F D D D D D D D D F 5.X.J L L k v &           < A b E W ^ F v ( ~ ( _ ( ' ' ' ' ' ' ' ' O.p.] ' ` ( Z ) ",
"c Y E R R T H d D P L P F D D D D D D D D F 2.X.J L L P T =           < ~ E R Q ~ C c / / ~ ^ / ' ' ' ' ' ' ' ' O.p.] ' ' [ O.' ",
"c Y R R R R L d H K P K F D D D D D D D D F >.{ K L L L L &           < ! R R R R Z v ( ~ / ~ ) _ ( ' ' ' ' ' ' O.p.] ' ' ' ' ` ",
"c Y R R R T H d D P K P G D D D D D D D D F >. .F K L L L %           < ! R R R R Z z ! / ~ / ~ ^ ^ ' ' ' ' ' ' O.p.] ' ' ' ' ` ",
"c Y R R R R L d H K P K F J F D D D D D D F >.} D H P L P &           < ! R R R R Z z Q ~ / ~ / ~ ) ` ( ' ' ' ' O.p.] ' ' ' ' ` ",
"c Y T R R T H d D P K P G L G D D D D D D F >. .F K L K K %           < Q T R R R Z z ! ~ W / ~ / ~ / ^ ' ' ' ' O.p.] ' ' ' _ ` ",
"c U D T R R L d H K P K F H F J F D D D D F >.' A H L v N *           < J Z E R R Z z E R E ~ / ~ / ~ ) ` ( ' ' O.p.] ' ' ) H _ ",
"c I n Y R T H d D I K P K P G L G D D D D F >.' A L H u k &           < V x E R R Z z E R Q ^ W / ~ / ~ / ~ ' ' O.p.] ' ' / c ) ",
"c Y E R R R L d H K P K P K F H F D D D D F >.' A H G H P *           < ! E R R R Z z E R E Q E ~ / ~ / ~ ) ` ) O.p.] ' ' ' ] _ ",
"c Y R R R T H d S I J P K P G P G D D D D F >.' A K J K L $           < ! R R R R Z z E R Q ^ Q ^ W / ~ / ~ _ ~ O.p.] ' ' ' ' _ ",
"c Y R R R R P d H K I J P K F H F D D D D F >.' A D D G P *           < W Y R R R Z z E R R R E Q E ~ / ! ) ` ) O.p.] ' ' ' ' _ ",
"c Y R R R T H d S Y K I J P K P G D D D D F >.' A D D L J @           , R P R R R Z z E R R R Q ^ W / W ( ! / ~ O.p.] ' ' ' ' _ ",
"c Y T R R R Y f H R U J I J P K F H F D D F >.' A D D G F #           < W U R R R Z z E R R R R R E Q E ! ( ! ) O.p.' ) ' ' _ _ ",
"c U H T R R Y f S Y K I J I J P H P H D D F >.' A D D N V #           < H C E R R Z z E R R R R R Q / W / W ( ! ..p.` ! ' ) K ) ",
"c I v Y R R Y f J T U J I J P K F H F D D F >.' A D D t d $           , m j R Y R Z z E R R R R R R R E Q E ! ( { p.' ) ` W a / ",
"c Y R R R R Y g D T L U L U L U J I J F F G >.' A D D D D #           > Y P I L R Z x Q E E E E E E E ! ( Q ) ~ X.p.) ! _ ! ' _ ",
"c Y R R R R Y m ` | } _ { _ [ _ ( ^ ~ ~ ~ ~ 2.' A D D D D #           - U Y T Y R G G X.| | | | | | | | | |  .@.$.u.~ ) ` ) ' _ ",
"c Y R R R R E _ 9.t.r.r.r.w.e.w.e.5.2.2.2.2.2.~ S D D D D #           > Y K P L R Q &.p.r.r.r.r.r.r.r.r.r.r.r.r.t.0.) ! ( ! ` _ ",
"c Y R R R R R R E E Y R Y K U K I L G H G F F D D D D D D #           - U P K Y T Y E E E E E E E E E E E E E E ! ) ! ( ! ) ` / ",
"c Y R R R R R R R T J Y J I J I J P J P H D S D D D D D D #           > Y K P L I L R R R R R T R R R R T R R W ( E ( ! ( ! ) W ",
"c Y K T R R R L T R U T H G I J U V H K F D n V D D D M B #           - J S K Y T K G Y R R P G R R R I F R R R R F Q ( ! / U ) ",
"c P x Y R R Y c I T J U f F K I Y y n I H D 0 h F D D e s $           > n g I K P x p P R R C i E R R D t R R W Y t / W ( P r / ",
"c Y T R R R R T R R Y T U J I J I H P K F G S S D D D S S #           - I L K P K Y Y Y R R T Y R R R T Y R R R R T Q R Q R E / ",
"c Y T T T T T T T T J U J U J I J P J P H L H S D D D D D #   . . .   > U K L K L K I K R T T T T T T T T T T T R E / E ( Q ( E ",
"k H J J J J J J J J J J J J J J J Z F Z B V B B B B B B B % o + + O O - G D A D A J J J J J J J J J J J J J J J J K K K P E P R "
};
