/* XPM */
static char *_f430304977f4449fea1db78a4e1cfeb[] = {
/* columns rows colors chars-per-pixel */
"64 64 246 2 ",
"   c #03163A",
".  c #051A47",
"X  c #0D1E4C",
"o  c #172B58",
"O  c #1B345D",
"+  c #11244D",
"@  c #272C4A",
"#  c #2A3559",
"$  c #2D3354",
"%  c #1C3667",
"&  c #122F62",
"*  c #263B66",
"=  c #2B3D69",
"-  c #2C436C",
";  c #26416C",
":  c #38466B",
">  c #2C4373",
",  c #2B477A",
"<  c #324573",
"1  c #344A75",
"2  c #3B4B72",
"3  c #384C79",
"4  c #3B527D",
"5  c #37537B",
"6  c #1A4578",
"7  c #434A6B",
"8  c #454E75",
"9  c #49547D",
"0  c #44557B",
"q  c #535A7C",
"w  c #2D4C84",
"e  c #2C4E8C",
"r  c #254C87",
"t  c #324D8C",
"y  c #344C84",
"u  c #2E528B",
"i  c #2B5389",
"p  c #345284",
"a  c #3C5384",
"s  c #34538C",
"d  c #3A558C",
"f  c #3B5A8D",
"g  c #395985",
"h  c #2C4E91",
"j  c #354F91",
"k  c #2E5191",
"l  c #245595",
"z  c #345392",
"x  c #3A5593",
"c  c #3C5A93",
"v  c #3B559A",
"b  c #3D5A9C",
"n  c #355897",
"m  c #3E6195",
"M  c #365CA9",
"N  c #3661AF",
"B  c #3C69A4",
"V  c #3A65B3",
"C  c #3D68B6",
"Z  c #3E6ABA",
"A  c #3762B0",
"S  c #435D83",
"D  c #475987",
"F  c #545C87",
"G  c #415C95",
"H  c #435D9A",
"J  c #465B99",
"K  c #4C578B",
"L  c #4B628B",
"P  c #46638A",
"I  c #5B6386",
"U  c #53628B",
"Y  c #58658B",
"T  c #436195",
"R  c #44629C",
"E  c #4B649C",
"W  c #4C699D",
"Q  c #4A6596",
"!  c #546492",
"~  c #5B6C94",
"^  c #52659C",
"/  c #546C9D",
"(  c #586A97",
")  c #5A739D",
"_  c #666D96",
"`  c #66739B",
"'  c #6D739B",
"]  c #687497",
"[  c #73769C",
"{  c #676A8F",
"}  c #4A5DA3",
"|  c #4358A2",
" . c #4C63A3",
".. c #4D6AA3",
"X. c #4865A4",
"o. c #5165A5",
"O. c #526BA4",
"+. c #5C6CA3",
"@. c #526EAA",
"#. c #576AAA",
"$. c #5471A5",
"%. c #5573AB",
"&. c #5C77AB",
"*. c #426DBC",
"=. c #486FBC",
"-. c #4570BF",
";. c #4C72BE",
":. c #4F7AB1",
">. c #5879B7",
",. c #6C7BA3",
"<. c #6475A6",
"1. c #797BA5",
"2. c #6C7BB4",
"3. c #436FC0",
"4. c #4672C2",
"5. c #4A75C3",
"6. c #4D78C6",
"7. c #4D7BCA",
"8. c #4B77C8",
"9. c #5176C2",
"0. c #547BC5",
"q. c #537DCB",
"w. c #5A7ECA",
"e. c #577AC7",
"r. c #88799A",
"t. c #847DA5",
"y. c #897FB1",
"u. c #5E83B5",
"i. c #7A83A9",
"p. c #6886B8",
"a. c #7793B9",
"s. c #7187AF",
"d. c #5B83C6",
"f. c #5582CC",
"g. c #5C83CC",
"h. c #5C8ACF",
"j. c #5782C7",
"k. c #5C85D0",
"l. c #5C8AD1",
"z. c #5683D0",
"x. c #6485C5",
"c. c #6284CC",
"v. c #638ACE",
"b. c #6B8CCC",
"n. c #6987C5",
"m. c #738DCC",
"M. c #748CC8",
"N. c #6C91CC",
"B. c #7593CC",
"V. c #7C95CD",
"C. c #7C9ACD",
"Z. c #7695C8",
"A. c #6287D1",
"S. c #648CD2",
"D. c #6A8DD3",
"F. c #6D8FDB",
"G. c #738DD5",
"H. c #798CD5",
"J. c #6592D3",
"K. c #6C93D4",
"L. c #6C95D9",
"P. c #6D98D9",
"I. c #6F98D5",
"U. c #7394D5",
"Y. c #7C94D4",
"T. c #739AD5",
"R. c #7C9CD4",
"E. c #7392DA",
"W. c #7B94DB",
"Q. c #739AD9",
"!. c #7C9BDA",
"~. c #7DA2DC",
"^. c #7FA1D4",
"/. c #7FA1CF",
"(. c #7994E1",
"). c #7DA5E3",
"_. c #8786AE",
"`. c #9288A9",
"'. c #888CB4",
"]. c #8793BA",
"[. c #979AB9",
"{. c #968FB1",
"}. c #9C9CB5",
"|. c #8A9DCC",
" X c #849ACA",
".X c #979BC3",
"XX c #839CD5",
"oX c #8496DA",
"OX c #829CDB",
"+X c #8B9DDB",
"@X c #8798D5",
"#X c #909CD6",
"$X c #89A3CB",
"%X c #96A9C9",
"&X c #99B1CC",
"*X c #84A3D4",
"=X c #8BA4D5",
"-X c #8CAAD6",
";X c #84A3DC",
":X c #8AA5DB",
">X c #8BAADB",
",X c #85A9DC",
"<X c #92A5D4",
"1X c #92ACD4",
"2X c #9BADD4",
"3X c #92A4D9",
"4X c #93ABDB",
"5X c #9BACDB",
"6X c #99A6D4",
"7X c #9CB3D4",
"8X c #9CB2DB",
"9X c #99B4D7",
"0X c #A7A6C6",
"qX c #A8B6CA",
"wX c #A3AED8",
"eX c #A4B3D5",
"rX c #A4B4DD",
"tX c #ACBBDC",
"yX c #A8B8D8",
"uX c #B2BDD8",
"iX c #B5B1CB",
"pX c #859CE0",
"aX c #84A4E1",
"sX c #8CABE3",
"dX c #89A8E3",
"fX c #94ACE3",
"gX c #9CB4E2",
"hX c #98B4E7",
"jX c #9DBAF0",
"kX c #A6BCE5",
"lX c #A59BC0",
"zX c #B8C6DC",
"xX c #BCCBE3",
"cX c #B5C5E4",
"vX c #A2C0F2",
"bX c #C3C9DA",
"nX c #CBD4DD",
"mX c #C9D4E7",
"MX c #D3DDEA",
"NX c #C7D3E9",
"BX c #DCE5F4",
"VX c #D5E1EB",
"CX c #E2EAF4",
"ZX c #EBF3FA",
"AX c #F4FCFE",
"SX c #F7FCFE",
/* pixels */
"C Z Z Z *.*.*.3.*.=.;.;.;.;.;.9.0.0.j.j.d.d.x.x.B.n.n.H.w.H.H.H.2.w.c.x.w.0.e.w.8.e.8.9.8.9.=.9.=.3.=.=.*.C C C C V V A N N N M ",
"C Z Z Z *.=.*.=.=.=.;.;.;.>.>.9.0.j.0.j.d.x.x.n.U.m.M.H.oXoXH.H.H.2.b.c.x.e.w.w.e.q.e.9.9.9.9.=.=.3.3.=.*.Z C C C V V N N N N M ",
"Z Z 3.Z =.3.=.=.=.=.;.;.>.9.e.9.q.q.d.d.d.h.n.N.W.V.M.Y.oX2.@XH.H.D.b.b.w.w.w.w.e.e.e.w.9.9.9.9.9.3.3.3.*.*.*.Z C V V V N N M N ",
"Z Z 3.3.=.3.3.3.3.9.;.9.e.9.9.e.w.j.q.d.x.N.Z.Z.R.V.V.@XoXoX@XH.H.U.U.b.H.D.w.w.e.w.w.w.9.9.9.9.3.9.3.=.*.*.*.Z C C C V A N N N ",
"Z 3.3.3.3.3.3.5.5.6.9.9.9.e.e.e.d.w.d.g.v.N.B.C.XXXX@X+X@X#X@X@XR.B.B.b.c.c.w.w.w.w.w.w.q.9.>.0.9.5.5.3.=.=.Z *.C Z C V V A A N ",
"3.3.3.4.3.8.5.5.9.9.9.0.e.e.x.e.g.g.d.c.n.N.C.XX+X=X=X#X3X3X#X X@XY.Z.b.M.w.m.w.w.w.w.w.w.e.0.0.9.5.5.4.4.3.=.*.-.Z Z C V V A A ",
"3.3.3.3.4.8.4.5.9.9.>.0.e.w.w.d.d.d.d.v.b.B.R.*X=X4X5X3X5XfX6X@X>XXXV.M.M.b.H.w.w.w.w.w.w.q.q.q.8.9.9.4.5.=.=.*.Z -.Z C V V V A ",
"3.3.3.3.4.4.5.5.9.q.0.e.w.w.d.w.c.g.c.x.b.C.XX$X1XrXkX5XwXrXwX|.4X=XV.H.m.H.M.w.c.w.A.d.w.d.w.e.8.8.8.5.4.=.3.=.*.Z Z Z Z V V V ",
"3.3.3.8.8.7.7.q.q.0.q.w.w.w.g.c.c.c.D.b.m.Z.C. XkXkXuXkXtXwXwX6X5X<X XC.H.M.m.b.D.D.A.w.g.g.d.g.6.7.6.6.5.5.-.5.-.-.*.Z C C C C ",
"3.3.8.3.8.8.7.q.q.q.w.q.d.c.c.c.c.A.G.m.m.V. X|.kXkXNXkXtXrXiXwXrX4X+X XV.M.m.G.D.D.A.D.c.g.g.q.f.j.6.5.6.5.5.-.-.-.-.*.*.C C V ",
"8.3.8.8.8.q.q.q.w.w.w.g.c.g.A.A.b.G.G.U.V.V. X$XkXxXNXxXuXuXuXuXyX8X<X XM.M.Y.W.G.D.D.A.k.h.d.j.0.7.6.7.6.5.5.5.-.-.-.-.*.C C C ",
"8.8.8.8.q.q.q.q.q.g.g.g.k.c.A.A.D.G.G.Y.V. X$X%XkXNXNXNXNXbXbXbXtX7X<X X XXX@X!.G.G.F.D.A.d.j.q.q.f.f.6.6.6.5.5.-.-.-.-.*.*.C C ",
"8.8.8.7.q.q.z.q.w.w.k.k.A.A.D.D.D.G.H.Y.V. X$X%XyXxXNXMXmXmXnXmXtX2X<X<X3XfXOXW.E.E.D.D.v.g.d.f.f.q.q.q.6.6.6.5.4.5.4.4.=.Z Z Z ",
"8.8.q.q.q.q.q.k.k.k.A.A.A.A.A.D.G.G.Y.Y. X|.$X%XyXbXNXBXCXVXMXnXuXeX%X3X5XfX+XU.G.E.F.S.A.v.g.g.f.f.f.q.6.6.6.6.5.5.4.4.-.=.Z =.",
"7.7.q.q.z.z.z.z.k.k.A.A.A.A.F.D.G.W.W.XX@X|.$X%XtXxXMXBXZXSXCXMXcXkXyX5X6X+X@XY.G.U.F.D.S.v.h.h.f.z.z.q.7.6.7.5.5.j.4.4.-.Z =.Z ",
"7.7.q.q.q.w.k.k.k.A.A.A.D.A.F.D.W.W.oX@X@X=X6X&XuXxXMXZXSXSXCXMXzXcXtXrX|. XY.oXU.G.F.D.S.S.v.h.f.z.z.q.f.7.7.f.5.4.4.4.u.-.-.Z ",
"q.q.j.f.g.h.h.c.v.S.D.D.D.K.U.G.W.oX+X+X3X5XwXeXzXzXnXCXSXSXZXCXmXzXeX$X<X+XoXG.(.(.F.F.F.S.S.v.k.g.w.z.q.q.q.q.7.7.6.5.4.4.4.4.",
"q.q.q.f.g.g.h.v.v.S.v.D.D.U.U.U.oXoX+X#X#X6XwXyXcXmXBXZXSXSXSXZXxXzXeX2X6XfXpX(.(.(.(.F.F.K.S.v.h.k.k.w.d.q.q.q.7.q.8.8.8.4.4.4.",
"q.q.f.g.g.v.v.v.b.S.D.b.K.U.U.U.oXoX+X+X<X3X5XwXcXNXBXAXSXSXZXZXxXzXeX2X5XsXaXoX(.(.F.F.L.F.S.v.h.k.k.g.f.f.f.f.q.7.7.7.8.8.4.4.",
"q.w.g.g.h.S.S.v.J.b.K.D.U.U.U.U.Y.oX+X+X#X<X2XwX8XxXVXZXSXSXZXCXzXzXeX2X3X3X+XoX(.(.E.E.E.D.D.v.c.A.A.A.g.f.f.f.q.q.7.7.8.8.4.8.",
"j.g.d.h.v.S.J.D.K.K.K.U.U.Q.Q.!.W.OXOX:X:X<X5X7XyXxXMXCXSXSXSXCXxXzXyX1X<X#X+XpX(.(.W.E.E.L.K.S.S.S.k.S.k.z.z.z.z.z.z.7.8.7.7.7.",
"g.g.c.v.v.S.D.J.K.K.U.U.E.Q.!.!.!.OX;X:X=X4X5X7XyXcXxXVXZXSXZXnXmXxXzX7X4X3X:XpXpX(.(.W.U.U.K.S.S.S.S.A.l.k.k.z.z.z.z.7.7.7.8.7.",
"g.h.v.v.S.b.K.K.U.K.U.U.W.!.!.!.!.,XdX,X>X4X5X8X7XzXxXnXnXCXnXnXxXcXyXrX5X6X3X+XOXW.U.E.U.U.I.v.D.J.J.S.A.k.l.k.z.f.z.7.7.7.7.7.",
"d.h.v.v.J.D.K.K.U.U.T.T.W.!.!.!.~.aXdX,X>X4X9X8X&XzXnXbXnXnXnXbXuXcXtXyXrX5X:X@XOXOXW.Q.W.U.N.N.J.D.S.S.S.k.l.k.z.z.z.z.z.7.7.7.",
"v.v.v.N.D.K.K.U.Q.U.G.U.!.OX!.!.~.dXdXdX>X>X-X9XyXcXxXzXqXiXnXbXzX&X$X'.a.<X5XV.XXOX;XaX!.U.N.I.P.P.P.J.l.l.l.l.z.l.z.f.f.7.7.f.",
"v.v.v.D.D.K.U.U.Q.!.!.R.!.!.OXaXaX).sX,X>X>X9X8XrXcXzXuXqXiXiXnXiX%X'.` ] ].5X3X=X+X@XB.B.!.R.U.P.J.P.J.J.l.l.l.l.z.z.z.f.7.f.7.",
"v.v.b.K.K.U.Q.Q.W.!.aX!.!.R.!.;X,X).,X,X>X4X5XrXrXwXqXiX0X}.lXbX0X.Xi.] U s.1X5X=X=X*XB.C.;X~.T.P.J.J.J.J.l.J.l.l.l.f.f.f.f.7.f.",
"D.b.D.K.U.U.W.Q.U.!.!.!.XX;XOXOXdX,X,XsX>X4XgXkXtX0X%XqXiX`.{.iX[.i.i.` U ` ].V. X*X*XC.R.^.R.N.P.P.P.P.J.J.l.J.l.l.l.l.l.f.f.f.",
"N.K.K.U.U.T.!.!.!.R.Y.OX,XsXdX+XsXdX,XsXsX9XgXwXtX].'.0XiX`.`.}._.i.i.` F ( ,.` ) s.*X:X/.Z.I.I.P.P.P.P.P.J.J.J.l.l.l.l.l.f.f.f.",
"D.K.U.U.U.!.!.!.aXOXOXOXaXsXsXsXsXsXsXsXhXhXgXwX.Xt._.0X0X`.r.{.%X'.1.' ~ { ` ( g ) a.>X/.N.a./.P.P.P.P.J.P.J.J.J.J.l.l.l.f.l.l.",
"U.G.U.U.Q.!.!.!.aXaXdX;X@XXXOXsXsXsXsXsXhXgX8X2X1._ t.lXlX`.r.`.iX'.i.,.` ] ~ L 4 0 ) a.a.:.u.p.P.P.P.P.P.P.P.P.J.J.l.l.l.l.f.f.",
"B.K.U.U.R.!.!.OXW.,XsXOXM.n.Y.fXhXsXhXjXjXrX5X%XF I t.0XlXr.r.{..Xi.[ ,.` ] U - 5 ; 1 L m ; 1 B ^.P.).P.P.P.P.P.J.J.l.l.l.l.l.l.",
"!.!.!.!.^.R.R.XX*X>X>Xp. .X.>.m.sXhXhX-X>XcX$X] F q t.lXy.y.y.y.'..X,.s.` S ! S 4 2 2 2 : : 7 7 Z.I.N.I.).I.S.Q.J.J.J.J.h.l.h.l.",
"W.!.XXXXXXXX*XR.R.:XR.O.s H @.@.~.hXvXvX9X$Xi.0 I F 1.lXy.t.y.' '. X` s.) P ) ! 1 2 2 7 7 $ 7 0 /./.I.I.~.Q.I.I.J.I.J.J.J.S.h.h.",
"R.R.!.;X*X*X*X*X=X:Xn.G s %.>.R n./.hXjX1Xa.Y 0 _ I [ y.r.r.y.1.].[.s.~ L P ~ P : : 7 7 $ @ $ 7 Z.~.T.N.T.~.Q.I.I.I.J.J.J.J.J.J.",
"W.OXOX;X;X:X:X:X>XC.$.c R >.>.@.%.>.a.C.p.) Y ~ [ I _ [ _ 1..Xy.i.].] ~ U ~ ~ 0 L 0 7 7 $ @ @ @ $.~.,XN.I.~.~.P.T.I.I.I.J.N.J.J.",
"OXpXaX,X,X:X:X>X>X&.c c ..@.@...%.....u.) L L ~ ~ F { 1.{ y.y.y.] i.i.] ] i.~ U ' F 2 = $ $ @ @ 4 N.dXR.T.^.^.~.T.I.I.I.N.N.J.J.",
"dXaXdXsXsX>X,X=XC.W p E %.X.b X.@.W W / W a 3 D 9 9 ' 1._ y.y.y.[ ] i.] U Y 0 8 { 8 # @ @ @ @ @ * p.sX^.^.T.^.~.~.~.T.I.I.I.I.I.",
"dXdXsXsXsX:X>X-X&.T c ..%.X.R  .W $.$.$.Q a y 8 K K 1.1.{ _ y._ ] q [ q 7 : # 2 9 = @ @ @ @ @ @ , >.*X*X;X^.!.;X/.~./.I./.I.I.N.",
"fXsXfXfXsX,X:X,Xf g m E @...X.X.m ..%.$.G D D K ! ! ,.<.K K 1.r.{ q I 7 = : - ~ D = * $ $ @ $ $ 4 u.C.*X>X,X/.;X~./././.I.I.I.Z.",
"w.w.n.R.jXjXB.W w p T ....T R @.B ..%.$.^ E / <._ } K 8 F ' ' F q 7 7 7 8 8 2 = : : F U 7 7 8 8 ~ $.s./.-X*X*X^./.~.^.^.^./.T.I.",
"J } ..n.:X>Xp.T , , c ....b b E W ..$.@.O.o.#.<.+.+.F ! ^ _ F 8 7 q q q 0 8 2 < ( 0 : * X + 7 F P m ) Z.>X-X/.-X^.^.,X^.^././.C.",
"t t b ..p.p.W , ; , c ....b c b R W  ...O.@.#.+.o.+.+._ F ! K K q I { q D 9 D 4 <.! 3 = = @ # D P 1 5 a.9X-X/.-X*X*X*X*X^././.C.",
"J } b G T W T p , p G W ..R b c H c c J o.o.o. .K } +.} K F { _ { I q 7 4 K ! D +./ K ^ +.= o 3 5 - 1 ) $X>X-X-X-X-X-X*X^./././.",
"c b c x c W W T g G T R T R b b J x v H } o.o.} o.+.2.' _ ! +.' q F D : < K +.+.$.O.G ^ +.< o = * * ; 4 s.9X9X-X-X-X-X-X-X,X$X^.",
"e v H H R R T g f T c f v c b c J G c H  .o.o. .#.#.2.2.+.K 9 K $ K _ F y D O.&.$...W O./ , % = + # - - P $XkX1X-X1X-X,X-X-X-X-X",
"x b R R T G s , d f c p s c H c T G J } } o.} o.#.o.+.<.+.K : # * F 2.( K Q O.@...X.@.%.J d y > O 1 5 : 5 s.$X9X1X1X-X9X1X-X-X-X",
"G R T f c T T f p f f s x R  .b G G H H J J J } #.^ } ^ } K 3 : K _ +.^ o.&.&.J &.X.W T , p W Q 5 0 P 0 0 P a.9X-X1X1X1X&X-X&X1X",
"R c c T T f p p x f c c c G H X.| K } | y K J K <.&.) ^ } } } } o. .}  .o.@.O.o.$.T Q $.f ; > / 5 P u.P 5 P u.&X&X&X&X&X&X&X}.&X",
"f g G T T f g c x d d x v c v H v v j K K = < 3 ) $./ ^ | | } } o.}  . .o.o.O.W R Q W T 1 % ; g ; O 5 q 0 5 0 a.&X&X&X&X&XqXqXqX",
"f g T T c s d c s d s z z x d x j j y y G = o < +.( ^ J | | | | } | X. .@. . .R G ^ / g % o % % O O O 5 P P P Y 9X&X&X&XqX&X&X&X",
"T T T T s , p c f s s p t s s t j j y t J * X y ) / ^ E | | | v | | | }  . .} J G R W f , ; % % O 5 ; - 0 P P ; &X9X9XkX&X&X&X&X",
"T c m z , , w c x z z t s t s j y | y K T & . a ) / ^ J J H | | M v J H } H H G J d G / / p > ; 1 5 O - 5 1 5 % u.a.9X9X&X9X9XzX",
"f g u g p i s m f f z z z z z x t J J G y X . y / ^ E J J J | v v v v j v H H c O.d d W W w & X 5 ; + 5 5 + - a : u.a.a.$X/.-X,X",
"s p f n c z z c z n z s z z k z j j x v , o % a Q Q J G v v v | M j j j x x c c ..T f G m 5 & . O 5 O 1 = . 4 L - 5 u.u.u.u.u.u.",
"s s f W W m g i s s z s h j z j G t G H e = d / T J c x j v v v v j t e k x c b s c H d c W n % . g - % . X L 3 - 5 g P u.u.:.u.",
"f z x f x x z z e w e z z j z z v d d G G G c d G H H v x v v v j x z z z z x x c v x c x f x c % = = = 1 5 : - ; - 5 m W B u.h.",
"i p i s i i w w w e t k k k j j t t t x G G H G J H H H v v v v v v z z v z n z s s s x n c b c h s v a 5 4 5 5 5 5 g g n i m B ",
"p i i t s i e e e e e h h e h h w w t d G G H G b H v b v v v v v z n z z z s x t e s z n n c c M R T c a a 0 5 - - 1 5 i i i l ",
"i s i s s i u e u h e e e e h h w t s s x x z v b b J H M | b b b v c z z z z z e e t t s s z n n n n p a a - O O O ; 5 5 i i i ",
"e e w e i r e r h e h r r r h h s s s s s z z x b b b b M v v b b b c n z z k z t k t k h e h h k r r r 5 5 ;   O ; 5 5 m g 5 6 ",
"i i s u k u e e h h h h h h h h s s x z z z v c b b b b n v v v X.m b n f z u z k j k t t e e h l l r e 5 5 O   + - 0 P m 5 i 6 ",
"z u z z z k z k k h h r h h z n m B R b v v v M H v M v v v z n B b m n n k z k k k e h h h h h l l l r 5 6 O     # 0 P m m m g ",
"i e i i u e r r k e h r h h M n @.@.@.E b z v J M M b v v z k z X.b b z n n u k e e h h h h z l l l l 6 O O +     : 0 0 5 5 g m "
};
