/* XPM */
static char *_579136895960[] = {
/* columns rows colors chars-per-pixel */
"64 64 252 2 ",
"   c #1B0100",
".  c #0D1612",
"X  c #2C0101",
"o  c #270908",
"O  c #340202",
"+  c #3B0B0B",
"@  c #3A0605",
"#  c #3A1515",
"$  c #2F130F",
"%  c #2E261A",
"&  c #091924",
"*  c #062C35",
"=  c #0C292C",
"-  c #2F2F2D",
";  c #03211F",
":  c #480808",
">  c #570908",
",  c #56110E",
"<  c #4C1413",
"1  c #471818",
"2  c #561817",
"3  c #4B0D11",
"4  c #650A09",
"5  c #69110D",
"6  c #670D11",
"7  c #681618",
"8  c #751616",
"9  c #770B0D",
"0  c #54211B",
"q  c #6C201E",
"w  c #551A22",
"e  c #711D21",
"r  c #5B2625",
"t  c #473426",
"y  c #6B2726",
"u  c #792727",
"i  c #6B3A39",
"p  c #783739",
"a  c #6F2E34",
"s  c #75463C",
"d  c #19394A",
"f  c #153B56",
"g  c #0C3B4E",
"h  c #223C59",
"j  c #253E67",
"k  c #733944",
"l  c #6C3C41",
"z  c #184656",
"x  c #0E434C",
"c  c #254959",
"v  c #2B4651",
"b  c #174767",
"n  c #1B5162",
"m  c #265166",
"M  c #34566A",
"N  c #295B76",
"B  c #2E506C",
"V  c #296879",
"C  c #326471",
"Z  c #4D4F50",
"A  c #7A4445",
"S  c #72514B",
"D  c #566D7A",
"F  c #6F666D",
"G  c #50605F",
"H  c #8A1919",
"J  c #991819",
"K  c #8F0D0F",
"L  c #A30D0D",
"P  c #A8181B",
"I  c #B31417",
"U  c #94211A",
"Y  c #8E1D22",
"T  c #872828",
"R  c #992726",
"E  c #863636",
"W  c #882E2F",
"Q  c #A72729",
"!  c #B92627",
"~  c #A73839",
"^  c #B33338",
"/  c #AF1D20",
"(  c #8E433E",
")  c #8C3C44",
"_  c #B63D44",
"`  c #874446",
"'  c #974949",
"]  c #895658",
"[  c #935153",
"{  c #A94949",
"}  c #A6595A",
"|  c #AE4D4D",
" . c #92645D",
".. c #8C5C62",
"X. c #B25D61",
"o. c #8A696A",
"O. c #996568",
"+. c #987978",
"@. c #8C7374",
"#. c #A66868",
"$. c #A77878",
"%. c #B77576",
"&. c #B56C6E",
"*. c #AB675E",
"=. c #C85858",
"-. c #C57778",
";. c #CC6D6B",
":. c #E06664",
">. c #C02022",
",. c #C4807F",
"<. c #285B84",
"1. c #285D93",
"2. c #1F6D8B",
"3. c #376886",
"4. c #387387",
"5. c #397899",
"6. c #2A6D91",
"7. c #387BA8",
"8. c #2F78A5",
"9. c #1F77A7",
"0. c #50748C",
"q. c #4277A7",
"w. c #6B7284",
"e. c #9A7A80",
"r. c #A67A82",
"t. c #B77F80",
"y. c #C47980",
"u. c #3985A9",
"i. c #3997BB",
"p. c #3390B3",
"a. c #2D9AB0",
"s. c #468797",
"d. c #6F8A94",
"f. c #4389A8",
"g. c #4A95BB",
"h. c #569FB9",
"j. c #4694AD",
"k. c #58A4BF",
"l. c #779BA9",
"z. c #399CCA",
"x. c #3CA7D6",
"c. c #3BACD3",
"v. c #4499C3",
"b. c #529BC5",
"n. c #588DC1",
"m. c #43A5C3",
"M. c #58B6D8",
"N. c #51AED1",
"B. c #69B3CE",
"V. c #4FB9E4",
"C. c #62B7E1",
"Z. c #5DC5DA",
"A. c #76C6DA",
"S. c #70C9ED",
"D. c #59CAEE",
"F. c #949496",
"G. c #A88889",
"H. c #B68687",
"J. c #B89799",
"K. c #B29197",
"L. c #BDA29C",
"P. c #B69DA2",
"I. c #91AAB4",
"U. c #BCA2A3",
"Y. c #ABB2B6",
"T. c #C98586",
"R. c #CB8D93",
"E. c #C89798",
"W. c #D38E8F",
"Q. c #E39491",
"!. c #D0A29B",
"~. c #D79FA8",
"^. c #C7A6A9",
"/. c #D9A8A8",
"(. c #DAADB3",
"). c #CAB9BA",
"_. c #D9B7B8",
"`. c #D1AFB0",
"'. c #E6B8BA",
"]. c #FCBBBA",
"[. c #E7ACAC",
"{. c #D9C2BC",
"}. c #CFC2BC",
"|. c #E7C4BE",
" X c #FFC1BB",
".X c #9DB9C5",
"XX c #A7B8C5",
"oX c #B7BFCC",
"OX c #DCBCC4",
"+X c #CFBFC2",
"@X c #E5BAC2",
"#X c #90C7D5",
"$X c #B5C7D1",
"%X c #86DEF4",
"&X c #CBC6C6",
"*X c #D8C7C7",
"=X c #D9D2CC",
"-X c #CAD4D9",
";X c #DCDCDC",
":X c #D9D6D5",
">X c #D3CDD1",
",X c #E6C9C9",
"<X c #FBC9C7",
"1X c #E7D2CD",
"2X c #F7D2CC",
"3X c #E6CCD2",
"4X c #F4CED4",
"5X c #E4D3D3",
"6X c #ECDBDC",
"7X c #E9D7D7",
"8X c #F4DCDD",
"9X c #FDDDDD",
"0X c #F9D5D5",
"qX c #DEE2DE",
"wX c #E4E2DD",
"eX c #ECE3DD",
"rX c #F3E4DE",
"tX c #FEE5DE",
"yX c #C8DBE5",
"uX c #EADDE1",
"iX c #FADDE2",
"pX c #F6DEE2",
"aX c #DAE4E8",
"sX c #D3EBF7",
"dX c #E4E4E3",
"fX c #ECE3E3",
"gX c #ECEBEB",
"hX c #E7E8E8",
"jX c #F3E3E4",
"kX c #FDE6EB",
"lX c #F3ECEB",
"zX c #FCEBEB",
"xX c #F8E8E6",
"cX c #F4F2EE",
"vX c #FCF2ED",
"bX c #F8F2E7",
"nX c #E4EDF3",
"mX c #EFEFF7",
"MX c #FEEEF1",
"NX c #F5EFF1",
"BX c #ECF2F5",
"VX c #EDFDFE",
"CX c #E9F6F9",
"ZX c #F4F4F4",
"AX c #FDF3F3",
"SX c #F5FAF5",
"DX c #FDFBF5",
"FX c #F3F6FA",
"GX c #FEF6FB",
"HX c #F5FEFE",
"JX c #FEFEFE",
"KX c #EEF3ED",
/* pixels */
"JXJXJXJXJXJXJXJXJXJXJXJXJXJXJXJXJXDXJXJXJXJXJXJXJXJXJXJXJXJXJXJXJXHXJXHXJXJXJXJXJXJXDXJXJXJXJXJXJXJXJXJXJXJXJXJXJXJXJXJXJXJXJXJX",
"JXJXJXJXJXJXJXJXJXJXJXJXJXJXJXJXJXJXJXDXJXJXJXJXJXJXJXJXJXJXJXJXJXJXJXJXJXJXJXJXJXJXJXJXJXJXJXJXJXJXJXJXJXJXJXJXJXJXJXJXJXJXJXJX",
"JXJXJXJXJXJXJXJXJXJXJXJXJXJXJXJXJXJXJXJXJXJXJXJXJXJXJXJXJXJXJXJXJXJXJXJXJXJXJXJXJXJXJXJXJXJXJXJXJXJXJXJXJXJXJXJXJXJXJXJXJXJXJXJX",
"JXJXJXJXJXJXJXJXJXJXJXJXJXJXJXJXJXHXJXJXJXJXJXJXJXJXJXJXJXJXJXJXJXJXJXJXJXJXJXJXJXJXJXJXJXJXJXJXJXJXJXJXJXJXJXJXJXJXJXJXJXJXJXJX",
"JXJXJXJXJXJXJXJXJXJXJXJXJXJXJXJXJXHXJXJXJXJXJXJXJXJXJXJXDXJXJXJXJXJXJXJXJXJXJXJXJXJXJXJXHXJXJXJXJXJXJXJXJXJXJXJXJXJXJXJXJXJXJXJX",
"JXJXJXJXJXJXJXJXJXJXJXJXJXJXJXJXJXJXJXJXJXJXJXJXJXJXJXGXDXJXGXJXJXJXJXJXJXJXJXJXJXJXHXJXJXHXJXJXJXJXJXJXJXJXJXJXJXJXJXJXJXJXJXJX",
"JXJXJXJXJXJXJXJXJXJXJXJXJXJXJXJXJXHXJXJXJXHXJXJXJXJXGXDXJXDXJXDXDXJXJXJXJXJXJXJXJXJXSXJXJXJXJXJXJXJXJXJXJXJXJXJXJXJXJXJXJXJXJXJX",
"JXJXJXJXJXJXJXJXJXJXJXJXJXJXJXJXJXHXJXJXJXJXJXJXJXGXJXJXDXGXDXJXDXDXDXJXJXJXJXJXJXJXJXJXJXJXJXJXJXJXJXJXJXJXJXJXJXJXJXJXJXJXJXJX",
"JXJXJXJXJXJXJXJXJXJXJXJXJXJXJXJXJXJXJXJXJXJXJXJXJXZXhX;XwXgXcXlXDXbXlXcXZXcXcXJXSXJXSXDXDXDXbXDXJXJXJXJXJXJXJXJXJXJXJXJXJXJXJXJX",
"JXJXJXJXJXJXJXJXJXJXJXJXJXJXJXJXJXJXJXJXJXZXKXhXdX;XdXhXKXFXZXDXcXcXvXDXSXBXgXhXZXJXJXcXDXDXDXDXJXJXJXJXJXJXJXJXJXJXJXJXJXJXJXJX",
"JXJXJXJXJXJXJXJXJXJXJXJXJXJXJXJXJXJXDXDXAXNXgXgXZXKXZXJXJXHXBXBXHXJXHXBXnXVXCXCXaXhXhXcXDXDXAXDXJXJXJXJXJXJXJXGXJXJXJXJXJXJXJXJX",
"JXJXJXJXJXJXJXJXJXJXJXJXJXJXJXJXJXGXlXlXgXcXGXJXHXJXHXFXBXBXBXFXVXVXVXVXVXVXVXVXVXBXaXgXAXzXbXDXJXJXJXJXJXJXJXJXJXJXJXJXJXJXJXJX",
"JXJXJXJXJXJXJXJXJXJXJXJXJXJXJXJXvXvXzXcXlXcXAXSXlXHXFXBXnXVXHXVXyX#Xl.l.l.I.$XsXsXHXHXhX;XuXMXJXJXJXJXJXJXJXJXJXJXJXJXJXJXJXJXJX",
"JXJXJXJXJXJXJXJXJXJXGXJXJXJXJXAX=X5XrXvXDXAXcXKXFXFXFXHXHXCXXXd.c f g m n g f B d..XsXFXFXnXuXfXJXJXJXJXJXJXJXJXJXJXJXJXJXJXJXJX",
"JXJXJXJXJXJXJXJXJXJXJXJXJXSXqX&X}.*X1XrXzXvXAXZXJXmXCXCX;XF.v = V V V 5.5.1.V C f B w.-XFXmX;XuXcXZXJXJXJXJXJXJXJXJXJXJXJXJXJXJX",
"JXJXJXJXJXJXJXJXJXJXJXJXJXfX}.P.1X1X=X=X5XfXcXGXZXHXHXaXd.d h 0.q.u.u.u.j.u.7.q.5.N b N .XmXmXaX;XgXJXJXJXJXJXJXJXJXJXJXJXJXJXJX",
"HXHXJXJXGXJXJXJXHXHXJXMXGXG.$.`.{.bXjXuXuXuXzXfXZXmXHXd.d N 7.8.9.z.z.z.N.i.b.p.7.7.1.3.f I.FX;XqXaXhXJXJXGXJXJXJXJXJXJXJXJXJXJX",
"VXHXJXGXJXGXJXHXHXJXMXGX/.#.*.[.{.eXkXAXuX3XjXDXAXHXXXM b 2.p.z.z.z.C.B.C.B.b.S.C.g.b.V <.m $XnX;X;X6XZXJXJXJXJXJXJXJXJXJXJXJXJX",
"HXHXJXJXGXJXJXHXJXJXkX9XR.Q.-.!.,X7XjXGXlX*X7XlXcXJXD c <.8.z.z.z.N.b.f.3.0.C D B.b.j.6.4.z D nXhX:X;XdXZXJXJXJXJXJXJXJXJXJXJXJX",
"HXHXJXJXJXJXJXJXJXGXMXO.' T.;. X9X9X7XjXuX3XjXGXGXBXv m s.i.v.x.Z.S.N 0.F F D M 3.h.p.j.3.3.h XXBXdXaX;XKXJXGXJXJXJXJXJXJXJXJXJX",
"HXHXJXJXJXGXJXJXDXDX[.7 e ~ | Q.'.7X4XjXjXjXGXAXJX$Xv N 6.g.x.x.Z.s.. G S Z G Z = V B.h.f.3.b 0.nXgXaX:XgXGXSXJXJXJXJXJXJXJXJXJX",
"JXJXJXGXJXJXJXJXDXAX` T ^ Q Q | [._.L.L.*XxXGXgXFXY.v V u.z.x.V.#XC . % % t $ % & * h.h.g.6.<.B -XmX;X:XhXhXSXJXJXJXJXJXJXJXJXJX",
"HXJXJXJXJXJXJXDXDX<Xe ^ J K Q =. X|.K.+.G.).MXZXBXI.c 4.u.z.x.N.A.C ; . . % $ . = ; V A.f.g.1.b XXZX;X;XhX;XJXJXJXJXJXJXJXJXJXJX",
"JXJXJXJXJXJXJXDXvX-.8 Q / ! L R W.2XkX0XY.P.+X:XJX$Xz V u.i.V.V.%XV ; - % $ $ % = * s.B.7.9.8.b I.JX;XuXhX>XJXJXJXJXJXJXJXJXJXJX",
"JXJXJXJXJXJXJXDXtX( U / >.! L ~  XtX`.2XiXpXGX&X-XsXc N 6.i.c.V.D.N.n & - w & - * x k.Z.a.u.1.B Y.ZXgX;XhXqXgXJXJXJXJXJXJXJXJXJX",
"JXJXJXJXHXJXGXAX XT J L L P / |  X2X`.1XiXGXGXgXuX$XD z u.u.z.c.c.S.h.n d & & * * j.Z.a.z.2.1.j oXZXhX;XhX;XhXJXJXJXJXJXJXJXJXJX",
"DXJXJXJXJXHXGXAXW.9 Q / I L ^ | <X,X,X9XpXMXkXmXJXnX.Xg 4.u.g.V.V.D.Z.k.s.G M 0.B.k.g.z.g.6.N h yXZXhXaXhX:XqXGXJXJXJXJXJXJXJXJX",
"DXJXJXJXJXJXJXAX%.9 ! I I P :.]./.,X4XGXMXpXuXMXlXHXCXD z 4.u.v.Z.c.c.S.#XB.B.C.C.b.b.n.2.5.N 0.nXNXdXdXhX:X;XGXJXJXJXJXJXJXJXJX",
"DXJXJXHXJXJXJXMX} H L I P J | ].t.^.P.pXpXuXMXMXGXgXJX$Xm m s.f.i.v.N.Z.m.N.Z.M.b.n.n.q.3.N z .XnXgXdXhXgX;X;XFXJXJXJXJXJXJXJXJX",
"DXDXJXJXHXHXGXMX( K L >.P U E E./.*XK.3XuX3XGXmXJXlXZXCX$XM b 4.q.p.i.a.z.a.a.a.C.7.1.q.0.* d.CXBXhXhXhXhXqX:XZXJXJXJXJXJXJXJXJX",
"SXDXJXHXJXJXGXMX{ K L I P ~ ,.[.0XkX3XkXuX3XNXkX:XjXmXCXVXI.m n 6.6.u.a.a.a.a.a.9.9.5.<.f D aXJXZXdXgXhXdXdX;XZXJXJXJXJXJXJXJXJX",
"DXDXJXHXHXJXGXMX{ 9 P P P ~ Q.,.(.<XiXkX+X+X+X7XAXxXJXgX$XVXyX0.g N 2.V V 2.2.9.6.1.b B M $XF.Y.ZXdXgXdX;XdX;XZXJXJXJXJXJXJXJXJX",
"JXJXHXHXHXJXDXMX' 9 P J :.Q U R T ,.[./.|.rXwXcXcXAXNXdXgXZXHXHX.X0.c z z z z n g c d.$XVXaX&X;XhXdXKXhXqXKX>XSXJXJXJXJXJXHXHXGX",
"JXJXJXHXHXGXDXAX[ 6 H Q :.U K U U T ;.[.|.tXbXeXcX5X>XjXJXJXZXBXHXJXaXXXI.d.d.d.I.yXsXnXCXJXFXgXlXfXqX;X:XaX-XJXJXJXJXJXJXJXHXSX",
"JXJXHXHXHXJXDXMX#.8 K ~ :./ H U R 7 ,.tX|.{.eXcX=X:XfXlXAXGXZXgX&XnXHXVXCXHXSXVXVXVXFXmXFXhXuXzXrXrX:XwXwXqX:XJXJXJXJXJXJXHXJXHX",
"JXJXJXHXHXDXDXAXR.7 H _ =.! U H T T ,.<X2X1X7X7X).6XGXDXfXlXZXKXaXaXBXHXHXBXnXKXmXCXhXqXdXjXfX6XrX7X*X7XwX>X:XSXJXGXJXJXJXJXJXSX",
"JXJXJXHXHXJXDXAX@X7 e _ Q R U H 8 ;.].].@X'.^.3X8X5X8XMXAXgXgXSXcXwX;XcXFXgXgXNXfXNXMXxXeXrXrXrX9X<X{.1X1X=XhXJXJXJXJXJXJXJXJXJX",
"JXJXJXHXSXJXGXDXGX) 8 ~ H H R ~ { &.-.!.0X(.$._.9X7X3X6XlXcXKXgXAXbXbXeXwXjXlXkXMX6XpXzXrX7X1X1XJ.t.[.2X1X=XKXJXJXJXJXJXJXJXJXJX",
"JXJXJXHXHXJXGXGXGXt.7 u H Y ~ { -.-.,.-.%.` k r._.4XiX3X5XeXfX;XwXbXkX6X6XiXiX7X6XpX8X1X,XrX5XL.p i E.|.}.{.KXKXJXJXJXJXJXJXJXJX",
"JXJXJXJXSXJXGXGXMX4Xe 6 8 W =.| } ;.T.` y %.~.R.'.@X3X8X7X*X*X=X7X6XrXjXkXiX8X3X,X`.*XtX*XL.J.^.` u /.|.`.=XDXDXJXHXJXJXJXJXJXJX",
"JXJXJXJXJXJXJXDXDXkXO.> 7 T { { { W.' p ' W.W.~.(.@X(.@X,X,X1X*X,X2X7X,XG.o.`.iXOXOX3X3XOXU.F.^.#.[  X/.L.eXDXSXSXHXHXJXJXJXJXJX",
"JXJXJXJXJXHXDXJXkXAX<X2 7 6 4 8 W &.} ' } W.&.&.t./.(.@X_._.|._.{.1X,X,X^.U.*XOXOXOXOX^.`.+X^.E.[.} E.`.|.DXKXDXHXJXJXJXJXJXJXJX",
"JXJXJXJXJXSXJXDXDXDXvXH.: 7 7 7 E { ( X.X.y.y.y.%.E.E.E.~./.'././.E.^.'.'.`.{.^.^.P.U.P.P.`.E.H.!.W.A E.vXDXSXJXJXJXJXJXJXJXJXJX",
"JXJXJXJXJXJXJXJXDXvXtXxXi : 6 5 u u q E W { X.-.&.%.#.t.R.W.W.&.%.$.R.'.`.L.!.^.^.r.K.K.r.H.G.H.#.O.i _.DXgXJXSXJXHXJXJXJXJXJXJX",
"JXDXJXJXJXSXJXHXDXDXDXvX[.r : e 5 > > 8 6 6 u ) }  .[ %.y.} ) u E [ ,.W.H.H.J.H.P.r.$.+.O.O.O.O.[ @ $.AXGXDXJXSXJXJXJXJXJXJXJXDX",
"GXJXJXJXJXJXJXHXDXSXDXvXzXW.6 4 5 4 5 9 9 6 7 u ` p ` #.} u 9 8 8 u X.-.%.$.$.+.o.o.+.] [ #.` r 1 F iXGXJXZXJXJXJXJXJXJXJXJXJXJX",
"JXJXJXJXJXSXHXHXJXKXJXDXvXzX&.4 > 4 4 4 4 4 6 7 y y y E E 9 9 Y Y 5 ( &.*. . . .S  .O.s ` [ p 2 l kXJXMXJXmXJXJXJXJXJXJXJXJXDXSX",
"JXDXJXJXJXJXJXJXJXDX{.O.H.#.&.u > > 4 > 6 6 > > , , , a T 6 9 9 9 4 W E p ( s s ` S s 3 3 q q ( 9XzXzXJXcXJXJXSXJXJXJXJXJXJXJXJX",
"JXJXSXHXJXJXGXJXGXkX$.0 7 5 5 8 : > > : > > > > 2 : , > , 8 6 7 5 7 u s p y 0 0 s r 0 r < @ [ 0XDXvXrXDXDXSXgXJXqXqXhXSXJXJXJXJX",
"SXJXHXJXJXHXJXGXGXvXtXW.&.;.;.| ;.[ q : : : : : > : , : > y 2 7 7 7 y u y r < 3 X 0 < @ 0 o.[.MXvXkXvXbXrXDXDXqXSXSXJXJXJXJXGXGX",
"JXHXJXFXhXgXuX+X+.r.'.tX2X2XtXtXX.) 7 3 > : : : : @ 3 : : < 3 2 2 < < < 2 < 3 + 3 1 : 1 s #.#.r.tXkXtXbXvXbXcXJXSXSXSXGXHXGXJXJX",
"SXJXJXJXGXJXJXuX3X*XkX9X!.%.*.( e 6 > 6 : : : : < @ @ : + @ O 1 1 1 + < + + + + O X + < : O 3 k E._.E.E.8XAXfXjXJXDXSXJXJXJXJXJX",
"SXKXSXFXdXZXJX;X).zXkX_.!.!.,.*.y > : > : @ + 3 O O X + + O @ + $ $ # $ o X X + O X X @ w a ) [  .$.~.@X4XkXGXJXwX:X>XdXFXJXJXHX",
"JXJXJXDXgXZXFXuX:XGXDXOX{.|.|.[.#.k r w 3 + @   + 1 + + X X o       o o o   $ # 1 1 w w 3 w k ) a a k t.4X3X*X7X>X&X&X;XFXJXJXHX",
"DXDXJXGXHXJXJXJXGXJXAXrX5X{.{.2XvX,X).^.G.e.o.A # 1 # r k k ] ] F o.@.@.@.F.F.G.o.o.G.`.~.O.k 1 O.@X@XOXkXMXpXGXJXDXGXJXJXHXHXHX",
"DXJXJXDXJXJXGXJXJXJXJXJXDXDXDXbXvXwXlXjX:X5X5X).*XJ.@.H.r.k k ] {.Y.}.&X+X).).+X3XOX3X3XOX@X4X4XkXMXMXMXGXGXMXGXJXJXHXJXJXJXJXJX",
"JXJXJXJXJXJXJXJXJXJXJXJXJXJXJXJXSXSXSXSXSXZXcXcXxXzXzXiX@XK.r.e.5X5X7XqXdXfXgXlXNXNXMXMXAXGXGXGXJXGXGXGXDXJXGXJXJXJXJXJXJXJXJXJX",
"DXDXJXJXJXJXJXJXJXJXJXJXJXJXJXJXJXHXHXSXSXSXSXGXAXAXGXJXGXMXMXGXAXAXZXGXGXFXSXJXSXSXSXHXGXJXJXJXJXDXJXJXJXJXJXJXJXJXJXJXJXJXJXJX",
"JXJXJXJXJXJXJXJXJXJXJXJXJXJXJXJXJXJXJXJXJXJXJXHXJXHXGXJXJXJXJXJXJXJXJXJXJXJXJXHXJXHXHXHXHXHXHXHXJXSXJXHXJXJXHXJXJXJXJXJXJXJXJXJX",
"JXJXJXJXJXJXJXJXJXJXJXJXJXJXJXJXJXJXJXJXJXJXJXHXHXFXCXHXHXHXSXFXJXJXJXJXHXJXJXHXHXHXHXHXHXHXHXHXHXHXHXJXHXHXJXJXJXJXJXJXJXJXJXJX",
"JXJXJXJXJXJXDXJXJXJXJXJXJXJXJXJXJXJXJXGXJXJXJXJXHXHXHXHXJXHXHXJXJXJXJXJXJXJXHXHXJXHXHXHXHXJXHXJXJXHXHXJXJXJXJXJXJXJXJXJXJXJXJXJX",
"JXJXJXJXJXJXJXJXJXJXJXJXJXJXJXJXJXJXJXJXJXJXJXJXJXJXJXJXHXSXHXJXJXJXJXJXJXHXJXJXJXHXJXJXJXJXJXJXJXJXJXJXJXJXJXJXJXJXJXJXJXJXJXJX",
"JXJXJXJXJXJXJXJXJXDXJXDXJXJXJXJXJXJXJXJXJXJXJXJXJXJXJXHXJXGXGXHXJXJXJXJXJXHXJXJXJXJXJXJXJXJXGXJXGXJXJXJXJXJXJXJXJXJXJXJXJXJXJXJX",
"JXJXJXJXJXJXDXDXJXJXJXDXJXJXJXJXHXHXHXHXHXHXHXJXJXJXJXGXGXGXGXGXJXJXJXHXJXJXJXJXJXJXJXGXJXGXGXGXJXJXJXJXJXGXJXJXJXJXJXJXJXJXJXJX"
};
