/* XPM */
static char *_579136728795[] = {
/* columns rows colors chars-per-pixel */
"64 64 256 2 ",
"   c #040002",
".  c #0C0101",
"X  c #03010A",
"o  c #0B0A0A",
"O  c #130100",
"+  c #1B0100",
"@  c #140902",
"#  c #1B0B01",
"$  c #150C0B",
"%  c #18120A",
"&  c #050314",
"*  c #1B1515",
"=  c #160D17",
"-  c #220301",
";  c #230C02",
":  c #2B0D00",
">  c #290604",
",  c #330A00",
"<  c #251203",
"1  c #2C1303",
"2  c #27160B",
"3  c #331402",
"4  c #341C0C",
"5  c #391B06",
"6  c #241A14",
"7  c #2A1C16",
"8  c #331E14",
"9  c #3B1C13",
"0  c #310617",
"q  c #3A2408",
"w  c #2B221A",
"e  c #3B2313",
"r  c #372619",
"t  c #2E2100",
"y  c #292422",
"u  c #362926",
"i  c #3B322B",
"p  c #303035",
"a  c #261428",
"s  c #421B16",
"d  c #45280A",
"f  c #432B1C",
"g  c #462A17",
"h  c #542E15",
"j  c #4B3216",
"k  c #5B341B",
"l  c #5D3A1D",
"z  c #563618",
"x  c #503008",
"c  c #653B16",
"v  c #63361C",
"b  c #643B1C",
"n  c #6A3B1C",
"m  c #673617",
"M  c #652F13",
"N  c #481B33",
"B  c #482C23",
"V  c #4D3323",
"C  c #4C3A2C",
"Z  c #463528",
"A  c #533523",
"S  c #5C3522",
"D  c #5C3C23",
"F  c #543B2C",
"G  c #5C3D2A",
"H  c #573727",
"J  c #493A35",
"K  c #533E32",
"L  c #593D34",
"P  c #532D22",
"I  c #623722",
"U  c #633B23",
"Y  c #693C23",
"T  c #633C2A",
"R  c #683F29",
"E  c #753E25",
"W  c #643D32",
"Q  c #684218",
"!  c #78491A",
"~  c #5E4124",
"^  c #5B422B",
"/  c #564328",
"(  c #5B4333",
")  c #5A443D",
"_  c #574638",
"`  c #4C4138",
"'  c #6A4124",
"]  c #63432C",
"[  c #6B432B",
"{  c #654526",
"}  c #7D4D2B",
"|  c #774827",
" . c #7D532B",
".. c #634333",
"X. c #684936",
"o. c #734C35",
"O. c #685139",
"+. c #745235",
"@. c #7C5435",
"#. c #7C543C",
"$. c #77563C",
"%. c #6C552B",
"&. c #7B6236",
"*. c #5C4019",
"=. c #3E3F43",
"-. c #653F4A",
";. c #474445",
":. c #574843",
">. c #5C524C",
",. c #595757",
"<. c #684A43",
"1. c #675246",
"2. c #7D5A44",
"3. c #785845",
"4. c #665652",
"5. c #745653",
"6. c #7B634A",
"7. c #686159",
"8. c #7B6457",
"9. c #755F63",
"0. c #6A6666",
"q. c #776D6A",
"w. c #7C736C",
"e. c #7A7574",
"r. c #8A511C",
"t. c #844E2C",
"y. c #8C4E2B",
"u. c #864C25",
"i. c #924F28",
"p. c #84522C",
"a. c #8C532D",
"s. c #8D592E",
"d. c #885426",
"f. c #915126",
"g. c #93542C",
"h. c #97592D",
"j. c #854E32",
"k. c #845333",
"l. c #8B5433",
"z. c #845935",
"x. c #8C5934",
"c. c #84563B",
"v. c #845A3C",
"b. c #8B5B3B",
"n. c #895539",
"m. c #915533",
"M. c #935A33",
"N. c #935D3B",
"B. c #985934",
"V. c #904F31",
"C. c #89643B",
"Z. c #956639",
"A. c #986B34",
"S. c #A47339",
"D. c #845C42",
"F. c #8A5E42",
"G. c #845A48",
"H. c #895357",
"J. c #8C6343",
"K. c #87644A",
"L. c #956742",
"P. c #866957",
"I. c #937653",
"U. c #8B746C",
"Y. c #A07757",
"T. c #9A8754",
"R. c #B49056",
"E. c #BEA75C",
"W. c #95857A",
"Q. c #BD9B68",
"!. c #B99C76",
"~. c #AF8E6B",
"^. c #BAA376",
"/. c #BEA165",
"(. c #CA9A56",
"). c #C6A747",
"_. c #CCB25A",
"`. c #D0AE5A",
"'. c #C6A869",
"]. c #D5A968",
"[. c #CAAB78",
"{. c #D6AA77",
"}. c #D8B578",
"|. c #CFB769",
" X c #E3B77A",
".X c #C49567",
"XX c #D8C26B",
"oX c #EBC76D",
"OX c #7A7F83",
"+X c #AC7987",
"@X c #7F8082",
"#X c #8E8887",
"$X c #958988",
"%X c #9A9896",
"&X c #938F91",
"*X c #A79B99",
"=X c #B29686",
"-X c #B6A792",
";X c #A8A8A8",
":X c #BBB7B7",
">X c #B6B0AC",
",X c #9EA3A9",
"<X c #CAAC83",
"1X c #CAB387",
"2X c #D8B886",
"3X c #D5BA96",
"4X c #CBB291",
"5X c #E4B98D",
"6X c #C5B9BA",
"7X c #D5ABAE",
"8X c #E9ADBD",
"9X c #C992A8",
"0X c #DEC398",
"qX c #D3C588",
"wX c #E4C696",
"eX c #E9C287",
"rX c #CAC2BC",
"tX c #D4C3BC",
"yX c #BEBEC6",
"uX c #EE98C9",
"iX c #CBAFC2",
"pX c #ECA8C8",
"aX c #F8ABD4",
"sX c #F7B3DA",
"dX c #F0B1C8",
"fX c #FFB4E1",
"gX c #FFAEE0",
"hX c #CCC5C4",
"jX c #CCC9C8",
"kX c #D2CDCB",
"lX c #C9CCD1",
"zX c #DBD8D9",
"xX c #D3D1CD",
"cX c #FBC4D7",
"vX c #E4DCDB",
"bX c #F1CDD1",
"nX c #E9E2DD",
"mX c #FCCAE2",
"MX c #ECECEC",
"NX c #E8E5E5",
"BX c #F3EBE9",
"VX c #F3F3EE",
"CX c #FEF6ED",
"ZX c #EAEDF2",
"AX c #EDF3F4",
"SX c #EDF4FB",
"DX c #F4F4F4",
"FX c #FBF5F4",
"GX c #F5FAF4",
"HX c #FCFCF5",
"JX c #F5F6FA",
"KX c #FAF5FB",
"LX c #F5FCFD",
"PX c #FDFEFD",
"IX c #F4EFF0",
"UX c #DBE5DA",
/* pixels */
"HXHXHXHXHXHXHXHXHXLXVXGXLXPXPXPXPXHXPXZXJXLXLXLXLXLXPXPXHXHXHXHXHXHXPXPXKXPXPXPXPXMXPXHXGXHXHXHXKXPXPXFXHXHXHXJXPXPXPXPXPXPXHXGX",
"PXHXHXPXHXHXHXPXHXHXGXPXGXNXjX;X;XVXGXPXPXLXLXZXPXPXPXJXHXHXHXHXHXHXHXPXPXPXPXPXPXPXPXHXJXHXHXPXxX&Xq.q.w.%XUXPXPXKXJXPXPXPXPXHX",
"PXPXPXPXPXPXPXPXHXGXPXjXe.` % i %   _ jXPXKXJXPXSXLXPXPXPXHXPXPXPXPXPXPXLXPXPXPXNXKXPXFXPXFX6X>.% u O . % o o 0.zXKXJXJXPXGXHXHX",
"PXPXPXPXPXPXPXPXPXPX>X` i _ C ` O.i 2 . w.HXPXKXPXPXPXPXJXDXGXHXHXLXPXLXPXLXPXLXPXKXMXPXFX&XJ 7 Z Z Z J _ j % o u >XPXPXPXPXHXHX",
"PXPXPXPXPXPXPXKXPXjX:.J _ ^ 6.V V / 1.Z . >.VXPXFXKXKXPXPXPXHXPXLXLXLXGXLXLXLXPXPXZXPXIX+Xp 7 :.) ^ O.O.j / / r   . 6XPXMXPXPXHX",
"PXPXPXPXPXPXPXPXKX4.` O.q O + + z z z ( ( # Z HXPXPXDXIXNXzXxXxXxXUXGXLXLXPXHXLXFXPXKX$Xy N ) L F d : 1 j / / O.C O i NXIXHXPXHX",
"PXPXPXPXPXPXKXPXiXJ ( 3 d J.z.Q + + G V X._ O 5.6X*XU.:.i w 6 w 6 w y ` 7.%XzXPXHXFX*XJ u :.L K - - d d # O q / C C . e.PXPXPXPX",
"PXPXPXPXPXPXPXKX9.L 1 $.wX[.eX|.~.; # ^ F f 2 O 5 : < r B f f r r t 4 < . O % r U.6X8.2 ) :.r O x T.{.[.R.x ; d ( B r . kXPXGXHX",
"HXPXPXPXPXPXPXnX:.u f 3X'.'. X/.4X>Xq O q . + 3 G W O.2.K.D.2.#.%.T G S H H s ; O ; e r _ V O / [.5X[.^.wX[.Q + ^ C i O e.PXPXJX",
"PXHXPXPXPXPXFXvXr f D <X2X[.].].4X=X( O O 1 H G.3.D.F.b.v.b.k.k.@.} E I Y Y U A ^ 3 e ] O.< # ~.3XQ.[.}.Q.2X[.: q ( K . J IXPXHX",
"HXPXHXPXPXPXFXvX8 f z 1X2XQ.{.qX!.r # # A P.D.c.c.n.n.l.l.s.l.a.B.V.u.E n m Y [ l ~ %.z D j + 1 Y.2X2XQ.2X{.!.z : X._ . 7 zXPXPX",
"PXHXPXPXPXPXHXnXw C t <X[.[.}.I.; O j O.$.2.o.F.j.j.t.a.y.a.g.g.V.i.V.V.E M k v { U D j / %.x < + J.[.[.2X[.wXx ; ( J . w zXHXJX",
"PXPXPXPXHXPXHXCXr r q 6.0X0XI.+ O j $.$.v.J.n.| n.l.m.m.m.y.a.a.V.i.y.m.l.E m v R k D b ~ { { { 3 + { <X3X!.3Xx ; ) J O u zXLXJX",
"PXPXPXPXKXHXPXHX7.% ` e -XT.$ + z J.C.@.v.k.m.l.m.m.m.m.V.l.V.y.V.y.p.x.n.} Y U h [ o.U k D k h O.5 + *.^.1X!.d < 1.Z . p NXPXPX",
"PXKXPXPXPXPXHXHXrX% J r 1.2 O X.C.z.! s.N.u.p.m.u.y.y.l.l.l.x.n.n.n.k.k.c.@.[ l [ R h S [ S I o.A ] j O d [.<X+ d 1.w . 0.AXPXPX",
"PXKXKXPXPXPXPXHXHXi y Z O O F 2. .d.x.s.u.a.N.y.m.l.V.l.l.l.n.n.k.z.z.z.v.v.@.' k [ U I [ R v D / / ] d : j D O ( :.O o *XPXHXLX",
"PXPXPXPXPXPXPXPXPXiX  7 + d c.n.a.a.a.s.s.s.p.y.l.l.l.l.l.l.l.l.c.c.z.k.z.z.} | Y Y Y Y U U D l z { U { h + O B :.w o =.lXPXMXPX",
"PXPXPXPXPXPXPXPXPXKXU.. , o.L.u.M.g.x.a.l.x.N.N.n.l.l.l.l.a.m.l.c.c.k.l.s.x.d.p.M v v I U ~ Q Q b [ Y v ] h f _ ;.* & @XZXPXHXGX",
"PXPXPXPXPXPXPXPXPXPX*XO T F.x.x.s.l.a.a.t.l.k.l.n.l.l.l.l.l.s.l.l.n.l.l.s.s.s.x.n m v Y Y U l l v [ v v [ T V K u   p lXPXPXPXDX",
"PXPXPXHXPXPXPXPXHXnXC j K.@.t.l.x.x.x.b.x.n.l.k.l.l.l.l.a.l.l.l.l.l.l.s.d.d.d.a.E E Y n b v c v b v v ' U d : 8 o $ %XLXPXPXPXHX",
"PXHXHXPXPXPXHXPXHX-X# O.K.%.b.u.k.z.z.b.b.n.x.n.l.l.l.l.V.l.l.l.V.V.m.a.d.a.d.p.| n v v c c c n ' b v ' ' d - O % 0.NXPXLXPXGXPX",
"HXPXHXPXPXHXHXHXBX1.e O.K.+.C.J.b.v.v.#.k.k.k.k.l.l.l.l.l.l.l.V.l.y.g.a.s.s.x.z.l.| Y I ' v c c l R v v R R e O u jXPXPXPXPXPXFX",
"PXHXPXHXPXPXPXHX>Xt ( 3.6.@.$.2.+.$.$.D.F.b.x.n.l.l.V.l.l.l.n.l.l.y.a.l.x.x.z.@.#.[ T T ' I k b v U v k b o.S < 7 hXPXKXPXPXPXHX",
"PXPXPXPXPXPXPXHX8.4 3.3.+.K.o.5 3 g D o.D.b.n.l.a.l.l.l.l.l.l.l.m.m.p.k.z.c.+.X.H B P H ] { Q b U b ' Y b D D f . #XPXLXPXPXMXPX",
"PXKXLXPXLXPXPXnXC V 3.3.P.g O + O O - 3 #.D.j.x.l.g.l.l.l.l.l.n.l.n.k.@.K.G 5 O . . O 4 L ..z { U U b b v U G ^ O w DXKXPXHXPXPX",
"PXPXLXPXPXLXPX6X9 W G.3.G > O . . . + O d c.b.k.l.a.a.g.l.l.n.l.j.l.j.D.+.3 O . . o . O 8 F / l D I b n v b U ^ ; % hXJXPXJXPXHX",
"PXPXPXPXPXPXPX#X> o.G.3.3 O O   . . O O - o.F.t.l.g.V.a.l.l.n.n.j.V.c.G.j . . .   . & . O f ] D U b U v n b U ^ r . $XPXPXLXPXPX",
"PXKXLXLXPXPXKX1.9 2.c.#.> O *     . . . O [ n.x.a.a.a.g.l.l.l.n.n.F.c.#.3 O .   X X X . O 8 / ~ G U b v b b U G C . 0.PXPXPXPXPX",
"PXPXPXSXLXPXNXZ h G.@.#.: O $   o     O O [ c.x.a.g.g.a.l.l.n.l.m.N.z.#.5 . .   X X X   . q ~ { l b b b v n U ] F . >.PXPXPXPXJX",
"HXJXPXSXLXPXjXq l c.b.v.d .   X   X . . # o.b.k.a.g.g.y.l.l.l.n.V.y.t.F.f .   o X o X . . f { z U U b b c n U ^ C . ;.GXKXPXPXHX",
"HXGXPXLXLXPX*X1 { p.x.z.] <   X X   o O B $.v.l.g.g.g.g.l.l.n.l.m.i.t.b.X.@   .   & X . < F { k D I b b c v U T A . i MXPXKXPXPX",
"HXGXPXLXLXLXW.% $. .Z.u.J.A # .     @ 8 6.D.} N.p.g.l.a.l.l.l.l.g.g.d.p.J.j # .   . . # V ] l b I D b b b b U ^ F O y vXPXJXPXPX",
"HXHXPXLXLXPX,.7 2.u.h.f.u.N.| ] g z $.@.@.} N.t.s.x.d.! s.x.! s.r.f.d.C. .C.{ d , 0 g P W T T I Y U I b b ~ D G ( . u vXKXPXKXPX",
"CXHXPXLXLXLX;.u 2.u.h.f.f.m.u.t.J.z.@.d.Z.| ! u. .! C.L.d.s.A.! r.r.r.! Z. .#.F.E W T T W I S I I U U b *.l ~ / ( . u vXKXPXPXPX",
"CXHXPXPXLXzXu K v.p.f.f.f.h.t.F.K.$.t.m Z.A.S..X{.1X2X}.'..X(.(.S.A.s.u.x.| J.#.T S P I I I Y R U U b *.Q D ~ F K O y vXPXPXPXPX",
"PXHXPXLXLX,X6 O.v.l.f.i.h.m.c.F.$.q > x R.{.{.2XQ.I.{ %.T.}. X].}.{..XR.h E P.T T I I T T U b b U U b U b *.D G K O y vXPXPXLXPX",
"PXDXPXKXPXq.2 3.n.M.f.f.m.x.c.3.V O , Z. X X5X.Xd . . O # { {.{.].{.{.~., - h S W W W W { b c c v U Q D b l *.^ L # 7 xXPXPXPXKX",
"PXFXPXPXHX:.f #.a.g.f.g.l.c.3.H . F ~.5X].(.{.M . $ = * . + I.5X{.].2X{.Y.> - W P S T I v v n Q U U b b b *.l G L > = hXPXPXPXPX",
"KXPXPXPXtXr ^ n.a.f.f.h.j.D.3.1 @ W.2X}.].].5X: X = & & & + $.1X]..X].[.5XG.- , W <...T v b n n U U b b Q *.*./ ^ : O 6XPXLXPXLX",
"SXPXDXHX$X1 +.b.s.f.g.B.} c.3.O e 1X[.].`.(. Xz o & & =   . P.qX(.|.}.'.<X3Xh + P H W I k b b c v U U n b c b G ..< . 6XPXPXPXGX",
"LXPXLXHXK P v.z.M.u.h.a.b.#.<.+ q qXE._.`.).oXS.X   o     t ^.XX_._._.E.qX1XI.- 3 X.T S Y Y n c U U b b c c l U ..8 . *XKXPXDXKX",
"PXJXPXrXe j v.l.a.f.h.t.n.F.3.- t ^.|._.oX)._.|.T.  o   q T.XXR.).).|.|.E.[.!.> , [ T S Y I v n Y U U b b Q b ~ G B + e.PXPXPXLX",
"LXPXPXw.8 X.J.l.d.M.l.t.v.F.G.d @ I.0X/.E.|.|.wX0X=X8.P.qXqXXX|.XXXX_.E.|.1X~.+ 3 U T I Y I I Y U U b b c Q Q l D F + ` PXJXPXLX",
"SXSX*Xi G K.@.k.a.l.p.n.b.c.k...@ r =X3X[.0X^.Y.G r ; g / &.E.XXE.XXE.^.wX1X+.O 5 T R I Y v Y Y U D l c c c c b ] H + 6 zXPXLXPX",
"LX:X;.C 8.G.#.v.} n.k.b.j.l.n.G.B + 9 P.P.O.9 + > > N 0 - > > G T.^.2X1X^.6.+ > z { D b Y I Y I I U I b c Q c n W F 8 . $XPXAXPX",
",X;.* i 4 5 J.v.c.J.n.x.} m.N.} H.P + O . . + -.+XdXfXpX9XH.0 $ O @ g A 3 # + j ~ { l U Y v E v T U b b c c c c I W K O J PXLXLX",
"p   $ * O + o.v.F.} n J.t.l.h.u.j.J.%.# @ C U.mXsXsXuXfXsXpXmXa 2 ; . O # 1 j ( ^ { k ' Y M E v U D I n c c c b D W :.2 o :XPXSX",
",X;.7.>.U.1 e P.$., , F.z.u.a.M.x.u.C.q @ _ W.bXpXaXgXuXgXgXpXN N 9.O 2 L L ^ S D b l ' n k Y U U U b n c c c v { A ) Z   e.PXLX",
"PXJXGXHXPXu * 7.i O # A K.v. .x.a.y. .x O F +XpXdXpXgXuXgXfXiX0 J :.. 4 ..G l ' U Y Q v c U Y b Y m n n m m n v l X.F :.$ % zXPX",
"HXPXPXKXLX0.o 7.$ . O C P.[ , m N.g.b.h + ) U.sXpXsXgXfXpXpX9X$ 4.C . e ] D k c c c m c v U U U Y m n Y n n n n h - > C u . %XLX",
"HXPXPXJXPX;X  y   :.@ q 3.D + | N.a.b.x + L -.+XcX8XpXaXpXcX5.+ P.4 O j { { l c Y n n n Y U U I v n Y m m v Y U g O O % .   ;.JX",
"HXPXPXJXLXNX*   y xX>.@ 8.f O [ b.p.z.%.O V P 9 8X8XsXpXpX9X+ L 8.O - A U R n n n c m Y Y b S Y I I v I U I b T T f . 8 y   X ,X",
"PXHXHXPXPXKX@Xy e.VX:X  Z O 5 6.z.k.+.$.O 5 ( + +XdXdXbX7Xs + 8...O 5 ] U U v n M k m U Y D T T T T D D [ R H ] j r # w.NX%Xp OX",
"PXFXPXPXPXPXAX;XIXHXHX:.  . r 6.#.v.@.6.# + 1.s > =X8XH.s , 3.6.5 O g ] { I U U ' Y R R W W L G G X.H f ....A V 1.( O w PXDXZXSX",
"HXFXHXPXDXPXPXPXJXMXVX:Xo i w 2 X.$.$.6.V O ( 4.s - > > s 3.3.( + ; G G T G T S D H g g V L B 4 r ) B : f L f < 7 K 6   lXPXLXSX",
"PXPXPXPXDXPXSXPXPXPXPXPXrXrXNXW.1 4 f _ _ . 2 5.3.<.S W #.G.O.+ O f 1.K L V V g : ; + O > u 2 . ; K r O # C 8 . . i * o ;XPXJXLX",
"PXHXPXPXPXPXPXPXPXPXPXPXPXPXPXPXnXU.L 7 # . # 8 4.H.P.P.8.) 2 . 7 w w 2 O O # < r q.$X$X. . . = . i y O . $ w @ . .   % &XAXPXAX",
"PXPXPXPXPXPXPXPXPXPXPXPXPXPXPXPXKXPXFXhX*X#X:.. 6 J :.J w O . @ . $ w J >.e.*X6XvXBXKXFX0.  p :X6 6 . 6 #X%     * ;.o   ,XLXPXPX",
"PXPXPXPXPXPXPXPXPXPXPXPXPXPXPXPXIXPXPXPXPXPXBX>X= . . . O y 4.U.%X;XjXNXDXPXPXPXPXJXPXPXyXp ,.SX#X  o ;.HX>X*   $ ;X*X=.;XPXPXLX",
"PXPXPXPXPXPXPXPXPXPXPXPXPXPXPXPXPXJXFXPXPXPXKXFXjX&X0.w.%XhXFXKXHXPXPXPXPXPXKXLXPXLXPXPXPXlXlXKXDX=   #XMXFXzX0.y ,XHXGXPXJXPXPX",
"PXPXPXPXPXPXPXPXPXPXPXPXPXPXPXPXLXLXPXPXPXPXPXGXHXGXMXHXKXPXPXKXPXPXHXLXPXPXPXPXPXPXPXJXPXPXPXKXLX;X=.>XPXPXKXPXDXMXPXPXHXDXPXGX",
"PXPXPXPXPXPXPXPXPXPXPXPXPXPXPXPXLXPXPXPXDXHXHXHXGXGXPXPXPXKXPXPXJXHXPXPXPXPXHXJXPXJXPXPXDXPXPXPXPXDXZXLXPXLXPXLXDXPXPXMXPXHXHXVX",
"PXPXPXPXPXPXPXHXPXHXPXPXPXPXPXPXLXSXLXPXHXGXHXHXGXLXLXZXJXLXPXPXPXHXHXHXGXHXPXPXPXGXHXPXPXHXHXHXIXPXJXSXPXZXPXAXPXPXPXPXHXNXVXHX",
"PXPXPXPXPXPXPXPXPXPXHXPXPXPXPXPXLXLXLXPXHXHXHXHXGXLXLXGXPXPXKXPXJXHXHXHXPXPXHXHXHXHXPXVXPXHXHXPXPXZXPXPXPXPXAXPXPXJXPXHXPXPXHXHX"
};
