/* XPM */
static char *c09f8adc961249e38185b5c08f3248e7[] = {
/* columns rows colors chars-per-pixel */
"64 64 181 2 ",
"   c None",
".  c #0B0406",
"X  c #0E0608",
"o  c #0F090A",
"O  c #070403",
"+  c #120C0D",
"@  c #18140E",
"#  c #1A1414",
"$  c #1E191A",
"%  c #1D1718",
"&  c #221913",
"*  c #211D1D",
"=  c #23201F",
"-  c #312A1F",
";  c #262121",
":  c #2E2928",
">  c #292525",
",  c #322C2B",
"<  c #3B3327",
"1  c #463A28",
"2  c #523D25",
"3  c #4D402A",
"4  c #554127",
"5  c #5B452A",
"6  c #534228",
"7  c #624A2D",
"8  c #694F30",
"9  c #615333",
"0  c #665834",
"q  c #6E5D3A",
"w  c #67563A",
"e  c #715534",
"r  c #7C5D38",
"t  c #775A37",
"y  c #73633E",
"u  c #7B653C",
"i  c #7C693F",
"p  c #4F4B4D",
"a  c #7A4E5A",
"s  c #7D535B",
"d  c #775253",
"f  c #7D6942",
"g  c #786540",
"h  c #7B715A",
"j  c #8A5F3E",
"k  c #9A473B",
"l  c #84643C",
"z  c #81555F",
"x  c #A65D4B",
"c  c #856D41",
"v  c #916746",
"b  c #867246",
"n  c #8A7346",
"m  c #8D7947",
"M  c #8B7549",
"N  c #8F7B49",
"B  c #937D4A",
"V  c #8A6957",
"C  c #977B55",
"Z  c #BC634C",
"A  c #B46D4D",
"S  c #AE734C",
"D  c #B5784F",
"F  c #B36351",
"G  c #BC7952",
"H  c #835860",
"J  c #946A6B",
"K  c #AA7A76",
"L  c #CB5F4E",
"P  c #C9614E",
"I  c #CF6250",
"U  c #C96854",
"Y  c #D16552",
"T  c #D5725B",
"R  c #DC7C64",
"E  c #E27C64",
"W  c #97834C",
"Q  c #9B844E",
"!  c #9A884E",
"~  c #9C8352",
"^  c #9E8C51",
"/  c #A38C53",
"(  c #A78C58",
")  c #A48857",
"_  c #BE8255",
"`  c #A49155",
"'  c #AC9356",
"]  c #A3925D",
"[  c #AB935B",
"{  c #AC995B",
"}  c #B2975B",
"|  c #B49B5A",
" . c #BA9E5D",
".. c #BCA15E",
"X. c #B4A15C",
"o. c #8D8363",
"O. c #998C61",
"+. c #9E9369",
"@. c #989075",
"#. c #A48467",
"$. c #A79865",
"%. c #B59A60",
"&. c #B69962",
"*. c #B38A7D",
"=. c #A99E7A",
"-. c #A29776",
";. c #BBA362",
":. c #BFA962",
">. c #B4A368",
",. c #BCA369",
"<. c #BCA96D",
"1. c #B4A062",
"2. c #B6A875",
"3. c #C59C5E",
"4. c #C7955C",
"5. c #CC8760",
"6. c #D28261",
"7. c #CB9C63",
"8. c #E7836A",
"9. c #C3A662",
"0. c #C5A963",
"q. c #C9AB64",
"w. c #C6A969",
"e. c #CCB167",
"r. c #CCB269",
"t. c #CFB86A",
"y. c #D3B469",
"u. c #D5BB6C",
"i. c #DDBD6E",
"p. c #DAB46D",
"a. c #CBB97C",
"s. c #C3B071",
"d. c #D6BE73",
"f. c #D9BF70",
"g. c #D4A467",
"h. c #E0BF6F",
"j. c #DFC06F",
"k. c #DDC473",
"l. c #DFC67B",
"z. c #E0C06F",
"x. c #E3C371",
"c. c #E6C974",
"v. c #EACC76",
"b. c #ECD077",
"n. c #EED178",
"m. c #F3D57B",
"M. c #F5D97D",
"N. c #A96E81",
"B. c #9D9680",
"V. c #B2AB92",
"C. c #C3B88A",
"Z. c #C2BA9A",
"A. c #C18AA0",
"S. c #C4BFAF",
"D. c #DAC584",
"F. c #DAC784",
"G. c #CEC299",
"H. c #DACB99",
"J. c #E1CE8E",
"K. c #E4CC82",
"L. c #EDD381",
"P. c #EBD48B",
"I. c #F2D683",
"U. c #F5D983",
"Y. c #F3DA8A",
"T. c #E8D69A",
"R. c #F4DC93",
"E. c #F5DE9B",
"W. c #F6E19D",
"Q. c #C9C0A2",
"!. c #ECDBA3",
"~. c #F5DFA1",
"^. c #E5DBB8",
"/. c #F5E2A5",
"(. c #F6E4AE",
"). c #F6E6B0",
"_. c #F8E8B3",
"`. c #F8E9B9",
"'. c #CAC9C9",
"]. c #FAEDC2",
"[. c #F7ECC5",
/* pixels */
"                                                                                                                                ",
"                                                                                                                                ",
"                                                                                                                                ",
"                                                                                                                                ",
"                                                                                                                                ",
"                              =                                                                                                 ",
"                            ; ;                                                                                                 ",
"                          = % +                                                                                                 ",
"                          * . X                                                                                                 ",
"                        $ + O 1                                                                                                 ",
"                        @ @ m k.                                                                                                ",
"                        - { M.b.                                                                                V.^.B.          ",
"                      - { M.M.b.                                                        * >                   Z.[.].Q.          ",
"                      $.m.m.n.c.                                          =.o.+ . X + % : ,                 G.].].].^.          ",
"                      D.M.M.M.k.                                    [ a.J.R.O.X X X + % : ;               H._.`.`.`.).=.        ",
"                      F.M.M.M.u.                                e.k.n.m.m.n.9 X X X + #                 k./.(.`.(.~.R.,.        ",
"                      K.m.m.M.r.                            :.c.m.m.m.m.m.9.& X o @ +               ! x.U.R.~.~.(.Y.m.e.        ",
"                      K.M.M.m...                        :.v.M.M.m.m.m.m.n.0 . X + o               ! k.M.m.Y.~.R.Y.M.m.u.        ",
"                      l.m.n.d.2.C.H.!.J.k.u.w.|     l i.M.M.n.n.m.m.m.m.e.& X .                 ^ c.M.m.m.U.U.M.M.M.M.c.        ",
"                      k.U.T.!.)._._.).E.U.M.M.n.b.t.x.m.n.n.n.n.n.n.n.c.0 O                   ^ c.M.n.n.m.I.M.m.M.m.m.n.^       ",
"                      s.~.(.(.).).).W.P.a.:.b.n.m.m.v.c.c.v.v.c.c.i.0.B                     Q z.n.m.n.n.n.n.n.n.m.m.m.m.[       ",
"                    <.!.).).)././.W.n.-.'.< ^ M.m.M.n.x.i.y.p.0./                         ! j.v.v.b.n.v.v.n.n.m.n.n.n.m...      ",
"                  ] F.(.).)./.E.Y.U.:., p # g M.m.m.m.x.i./                               p.x.c.c.v.v.v.v.v.v.v.n.n.n.M.0.      ",
"                  @.Q.T./.R.Y.M.m.M.u.< % 1 X.M.M.m.v.x.z.0.                            p.x.x.h.z.z.x.v.v.v.c.v.b.m.m.k.`       ",
"                0 : h L.L.c.m.M.m.m.M.e.^ r.b.p.7.q.c.x.x.h.Q                         0.x.x.x.x.x.x.x.x.x.c.c.c.v.c.e.          ",
"                y % ! M.m.b.M.M.n.u.b.M.M.M.g.R R Z 3.x.z.x.0.                      0.c.x.x.x.x.x.x.x.x.z.z.c.x.y.^             ",
"              X.0.` v.c.u.;.0.&.C $.M.M.M.c.6.8.E Y D i.z.c.i.B                   } x.x.x.x.x.x.x.x.x.x.x.c.i.|                 ",
"              v i.M.v.u.[ d s s s ~ M.m.M.p.U E T I D i.z.z.z...                  q.c.x.x.x.x.x.x.x.x.x.z.0.B                   ",
"              F 5.v.M.M.v.V z z H V v.m.m.g.Z Y Y I G x.i.x.z.y.                  ` z.z.z.z.z.z.h.x.x.h.}                       ",
"              x T 9.M.m.M.&.s s a V v.m.x.i.A L I L 3.j.i.i.h.i./                   y.z.h.i.h.h.z.z.0.m                         ",
"                P _ n.m.M.c.V a N.K h.h.h.h.g.S A 4.i.x.x.i.h.h.0.                  ' i.h.y.i.i.p.'                             ",
"                k A k.c.c.c...J A.B.h.h.h.h.x.i.i.x.x.x.x.h.x.i.i.W                    .y.y.y...                                ",
"                  j i.x.x.h.x.w.#.&.x.x.h.h.x.x.x.z.c.k.e.t.t.j.h.9.                  B w.q.(                                   ",
"                    } u.h.h.i.x.c.z.x.x.x.x.x.h.x.c.q.O.$.V.k.b.v.c.`                   } w.Q                                   ",
"                      B q.x.i.i.x.x.x.h.x.x.x.x.x.h.{ w.r.<...m.m.M.|                   / &.|                                   ",
"                O.<.u.k.i.c.x.x.h.x.x.x.h.h.x.x.x.9.` u.y.y...v.m.M.y.w               ~  .%.&.n                                 ",
"            2.D.P.U.M.M.M.n.b.c.x.x.x.x.h.x.h.x.z.| e.e...q.q.v.M.m.n.{ 9         g ( &.%.%.[ f                                 ",
"        %.k.L.U.M.M.M.m.m.M.M.m.v.c.x.x.x.x.x.x.c.y.r.i.' g.i.z.v.M.m.M.u.      b [ %.%.%.) q                                   ",
"      ] r.%.x.m.m.m.m.M.M.m.M.M.M.m.n.v.c.c.x.x.x.i.0.n.z.h.x.z.x.n.M.m.n.X.    ) %.%.[ N                                       ",
"      { y.r.v.m.m.m.M.m.m.M.m.M.m.M.m.M.m.m.n.n.n.n.u.u.v.x.x.z.x.m.M.M.M.v.N     / %.C                                         ",
"        ;.u.v.b.m.n.M.M.M.b.b.M.M.m.m.M.m.M.m.U.M.m.M.v.n.c.z.z.x.n.m.M.m.M.e.      / ( c                                       ",
"                { | 0.u.j...e.M.m.M.M.m.M.m.m.m.m.M.m.m.m.n.v.c.n.m.m.m.M.M.z.9       n c 4                                     ",
"                            ` m.M.M.m.M.m.M.M.m.M.m.M.m.m.n.m.m.m.m.n.m.m.m.n.} 3     e l j 2                                   ",
"                              c.M.m.M.m.M.m.M.M.m.M.m.m.m.n.n.m.n.n.m.m.m.m.m.v.( 4 t l l r 5                                   ",
"                              u.M.m.M.m.m.m.m.M.m.m.m.m.M.m.n.m.m.m.m.n.m.m.m.c.0.u l r 8                                       ",
"                              w.U.M.m.M.m.m.m.m.m.m.m.m.m.m.m.m.m.m.m.m.m.n.m.c.0.B 7                                           ",
"                              >.U.m.M.m.m.m.m.n.m.m.n.n.m.m.M.m.m.m.m.m.n.n.m.z.q.' e 2                                         ",
"                              $.Y.U.m.M.m.m.m.m.n.m.m.m.n.m.m.m.m.m.M.m.M.m.n.i.9.} t e                                         ",
"                                Y.Y.M.M.m.M.m.m.m.n.n.m.m.n.m.m.M.m.m.M.M.m.v.e.0.| 4                                           ",
"                                P.U.m.m.M.m.M.m.m.m.m.n.n.n.m.n.m.M.m.m.m.v.p.q.0. .                                            ",
"                                D.U.m.m.m.m.m.M.m.n.n.v.n.n.m.m.m.m.n.v.z.y.q.9.q.|                                             ",
"                                s.M.m.m.m.m.m.c.i.y.y.y.y.p.p.i.h.i.p.y.0.0.q.q.q.'                                             ",
"                                Q i.v.v.v.c.i.q.9.0.9.9.3.9.9.0.9.0.0.3.9.0.q.9.0.B                                             ",
"                                  N 9.y.q.q.9.q.q.' N       Q ' ..0.0.0.0.9.q.q.'                                               ",
"                                    u /  .9...' n                 B / |  .|  .} N                                               ",
"                                          M C b                           0 ) ( )                                               ",
"                                          f / W                             B ( ~                                               ",
"                                            Q '                             l  .|                                               ",
"                                              b                               b /                                               ",
"                                                                                                                                ",
"                                                                                                                                ",
"                                                                                                                                ",
"                                                                                                                                ",
"                                                                                                                                "
};
