/* XPM */
static char *d0c8e16752844c29958e01fe1c3b1a44[] = {
/* columns rows colors chars-per-pixel */
"64 64 218 2 ",
"   c #000000",
".  c #0E0C01",
"X  c #0D0D0D",
"o  c #181401",
"O  c #0E0E10",
"+  c #18191A",
"@  c #282207",
"#  c #362E07",
"$  c #32312C",
"%  c #353535",
"&  c #56050A",
"*  c #5A130A",
"=  c #6B140D",
"-  c #791C07",
";  c #630912",
":  c #780E1A",
">  c #533009",
",  c #64250A",
"<  c #68380B",
"1  c #763A2D",
"2  c #64550C",
"3  c #735C12",
"4  c #7F6D10",
"5  c #6F5130",
"6  c #736627",
"7  c #776C33",
"8  c #5E5B4B",
"9  c #565657",
"0  c #7B6E4E",
"q  c #6D6D6D",
"w  c #757575",
"e  c #993D0E",
"r  c #BF340D",
"t  c #B82839",
"y  c #DB2911",
"u  c #C83116",
"i  c #EF270F",
"p  c #E82912",
"a  c #F42913",
"s  c #F92C11",
"d  c #885B16",
"f  c #BA4911",
"g  c #A85615",
"h  c #B55211",
"j  c #816E0D",
"k  c #8C6E11",
"l  c #8B7713",
"z  c #967913",
"x  c #AD6618",
"c  c #AD751D",
"v  c #B67918",
"b  c #BB7E1D",
"n  c #9C5728",
"m  c #AE5639",
"M  c #8E6F2F",
"N  c #AF7C2C",
"B  c #B47B2A",
"V  c #C0493A",
"C  c #C73141",
"Z  c #D23B4A",
"A  c #B55E53",
"S  c #8B7848",
"D  c #8B7155",
"F  c #BB6358",
"G  c #A9756B",
"H  c #CC4E50",
"J  c #E34D5D",
"K  c #E9515D",
"L  c #EE5461",
"P  c #F05561",
"I  c #9D8713",
"U  c #A78D0F",
"Y  c #AB8716",
"T  c #BA8718",
"R  c #AC9314",
"E  c #B69C17",
"W  c #BEA117",
"Q  c #948435",
"!  c #A88C2A",
"~  c #BC8625",
"^  c #BB832D",
"/  c #B59A21",
"(  c #B68436",
")  c #A59230",
"_  c #AE9A35",
"`  c #B79D3C",
"'  c #BBA42D",
"]  c #BAA63C",
"[  c #C7881B",
"{  c #D38D1E",
"}  c #C69619",
"|  c #D5971E",
" . c #DC931E",
".. c #E2991E",
"X. c #C3A51A",
"o. c #C6A71A",
"O. c #CBAC1B",
"+. c #D5A71C",
"@. c #CEB11A",
"#. c #D3B41A",
"$. c #DAB619",
"%. c #D7B81C",
"&. c #DCBC1C",
"*. c #EBAA1F",
"=. c #E8B71D",
"-. c #F2BC1F",
";. c #C48623",
":. c #CC8A22",
">. c #C0862A",
",. c #D48E20",
"<. c #CB9722",
"1. c #DC9721",
"2. c #E19722",
"3. c #E39A22",
"4. c #C6AB27",
"5. c #D9A520",
"6. c #CEB224",
"7. c #CDB32B",
"8. c #D2B524",
"9. c #D6BA25",
"0. c #DCBD21",
"q. c #D3B729",
"w. c #C6AC34",
"e. c #C4AD3B",
"r. c #CBB234",
"t. c #CAB23A",
"y. c #D3B936",
"u. c #E6A422",
"i. c #E8A620",
"p. c #E9AA21",
"a. c #EDB421",
"s. c #EEB921",
"d. c #F0BC20",
"f. c #E4C31C",
"g. c #E9C61B",
"h. c #EDCB1C",
"j. c #F7C91E",
"k. c #F2CD1D",
"l. c #F5D21D",
"z. c #FAD61F",
"x. c #FCD81F",
"c. c #DEC028",
"v. c #F3C320",
"b. c #F6CA20",
"n. c #F9D220",
"m. c #9E8A55",
"M. c #AB854A",
"N. c #B38742",
"B. c #AC8953",
"V. c #AF9551",
"C. c #AB985E",
"Z. c #B49555",
"A. c #BAA84A",
"S. c #B6A75B",
"D. c #BCAC5C",
"F. c #978465",
"G. c #9B9576",
"H. c #AB9669",
"J. c #B39463",
"K. c #A79477",
"L. c #B29A75",
"P. c #BBAD64",
"I. c #B1A069",
"U. c #BFB167",
"Y. c #AAA37F",
"T. c #B8A87C",
"R. c #BDB277",
"E. c #C2AD44",
"W. c #C5B148",
"Q. c #D4BD44",
"!. c #C2B159",
"~. c #C4B465",
"^. c #C2B77E",
"/. c #898989",
"(. c #9B9888",
"). c #959595",
"_. c #B3978D",
"`. c #B6A98A",
"'. c #BBB286",
"]. c #B7AD97",
"[. c #BBB698",
"{. c #A9A3A2",
"}. c #BBB6A3",
"|. c #ABABB0",
" X c #BBBAB8",
".X c #C4B98A",
"XX c #C2B89A",
"oX c #C3B9A9",
"OX c #C0BEBA",
"+X c #C8C2A8",
"@X c #C5C2B3",
"#X c #C9C5B3",
"$X c #CAC7B8",
"%X c #CCCABC",
"&X c #D0C6B6",
"*X c #D2CDBB",
"=X c #D7D3BD",
"-X c #C8C7C7",
";X c #CFCBC3",
":X c #D1CFC6",
">X c #D7D4C4",
",X c #D5D3CE",
"<X c #D8D6CC",
"1X c #D8D6D2",
"2X c #DBDAD4",
"3X c #DEDDDC",
"4X c #E0DEDB",
"5X c #DFE0DF",
"6X c #E2E1DE",
"7X c #E5E5E4",
"8X c #E8E8E7",
"9X c #EBEBEB",
"0X c #EEEFF0",
"qX c #EFF0F3",
"wX c #F2F3F4",
"eX c #F5F6F9",
"rX c #F7F8FA",
"tX c #FFFFFF",
/* pixels */
"tXtXtXtXtXtXtXtXtXtXtXtXtXtXtXtXtXtXtXtXtXtXtXtXtXtXtXtXtXtXtXtXtXtXtXtXtXtX3X9 2XtXtXtXtXtXtXtXtXtXtXtXtXtXtXtXtXtXtXtXtXtXtXtX",
"tXtXtXtXtXtXtXtXtXtXtXtXtXtXtXtXtXtXtXtXtXtXtXtXtXtXtXtXtXtXtXtXtXtXtXtXtXtXw    XtXtXtXtXtXtXtXtXtXtXtXtXtXtXtXtXtXtXtXtXtXtXtX",
"tXtXtXtXtXtXtXtXtXtXtXtXtXtXtXtXtXtXtXtXtXtXtXtXtXtXtXtXtXtXtXtXtXtXtXtXtX XX   ).tXtXtXtXtXtXtXtXtXtXtXtXtXtXtXtXtXtXtXtXtXtXtX",
"tX8X9XtXtXtXtXtXtXtXtXtXtXtXtXtXtXtXtXtXtXtXtXtXtXtXtXtXtXtXtXtXtXtXtXtXrX9     w tXtXtXtXtXtXtXtXtXtXtXtXtXtXtXtXtXtXtXtXtXtXtX",
"tX/.% 9 ).-X9XtXtXtXtXtXtXtXtXtXtXtXtXtXtXtXtXtXtXtXtXtXtXtXtXtXtXtXtXtX-XX     q tXtXtXtXtXtXtXtXtXtXtXtXtXtXtXtXtXtXtXtXtXtXtX",
"tX3X$     O % /.,XrXtXtXtXtXtXtXtXtXtXtXtXtXtXtXtXtXtXtXtXtXtXtXtXtXtXtXG.@     q tXtXtXtXtXtXtXtXtXtXtXtXtXtXtXtXtXtXtXtXtXtXtX",
"tXtX X+       . ! P.$XwXtXtXtXtXtXtXtXtXtXtXtXtXtXtXtXtXtXtXtXtXtXtXtX7Xe.#.#   w tXtXtXtXtXtXtXtXtXtXtXtXtXtXtXtXtXtXtXtXtXtXtX",
"tXtXtX).X     o @.l.8.D.>XrXtXtXtXtXtXtXtXtXtXtXtXtXtXtXtXtXtXtXtXtXtX#X&.x.X.o w tXtXtXtXtXtXtXtXtXtXtXtXtXtXtXtXtXtXtXtXtXtXtX",
"tXtXtXtX/.X   . o.x.z.l.q.R.<XtXtXtXtXtXtXtXtXtXtXtXtXtXtXtXtXtXtXtXtXR.k.z.x.j /.tXtXtXtXtXtXtXtXtXtXtXtXtXtXtXtXtXtXtXtXtXtXtX",
"tXtXtXtXtX).X   R x.z.z.x.k.w.[.qXtXtXtXtXtXtXtXtXtXtXtXtXtXtXtXtXtX9XE.z.z.x.#.].tXtXtXtXtXtXtXtXtXtXtXtXtXtXtXtXtXtXtXtXtXtXtX",
"tXtXtXtXtXtX{.+ 3 b.z.z.z.z.z.&.S.2XtXtXtXtXtXtXtXtXtXtXtXtXtXtXtXtX1Xq.x.z.x.$.$XtXtXtXtXtXtXtXtXtXtXtXtXtXtXtXtXtXtXtXtXtXtXtX",
"tXtXtXtXtXtXtX X5 | a.b.z.z.x.x.h.] $XtXtXtXtXtXtXtXtXtXtXtXtXtXtXtX+Xf.x.x.x.4.,XtXtXtXtXtXtXtXtXtXtXtXtXtXtXtXtXtXtXtXtXtXtXtX",
"tXtXtXtXtXtXtXtX5XH.;.3.-.k.z.z.n.x.w.#XtXtXtXtXtXtXtXtXtXtXtXtXtXtX^.k.z.z.x.` 7XtXtXtXtXtXtXtXtXtXtXtXtXtXtXtXtXtXtXtXtXtXtXtX",
"tXtXtXtXtXtXtXtXtXwXoX( { *.v.z.n.n.z.' }.}.].'.`.[.%X6XrXrXtXtXtXrX!.z.z.z.j.Z.wXtXtXtXtXtXtXtXtXtXtXtXtXtXtXtXtXtXtXtXtXtXtXtX",
"tXtXtXtXtXtXtXtXtXtXtX4X`.^ { *.b.n.n.f.o.%.f.g.f.%.8.r.D.+X8XrXtX9XW.x.z.x.=.L.tXtXtXtXtXtXtXtXtXtXtXtXtXtXtXtXtXtXtXtXtXtXtXtX",
"tXtXtXtXtXtXtXtXtXtXtXtXtX<XT.N.<.%.x.x.x.x.x.z.x.x.x.z.l.f.A.+XwX8Xt.x.z.x.+.oXtXtXtXtXtXtXtXtXtXtXtXtXtXtXtXtXtXtXtXtXtXtXtXtX",
"tXtXtXtXtXtXtXtXtXtXtXtXtXtXtX8X]./ x.x.x.x.n.z.z.z.z.z.z.x.z.c.P.@Xr.x.z.j.^ ,XtXtXtXtXtXtXtXtXtXtXtXtXtXtXtXtXtXtXtXtXtXtXtXtX",
"tXtXtXtXtXtXtXtXtXtXtXtXtXtXtXrX~.k.n.x.x.x.z.z.z.z.z.z.z.z.z.x.k._ E x.z.-.B.wXtXtXtXtXtXtXtXtXtXtXtXtXtXtXtXtXtXtXtXtXtXtXtXtX",
"tXtXtXtXtXtXtXtXtXtXtXtXtXtXtX=X9.n.n.x.z.z.z.z.z.z.z.z.z.z.z.z.z.l.X.%.z.| `.tXtXtXtXtXtXtXtXtXtXtXtXtXtXtXtXtXtXtXtXtXtXtXtXtX",
"tXtXtXtXtXtXtXtXtXtXtXtXtXtXrX~.n.n.%.#.l.x.n.z.z.z.z.z.z.z.z.z.z.x.l.h.-.^ ,XtXtXtXtXtXtXtXtXtXtXtXtXtXtXtXtXtXtXtXtXtXtXtXtXtX",
"tXtXtXtXtXtXtXtXtXtXtXtXtXtX;X6.z.j $ (.' z.z.z.z.z.z.z.z.z.z.z.z.z.z.z.*.H.rXtXtXtXtXtXtXtXtXtXtXtXtXtXtXtXtXtXtXtXtXtXtXtXtXtX",
"tXtXtXtXtXtXtXtXtXtXtXtXtXtXR.k.&.o $ |.7 l.z.z.z.z.z.z.z.z.z.x.z.z.z.z.! ,XtXtXtXtXtXtXtXtXtXtXtXtXtXtXtXtXtXtXtXtXtXtXtXtXtXtX",
"tXtXtXtXtXtXtXtXtXtXtXtXtX3X] x.f.@   X 4 z.z.n.z.z.z.z.z.z.x.x.x.x.z.z.A.wXtXtXtXtXtXtXtXtXtXtXtXtXtXtXtXtXtXtXtXtXtXtXtXtXtXtX",
"tXtXtXtXtXtXtXtXtXtXtXtXtXG g g.x.W 2 j h.z.z.z.h.z.z.z.z.z.f.' O.l.z.z.E.wXtXtXtXtXtXtXtXtXtXtXtXtXtXtXtXtXtXtXtXtXtXtXtXtXtXtX",
"tXtXtXtXtXtXtXtXtXtXtXtXoXy y [ x.z.z.z.x.x.x.z.R &.z.z.x.h.6 OX8 R x.l.!.rXtXtXtXtXtXtXtXtXtXtXtXtXtXtXtXtXtXtXtXtXtXtXtXtXtXtX",
"tXtXtXtXtXtXtXtXtXtXtXeXA i p v x.z.z.l.#.g.&.#.O.z.z.z.x.%.@ 9 + 2 x.k..XtXtXtXtXtXtXtXtXtXtXtXtXtXtXtXtXtXtXtXtXtXtXtXtXtXtXtX",
"tXtXtXtXtXtXtXtXtXtXtX8XV a i v z.z.z.z.z , , * , c l.x.x.h.>     l x.c.&XtXtXtXtXtXtXtXtXtXtXtXtXtXtXtXtXtXtXtXtXtXtXtXtXtXtXtX",
"tXtXtXtXtXtXtXtXtXtXtX9XV a y } x.z.z.x.k ; : : ; * d X.%.x.%.4 I g.x.7.4XtXtXtXtXtXtXtXtXtXtXtXtXtXtXtXtXtXtXtXtXtXtXtXtXtXtXtX",
"tXtXtXtXtXtXtXtXtXtXtXrXF i f f.x.z.z.x.z t Z Z t : & < %.n.x.x.x.x.x.A.0XtXtXtXtXtXtXtXtXtXtXtXtXtXtXtXtXtXtXtXtXtXtXtXtXtXtXtX",
"tXtXtXtXtXtXtXtXtXtXtXtX_.g #.x.z.z.z.z.B L L L K C ; U n.n.n.x.x.l.&.S.rXrX7X:X+XXX}.rXtXtXtXtXtXtXtXtXtXtXtXtXtXtXtXtXtXtXtXtX",
"tXtXtXtXtXtXtXtXtXtXtXtX<X7.x.z.z.z.z.x.^ J L L P J g g.x.x.n.n.&.x r G #XU.w.9.f.g.) 2XtXtXtXtXtXtXtXtXtXtXtXtXtXtXtXtXtXtXtXtX",
"tXtXtXtXtXtXtXtXtXtXtXtXrXU.l.x.z.z.z.x.~ J L L L H o.z.n.x.x.h.h i p g 9.l.x.n.n.n.o.m.9XtXtXtXtXtXtXtXtXtXtXtXtXtXtXtXtXtXtXtX",
"tXtXtXtXtXtXtXtXtXtXqX5X2X].W h.x.n.x.x.4.H L L H ~ z.z.z.z.z.[ y s y T x.x.l.z.z.x.h.C.wXtXtXtXtXtXtXtXtXtXtXtXtXtXtXtXtXtXtXtX",
"tXtXtXtXtXtXtXtX9X[.A.r.7.7.o.W W @.k.x.=.m J H ~ l.z.z.z.x.h.f a a f f.x.x.z.z.z.z.W @XtXtXtXtXtXtXtXtXtXtXtXtXtXtXtXtXtXtXtXtX",
"tXtXtXtXtXtXtX8XS.f.z.x.n.x.x.x.h.@.E #.x.o.N } l.n.z.z.z.x.h.h a u } z.z.z.z.z.n.) D :X8XqXwXrXtXtXtXtXtXtXtXtXtXtXtXtXtXtXtXtX",
"tXtXtXtXtXtXtX'.g.n.x.n.x.n.x.n.n.n.l.X.W g.x.x.n.n.z.z.z.z.n.E e } z.z.z.z.z.x.O.W 7.w.e.W.D.~.^.XX>X7XeXtXtXtXtXtXtXtXtXtXtXtX",
"tXtXtXtXtXtX9XA.z.z.z.z.x.x.n.x.x.x.x.z.X.W z.z.z.x.z.z.z.h.#.E #.x.z.z.z.x.x.+.E z.x.x.z.z.z.l.k.f.9.r.D..X%X7XrXtXtXtXtXtXtXtX",
"tXtXtXtXtXtX7Xw.x.z.z.z.x.n.x.x.n.x.x.n.&.z 1.a.s.z.n.l.f.W #.h.x.n.z.z.z.k.| k h.z.z.z.z.z.z.z.z.x.x.x.l.h.0.r.~.+X7XrXtXtXtXtX",
"tXtXtXtXtXtXqXA.l.z.z.z.n.n.n.n.n.n.x.x.O.R p.p.h.n.n.z.z.z.x.x.z.z.z.l.-.| S ) x.z.z.z.z.z.x.x.z.z.z.z.z.x.x.x.l.s.w.R.>XrXtXtX",
"tXtXtXtXtXtXtX+X+.s.v.h.b.l.z.n.n.n.k.f.I &.n.n.n.z.z.z.x.n.x.n.x.n.j.*.{ Z. X7.z.-.k.z.z.z.n.z.z.z.z.z.z.z.z.z.n.n.x.h.6.Y.rXtX",
"tXtXtXtXtXtXtXeXL.;. .3.3.3.u.u.5.} Y R @.n.z.z.x.z.z.z.z.z.n.n.z.a.3.{ J.8X#X&.j.3.3.s.k.n.x.x.z.z.z.z.z.z.z.z.n.n.z.z.r.$XtXtX",
"tXtXtXtXtXtXtXtXqX].N.~ [ T c T Y o.h.z.n.n.x.n.x.n.z.z.z.z.n.n.p.3.;.L.8XtX'.g.a.2.2.1.u.s.n.x.z.z.z.z.z.z.z.z.x.x.z.r.%XrXtXtX",
"tXtXtXtXtXtXtXtXtXtX-XE #.@.#.g.n.x.x.x.x.x.x.z.z.z.x.n.z.z.z.g. .^ ].eXtXrXS.k.p.2.2.2.2.2.u.j.l.z.z.z.z.z.z.z.n.l.t.*XtXtXtXtX",
"tXtXtXtXtXtXtXtXtXrX'.f.n.n.n.x.n.n.n.x.z.n.z.z.z.z.z.z.z.z.l.<.M.:XtXtXtX8X] z.u.2.2.1.2.2.2.3.a.k.z.z.z.z.z.z.x.c.>XtXtXtXtXtX",
"tXtXtXtXtXtXtXtXtXqXV.z.z.z.z.z.z.z.z.z.z.z.z.z.z.z.z.z.z.z.z.W }.tXtXtXtX,X7.j.3.2.>.B.B ;.{ 2.2.u.d.n.z.z.z.z.y.=XtXtXtXtXtXtX",
"tXtXtXtXtXtXtXtXtX-X4.x.z.z.z.z.z.z.z.z.n.x.z.z.n.z.z.z.z.z.z.9.@X9X:X7XwXoXf.d.3.{ L.qX7XoXL.N.;.{ ..d.z.x.z.y.=XtXtXtXtXtXtXtX",
"tXtXtXtXtXtXtXtXrX'.f.z.z.z.z.z.z.z.z.z.n.z.n.x.z.z.z.z.z.z.x.@.;X;X! w.A.A.g.=...( 4XtXtXtXtX8X;X`.B.^ | k.q.#XtXtXtXtXtXtXtXtX",
"tXtXtXtXtXtXtXtX0XA.x.z.z.z.z.z.z.z.z.x.x.z.z.x.z.z.z.z.z.z.z.7.,X2XB i.j.z.l.*.:.].tXtXtXtXtXtXtXtXwX2X}.I.+XtXtXtXtXtXtXtXtXtX",
"tXtXtXtXtXtXtXtX;X8.x.z.z.z.z.z.z.z.n.z.z.z.z.z.z.z.z.z.z.z.x.c.,X8XB ..3.-.n...B.9XtXtXtXtXtXtXtXtXtXtXtXrXtXtXtXtXtXtXtXtXtXtX",
"tXtXtXtXtXtXtXtX'.g.x.z.z.z.z.z.x.x.x.z.n.z.z.z.z.z.z.z.z.z.x.c.*XqXM. .:.^ ,.B oXtXtXtXtXtXtXtXtXtXtXtXtXtXtXtXtXtXtXtXtXtXtXtX",
"tXtXtXtXtXtXtX9XA.z.x.z.z.z.z.z.z.n.x.n.x.z.z.z.z.z.z.z.z.z.x.f.XXwXD g n OXoX].rXtXtXtXtXtXtXtXtXtXtXtXtXtXtXtXtXtXtXtXtXtXtXtX",
"tXtXtXtXtXtXtX%X&.x.z.z.z.z.z.z.z.z.x.z.x.z.z.z.z.z.z.z.z.z.z.z.M D 1 - 1 7XtXtXtXtXtXtXtXtXtXtXtXtXtXtXtXtXtXtXtXtXtXtXtXtXtXtX",
"tXtXtXtXtXtXtXR.h.z.z.z.z.z.z.z.z.n.x.z.z.x.x.x.z.z.z.z.z.z.z.x.Y = - - n 7XeXtXtXtXtXtXtXtXtXtXtXtXtXtXtXtXtXtXtXtXtXtXtXtXtXtX",
"tXtXtXtXtXtX9XE.x.z.z.z.z.z.z.z.z.z.x.z.z.x.n.x.z.z.z.z.z.z.z.x.#.5 1 - 5 wXrXtXtXtXtXtXtXtXtXtXtXtXtXtXtXtXtXtXtXtXtXtXtXtXtXtX",
"tXtXtXtXtXtX<Xq.x.z.z.z.z.z.z.z.z.z.n.n.z.n.x.n.z.z.z.z.z.z.z.z.j.C.1X X{.rXtXtXtXtXtXtXtXtXtXtXtXtXtXtXtXtXtXtXtXtXtXtXtXtXtXtX",
"tXtXtXtXtXtX<Xq.x.z.z.z.z.z.z.z.z.z.n.l.x.x.n.n.z.z.z.z.z.z.z.z.z.E.9XrXtXtXtXtXtXtXtXtXtXtXtXtXtXtXtXtXtXtXtXtXtXtXtXtXtXtXtXtX",
"tXtXtXtXtXtX8Xe.s.p.a.v.z.x.x.x.n.n.n.n.n.b.v.v.v.v.v.n.n.n.z.z.z.7.6XtXtXtXtXtXtXtXtXtXtXtXtXtXtXtXtXtXtXtXtXtXtXtXtXtXtXtXtXtX",
"tXtXtXtXtXtXtX'.<.3.2.2.3.p.a.a.d.s.s.p.u.3.2.2.3.3.3.3.p.a.b.x.x.r.7XtXtXtXtXtXtXtXtXtXtXtXtXtXtXtXtXtXtXtXtXtXtXtXtXtXtXtXtXtX",
"tXtXtXtXtXtXtX5XS b 1.2.2.2.1...2. .{ :.{ { { 2.2.1.2.2.2.2.3.d.k.~.eXtXtXtXtXtXtXtXtXtXtXtXtXtXtXtXtXtXtXtXtXtXtXtXtXtXtXtXtXtX",
"tXtXtXtXtX9X[.A.0.o.b 2.b c N.Z.J.I._.F.0 5 d [ { 1.2.2.3.3.2...! %XtXtXtXtXtXtXtXtXtXtXtXtXtXtXtXtXtXtXtXtXtXtXtXtXtXtXtXtXtXtX",
"tXtXtXtX1XS 4 U =.*.{ :.B F.7XrXrXtXtXrXqX4X;X].K.B.S B B [ c [ ~ V.@XrXtXtXtXtXtXtXtXtXtXtXtXtXtXtXtXtXtXtXtXtXtXtXtXtXtXtXtXtX",
"tXtXtXtX X7 Q V.C.L.XX&X4XwXtXtXtXtXtXtXtXtXtXtXtXwX9X$XM c [ =.h.f.I 0 ,XtXtXtXtXtXtXtXtXtXtXtXtXtXtXtXtXtXtXtXtXtXtXtXtXtXtXtX",
"tXtXtXtXtX8X8X0XrXtXtXtXtXtXtXtXtXtXtXtXtXtXtXtXtXtXtXtX6X&X.X~.Q.8.R 4 5 @XtXtXtXtXtXtXtXtXtXtXtXtXtXtXtXtXtXtXtXtXtXtXtXtXtXtX",
"tXtXtXtXtXtXtXtXtXtXtXtXtXtXtXtXtXtXtXtXtXtXtXtXtXtXtXtXtXtXtXrX9X%X'._ 3 (.tXtXtXtXtXtXtXtXtXtXtXtXtXtXtXtXtXtXtXtXtXtXtXtXtXtX"
};
