/* XPM */
static char *_48c9212d5334166b84ff3f7121bfeb7[] = {
/* columns rows colors chars-per-pixel */
"64 64 239 2 ",
"   c #000000",
".  c #0A0201",
"X  c #040A01",
"o  c #0C0B01",
"O  c #02010A",
"+  c #0B030D",
"@  c #0A0A0A",
"#  c #050B0A",
"$  c #120400",
"%  c #1C0200",
"&  c #130D02",
"*  c #1B0C00",
"=  c #16070B",
"-  c #0C1100",
";  c #0F100B",
":  c #141301",
">  c #1D1300",
",  c #171C05",
"<  c #030212",
"1  c #070815",
"2  c #1A0911",
"3  c #210A00",
"4  c #280700",
"5  c #221601",
"6  c #231B00",
"7  c #2B1C05",
"8  c #331700",
"9  c #2A2B07",
"0  c #382F04",
"q  c #393316",
"w  c #18272C",
"e  c #32322D",
"r  c #3B3C36",
"t  c #5E0C00",
"y  c #411F00",
"u  c #7E0600",
"i  c #482A00",
"p  c #522905",
"a  c #4C3C01",
"s  c #473A08",
"d  c #543D02",
"f  c #483F19",
"g  c #7A2F00",
"h  c #6C3C17",
"j  c #653207",
"k  c #423433",
"l  c #55460A",
"z  c #4D461A",
"x  c #5A4819",
"c  c #635A08",
"v  c #675817",
"b  c #724A14",
"n  c #7E6100",
"m  c #7A6B1A",
"M  c #6B650F",
"N  c #575329",
"B  c #554E2B",
"V  c #655726",
"C  c #775921",
"Z  c #714822",
"A  c #7B7538",
"S  c #6E6631",
"D  c #7B7946",
"F  c #7C6A5E",
"G  c #647272",
"H  c #545648",
"J  c #B61D00",
"K  c #853B00",
"L  c #933F00",
"P  c #B53000",
"I  c #A72E00",
"U  c #9A4E00",
"Y  c #9F5B00",
"T  c #855E0D",
"R  c #B64900",
"E  c #A25200",
"W  c #967502",
"Q  c #AA6702",
"!  c #AB6F08",
"~  c #806520",
"^  c #876C36",
"/  c #8E7E31",
"(  c #997C3A",
")  c #94722D",
"_  c #A6752D",
"`  c #BF7E22",
"'  c #D44600",
"]  c #C46000",
"[  c #D07E0E",
"{  c #C87C02",
"}  c #F16609",
"|  c #87764C",
" . c #996D48",
".. c #AF7C43",
"X. c #887966",
"o. c #B88406",
"O. c #AE8D0D",
"+. c #8E883C",
"@. c #A6932C",
"#. c #B8942E",
"$. c #AC8A32",
"%. c #B68A39",
"&. c #AF9633",
"*. c #B9AC39",
"=. c #CC891C",
"-. c #D1930F",
";. c #DCA507",
":. c #D7B214",
">. c #E8AB02",
",. c #F4AD00",
"<. c #FDAC02",
"1. c #FFAD0A",
"2. c #E4B303",
"3. c #ECB300",
"4. c #ECBA01",
"5. c #E9B50C",
"6. c #F5B300",
"7. c #FCB501",
"8. c #F4BA01",
"9. c #FEBB02",
"0. c #FEB30A",
"q. c #FBBB0B",
"w. c #F2BB0A",
"e. c #E9AB1C",
"r. c #E5B81B",
"t. c #FDBE14",
"y. c #F9BA14",
"u. c #F3AA1F",
"i. c #D7962C",
"p. c #CF9230",
"a. c #DEBB24",
"s. c #DBB93B",
"d. c #CBA828",
"f. c #EBBE25",
"g. c #FEBB24",
"h. c #FFAE32",
"j. c #FDBB36",
"k. c #E6B02E",
"l. c #DCC600",
"z. c #E9C905",
"x. c #FDC305",
"c. c #FCC20B",
"v. c #FFCA0C",
"b. c #F9C608",
"n. c #FFD10B",
"m. c #E9C31C",
"M. c #F5C213",
"N. c #FDC413",
"B. c #FDCD14",
"V. c #FFC41B",
"C. c #F6CB1A",
"Z. c #FBD416",
"A. c #ECC727",
"S. c #F5C321",
"D. c #FCC523",
"F. c #FECC23",
"G. c #F8C729",
"H. c #EFD923",
"J. c #FBD626",
"K. c #E8CA37",
"L. c #FECB33",
"P. c #FFCC3C",
"I. c #F7C635",
"U. c #E8D735",
"Y. c #FFD433",
"T. c #FCD53D",
"R. c #F7D638",
"E. c #F7E23B",
"W. c #9D9159",
"Q. c #9B855E",
"!. c #AC8C48",
"~. c #B6954E",
"^. c #96A040",
"/. c #B3A74E",
"(. c #958E66",
"). c #A79B66",
"_. c #B2A770",
"`. c #CF9B4C",
"'. c #DCA849",
"]. c #D4B74F",
"[. c #C5AC57",
"{. c #D5A351",
"}. c #CAB759",
"|. c #DAB957",
" X c #C7B346",
".X c #FABD59",
"XX c #E4B042",
"oX c #C8B164",
"OX c #D6B96A",
"+X c #D7B070",
"@X c #E9B467",
"#X c #D9C64D",
"$X c #E5CD4A",
"%X c #FECD4A",
"&X c #F6CB45",
"*X c #FCD241",
"=X c #FFDB4B",
"-X c #EAC95B",
";X c #F9C755",
":X c #E9D757",
">X c #F8D959",
",X c #E5DA4C",
"<X c #E8E148",
"1X c #FFEE47",
"2X c #FFE15F",
"3X c #F4F256",
"4X c #D8C674",
"5X c #C4C16F",
"6X c #E7C864",
"7X c #FECD63",
"8X c #E6D86B",
"9X c #F6DB67",
"0X c #E6CA78",
"qX c #ECD577",
"wX c #F8DD79",
"eX c #EBE468",
"rX c #FBE666",
"tX c #FFE568",
"yX c #F7E668",
"uX c #E8E17B",
"iX c #FCE774",
"pX c #768282",
"aX c #BFBD80",
"sX c #C4B48A",
"dX c #DCCB82",
"fX c #D8C889",
"gX c #D9C998",
"hX c #EDDC84",
"jX c #EDDA98",
"kX c #EFCF96",
"lX c #F9E685",
"zX c #F9F38E",
"xX c #F9E691",
"cX c #FFF89F",
"vX c #EBE19C",
"bX c #D9D9A5",
"nX c #E0D7B6",
"mX c #DFDAC6",
"MX c #F6F6DE",
/* pixels */
"                                                                    O O     O O O                                               ",
"                                                                    O O           O O           O                               ",
"                                                                    O   O           O       O O                                 ",
"                                                                O       O         O           O                                 ",
"                                                                        O O       O                                             ",
"                                                                        O                                                       ",
"                                                                  X   O       O               .                                 ",
"                                                                X   O <   X             X   .                                   ",
"                                                                X X O O   X       .   X X   k 2   @     @   @                   ",
"                                                                9 (.7 2 .   X           X X X.F         @                       ",
"                                                                - bXgXa . . #   O       - - _.gX>                               ",
"                                                                - sXuXhXV O   O . . # X X , 4XxXq   @                           ",
"                                                                X ).:X:XdXz X   . . O O   0 eXeXN @           @                 ",
"                                                                X C $XK.uXOX, X . $ + 1 X N :X:Xz                               ",
"                                                                . 3 #.$X<XeX^., 9 5 + +   S eX3X0                               ",
"                                                                  * 8 @.,X<XeXeXuX4X(.q   A yX#X,   @       #                   ",
"                                                                . $ . * m :XA.Z.H.R.iX0Xl +.rX XX     O   + O O                 ",
"                                                                    O   &  Xm.4.4.4.f.2X#X#XrX@..       O . . O .               ",
"                                                                @ @     s hXA.x.7.9.2.2.R.K.tXm @       .   . O                 ",
"                                                                        D cX&Xy.<.<.9.4.4.S.-Xa               X           O     ",
"                                                                X X X $ sX|.O.L.0.<.9.8.3.G.|.> X                   O           ",
"                                                                    . 3 kX#.n R.w.c.8.4.M.I.oX.               X     O   O       ",
"                                                                    % p @X>XH.H.l.z.4.E.U.:X).@ X     O     X       O O         ",
"                                                                X O % Z p.T.K.E.3X1XA.:.O.uX).  .   O O           O O O         ",
"                                                                  X % h =.j.;Xp.T @X9Xd.c lXD X X . O < <   X   O O O .         ",
"                                                                  . 3 C -.&X.XK t u ;XtX$XzXz . . . + < O O X     O O O         ",
"                                                                + . . ( %Xg.j.] P K i.K.*XiXd . 0 3 @ 1 1 O   X   O O O         ",
"                                                              . . . . / =X>.P.R J ' P.A.P.O.~ ~.4XA . O 1 <   X   O O .   X     ",
"                                                                  > o v *Xw.L.R J } D.F.=.K 7XtXiX[.> . O O       O . . .       ",
"                                                                $ o l @.G.B.L.Q I h.V.L.E L %Xr.K.*.* . O O X X     O       O O ",
"                                                                . W.eX1XF.y.D.S.y.D.2.L.U [ D.4.H.O.5 . @ O X     . . .     O < ",
"                                                                q jXU.z.w.q.C.F.Z.2.M.g.u.P.7.n.Z.U.8XoX| z 6   .           O O ",
"                                                              . f xXA.2.8.8.N.2.w.w.8.x.Z.n.9.B.z.C.J.1XtXwX0XC 6   #   O   X   ",
"                                                                f hXf.v.x.x.q.t.8.q.x.n.z.b.R.e.y.b.8.2.5.G.&XxXdXN ,   1 O   X ",
"                                                                5 [.;XC.c.v.x.x.N.0.9.2.J.R.].! %Xg.t.9.9.M.S.s.qXvXN     O 1 . ",
"                                                                . v #.! o.;.x.v.t.0.6.M.A.].d ^ 7XQ g.V.6.2.2.a.-XdX7 X . O + O ",
"                                                                . * %.s.G.N.x.9.1.1.7.Y.s./ * Q.'.U [ u.F.8.Z.a.lXx . . . X . + ",
"                                                                X . $.>XG.B.4.7.1.1.6.L.].>   _.{.=.p.=.e.S.:.2X!.% *     o   1 ",
"                                                                  *  XI.5.3.8.7.<.N.,.P.$.. : 5X[.%._ `.-X:X>X8X7 . O   -     O ",
"                                                                  7 9Xr.y.6.x.6.0.,.9.P.$.^ ^.qXoXi 4 y ~ OXhXV . + O # X X   O ",
"                                                                . B >X4.8.7.,.9.,.9.6.*X_ ^ @XqXW.$ $ $ $ 6 z >             O O ",
"                                                              . . ^ =X4.7.7.9.7.9.9.3.*X_ T |.|.N   .       @ X           O O O ",
"                                                              X . ~.*X6.7.<.9.7.,.9.3.P.!.j ..h 5   #   @           X         O ",
"                                                                6 4XI.8.9.7.9.6.x.9.w.f.{.y h 4 $   O   1 O   @       . .   O   ",
"                                                              . f qXr.>.7.9.6.,.7.3.8.f.6Xy 4 % .   O O O       O .         .   ",
"                                                              . v iXA.8.7.9.,.V.9.6.w.f.9Xd . = .   O O         O O O @ .       ",
"                                                              X v 9XS.n.x.N.t.F.B.v.B.r.9Xc         . @     #                   ",
"                                                              . s ].-.M.V.L.j.e.;.;.y.I.iXM X   O       X           O   O       ",
"                                                                % `.W o.XX.X{.`.` E Q =.;Xd . .                                 ",
"                                                @       @     . | kX+X+X..~ h  .+X@X'.Q `.p $ ;                                 ",
"                                                            ; e mXnX).s . $ $ $ 8 Z ( oXjX(.X                                   ",
"                                                  @         # e r o X & &     @ . . 4 A sXMXpX1                                 ",
"                                                  @     @     .     X           O . $ $ > H G w                                 ",
"                                                          @       @     o X #         $     #                                   ",
"                                                  @ @           .   . .           . . $ . &                                     ",
"                                                                . . .     X     .   =   . . X X                                 ",
"                                                                  .               O O O O                                       ",
"                                                                  O O   O X   X O O < O O                                       ",
"                                                                O   O   #         O O O                                         ",
"                                                                  O       X     O   O         @                                 ",
"                                                                .           X                 .                                 ",
"                                                                    X       . . .     X     . O                                 ",
"                                                                      X     O . .     X X   < +                                 ",
"                                                                O           O . O   X X     < <                                 "
};
