/* XPM */
static char *_4042f1749084af9fcbb316a71f6a919[] = {
/* columns rows colors chars-per-pixel */
"64 64 244 2 ",
"   c #000306",
".  c #160514",
"X  c #011E1C",
"o  c #210416",
"O  c #162729",
"+  c #1B3533",
"@  c #312B34",
"#  c #513749",
"$  c #683C55",
"%  c #3C4B4E",
"&  c #425154",
"*  c #7C475B",
"=  c #5F5C65",
"-  c #6C5F69",
";  c #6A7178",
":  c #55686C",
">  c #9B3A63",
",  c #AC386B",
"<  c #BB386C",
"1  c #BC3D71",
"2  c #C92D75",
"3  c #C23D76",
"4  c #CF3E7D",
"5  c #C83977",
"6  c #D2367C",
"7  c #DB3B7E",
"8  c #D33D7C",
"9  c #CD296F",
"0  c #E52A7B",
"q  c #E6357F",
"w  c #8C4463",
"e  c #995876",
"r  c #8B516E",
"t  c #AA466E",
"y  c #BB4377",
"u  c #BB4D7B",
"i  c #B5487A",
"p  c #A75579",
"a  c #B3567D",
"s  c #A94977",
"d  c #836B7B",
"f  c #C5437B",
"g  c #CA437C",
"h  c #C4497D",
"j  c #C54678",
"k  c #D4427C",
"l  c #DA427E",
"z  c #E4407F",
"x  c #797983",
"c  c #DC3C85",
"v  c #D93D86",
"b  c #CC3F81",
"n  c #E33B83",
"m  c #EB3C85",
"M  c #E43D8A",
"N  c #EC3C8B",
"B  c #E93384",
"V  c #F5388B",
"C  c #F83E92",
"Z  c #F12C83",
"A  c #AA5D81",
"S  c #B85A85",
"D  c #BE4E80",
"F  c #986981",
"G  c #907588",
"H  c #B76488",
"J  c #A87A91",
"K  c #BA7A94",
"L  c #AF6B8B",
"P  c #C54C83",
"I  c #CD4A83",
"U  c #D34382",
"Y  c #DB4483",
"T  c #DB4B83",
"R  c #D54D8A",
"E  c #DC4D8A",
"W  c #D74786",
"Q  c #C35383",
"!  c #C55B8C",
"~  c #C95686",
"^  c #D5558B",
"/  c #DB538B",
"(  c #D35B8B",
")  c #D45588",
"_  c #DC5393",
"`  c #DC5C92",
"'  c #D65A91",
"]  c #E34385",
"[  c #E2448A",
"{  c #ED438A",
"}  c #E44B8C",
"|  c #ED498D",
" . c #E74686",
".. c #F4438B",
"X. c #F3498B",
"o. c #F9438C",
"O. c #E4548E",
"+. c #F34593",
"@. c #FF4A94",
"#. c #F74997",
"$. c #E35493",
"%. c #E95393",
"&. c #E55A97",
"*. c #F35294",
"=. c #F7569C",
"-. c #EE4A93",
";. c #C6638E",
":. c #D56997",
">. c #CA7799",
",. c #D5729B",
"<. c #C76190",
"1. c #E5619D",
"2. c #E2699C",
"3. c #FF5AA5",
"4. c #FF4BA4",
"5. c #D37CA1",
"6. c #DB7BA6",
"7. c #C57DA2",
"8. c #E97BAB",
"9. c #F67AAE",
"0. c #F978B1",
"q. c #EC6AA2",
"w. c #9C8392",
"e. c #93989D",
"r. c #8E8E97",
"t. c #A88D9E",
"y. c #9E99A3",
"u. c #AB97A9",
"i. c #B695A8",
"p. c #AEA1B1",
"a. c #B5AAB5",
"s. c #AFAAAF",
"d. c #90A8AA",
"f. c #C786A7",
"g. c #D88BAC",
"h. c #D684A9",
"j. c #C997AD",
"k. c #DB8BB0",
"l. c #CA9CB4",
"z. c #DC9DBB",
"x. c #D798B4",
"c. c #DB92AF",
"v. c #E586AD",
"b. c #F481AF",
"n. c #EB8CB7",
"m. c #F485B6",
"M. c #FC8EBB",
"N. c #F18EB7",
"B. c #ED94BA",
"V. c #E597BB",
"C. c #FD92BC",
"Z. c #CCAABB",
"A. c #C9A5B7",
"S. c #D4A3BB",
"D. c #DBA2BC",
"F. c #D4ADBE",
"G. c #D7A5B9",
"H. c #E1A2BD",
"J. c #ED99C0",
"K. c #FB9BC5",
"L. c #FA8BC0",
"P. c #DCADC2",
"I. c #DAA9C1",
"U. c #CBB8C2",
"Y. c #DBB4C6",
"T. c #DCB6CA",
"R. c #D8B5C5",
"E. c #DEBDD0",
"W. c #E4A4C3",
"Q. c #EAA5C5",
"!. c #E3ADC4",
"~. c #EDACCB",
"^. c #E9A9C8",
"/. c #F4A6CB",
"(. c #FCA4CB",
"). c #F4ACCB",
"_. c #F7A6C8",
"`. c #E4B5CB",
"'. c #EDB4CD",
"]. c #E6B6CA",
"[. c #F3B2CD",
"{. c #F8B4CD",
"}. c #FDADD3",
"|. c #FBAAD5",
" X c #EDBCD3",
".X c #E9B7D2",
"XX c #FCB4D4",
"oX c #F3BBD5",
"OX c #FFB5D9",
"+X c #FEBBDC",
"@X c #F7B9D5",
"#X c #EEACD0",
"$X c #FFBCE3",
"%X c #FFB0E5",
"&X c #B6C0C4",
"*X c #B4D0D1",
"=X c #DBC2CF",
"-X c #D1D1D7",
";X c #ECC3D5",
":X c #E5C7D6",
">X c #F4C5DB",
",X c #FCC2DD",
"<X c #F4C4D9",
"1X c #E9D1DC",
"2X c #E2C2CD",
"3X c #D3DEE4",
"4X c #FFC3E3",
"5X c #F2CDE1",
"6X c #FDCAE3",
"7X c #FFC5EC",
"8X c #FFCCEB",
"9X c #FFD3ED",
"0X c #FDDCEB",
"qX c #F4D5E6",
"wX c #FFCAF5",
"eX c #FFD5F2",
"rX c #FFDCF3",
"tX c #FFD8F8",
"yX c #EFD3E2",
"uX c #EDEBED",
"iX c #EDE7EB",
"pX c #F5ECEF",
"aX c #F6E4EB",
"sX c #E8F1EE",
"dX c #FDE4F2",
"fX c #F5EEF3",
"gX c #FDECF4",
"hX c #FFE4FD",
"jX c #FFECFD",
"kX c #F4E7F1",
"lX c #EEF2F4",
"zX c #EBFBF6",
"xX c #E5FEFA",
"cX c #EDFDFC",
"vX c #EDF5F9",
"bX c #F5F5F6",
"nX c #FBF5F6",
"mX c #F5FBF6",
"MX c #FAFAF7",
"NX c #F6F5F9",
"BX c #FEF5FC",
"VX c #F5FDFB",
"CX c #FDFCFD",
"ZX c #EEEFF0",
/* pixels */
"CXCXMXCXCXCXCXCXCXCXCXCXCXCXCXCXCXCXCXCXCXCXCXCXCXCXVXCXCXCXCXCXCXCXCXCXCXCXCXCXCXCXCXCXCXCXCXCXCXCXCXCXCXCXCXCXCXCXCXCXCXCXCXCX",
"bXbXbXbXMXCXMXNXMXNXbXNXMXNXMXMXNXBXNXNXNXCXCXCXVXmXVXVXBXCXVXCXMXVXMXNXCXMXCXCXMXCXCXMXCXCXCXCXCXMXMXCXCXCXCXCXMXCXMXMXMXCXCXCX",
"CXCXCXCXCXCXCXCXCXCXMXCXCXCXCXCXCXBXCXCXCXCXCXCXCXCXCXCXCXCXCXCXCXCXCXCXCXCXCXCXCXCXCXCXCXCXCXCXCXCXCXCXCXCXCXCXCXCXCXCXCXCXCXCX",
"CXCXCXCXCXCXCXCXCXCXCXCXCXCXCXCXCXCXCXCXCXCXCXCXCXCXCXCXCXCXCXCXCXCXCXCXCXCXCXCXCXCXCXCXCXCXCXCXCXCXCXCXCXCXCXCXCXCXCXCXCXCXCXCX",
"MXNXNXbXNXMXMXNXNXNXbXNXMXMXCXNXmXzXMXNXnXBXBXBXBXBXBXMXCXMXVXVXNXCXMXMXCXCXCXCXCXMXCXCXCXCXCXCXNXMXMXNXMXMXMXMXBXMXMXCXMXCXCXNX",
"MXMXNXMXMXCXMXCXMXMXMXMXCXCXCXNXVXVXmXNXBXCXCXCXjXnXBXNXbXMXmXmXNXMXNXCXMXMXMXNXMXCXNXMXMXMXCXCXMXMXNXCXCXCXCXCXNXMXNXMXMXCXMXCX",
"CXCXCXCXCXCXCXCXCXCXCXCXCXCXCXCXCXVXVXCXCXCXCXCXCXCXCXCXCXCXCXCXCXCXCXCXCXCXCXCXCXCXCXCXCXCXCXCXCXCXCXCXCXCXCXCXCXCXCXCXCXCXCXCX",
"CXNXMXMXCXCXCXMXMXMXNXMXCXCXNXCXMXmXmXNXVXVXVXCXCXCXCXCXCXCXCXCXCXCXCXCXCXCXCXCXCXCXCXCXCXCXCXCXCXCXCXCXCXCXCXCXCXCXCXCXCXCXCXCX",
"CXCXCXCXCXCXCXCXCXCXMXNXCXCXMXbXpXCXMXbXVXzXxXcXcXVXVXVXCXBXCXCXCXCXMXCXCXCXCXCXCXCXCXCXCXCXCXCXCXCXCXCXCXCXCXCXCXCXCXCXCXCXCXCX",
"CXCXCXCXCXCXCXCXbXCXCXCXCXCXCXCXBXCXCXCXCXZXCXNXNXCXCXCXCXCXCXCXCXCXCXCXCXCXCXCXCXCXCXCXCXCXCXCXCXCXCXCXCXCXCXCXCXCXCXCXCXCXCXCX",
"CXCXCXCXCXCXCXCXMXCXCXMXbXMXMXNXVXzXbXCXBXjXjX8XT.7XhXjXBXCXNXmXCXCXCXCXCXCXCXCXCXCXCXCXCXCXCXCXCXCXCXCXCXCXCXCXCXCXCXCXCXCXCXCX",
"CXMXCXCXCXCXCXCXCXCXCXMXCXCXCXCXxXvXNXBXhXhXJ.S S s A @XBXBXNXVXNXMXMXCXCXCXCXCXMXCXCXCXCXCXCXCXCXCXMXCXCXCXCXCXCXCXCXMXCXCXCXCX",
"CXCXCXCXCXCXCXCXMXCXCXCXCXCXCXVXVXCXCXqX%X$X_ b %._ i S oXBXCXfXCXCXCXCXCXCXCXCXCXCXCXCXCXCXCXCXCXCXCXCXCXCXCXCXCXCXCXCXCXCXCXCX",
"CXCXCXCXCXCXCXCXCXCXCXCXNXNXCXCXCXBXrXA D &.b C 0 3._ , 5.rXBXCXCXCXCXMXCXCXCXCXCXCXCXCXCXCXCXCXCXCXCXCXCXCXCXCXCXCXCXCXCXCXCXCX",
"MXCXCXCXCXCXCXCXCXCXCXCXCXCXCXBXdX+X%X! P b b v M M v 1.m.:.>.@XgXbXCXMXbXNXMXNXMXNXCXVXCXCXCXCXCXMXMXCXMXCXCXCXCXNXMXCXMXCXCXCX",
"CXCXCXCXCXCXCXCXCXCXNXCXBX0XF.K S t , I b v 4.M v v v 0.OXM.u a 6XgXCXCXVXVXCXCXCXCXCXCXCXCXCXCXCXCXCXCXCXCXCXCXCXCXCXCXCXCXCXCX",
"CXCXCXMXCXMXCXCXNXCXCXjXtX! f R U / 2 7 N o.4.m c 4 P 8.7XK.:.~ S 4XBXvXcXcXVXVXVXVXCXMXCXMXVXVXVXCXCXCXCXCXCXCXCXCXCXCXCXCXVXCX",
"mXCXnXnXMXmXMXMXnXCXBXjX8.Y { ..} =.[ b 3.q 9 =.8 9.6.h.(.|.b.) j B.jXvXxXxXcXcXVXMXMXnXMXmXmXzXVXNXCXNXBXCXCXCXCXBXMXnXNXVXVXVX",
"VXCXMXCXMXMXMXMXBXBXCX6Xu W X.| U R P b %.Y @.} ^ m.$X7X+XJ.K.^ k ( tXCXcXcXVXCXCXCXCXnXnXMXmXVXVXCXCXMXCXCXCXCXCXCXBXCXCXVXVXCX",
"VXCXCXBXCXCXMXCXCXCXBXl.Q $.[ } ' L.n.L.:.y &.3 D wX XI.P.XX|.^ l y 8XCXVXVXCXCXCXCXnXCXMXCXCXCXCXVXCXCXCXCXCXCXCXCXCXCXCXCXCXCX",
"NXMXBXnXMXmXCXMXCXBXBXj.u ` Y %.|.$X#X$X4Xk.i ! J.z.G u.d x.(.) l y ,XCXbXmXfXCXMXMXMXMXMXMXMXMXmXVXMXNXCXMXCXCXBXCXMXBXCXVXCXVX",
"VXCXCXBXCXmXMXCXCXgXBX>X> ) / 0.|.7.p.t.T.8Xf.(.@X$ e.&Xe.d v.( ) ( 9XBXBXBXbXCXVXVXzXmXMXMXMXMXVXVXVXVXCXCXCXCXCXBXCXCXCXCXCXCX",
"CXCXCXCXCXCXCXCXCXBXBXgXS Q ' |.6.F u.x r.A.@X7Xe $ cXd.3XS.a ( h N.jXBXCXCXCXCXcXzXxXzXcXVXVXCXCXCXCXCXCXCXCXCXCXCXCXCXCXCXCXCX",
"VXCXBXCXVXmXCXMXgXCXBXdXB.a S 7Xi.G ; : 3Xa.5X4XJ . cX*Xr.jX:.) y K.jXjXCXCXBXCXVXxXxXxXmXVXVXVXVXVXVXCXVXCXCXCXMXCXMXBXCXCXCXCX",
"VXVXBXBXVXVXVXBXCXBXBXBX{.t a 7XwXa.% + -Xy.:X>XJ # % O x 9X! / l t !.CXiXCXBXBXbXCXbXuXCXCXCXCXCXCXMXCXVXNXCXCXCXNXVXMXMXCXCXCX",
"CXCXBXCXVXVXCXCXCXCXCXgXH.w w l.hX=X; X   = ].6X`.o   O p.W.~ l O.j K gXCXfXgXBXBXjXBXjXhXBXCXCXCXCXCXCXCXCXCXCXCXCXCXCXCXCXCXCX",
"NXVXBXBXVXVXCXMXpXnXBXBXrXj.F J NXs.s.+   - <XH.6Xr . @ qX^.I z X.O.a nXBXBXjXeX6XN.v.C.(.,XBXBXNXCXCXnXMXCXCXCXCXCXCXCXCXCXCXCX",
"VXNXjXBXVXzXMXnXCXCXkXnXBXhXqX1XCXs.&Xd.@ w.@X).oX,Xw.u.9X_.T X.z z a CXgXjXeX5.( 5 l k j ;.^.BXBXCXCXNXbXCXCXCXCXVXmXNXVXCXCXCX",
"CXCXBXCXVXVXCXCXnXCXCXMXBXBXCXCXCXCX-Xa.-X<XH.6Xc.I.6X9XW.:.}  . .4 A hXjX.XS h 5 7 X.] 8 1 H 8XgXBXBXCXCXCXCXCXCXCXCXCXCXCXCXCX",
"CXBXBXBXVXVXCXCXgXMXCXCXBXBXNXvXVXuXuXU.1X!.{.p L >.6X).v.D } ] 8 Q OXjXtXA , R } | |  .3._ i J.BXBXBXCXCXCXCXCXCXVXVXVXVXCXCXVX",
"BXjXBXBXcXcXVXMXCXMXsXsXbXCXVXVXvXCXCXgXZ.!.).h.A c.XXg.n.~ } U h V.jXtX7.s _ %.[ E &.E E U I (.jXnXgXCXCXCXVXCXVXVXVXVXVXVXVXVX",
"CXCXBXCXVXVXCXCXMXbXCXCXCXBXVXVXCXNXNXCXBX>X{.{.c._.).XX8.f ] 4 ;.eX4X^.p ;.P ) q.U _ R E E U 9.;.K G.0XCXCXMXCXCXCXVXVXCXCXCXCX",
"CXCXCXCXCXCXCXMXMXCXCXCXCXCXCXCXCXCXCXCXCXBXBXBX].{.,X,.^ /  .W s >.).(.v.p '.tX2./ I / } c v v 4 O.j >.BXCXVXCXCXCXVXcXmXCXCXCX",
"CXMXCXMXCXMXMXCXCXCXMXCXMXCXCXCXCXCXCXCXCXCXCXBX<XH.XX:.h T ] O.:.B.$X+X+XD.0X6Xj ] %.=.-.m M +.@.N X.y dXvXVXNXBXBXVXzXVXCXBXCX",
"CXCXCXCXCXCXCXCXCXCXCXCXCXCXCXCXCXCXCXCXCXCXCXCXaXH.XX,.( T 2 l 3 m.XX~.>X`.9Xh.l o. .q M N m m o...*.u R.CXCXCXBXCXCXVXCXCXCXCX",
"MXCXCXMXCXCXCXCXCXCXCXCXCXCXCXCXCXCXCXCXCXCXCXCXaXF.,X(.C.0.5 T < 9.OXW.`.F.;X>.} @.o.q N #.C C 0  .} Q R.CXVXCXBXnXVXVXVXCXCXBX",
"MXMXMXMXMXMXNXMXMXMXMXMXMXMXMXCXCXBXMXMXMXMXCXCXpXF.<XXX}.L.f h :.C.$X~.`.Z.1XV.< m o.o.V N N +.q  .U S dXZXCXMXnXnXmXzXmXMXBXCX",
"CXMXCXCXMXCXCXCXCXCXCXCXCXCXCXCXCXCXCXMXMXCXCXCXMX2XH.{.}.K.:.:.B.}.OX).<XF.dX,X:.Y q m B B N N ..| 1 6.BXCXCXCXBXCXmXVXVXCXBXCX",
"CXCXCXCXCXCXCXCXCXCXCXCXCXCXCXCXCXCXCXMXCXCXCXCXMX1XF.<X+X$X|.$X,XoXXX[.,X!.BXjXwX2.5 M M { 4.N n l ` 8XgXCXCXCXCXCXVXVXCXCXCXCX",
"NXnXMXMXMXMXNXCXMXMXMXMXMXCXMXBXnXnXnXnXmXMXCXMXCXgXF.;X~.XX|.}..X`.'.^.'.A.jXjXtX5.f _ Y c #.Z q 5 OXhXhXpXCXCXnXnXMXMXmXMXBXCX",
"MXMXMXNXNXCXCXMXCXNXNXMXMXCXMXNXCXnXMXbXMXMXMXCXBXBXjXS.G.J.(.$XI.I.^.oXY.;XjXhXJ.u ~ P _ v B Z ..U 5.jXjXBXMXCXMXMXMXMXMXmXCXCX",
"CXCXCXCXCXCXCXCXCXCXCXCXCXCXCXCXCXCXCXCXCXCXCXCXCXCXBXY.I.I.#X$XQ.z.Q.@XT.T.rXhX,.u ' &.b v Z 4...R S 5XCXCXCXCXCXCXCXCXVXCXCXCX",
"CXCXCXNXCXCXCXCXCXVXNXCXCXCXCXCXCXCXMXMXMXCXCXCXCXBXBXY.z.D.#XOX(.v.J.XX].R.oXhX,.g Y [ 2 =.C Z { ` e `.BXfXCXCXMXmXCXMXCXmXCXCX",
"NXNXNXNXNXCXCXNXCXNXNXMXCXNXNXNXBXBXbXMXmXmXMXMXBXBXBXT.S.z.Q.OX|.v.N.(.<XT.I.hX8.h =.m v v C M M ( F qXBXBXBXCXmXmXMXMXmXmXCXCX",
"CXCXCXCXCXCXCXCXCXCXCXCXCXCXCXCXCXCXCXCXCXCXCXCXBXCXBX`.I.z./.+X+XJ.M.K.,X;XY.9X@XQ Y #.=.8 M 4.Y P l.jXBXCXCXNXVXVXCXCXCXCXCXCX",
"CXCXCXNXCXCXCXCXCXCXCXCXCXCXCXCXCXCXMXMXmXCXCXCXBXCXBXP.I.z./.OX+XJ.n.J.<X:XT.>XjXJ.3 g b _ v M 6 :.BXCXBXBXCXbXVXCXMXCXmXVXVXCX",
"bXNXNXbXNXCXCXNXVXNXNXBXCXNXCXNXMXMXmXmXmXMXMXMXBXBXhXI.x.z.^.XX X!.k.z..X=X].`.jXhX|.6.A S v N 7 m.jXCXkXgXCXCXmXVXMXnXVXVXVXCX",
"CXCXCXCXCXCXCXCXCXCXCXCXCXCXCXCXCXCXCXMXCXCXCXCXBXBXjXI.z.J./.OXoX`.x.~.:XE.<X XjXBXjXhXhXh.P R ^ B.i.CXjXCXpXCXVXVXCXCXCXCXCXCX",
"CXCXCXCXCXCXCXCXCXCXCXCXCXCXCXCXMXMXMXMXCXMXCXCXCXjX<Xj.Q.h.+XXX@X{.g.Q.XX^.+X!.BXBXdXBXBXl.w p e * i.CXCXgXCXCXVXVXCXCXMXCXCXCX",
"CXCXCXCXCXCXCXCXCXCXCXCXCXCXCXCXmXmXmXmXMXMXCXCXdXBX;X!.D.c.}.}.).H.h._.@X).@XI.0XBXBXfXCX0XS.S.j.R.BXCXqXBXCXbXbXMXVXCXNXCXCXCX",
"CXCXCXCXCXCXCXCXCXCXCXCXCXCXCXCXMXMXMXMXMXMXCXCXBXjXA.G.x.).XXXXoX'.x.{.+X[. XF.kXCXCXNXCXBXjXrXgXBXBXBXnXCXCXNXCXVXCXCXBXCXCXCX",
"CXCXCXCXCXCXCXCXCXCXCXCXCXCXCXCXCXMXCXMXCXCXCXCXCXnXA.S.A.'.'. X;X;X!.].{.].;X=XCXCXCXCXCXBXBXBXBXjXgXCXCXCXCXCXCXCXCXCXCXCXCXCX",
"CXMXMXMXCXNXMXMXBXMXCXMXCXMXCXNXMXMXMXMXMXMXCXCXfXBXdXqX2XP.P.`.Z.F.F.R.T.Y.:X1XCXvXvXVXNXfXBXBXdXCXCXBXCXnXNXCXCXVXCXCXCXNXCXCX",
"CXCXCXCXCXCXCXCXVXMXCXCXCXMXCXMXMXMXMXMXMXCXCXCXnXCXCXBXBXyXyXqXiXgXCXCXBXjXCXCXVXVXVXVXVXCXCXCXBXCXCXnXCXCXCXVXVXVXCXCXBXCXBXCX",
"CXCXCXCXCXCXCXCXCXCXCXCXCXCXCXCXCXMXMXCXCXCXCXCXCXMXCXBXCXBXBXBXjXCXCXCXCXBXCXCXVXVXVXVXVXCXCXCXCXnXfXMXCXCXCXCXVXCXCXCXCXCXCXCX",
"CXCXCXCXCXCXCXCXCXCXCXCXCXCXCXCXCXMXMXMXCXVXVXCXbXbXCXbXBXBXfXCXNXBXCXfXfXBXNXCXVXcXvXcXCXNXfXCXbXNXCXCXbXbXVXVXVXNXNXMXBXCXCXCX",
"CXCXCXCXCXCXCXCXCXCXCXCXCXCXCXCXCXCXCXCXMXCXCXCXVXVXCXVXVXCXCXCXMXCXBXBXCXBXCXCXCXVXVXVXVXCXBXCXMXVXVXVXVXVXVXCXVXVXNXVXMXCXCXCX",
"CXCXCXCXCXCXCXCXCXCXCXCXCXCXCXCXCXCXCXCXCXCXCXCXVXVXCXCXVXVXCXCXCXCXCXCXCXCXCXCXCXCXVXCXCXCXCXCXCXCXCXCXCXCXCXCXCXCXCXCXCXCXCXCX",
"CXCXCXCXCXCXCXCXCXCXCXCXCXCXCXCXCXCXCXCXCXCXCXVXNXVXVXVXVXVXVXCXCXCXCXCXBXCXCXCXCXMXBXCXCXCXCXCXCXCXCXCXCXVXCXCXCXCXMXCXCXCXCXCX",
"CXCXCXCXCXCXCXCXCXCXCXCXCXCXCXCXCXCXCXCXCXCXCXCXVXVXCXCXVXVXCXCXBXBXnXCXCXCXCXCXCXBXMXBXBXCXCXCXMXVXMXVXNXCXCXCXVXMXMXCXBXBXCXCX",
"CXCXCXCXCXCXCXCXCXCXCXCXCXCXCXCXCXCXCXCXCXCXCXCXCXCXCXCXCXCXCXCXCXCXCXCXCXCXCXCXCXCXBXCXCXCXCXCXCXCXCXCXCXCXCXCXCXCXCXCXCXCXCXCX",
"CXCXCXCXCXCXCXCXCXCXCXCXCXCXCXCXVXCXCXCXCXCXCXCXMXCXCXCXCXMXMXCXCXCXCXCXCXCXCXCXCXCXCXCXCXCXCXVXCXCXCXCXCXCXCXCXCXCXBXCXCXCXCXCX",
"CXMXMXCXMXCXCXMXMXCXMXCXCXMXMXCXCXVXNXCXCXNXCXCXBXMXCXMXMXnXMXMXBXBXCXNXVXVXCXCXCXMXMXNXVXVXVXVXCXnXBXBXBXCXBXCXBXMXNXCXMXCXCXCX",
"CXCXCXCXCXCXCXCXCXCXCXCXCXCXCXCXCXCXCXCXCXCXCXCXCXCXCXCXCXCXCXCXCXCXCXVXCXCXCXCXCXCXCXCXCXCXVXCXCXCXCXCXCXCXCXCXCXCXCXCXCXCXCXCX"
};
