/* XPM */
static char *_917151c8cbe4381fe27e4ed862afc91[] = {
/* columns rows colors chars-per-pixel */
"64 64 256 2 ",
"   c #5A4F4F",
".  c #E9B87E",
"X  c #A1CD63",
"o  c #EADB7B",
"O  c #9A8C71",
"+  c #2FB3BA",
"@  c #1BB4A9",
"#  c #4AB5B0",
"$  c #689C9F",
"%  c #10CDAD",
"&  c #31CEB2",
"*  c #54D4AF",
"=  c #67DAB7",
"-  c #72CCAF",
";  c #7BE2BB",
":  c #19A8C9",
">  c #16A9D6",
",  c #1CB4D3",
"<  c #19B9D8",
"1  c #0FB1CF",
"2  c #29A8C9",
"3  c #35AAC5",
"4  c #2AB3C8",
"5  c #35B9C8",
"6  c #29AAD6",
"7  c #37A9D4",
"8  c #27B7D8",
"9  c #37B4D6",
"0  c #15B9E7",
"q  c #27B7E7",
"w  c #2FB3EB",
"e  c #729DD4",
"r  c #56AAC8",
"t  c #46B5C8",
"y  c #59B7C7",
"u  c #43BAD6",
"i  c #51ABD3",
"p  c #69ABD7",
"a  c #7BA9D9",
"s  c #67B6D8",
"d  c #75B6DA",
"f  c #6DB4C9",
"g  c #50B9E2",
"h  c #7AA9EA",
"j  c #79B8EA",
"k  c #78ACF7",
"l  c #78B7FA",
"z  c #69B2ED",
"x  c #7198FF",
"c  c #3DC3CB",
"v  c #3BC5D4",
"b  c #36C5E9",
"n  c #11C9D2",
"m  c #50C9CA",
"M  c #6AC7CA",
"N  c #7AC8D8",
"B  c #76CDD0",
"V  c #78E1CE",
"C  c #56C4E3",
"Z  c #79C6E3",
"A  c #7ECEEB",
"S  c #6DE2E3",
"D  c #948A9C",
"F  c #ACBF91",
"G  c #B8BABA",
"H  c #9D9BA2",
"J  c #CCAA98",
"K  c #86D3B3",
"L  c #A3D9BB",
"P  c #99E9BC",
"I  c #B0EEB9",
"U  c #B7CB84",
"Y  c #FADA99",
"T  c #EFD490",
"R  c #F5EA8A",
"E  c #D3D5AD",
"W  c #F6D6A6",
"Q  c #ECD1AF",
"!  c #C8EDBB",
"~  c #C7F7B7",
"^  c #F9E8B6",
"/  c #EDE0B2",
"(  c #DBD49D",
")  c #949CD6",
"_  c #98BBC7",
"`  c #89B7DB",
"'  c #9AB7D6",
"]  c #91ACD3",
"[  c #B0B1D1",
"{  c #88A9E5",
"}  c #84BBE7",
"|  c #92BAE4",
" . c #89B7F8",
".. c #96B7F9",
"X. c #95AAF2",
"o. c #A5A6F8",
"O. c #A7B8F9",
"+. c #AFAFEB",
"@. c #A999DD",
"#. c #D39EDB",
"$. c #CCB4D6",
"%. c #CF9DE5",
"&. c #E799EA",
"*. c #F497EA",
"=. c #EA9DF8",
"-. c #F89BF4",
";. c #F58AF2",
":. c #DDA4E6",
">. c #D7B8EB",
",. c #CAA9F8",
"<. c #D7B5FC",
"1. c #CCB0F4",
"2. c #E5A5E9",
"3. c #FAB6EA",
"4. c #EAABF5",
"5. c #F9AAF7",
"6. c #E7B6F5",
"7. c #F9B7F9",
"8. c #F3ABE8",
"9. c #EBA0D9",
"0. c #84C4C9",
"q. c #98C8C7",
"w. c #89D8CC",
"e. c #98D8CD",
"r. c #89C6D8",
"t. c #96C8D7",
"y. c #89DAD8",
"u. c #9BD7D8",
"i. c #BDC2C4",
"p. c #A6D8CB",
"a. c #A8CAD9",
"s. c #B9CBD7",
"d. c #A7D5DA",
"f. c #B5D4DB",
"g. c #B1D0CB",
"h. c #96E6CB",
"j. c #B3E9C6",
"k. c #B0EBD0",
"l. c #85C9E7",
"z. c #9CC6E9",
"x. c #88D5EA",
"c. c #99D8E8",
"v. c #98CCF6",
"b. c #97D7FB",
"n. c #8CD3F8",
"m. c #AAC7E5",
"M. c #B5C5E9",
"N. c #AAD6E9",
"B. c #B7D9E7",
"V. c #BAC8FA",
"C. c #A7D5FA",
"Z. c #B6D9F9",
"A. c #A5C7F4",
"S. c #97E4F6",
"D. c #A9E3EA",
"F. c #A5E5F9",
"G. c #B8E6F7",
"H. c #B6F0EB",
"J. c #C5C8C9",
"K. c #D7D8CE",
"L. c #CCD6D7",
"P. c #DADDDC",
"I. c #D5D7D8",
"U. c #CCCCD3",
"Y. c #F7DBCB",
"T. c #E7D9D6",
"R. c #FADAD8",
"E. c #F4C9D8",
"W. c #C8F9C8",
"Q. c #CEF1D3",
"!. c #ECE4CA",
"~. c #F8E4C5",
"^. c #EBE8D9",
"/. c #F6E7D6",
"(. c #E9F1D9",
"). c #C6DBE6",
"_. c #D9DDE5",
"`. c #D7C8F9",
"'. c #C7D7F5",
"]. c #D6CEF3",
"[. c #FFC7EC",
"{. c #E5DAE4",
"}. c #FDD6EB",
"|. c #E7C8FA",
" X c #FEC5FD",
".X c #FECCFE",
"XX c #F8CAF8",
"oX c #EAD2FA",
"OX c #FDD2FF",
"+X c #F4D2FA",
"@X c #C9E6EA",
"#X c #DDE4E4",
"$X c #DBEBE4",
"%X c #D6E4EA",
"&X c #DAE5EC",
"*X c #D4EAEB",
"=X c #DCEAED",
"-X c #D4E6E5",
";X c #DCF2ED",
":X c #D9F6E9",
">X c #C9E7F7",
",X c #DCE4F2",
"<X c #D4ECF4",
"1X c #DDEBF2",
"2X c #DBECFB",
"3X c #D6E7FA",
"4X c #C9F6FB",
"5X c #D5F4F3",
"6X c #DDF4F3",
"7X c #D5F3FE",
"8X c #DCF4FB",
"9X c #D7FBFA",
"0X c #CFF1E3",
"qX c #E3E4E5",
"wX c #ECE4E4",
"eX c #E3EBE4",
"rX c #ECEBE5",
"tX c #E4E5EB",
"yX c #ECE5EC",
"uX c #E4ECED",
"iX c #EAECEC",
"pX c #F2EBEC",
"aX c #F7E8E8",
"sX c #E2F3E4",
"dX c #E3F2EC",
"fX c #ECF2ED",
"gX c #E7F7E7",
"hX c #F8F4E9",
"jX c #E3E5F3",
"kX c #EBE5F4",
"lX c #E3EEF3",
"zX c #EBEDF2",
"xX c #E4ECFB",
"cX c #ECEDFB",
"vX c #E9E4FB",
"bX c #F3EDF3",
"nX c #FAEDF4",
"mX c #F3ECFC",
"MX c #FDECFE",
"NX c #F8E5F8",
"BX c #E4F1F4",
"VX c #EBF3F4",
"CX c #E5FAF4",
"ZX c #ECF9F4",
"AX c #E3F4FC",
"SX c #ECF4FB",
"DX c #E4FCFD",
"FX c #ECFBFC",
"GX c #F3F5F5",
"HX c #FBF4F4",
"JX c #F3FAF6",
"KX c #FCFCF4",
"LX c #F4F5FA",
"PX c #FCF4FC",
"IX c #F4FAFC",
"UX c #FBFCFE",
/* pixels */
"1X1XlX1X1X1X1XlX,X1X1X1XlXBXlX1XBX;XBXBX1XBXBXBXlXlXlXBXBXzXBXBXBXlXBXzXAXBXVXzXAXBXAXBXBXVXBXVXVXCXVXVXVXVXVXCXVXVXVXVXSXVXVXVX",
"1X1X1X1X1XxXlX2X1XjXlX1XlX1XlXlX1XBXlXBX6XBXBXBXlXBXlXlXlXlXlXlXBXBXBXlXBXBXBXAXAXAXlXAXlXSXcXBXVXVXVXVXVXBXVXSXVXVXVXVXCXVXVXVX",
"1X1X1X1X1X1XjX1X=X1X1X1XlX1X1XBX=XBXlXlXlXBXBXlXBXlXBXlXlXBXlXBXzXBXzXBXBXBXBXBXxXBXlXBXBXVXBXVXVXVXVXAXCXVXVXVXSXVXVXCXVXVXCXSX",
"2XjX1X1X1XlX2X1X1XlXlX1X1XlXAX1XBX1XBX6XBXlXBX6XzXlXBXlXlXBXlXzXAXlXBXBXBXcXVXBXlXSXBXSXSXBXVXVXVXzXBXCXVXVXSXVXCXVXVXSXCXVXVXVX",
"jX1XjX2X1XlX1XlX1X1X1XlXlXxX6XlX;XlXBXBX1XBX6XBXBXlXBXlXlXBXlXBXBXBXlXAXBXBXBXBXVXSXBXBXBXVXBXVXzXzXlXVXCXBXVXVXVXVXSXCXSXVXVXCX",
"1X1X1X1X1X1X1XlX1XlX1X1X1XlX1XlXBX1XBXlXBXBXBXBXBXlXlXlXlXlXlXBXBXzXBXzXSXBXcXVXBXBXBXVXVXVXVXVXzXiXVXVXVXVXVXzXVXVXBXVXVXVXVXSX",
"1XlX1X1X1X1X1X2X1XjXlX1XlX1XlXxXlXlX1XBXBX6XBXBXlXlXlXBXBXlXlXlXlXBXBXBXSXVXBXBXBXVXVXlXzXlXiXuXpXkXzXCXCXSXVXVXSXVXCXSXVXSXVXVX",
"1X1X1X1X1XxX1XlX1X1X1X1X1XlXlX6XlX6XBXBXlXlXBXBXlXBXBXzXzXBXBXlXzXBXlXBXlXBXBXBXlXVXBXzXlXiXiXuXyXbXzXVXCXBXVXVXZXVXVXVXVXCXVXVX",
"1X1X1X1X2X1X1X1XlX1X1XlX1XlX1XlX1XBXdXBXBX6XBX1XBXlXBXlXBXlXzXlXcXBXtXcXLXxX2XAX8XhX:XFXQ o T.OXaX^.fXFXCXgXVXVXBXVXVXVXSXCXBXVX",
"<XjX<X<X1X1X1X1XlX1X1XlXlX1XlX1XlX1X1XBXlXlXlXlX6XBXBXlXlXlXlXlX8X8X;XBXfXsXfXrXfXSXmX_.W T tX3X4XDXLXrXsXCXSXLXBXCXVXVXVXZXVXSX",
"uX1X1X1X1X1X6X1X1XlX1X1X1XlX1XlX1XdXlXlXBXBX1XlXlXlXBXlXzXxXzXBXlX6X6X;X;XdXzXrX/.@X! F W W %X+ 9 x.G.CXJXdX&XSXBXBXVXVXCXSXVXVX",
"1X<X1X1X1X1X1X1X=X1X1XlX1X1XBX1X1XdX1X6X1XBXdX6XlXBXBXlXBXBXlXlXnXpXBXAX3XAXAXxXMXM.X T J MXb.> 6 : 4 N 3XPXSX:XVXVXVXVXBXZXVXVX",
"1X1X1X1X1X2X1X1X1X=X1XlXlXlX1XlXBX=XBXBX1XdXBX1XBXlXBXlXzXlXlXlXbXkXBXlXuXBXqXtXKXQ o Y I.mX# w w 1 1 : p >XIX(.BXBXVXVXVXVXVXVX",
"1X1X=X1X1X1X1X1X1X1X1X=X1X1X1X1X=X1X=XBXBXBX1XdX6XlXBXlXlXlXlXzX7X<XCX$X(./.E Q T Y X / hX/ + w , 6 b q > g >XhXVXCXVXCXVXSXZXVX",
"1X1X1X1X1X1X1X1XlX=XjX1X1X1X1XlX=XlX1XBX1XBXBX1XlXlXBXlXBXlXlXlX8X;X;X$XgXQ.F H Q Y.K # lX$ m > q : : 6 0 , y.UXBXVXVXVXSXVXSXCX",
"1X<X1X1X1X1X1X1X=X1X=X1X1XlX1X1X=XlX;X=XBX=X=X1XBX6XBXlXlXBXzXlXrXeXzXjXDXG.r # $ D i.n M % n 3 > q 4 , < : p 7XBXVXVXVXVXVXVXBX",
"&X1X=X1X<X1X=X1XkXlXAX<X<XAXAXBX6XlXkXkXkXxX8X7XLXzX=X6X6X6XdXuXCXrX7XjXhXx.b N.$.>.L - @ % & + 5 6 w 0 < : l.lXlXAXIXlXIXdXCXCX",
"<X&X,X1X=X,X<X1XAX=X&X1XxXzX_._.tX,X5X9X9X6XtX{.-X*XBXCXSXzXzXbXlXtXAX6XfXy : f G D   J.k.@ @ & % 8 q , 4 3 C.UXPXpXuX$XFXZXzXbX",
"1X1X1X<X&X1X1X1X5X<X=XzXkXkXkXSXDX2X=X&XtXrXfXfXCXAXBXjXtXjXxXzX2XuXVXlX5X} i y.KXH   T.JXH.* % % , 8 8 8 7 S.DXSXIXIX$XiXiXLXLX",
"&X1X&X1X1X1X1X1X@XBXlXtX&XlX8X3X>X3X3X7X8XBXBXdXuXtXtXlXBXAX5X5X7X;XaXtX2X1.<.FXKXKXHXUXPXCX# % & & 6 6 0 : m y N F.9XLXUXmXlXAX",
"1X<X1X1X1X1X1X1X*XBXqXzX7X>XA.` ] ] ) @.[ +.G.4X1XBXdXdX;X;X;X8X2X5XaXiXxX>.[.UXbXyX1X3XMXUXN % & & t 6 q 0 < 1 , 2 y N.DXIXBXCX",
"1X1X1X1X<X1X1X1X6XjX#XSX>Xr.d h +.,.4.-.&.%.[ ` >X>X9XBXdXeXiXbXlXAXfXBX8XJ.Y.CXUXPXM.h | +.d & & & & 8 q > b q q 6 2 + N 4XIXnX",
"1X1X1X<X1X1X1X1X6XzXqXSXZ.f k X.;.;.;.&.&.&.&.-.@.[ ].xXFXFXVXbXfXAX1XAX6XE ^ JXGXUXM.z j e z & & & & + 8 @ 4 6 6 C b 4 t G.IX{.",
"1X1X1X1X1X1X1X1X%XxXtXAXZ.h X.o.2.2.#.:.:.:.&.&.5.:.%.[ s.<X8XAXeXAX8XSXnXT Y R.JXUX'.k j ..z & * * * * S * m c c 8 b C t N.FXKX",
"=XjX1X&X,X1X=X*XfX{.cXAX>Xa  .k $.&.;.=.) i 2 6 < 3 e ) o.X.+.).rXGXcXcXrX/ T o T /.SX' x x l a m m = * * * = V c * C 5 i Z.FXgX",
"=X<X1X1X1X2X6X1X_.1X6X5XH.p l l +.*.=.{ : @ t ` z.r.M * + t _ /.^.aXkXkXpX/./ Y T W {.( J.a. .k z s M M ; = ; ; y.t v m r.5XIXGX",
"-X*X<X1X2X2X2X2X9XDX1X0XDX| h  .@.*.-.e : + N.mXMXPXIXAX>X).!.^ ~./.nXbXPXHX/./ ^ R W T Y +X`.V. .h j d B V ; ; k.* m r.#XKXCXAX",
"=X=X1X1X1X1XjXuX@XxX{.T.IXO.h l ,.-.*.) i t N.KX=XeXtXlXcXpX^ Y Y./.aXaXPXUXHX/.Q R Y J ( 7.[.OX`.O.X.l A y.w.V - w.F.8XHXhX=XDX",
"xXjX&X#XuXuXeX$XqXmXPXfX*X} k  .=.&.9.+.p 4 M 1X5X5X5X4X7XiX/.^ / ~./.pXPXUXPXPX( R Q D Q .X[. XOX`.O. .n.l.y.K a.SXUXCXCXcXmXUX",
"jX_.#XtXdXdXdX$XCX7X4XB.t.{ o.,.%.#.*.5.{ 4 v Z.lXSXmXMXNXNXaX^.~././.pXHXLXGXPX(.R J O U.XX3.oX}.].A.v.v.c.e.K D.LXnXiXDXSXPXSX",
"jXlXBXAX7X>XG.Z.B.z.' ] [ ,.-.-.4.4.5.2.] 5 5 s PXcX=X*X6XSXLXUXhXhXrXyXbXtXyXGXIXW J U 1.OXXXNXXX`.A.n.b.c.h.P - d.=XUXUXdXBX5X",
"-X*X5X>Xm.' { a @.:.=.*.-.5.2.9.*.%.X.r t c v 7 1X;XCXCXVXiXLXIXUXbXtXkXbXzXbXPXaXY.^ 9X..+X[.OXOX`.C.n.n.D.h.I k.w.M B.CXsXJXMX",
"1X%XAXm.i z o.5.4.8.2.4.@.s p f r t 9 8 8 4 3 C lXuXxXlXlXtXGXUX}.zXiXCXlXdXUXbXaXwXSXmXu.|..XoX`.V.n.S h.h.j.j.P Q.W.L k.AXmXLX",
",XlX*X'.h l X.,.8.2.2.e 1 6 9 7 0 , c t g z v.UXuXlXlXlXcXbXGXGXpXzXVXSXlXiXUXnXwXrXFXcXd.|.XX|.x.C.Z.D.p.P I j.I ~ W.Q.K oXUXZX",
",XxX-X2X| j l o.&.6.5.@.1 1 q , , l.NXhXKXUXsXQ.dXBXzXtXzXPXnXaXyXzXBXZXBXiXPXnXwXpXSX,Xm.|. X|.S S.G.Z.d.h.j.~ ~ ~ Q.P p.-XfXsX",
"vX-X;XCXV.a z  .,.<.8.*.' 5 9 8 7 9 C C.jX;X$XGXBXlXzXzXPXHXbXwXzXlXzXVXVXiXPXnXwXbXSX).).XX.XoX'.C.b.S.D.D.k.j.! Q.j.H.q.zXGXgX",
"cX).;XuX1XC.z l  .+.>.8.2.` t 5 , 8 > > g >XMXbXBX=XiXKXPXnXyXyXBXVXBXVXuXzXKXnXwXpXxXa.]..XOX+X.X|.Z.b.F.F.F.N.j.Q.p.K 4XLXPXIX",
"xX@X*XiX,X9X} { l 1.3.6.5.2.C t 3 4 3 9 6 7 c./.BXtXbXUXHXwXwXbXVXVXdXBXzXfXUXnXwXyXSXt.+X.X.XoX.X.X+X`.Z.C.S.F.D.q.p.4X_ xXUXtX",
",X<X-XzX@X4X| o.+.7.5.6.<.+.u 5 0 w 8 < 1 u >XUXlXzXGXHXbXrXwXVXBXVXlXVXlXVXUXnXrXpX1Xr.OX X.X+X+X.XXX.XoXZ.C.F.B f.UXAXK _ jXIX",
"<X1X&XzX@X_ ' <.6.7.+.] s < , 7 q 1 2 Z N.@XCX#XuXzXGXHXpXrXuXBXlXVXuXVXiXGXUXLXiXyX,X_ .XXX.X+X.X+X}.[..X|.'.C.B @XMXLXp.d.0XDX",
"K.9XS.j { <.6.3.5.1.r 4 8 9 w 8 0 3 Z.UXrXVXVXMXNXPXPXzXyXpXaXVX8XCXCXiXzXLXPXUX/.wX&X'.M.| +.O.A.s.E.XX.X+X_.j.H.d.p.h.p.s.(.PX",
"bX&X`  .O.<.8.3.XXM.N 5 4 9 8 8 1 3 D.8X@X@Xd.d.g.<XIXVXT.tXCX5XqXfXeXdXzXbXHX/.~./.rXuX<X<X5X1X2XB.t.M.`.|.#XW.~ I I k.k.p.@XDX",
"3XC.p  .O.<.6.7.3.6.[ _ f # y m C # r.a.a.r.f M r.B g.}.aXpX6X<XcXLXxXcXmXmXPXhXY./.rXfXCXCXZXfXuXcXLX>Xm.d e.W.~ ~ W.j.p.k.5X9X",
"3X>Xl.}  ...V.`. X X7.7.|.].>.>.<.`.`.1.4..X.XXXXXg.g./.R.K.uXMXVXsX:XsX(.gX^./.Y.R.^.yXcXSXlXuXMXLXJXZX&Xf.w.V L q.e.e.g.=XUXnX",
"T.,XB.r.d p d Z ` { +.+.| l.A } ` r.x.b.V.|.7.7. X].K.R.Y.gXDXmXtXs.N.Z Z N.J.!.^ ~.!.yXzXmXcXcXZX;X0XfXUXPX1XB.Z.N.N.7XAXZXHXnX",
"tXBX=X>X>XZ.Z.N.S.N.).'.>X>X,X_.'.c.N A n.v.M.oX|.$.$.T.aX;XH.f.x.q.Q.! Q.Q.e.c.^ ^ ~.!.rXGXGXVX^.iXLXFX8XVXPXPXJXVXJXIXIXfXVXfX",
"@X*X%X=XLXjXvXNXeX$XeXsXdXsXsXsXMXPX_.' Z S.F.v..X].f.d.g.[ [ ].U.s.d.c.x.z.m.s.^ ~.~.^.rXzXfXiXaXnXAX8XLXNXVX:X(.hXhXrXqXVXFXZX",
",XvXkX_.=XQ.5X0XvX1X3X<X3X2X1X2X0X$XbXcXC.s } C.v.Z.`.|. XOX|.V.A.>XL.:X-X' C.z./.aXpXbXcXcXSXBX9X8XzXhXhXhXLXSXCXlXCXIXLXVXGXLX",
"%X&X&X*X&X1X&X1X=X=X=X=X=X;X=XlX1X=XuXzX6X@Xu.d r.A x.N N r.u.B.fXFXN.f f a q.7XVXzXzXVXzXVXVXzXzXiXVXGXfXVXVXfXGXVXVXVXfXVXGXVX",
"%X,X&X&X&X1X=X&X&X=X=X=X=X1X=X=X<X=XuXiXlX2X>X>XB.B.Z.G.'.3XlXLXrXIX<XD.G.G.@XFXzXzXVXzXVXzXVXVXVXVXiXVXGXVXzXVXVXVXGXVXVXGXGXVX",
"&X&X&X&X&X&X=X,X=X&X=X=X=X=X1X=X1X1XuXuXuXlXcXLXLXVXzXcXcXbXpXwXwXfXBX6XDXDXVXJXzXzXzXVXzXVXzXVXVXVXVXVXVXiXVXGXGXVXVXVXfXVXVXVX",
"%X&X&X&X&X*X&X=X&X=X&X=X=X=X=XlX1XuX;X=XqXtXyXzXeXuX=X=XCXdXuXeXzXuXrXrXfXfXtXqXzXVXVXzXVXzXVXzXfXiXVXfXVXVXfXiXfXVXGXfXVXGXVXGX",
"%X&X&X&X&X&X&X&X*X=X&X=X=X=X=X1XtXtX=X;X;X;X=X=X-X$X=X6X6XBXBXCXxX1XBXiXrXrXBXxXzXzXVXzXzXVXVXGXzXVXVXVXGXiXVXVXVXGXVXVXVXVXGXVX",
"%X%X%X&X&X&X=X,X=X&X&X&X=X=X=X=XtX=X=X=X;X;X;X;XBXSXzXlXuX=XuXuX8XlXBXVXuXlXVXSXVXlXzXVXVXzXzXVXzXfXiXVXVXVXVXfXVXVXfXGXGXVXVXGX",
"%X%X&X%X&X&X&X*X=X$X=X=X=X=X=X=X;X=X=XuXuX=X=X=XjXjXtXuXuXiXzXzXdXuXlXuXlXuXjXuXVXzXVXVXzXVXVXzXVXiXVXVXfXVXfXVXVXGXVXVXVXVXVXGX",
"&X%X%X&X%X<X&X&X&X&X*X=X=X=X=XuX*X=XjXkXkXkXkXxXlX1XlXuXuXuX=X$XeXdXuXuXVXVXuXuXzXzXVXiXVXzXVXVXfXVXVXfXVXVXGXzXVXfXfXGXVXJXVXfX",
"%X%X%X-X%X&X%X%X=X&X&X&X=X%X&X=XuX#X=XuX=X#XuXuX=XuXuXuXuXzXuXuXlXlXlXuXBXlXVXuXVXuXVXBXuXzXJXfXzXjXDX6XSXiXfXrXVXJXZXVXuXiXGXVX",
"%XtXuX=XtXlXiXuXuXlXdXBXlXzXVXlXuXVXBXVXSXSXVXSXVXVXVXVXBXVXGXGXVXGXGXVXVXGXGXSXJXJXVXVXIXUXfXJXGXGXVXVXPXGXKXZXVXVXGXIXIXUXLXGX",
"GXIXIXIXIXUXUXIXLXUXIXIXIXUXUXIXUXUXUXLXLXLXLXzXIXSXLXIXLXLXIXLXIXIXIXIXIXIXIXIXFXIX_.&XBXUXGXKXUXKXGXKXKXUXIXFXUXIXIXUXUXHXGXUX",
"iXqXI.I.P.P.K.K.P.P.P.I.P.P.P.P.I._._.P.#XGXUXIXGXGXGXIXGXPXLXHXPXGXPXGXHXPXLXUXAX).f.5Xg.FXIXT._.#XK.T.K.I.B.B.iXrXiXtXP.I.tXUX",
"fXK.[ E J.J.J.$.K.$.L J.J.J.J.K.i.J.J.J.L.qXGXGXGXGXGXLXLXGXPXIXGXIXJXPXIXLXLXUXf.9Xm.m.@X2Xi.L.[ J.L $.[ J.a.t.$.G G G G G J.bX",
"iXJ.G i.J.J.L U.J.G G J.J.i.J.I.UXUXUXUXPXUXUXIXGXGXGXJXHXGXGXHXHXHXGXGXGXKXKXGXf.B.d.N.' ).@XU.qXP.I.P._.@XB.N.$XI.L.I.P.{.yXUX",
"JXiX&XtXiXuXuXfXrXqXtXuXrXuXuXJXVXGXVXGXGXVXfXzXJXJXGXJXGXJXHXGXJXIXUXGXJXIXLXKX$X-XB.f.a.<XIXiXKXLXCXBXSXjX=X-XZXeXuXVXGXGXGXGX",
"BXSXFXVXVXSXIXVXSXLXZXSXZXSXVXSXIXVXGXVXLXGXGXIXVXVXGXGXGXJXGXJXGXGXJXGXGXGXJXLXZXIXFX*XBXUXUXHXKXfXVXdXUXLXKXJXZXJXZXIXUXIXIXIX"
};
