/* XPM */
static char *_063550f4e3348d1959b83c6da88e43b[] = {
/* columns rows colors chars-per-pixel */
"64 64 243 2 ",
"   c #01060A",
".  c #000614",
"X  c #0A092E",
"o  c #2A1934",
"O  c #293139",
"+  c #1B2D2D",
"@  c #19005E",
"#  c #2A1746",
"$  c #351B4A",
"%  c #351957",
"&  c #2C1150",
"*  c #3F3753",
"=  c #34294C",
"-  c #37196A",
";  c #391C73",
":  c #3C2567",
">  c #3E2B75",
",  c #3B346A",
"<  c #462658",
"1  c #473559",
"2  c #44344F",
"3  c #421969",
"4  c #451B79",
"5  c #482A68",
"6  c #47356A",
"7  c #583869",
"8  c #452B7D",
"9  c #4A2878",
"0  c #572B77",
"q  c #433473",
"w  c #4C3C7D",
"e  c #493777",
"r  c #593879",
"t  c #55286E",
"y  c #653D72",
"u  c #394C53",
"i  c #3E5865",
"p  c #4C4A53",
"a  c #695258",
"s  c #4D605E",
"d  c #756254",
"f  c #57466B",
"g  c #4C4178",
"h  c #5B4678",
"j  c #4F4A6F",
"k  c #654C6C",
"l  c #655965",
"z  c #644978",
"x  c #66537B",
"c  c #576264",
"v  c #696D70",
"b  c #865A75",
"n  c #7F826D",
"m  c #908E6D",
"M  c #B2B073",
"N  c #A08B5C",
"B  c #C8B876",
"V  c #C6B657",
"C  c #D1D058",
"Z  c #DADA63",
"A  c #CDCB73",
"S  c #DAE366",
"D  c #3C2486",
"F  c #492985",
"G  c #552A8B",
"H  c #562A86",
"J  c #4B3987",
"K  c #5B3C8D",
"L  c #573788",
"P  c #552C92",
"I  c #543B93",
"U  c #593D93",
"Y  c #5C3C9C",
"T  c #553895",
"R  c #4E3293",
"E  c #633988",
"W  c #6B3D93",
"Q  c #643B97",
"!  c #5A3CA4",
"~  c #573BA6",
"^  c #633DA8",
"/  c #623CB1",
"(  c #584688",
")  c #5B4194",
"_  c #5C449C",
"`  c #5A4898",
"'  c #5D528C",
"]  c #684789",
"[  c #66558A",
"{  c #765789",
"}  c #63449B",
"|  c #634A9B",
" . c #684696",
".. c #724895",
"X. c #69549B",
"o. c #745798",
"O. c #73478C",
"+. c #796787",
"@. c #786798",
"#. c #6D718E",
"$. c #5C44A4",
"%. c #5B46A9",
"&. c #5C48B4",
"*. c #634CA4",
"=. c #634CAA",
"-. c #6747A7",
";. c #6C53AD",
":. c #6753A5",
">. c #6445B3",
",. c #6B4CBA",
"<. c #664AB4",
"1. c #6A51B6",
"2. c #755AB6",
"3. c #734DAB",
"4. c #7768A6",
"5. c #7964B4",
"6. c #576D82",
"7. c #6E4CC3",
"8. c #847987",
"9. c #8B789B",
"0. c #8878A7",
"q. c #8777B6",
"w. c #896FB1",
"e. c #9674CD",
"r. c #76858D",
"t. c #869494",
"y. c #909197",
"u. c #B4B68A",
"i. c #9787A8",
"p. c #9498A9",
"a. c #9788B5",
"s. c #8F8EB3",
"d. c #A795BD",
"f. c #A891B4",
"g. c #92ADAC",
"h. c #B8BAB9",
"j. c #A9ACAC",
"k. c #96A28A",
"l. c #D0B98B",
"z. c #DDB7AE",
"x. c #B3C3AF",
"c. c #CAD08E",
"v. c #CED4AA",
"b. c #CFE6A5",
"n. c #9A88C5",
"m. c #9B97C3",
"M. c #9A86D7",
"N. c #A999C5",
"B. c #A38BCB",
"V. c #97B5C7",
"C. c #ADA3CB",
"Z. c #B6A9CA",
"A. c #B7B9C7",
"S. c #B6A8D8",
"D. c #AEB4D3",
"F. c #BAABEC",
"G. c #C4BACA",
"H. c #CBB8D5",
"J. c #C7A9CF",
"K. c #C79FE5",
"L. c #C5BAE4",
"P. c #CCBAF7",
"I. c #B3C5CD",
"U. c #B9D7DB",
"Y. c #AFCBD0",
"T. c #BBE2D5",
"R. c #B5D7EF",
"E. c #BEE5F9",
"W. c #C6D6C9",
"Q. c #DDDACA",
"!. c #CAC8D9",
"~. c #D3CBD7",
"^. c #CAD9D8",
"/. c #D2D3D4",
"(. c #D4D6D9",
"). c #D6D9DC",
"_. c #DADBDD",
"`. c #D8D7D7",
"'. c #CAC7CC",
"]. c #D9E5DB",
"[. c #C8E9D6",
"{. c #E7E6D8",
"}. c #E9F5D8",
"|. c #F2F0CD",
" X c #D8CAEC",
".X c #C6DBE8",
"XX c #DCDDE2",
"oX c #DDDDEA",
"OX c #D7D9E5",
"+X c #DCD5F9",
"@X c #D2C5F1",
"#X c #E6DCEA",
"$X c #E4CDF6",
"%X c #E6D7F9",
"&X c #F2DCFD",
"*X c #F5D8FC",
"=X c #DEE1E4",
"-X c #DBEBEC",
";X c #D6E7E9",
":X c #DDF0EE",
">X c #C8E9FC",
",X c #D7E9F5",
"<X c #DBF6F9",
"1X c #CBE9EE",
"2X c #E2E3E5",
"3X c #E5ECE4",
"4X c #ECECE5",
"5X c #E3E4EA",
"6X c #E5EAEC",
"7X c #EAEBEC",
"8X c #EAE4E9",
"9X c #F2EAE9",
"0X c #EDF2EB",
"qX c #ECF3E7",
"wX c #F2F3EC",
"eX c #FDFDED",
"rX c #F8F8E8",
"tX c #E5EDF3",
"yX c #EBEDF2",
"uX c #E4E4FD",
"iX c #ECE3FD",
"pX c #EDEDFE",
"aX c #E6E7F5",
"sX c #F2EBF3",
"dX c #F4E4FE",
"fX c #F4EAFE",
"gX c #FDEDFF",
"hX c #FAE4FC",
"jX c #E3F2F2",
"kX c #EDF2F4",
"lX c #E4F5FC",
"zX c #EDF3FC",
"xX c #E5FDFD",
"cX c #ECFCFC",
"vX c #EEFBF2",
"bX c #F3F4F4",
"nX c #FAF4F5",
"mX c #F5FAF3",
"MX c #FCFDF5",
"NX c #F4F4FC",
"BX c #FDF5FE",
"VX c #F4FBFD",
"CX c #FEFDFE",
/* pixels */
"CXCXCXCXCXCXCXCXCXCXCXCXCXCXCXCXMXMXCXCXCXCXCXCXCXMXMXCXMXCXCXCXCXMXMXMXrXCXCXCXCXBXBX!.@.( <.T I ` | 5.M.P.*XBXgXBXBXCXCXCXCXpX",
"CXCXCXCXCXCXCXCXCXCXCXCXCXCXCXCXCXMXCXCXCXCXCXCXCXMXMXMXCXCXCXCXCXCXBXCXBXCXBXCXNXNXi.* ( | Y 1.=.) J ) ) L [ @.H.BXBXsXCXBXNXCX",
"CXCXCXCXCXCXCXCXCXCXCXCXCXCXCXCXMXCXCXCXCXCXCXCXCXMXMXCXCXCXCXCXCXCXNXCXCXCXbXMXXXy., ( :.;._ -.*._ *.=.-.Y )  .L h d.fXCXnXbXwX",
"CXCXCXCXCXCXCXCXCXCXCXCXCXCXCXCXCXCXCXCXCXCXCXCXMXMXMXMXCXCXCXCXVXCXNXVXCXCXbXkXA.p g 5._ $.2.Y T Q -.-.U *.| J ( 6 = * y.nXCXeX",
"CXCXCXCXCXCXCXCXCXCXCXCXCXCXCXCXCXCXCXCXCXCXCXCXCXMXMXCXCXCXCXCXVXCXVXeXMXmXvXoX#.( | ;.~ >.,.^  ...W y r E ' ( | 4.n.h $ v '.BX",
"CXCXCXCXCXCXCXCXCXCXCXCXCXCXCXCXCXCXCXCXCXCXCXCXMXMXMXMXCXCXCXBXBXCXMXeXMXqXsXD., ` ;.1.,.>.~ Q W y y a k k x @.q.F.M.` o.7 1 *X",
"CXCXCXCXCXCXCXCXCXCXCXCXCXCXCXCXCXBXCXCXCXCXCXCXCXMXMXMXMXCXBXCXCXMXeXrXeX4XiX4.=.%./ ,.^ ! ^ -.7 b a 2 d d a l [ n.M.%.^ 3.P e.",
"CXCXCXCXCXCXCXCXCXCXCXCXCXCXCXCXCXCXCXCXCXCXCXCXMXMXMXMXCXCXBXCXCXMXeXeXeX9X%X( -.7.7.! ^  .] 7 b z.z.N M l.m m r.x | F G ,.Q W ",
"CXCXCXCXCXCXCXCXCXCXCXCXCXCXCXCXCXCXCXBXCXCXCXVXCXMXCXnXCXgXBXCXBXMXCXBXgX$Xq.5 Q / / ,.L z a d B B V Z C S Z c.m v +.B.B...y r ",
"CXCXCXCXCXCXCXCXCXCXCXCXCXCXCXCXCXCXCXCXCXCXCXCXCXwXMXnXgXCXgXZ.#X*X*X Xf.r 5 9 F ! ^ Q f l m l.A A C Z C S Z A c.|.BXBXhX{ y 7 ",
"CXCXCXCXCXCXCXCXCXCXCXCXCXCXCXCXCXBXCXCXCXCXCXCXwXCXCXCXCXH.k < $ 7 E 0 - 3 H Q ; -. .h c n A M B l.M A M c.v.|.4X#X&X@XO.y $ 8.",
"CXCXCXCXCXCXCXCXCXCXCXCXCXCXCXCXCXCXCXCXCXCXCXVXMXCXCXnXBX+.# r ] W H 0 L -.Q F -.o.6 l n M b.c.|.|.|.|.|.}.rXMX7XfX X[ = $ t $X",
"CXCXCXCXCXCXCXCXCXCXCXCXCXCXCXCXCXCXCXCXCXCXVXCXCXMXMXBXhXf z ] ^ P H L W P G R K g * k.x.v.b.}.rXwXrXqX4X4X7X2X9XG.2 O o k *XBX",
"CXCXCXCXCXCXCXCXCXCXCXCXCXCXCXCXMXCXCXCXCXCXMXCXmXCXCXBXgX7 $ t E G H L E L ) ` , #.g.^.T.[.T.T.].7XNXyXmXbX9X`.j.h.a b ~.BXgXgX",
"CXCXCXCXCXCXCXCXCXCXCXCXCXCXCXCXMXCXCXCXCXVXVXMXCXCXBXBXBX0.% O.4 L E L K | [ j s.A.lXY.U.E.E.E.,X<XVX:X0X{.Q.v.c.l.rX|.BXBXBXBX",
"CXCXCXCXCXCXCXCXCXCXCXCXCXCXCXCXCXCXCXCXCXCXCXVXCXnXCXBXgXgXx o t 5 E 3. .7 1 1 A.p.1XD.>XR.E.E.R.,XcX-XmXqX4Xv.m v.rXeXMXBXBXCX",
"MXCXCXCXCXCXCXCXCXCXMXMXMXMXMXCXCXCXCXCXCXVXCXVXCXCXCXCXCXBX#Xi.2 , 8 F o.Z.OXj.v = v r.R.V.E.>X.X<XcX:XcX].[.W.k.}.eXeXCXCXVXCX",
"MXMXCXCXCXCXCXCXnXmXCXMXMXmXMXVXCXVXVXVXCXCXCXCXCXCXCXCXnXCXCXsXNXd.I ` S.NXBXnXI.1Xn s #.V.<XU.U.cX1XcXxX^.W.x.x.mXVXmXMXCXCXCX",
"MXMXCXCXCXCXCXCXCXCXCXMXmXvXnXCXCXCXCXCXCXCXCXmXCXmXCXCXCXnXCXCXCXd.J $.S.aX'.'.u r.v   . 6.<XE.U.<XcXxX[.^.[.x.3XVXMXmXCXCXCXCX",
"CXCXCXCXCXCXBXCXCXMXMXCXCXCXCXCXCXmXMXMXMXMXMXmXCXwXCXCXCXMXnXNXfXa._ _ n.BXsXNXy.  x.+ . X i 1X,X,XxXlXjXjXmX].mXMXVXmXCXCXVXCX",
"CXCXCXCXCXCXCXMXMXMXCXCXCXCXBXfXCXCXBXnXMXCXMXMXCXMXMXMXCXCXCXCXCX0.I I #.iXCXzX6XO *     = u u +XxXtX;Xt.v t.j.mXMXMXMXCXCXCXCX",
"CXCXCXCXCXMXMXMXMXCXCXBXfXBXCXCXBXBXCXMXCXBXwX9XMXMXMXCXnXCXCXCXCX0.` 2.@.+XNXXXNXj.    s r.U.r.OXlXNXt.  c p j.mXmXCXCXCXCXCXCX",
"CXCXCXCXMXMXMXMXCXCXCXBXCXBXBXhX$X$X$XhXgXgXBXCXnXMXCXCXVXVXCXzXNXs.J =.( F.CXCXNXVXOXc #.I..XI.VXtXVXc s CXW.4XMXmXCXCXCXCXCXCX",
"CXCXCXCXMXeXMXMXCXBXBXCXBX%Xa.h 7 5 5 t 8.Z.#XBXCXnXnXCXCXCXVXVXCXm.( ` ' @XfX=XzXuXlXlXjXzX:X.XlXVX;Xt.(.6XCX4XCXCXCXCXBXCXCXBX",
"CXCXCXCXMXeXMXMXNXCXBXBXd.7 & e H  .L r E < y J.BXBXCXCXbXCXCXNXVXL., :.( D.zX,X,XpXpXcXkX6XVXtXtXkXyX2X5XMXCXCXCXCXCXCXCXBXCXCX",
"CXBXCXMXMXeXMXMXCXCXdX@.] h 6 0 H Q Q W ....y 7 9.BXdXCXCXvXvXCXCX%Xg :.( C.NXNXtXpXuXpXkXjXVXpXaXzXyX5X7XVXCXCXCXCXCXCXCXCXCXCX",
"CXCXCXMXeXMXCXVXCXfXa.e r 3 E 0 Q G G G H W w.y 7 i.gXBXCX4XCXmXCXBX@.' ( m.NXNXzXpX+XuX6X6XNXyX=X7XyX2X7XNXCXVXCXCXCXCXCXCXCXBX",
"BXCXBXMXeXMXCXBXBXS.w 3.E 3 0 H H P W 3.W H E W O.7 d.BXaXCXMXbXCXfXC., ' s.VXkXcXzXuXuX3X{.6X6XXX5XyX7XbXCXCXVXCXCXCXCXCXCXCXCX",
"CXCXMXMXMXCXCXCX%X| } } - Q 3 0 0 W E 0 H W W W ..] z Z.BXCXCXMXCXBX%Xj ( m.xXjXkXzXpXpX0X{._.pXyXbXMXVXCXCXCXCXCXCXCXCXCXCXCXCX",
"CXBXMXCXMXCXCXCXS.> ;.T 4 H t 0 0 0 0 y W W W ....] o.f CXfXCXCXCXCXVXs., m.yXvXtXzXNXpXmX{.#XBXMXCXCXCXCXCXCXCXCXCXCXCXCXCXCXCX",
"BXCXCXMXCXCXVXfX4.( %.>.Y 3 H t y < 7 O.W H E E W E o.z 9.CXNXCXCXCXCX Xg s.zX0XyXzXNXpXMXqXXXCXCXCXCXCXVXCXCXCXCXCXCXCXCXCXCXCX",
"CXCXCXMXMXMXNXfXw $.,.R 4 E 3 t < k J.hX*X*XK.W E O.r x h #XBXCXCXmXCXCX@.#.CX6XkXzXpXuXnXrX(.CXCXCXCXCXCXCXCXCXCXCXCXCXCXCXCXCX",
"VXCXMXMXMXmXCX!.e *.>.^ G 4 t < = #XBXCXBXgXBXgXf.7 x z 7 i.BXCXMXbXmXCXOXG.5XbXzXbXpXzXkX0X0XtXCXCXCXCXCXCXCXCXCXCXCXCXCXCXCXCX",
"CXCXMXMXMXmXBXS.q -.>./ G 4 0 < 8.fXBXCXCXCXCXBXhX$X{ x h f %XoXyX5X=XkX=XXXNXbXsXbXyXkXkXkX6X-XCXCXCXCXCXCXCXCXCXCXCXCXCXCXCXCX",
"CXCXCXMXMXMXVXN.> =.,./ G 4 0 < J.CXCXCXMXCXCXCXMXgX&X+.+. X+XpX-XaX6XkXaXbXCXyXbXyXkXkXzXkXjX2XCXCXCXMXCXCXCXCXCXCXCXCXCXCXCXCX",
"CXNXCXCXMXCXCXa.q $.,./ P D 9 %  XBXCXCXmXCXMXCXCXhXBXoX!.VXlX^.OXjXNXVXkXyXNX6XkXbXkXbXNXkXkX6XCXCXCXVXCXCXCXCXCXCXCXCXCXCXCXCX",
"CXVXCXMXVXCXCXm.J $.%.,.-.F 9 5 &XCXCXCXMXMXeXMXCXCXsXNXaXlX;Xr.[.jXjXcXvX6XkXkXkXNXmXzXkX6X5X2XCXCXCXCXCXCXCXCXCXCXCXCXCXCXCXCX",
"CXCXCXCXMXmXCXN.J I ~ ,.>.R F : &XCXnXnXMXMXMXmXnXNXNX!.:XcXI.g.-XcXjXjXcXyXkXkXNXkXkXyX6X=X=XXXCXCXCXCXCXCXCXCXCXCXCXCXCXCXCXCX",
"VXCXMXVXCXnXCXD.J ` %.&.&.$.J : J.CXgXnXCXMXMXmXMXmX).VXcX<XT.T.^.xXjXjXcXkXzXkXbXyX6X5XtX6X5X].nXVXCXCXCXCXCXCXCXCXCXCXCXCXCXCX",
"VXMXMXMXCXVXCX Xe | %.! %.=.` - @.BXBXCXCX0XMXMXmX6X;XVX.X<XxXT.g.;XxX:X:XkXcXjXyX-XXX=XkXVXzX6XyXmXCXCXCXMXCXCXCXCXCXCXCXCXCXCX",
"CXCXMXrXMXCXCXfX[ ' _ $.) %.2.( & a.CXCXCXCXMXmXCX=X-XVX<XV.<XV.g.:XcX:XjXvXjX6XVXyXtXkXNXkXkXmX2X7XCXMXCXCXnXCXCXCXCXCXCXCXCXCX",
"MX4XwXCXCXbXBXBXq.e _ :.*.) ` `  .( h Z.CXNXVXmXCX2X6X<XY.r.>XU.U.;X:X:XVXcX6XkXyXkXkXbXkX6X6XkX2XbXCXCXCXCXmXCXCXCXCXCXCXCXCXCX",
"CXCXCXnXCXBXCXfX+XJ ` ) ;.` ` `  .X.6 D.CXyXCXCXVX5XzXVXU.V.<X<XxX:X;XjXcX6X=X=XvXNXNXkX6XtXyXkX2X7XCXCXCXCXMXCXCXCXCXCXCXCXCXCX",
"nXnXCXCXCXBXBXgXP.( ` I %.*.%.` I X.[ +XCXVXCXbXMX_.6XVX.X:XxXxX;X-XjXjXtXcXjXXXkXkXyX=X=X0XzXbX7X4XCXCXCXCXCXCXCXCXCXCXCXCXCXCX",
"BXCXBXfXgXBXL.@.( : J ;.$.%.&.%.:.e 5.BXCXCXVXMXMX9X#XNX-XVXlX,X].jXVXjX6XkX6X/.6X5X)./.OXjXvXkXyX2XCXCXVXCXCXCXCXCXCXCXCXCXCXCX",
"BX&XgXgXBX$Xo.9 9 ; ; =.%.%.&.&.;.> F.BXNXVXnXCXeX9X8XMXsXVX,X;XjXkXyXyX6X2X/.~.XX).(.).6XNXcX6XyX2XCXCXMXCXCXCXCXCXCXCXCXCXCXCX",
"C.# # 9.gXS.r r :.8 > D &.&.%.%.=.J P.BXNXCX4XQ.Q.{.8XnXyX5XOX^.).XX_.6XNX2X`.yX5XXX_.5XkXcXkXkXbX#XCXCXNXCXCXCXCXCXCXCXCXCXCXCX",
"5 # 5 X w.o.(  .I ; D @ $.1.~ %._ ' +XCXCXzX{.4X9XMX9X7X8X).XX-X^.bXVXNXVX#X~.7X8XXX_.5XkXkXkXkXbX_.MXCXMXCXCXCXCXCXCXCXCXCXCXCX",
"- 8 8 e w.T ;.U :.- ; - ; R U X.( , aXCXCXXXbX4XbXnXsX(.XXyX(.).VXCXnXVX_.2X_.2X6X/.5X5XbXyXkXkX3X4XnXCXCXVXCXCXCXCXCXCXCXCXCXCX",
"F - 2.&Xe.8 3.I  .; - 9 - & 0 L ' x VXCXOXyX5XVXyX7X5XOX=X5X`.yXVXCXCXyX_.=X=X2X5X/.7X4XbXbXkX4X2X7XMXCXCXMXMXCXCXCXCXCXCXCXCXCX",
"_ U *.;.I ;.T ;.-.F - 8 - & o.n.g 6 uXNXOXVX2XCXyXXXOXXX5X#XXXCXCXCXCX2X_.=X2X2X2X_.NX6XkXbXNXbX2XyXVXCXCXCXCXCXCXCXCXCXCXCXCXCX",
"e | U ) R T ;.T _ L - - ; & w.&Xs.j !.aXCXsX7XnX5X_.OX6X5XXX6XCXCXCXMX_.2X_.aX{.2XXXMX2X8XyXVXnX{.nXCXCXCXCXCXCXCXCXCXCXCXCXCXCX",
"X.w X.8 8 ;.U ;._ } 8 - 5 % [ BXCXZ.~.aXVX3XCX3X_.XX#X5XXX=XbXCXCXVXNX`.=X_.7X_.#XXXCX4X5X4XsX7X5XMXCXCXCXCXCXCXCXCXCXCXCXCXCXCX",
"w h e q.5.| } U } | J & % # h BXBXVXoXNX2X0XMX`.`.#X5XaXOX5XCXVXCXbX8X_.=X2X8X2X`.].CXNXbX6X6XXXnXVXCXCXCXCXCXCXCXCXCXCXCXCXCXCX",
"C.x N.BXB.q ) 5.( K w : # # 9.hXfXpX5XMX3XnXmX/.XX5X=XyXXXXXCXCXCXbXXX2X2X2X2X2X=X).CXCXCXkXyX6XCXVXCXCXCXCXCXCXCXCXCXCXCXCXCXCX",
"BXCXBXfX%Xg q q ' [ #.9.k k H.CXCXOXyXwXwX4X3X`.2X2XOXaXOXOXCXCXCXkX`.5X_.6X_.2X5X_.CXCXCXCXCXCXCXMXnXCXCXCXMXCXCXCXCXCXCXCXCXCX",
"CXCXgXCXfXa.@.@XfXgXBXCXBXBXCXBX5X7XyX0XwXmX3X`.#X6X5XoX5XXX7XCXCX5X_.4X5X=X2X2XXX_.nXCXCXCXCXCXCXCXCXCXCXCXCXCXCXCXCXCXCXCXCXCX",
"bXCXVXCXCXCXfXCXBXgXBXBXBXCXCXBX#XyXbX0XqXqX{.`.2X5XoX5XaX=X6XCXMX2X_.2XXXXX2X_.2X_.VXCXCXCXVXCXCXCXCXCXCXCXCXCXCXCXCXCXCXCXCXCX",
"MXCXCXyXCXCXCXfXCXCXCXCXMXMXMXrX2XyXNXbXwX4X3X`.=X5XXXoX#XXX#X0XCX2X_.2X2X2X2X2X2X_.mXCXCXCXCXCXCXCXCXCXCXCXCXCXCXCXCXCXCXCXCXCX",
"MXMXCXMXnXVXCXCXCXCXCXCXCXCXCX8X5XkXnXbXwXwX8X_.7XaXaX5XaX=X_.4XVXXX`.XX_._._._.XX_.NXCXCXCXCXCXCXCXCXCXCXCXCXCXCXCXCXCXCXCXCXCX",
"MXmXMXCXCXCXCXCXCXMXCXCXCXCXMX#X6XyXkXkXwXbX6X_.OXoXXXOX5XXX`.=XCX8X2X5X2X5X5X2X7X5XNXCXCXCXCXCXCXCXCXCXCXCXCXCXCXCXCXCXCXCXCXCX",
"CXCXCXVXVXMXMXqXMXMXCXCXCXCXnX2XfXbXsXyXbXMXyXXXOXoXoXoX6X5X2X3XCXCXVXCXCXCXCXCXCXbXCXCXCXCXVXCXCXCXCXCXCXCXCXCXCXCXCXCXCXCXCXCX",
"VXCXVXCXCXMXMXMXMXMXCXCXCXCXVXaXuXpXyX6X7XbXyX5XfXCXCXBXCXCXCXCXCXmXCXCXVXCXCXCXCXmXCXCXCXCXCXCXCXCXCXCXCXCXCXCXCXCXCXCXCXCXCXCX",
"CXVXVXCXCXwXmXMXMXMXCXCXBXCXCXfXoXoX#XXXXXXX2XOXNXCXCXVXCXCXMXCXCXVXCXCXMXVXCXCXCXbXCXCXVXCXCXCXCXCXCXCXCXCXCXCXCXCXCXCXCXCXCXCX"
};
