/* XPM */
static char *_bd98fe588dc49b1de534f2934033e5f[] = {
/* columns rows colors chars-per-pixel */
"64 64 253 2 ",
"   c #161400",
".  c #050901",
"X  c #1F251B",
"o  c #322A0E",
"O  c #312F30",
"+  c #41371C",
"@  c #685413",
"#  c #5B5531",
"$  c #6C5E31",
"%  c #4D4E48",
"&  c #B75D0F",
"*  c #87692B",
"=  c #987529",
"-  c #B96421",
";  c #D26E31",
":  c #E67B35",
">  c #8F7E62",
",  c #DC9E37",
"<  c #E99139",
"1  c #EAA33B",
"2  c #B48A58",
"3  c #AA9455",
"4  c #BA9657",
"5  c #AF9150",
"6  c #BBA25F",
"7  c #A18C64",
"8  c #AB9864",
"9  c #BD9B6C",
"0  c #B89665",
"q  c #BB9872",
"w  c #AD936D",
"e  c #B6A369",
"r  c #BAA879",
"t  c #B6AB75",
"y  c #968551",
"u  c #DB9A4C",
"i  c #D3954A",
"p  c #C4955D",
"a  c #C49B5A",
"s  c #CB9C5C",
"d  c #C99552",
"f  c #D39A54",
"g  c #D49A5A",
"h  c #D49657",
"j  c #C28F5A",
"k  c #F38C47",
"l  c #EC9E4D",
"z  c #E29B4D",
"x  c #E39D53",
"c  c #EB9C54",
"v  c #FF9C58",
"b  c #EF8C51",
"n  c #C8A257",
"m  c #DBA35A",
"M  c #DBAC5C",
"N  c #D7A458",
"B  c #DDAC54",
"V  c #E8A649",
"C  c #F4AC4C",
"Z  c #F9A748",
"A  c #FFB34D",
"S  c #FFB94D",
"D  c #FFB645",
"F  c #E4A254",
"G  c #E4AB54",
"H  c #E3AD5C",
"J  c #EBA757",
"K  c #FEAD53",
"L  c #F3AB5B",
"P  c #FFAD5B",
"I  c #F7A555",
"U  c #ECB55B",
"Y  c #E9B553",
"T  c #FDB354",
"R  c #FFBC53",
"E  c #FEB45C",
"W  c #F4BB5B",
"Q  c #FEBB5A",
"!  c #F6B656",
"~  c #C79C62",
"^  c #C99B64",
"/  c #C89967",
"(  c #C29E75",
")  c #D69B68",
"_  c #FF9B64",
"`  c #C8A768",
"'  c #D7A769",
"]  c #CBB16B",
"[  c #DDB96E",
"{  c #C9A777",
"}  c #D5AB77",
"|  c #DAB575",
" . c #D8B37C",
".. c #CFB875",
"X. c #E3AC6D",
"o. c #E6A966",
"O. c #F7AC65",
"+. c #E2B464",
"@. c #E3B26A",
"#. c #ECB369",
"$. c #ECB864",
"%. c #FEB462",
"&. c #FEBB64",
"*. c #FDB46A",
"=. c #F6BC69",
"-. c #F6B966",
";. c #E6A877",
":. c #F8A876",
">. c #EBBB79",
",. c #E7B575",
"<. c #FBB473",
"1. c #F4BB75",
"2. c #FDBE73",
"3. c #F6B878",
"4. c #FFC35A",
"5. c #FFC557",
"6. c #EBC46D",
"7. c #FEC36C",
"8. c #F7C366",
"9. c #E7C479",
"0. c #FDC475",
"q. c #FECB73",
"w. c #FCC37A",
"e. c #FECC7B",
"r. c #F4C777",
"t. c #FAD27A",
"y. c #EFD17B",
"u. c #A39D87",
"i. c #BCA884",
"p. c #BEB28D",
"a. c #A89FA4",
"s. c #C6AA89",
"d. c #D5AB85",
"f. c #C5B189",
"g. c #D8B588",
"h. c #C7B795",
"j. c #D8BC94",
"k. c #D3AA92",
"l. c #F2B783",
"z. c #E4B996",
"x. c #F1BE96",
"c. c #E8B285",
"v. c #CEBDAD",
"b. c #DAC889",
"n. c #D9C999",
"m. c #DDD59C",
"M. c #CCC497",
"N. c #EACC89",
"B. c #FAC786",
"V. c #E9D689",
"C. c #FEDB8D",
"Z. c #F8D888",
"A. c #ECC59A",
"S. c #E7C995",
"D. c #F4C99A",
"F. c #E6D599",
"G. c #FDDA9B",
"H. c #F6D798",
"J. c #EEE798",
"K. c #FFE59C",
"L. c #FAE598",
"P. c #FEF197",
"I. c #FFE087",
"U. c #DCC8A3",
"Y. c #DDD9B8",
"T. c #D2CBB3",
"R. c #E8C8A4",
"E. c #F8CBA7",
"W. c #E8D7A6",
"Q. c #FED3AB",
"!. c #F3DBAB",
"~. c #F9D5A6",
"^. c #E9CFB9",
"/. c #E6DAB7",
"(. c #FCD9B6",
"). c #F3CEB1",
"_. c #ECE5AE",
"`. c #E8E9A8",
"'. c #FCE2A2",
"]. c #FAEDA6",
"[. c #F5ECAC",
"{. c #FBECAC",
"}. c #F5E4A7",
"|. c #EAF0AD",
" X c #FEF3A5",
".X c #FBF2AC",
"XX c #F9F5A9",
"oX c #EBE3B4",
"OX c #EEEAB5",
"+X c #E3E4BD",
"@X c #EBE6BB",
"#X c #EDEABB",
"$X c #E4E9B9",
"%X c #F3E6B2",
"&X c #F3EDB4",
"*X c #FBEDB4",
"=X c #FEE2BC",
"-X c #F3ECBC",
";X c #FCECBC",
":X c #F9E3B8",
">X c #F6F2B6",
",X c #FCF2B3",
"<X c #F6F1BC",
"1X c #FDF4BC",
"2X c #F9FDBC",
"3X c #DBD8D2",
"4X c #E3D9C7",
"5X c #F6DBCE",
"6X c #ECE5C3",
"7X c #EEE9C3",
"8X c #EDEBCC",
"9X c #E8E5C8",
"0X c #FEE4C4",
"qX c #F2EDC3",
"wX c #FFECC3",
"eX c #FDE5CB",
"rX c #F2EDCB",
"tX c #FFECCC",
"yX c #F6E4C8",
"uX c #F5F1C2",
"iX c #FBF3C3",
"pX c #FEF9C2",
"aX c #F4F1CC",
"sX c #FDF4CC",
"dX c #FEFACC",
"fX c #EBEAD5",
"gX c #F2EED3",
"hX c #FEECD2",
"jX c #FEEEDB",
"kX c #F4EADD",
"lX c #EEF3D3",
"zX c #F5F2D3",
"xX c #FEF4D4",
"cX c #FFFAD3",
"vX c #F4F3DB",
"bX c #FEF4DC",
"nX c #FFFBDD",
"mX c #EBE9E4",
"MX c #F8ECE6",
"NX c #EFF6E6",
"BX c #FEF5E3",
"VX c #FEFCE4",
"CX c #FEF5EC",
"ZX c #FFFDEC",
"AX c #F4F7E8",
"SX c #EEFAFC",
"DX c #F3F4F4",
"FX c #FEF4F3",
"GX c #FFFEF4",
"HX c #FEF5FC",
"JX c #F5FEFD",
"KX c #FEFFFE",
"LX c #F4FCF6",
/* pixels */
"KXKXKXKXKXKXKXKXKXKXKXKXKXKXKXKXGXGXGXGXGXKXKXKXGXJXKXKXLXKXLXKXKXKXKXJXKXJXJXKXHXKXKXLXKXSXSXSXKXKXKXKXKXKXKXKXKXKXKXKXKXKXKXKX",
"KXKXKXKXKXKXKXKXKXKXKXKXKXKXKXKXGXGXGXKXGXKXKXKXKXKXJXKXKXKXKXKXKXDXGXLXAXNXDXKXHXmXkXZXKXSXJXSXKXKXKXKXKXKXKXKXKXKXKXKXKXKXKXKX",
"KXKXKXKXKXKXKXKXKXKXKXKXKXKXKXKXKXKXHXKXKXKXKXKXJXKXLXKXKXKXKXKXKXGXjXnX4Xu.MXCXCX4Xh.9XVXGXKXKXKXKXKXKXKXKXKXKXKXKXKXKXKXKXKXKX",
"KXKXKXKXKXKXKXKXKXKXKXKXKXKXKXKXKXKXKXKXKXKXKXKXHXKXKXKXKXHXGXGXBXbXnXi.7 i.bXBXbX5X7 { tXZXFXKXKXKXKXKXKXKXKXKXKXKXKXKXKXKXKXKX",
"KXKXKXKXKXKXKXKXKXKXKXKXKXKXKXKXKXKXKXKXKXKXKXKXKXKXKXKXGXKXKXCXbX(.e 4 e 7 cXxXcX(.2 0 g.tXBXGXKXKXKXKXKXKXKXKXKXKXKXKXKXKXKXKX",
"KXKXKXKXKXKXKXKXKXKXKXKXKXKXKXKXKXKXKXKXKXKXKXKXKXHXHXFXGXCXFXjX(.2 4 ` | 4 } ~.Q.} s ] 4 j.nXCXKXKXKXKXKXKXKXKXKXKXKXKXKXKXKXKX",
"KXKXKXKXKXKXKXKXKXKXKXKXKXKXKXKXKXKXKXJXKXKXKXKXKXKXGXCXCXBXhX(.> o.M n a 4 { 2 { j n n 4 9 eXZXGXKXKXKXKXKXKXKXKXKXKXKXKXKXKXKX",
"KXKXKXKXKXKXKXKXKXKXKXKXKXKXKXKXKXKXKXKXKXKXKXKXDXGXZXyXU.k.( q ) h n 4 4 ` 0 g.0 } s 4 ..0 j.ZXKXKXKXKXKXKXKXKXKXKXKXKXKXKXKXKX",
"KXKXKXKXKXKXKXKXKXKXKXKXKXKXKXKXKXKXKXKXKXKXKXGXZXZXyXs.2 9 / ` / s 4 ] V.H.!.(.~.S.` e 3 e T.VXFXKXKXKXKXKXKXKXKXKXKXKXKXKXKXKX",
"KXKXKXKXKXKXKXKXKXKXKXKXKXKXKXKXKXKXJXKXJXGXGXZXZX/.n.( 0 ^ d s / g.N.L..X,X;XiXiX;X!.V.t t Y.ZXGXKXKXKXKXKXKXKXKXKXKXKXKXKXKXKX",
"KXKXKXKXKXKXKXKXKXKXKXKXKXKXKXKXKXKXKXGXGXGXZXZXnXj.q 4 j f u h } H.].{.,X>X-XqXqXdX1X,Xm.M.8XGXKXKXKXKXKXKXKXKXKXKXKXKXKXKXKXKX",
"KXKXKXKXKXKXKXKXKXKXKXKXKXKXKXKXKXGXKXKXKXZXZXVXtXr 4 a i J V u G.,X,X].*X>XqX7X@X-XOX,XOX$XVXKXKXKXKXKXKXKXKXKXKXKXKXKXKXKXKXKX",
"KXKXKXKXKXKXKXKXKXKXKXKXKXKXKXKXKXKXKXKXGXGXZXVXR.q ~ s u L E L G.;X,X].].>XqXqXsXwX_.>X&X$XvXVXKXKXKXKXKXKXKXKXKXKXKXKXKXKXKXKX",
"KXKXKXKXKXKXKXKXKXKXKXKXKXKXKXKXKXKXKXKXKXGXGXVXf.0 p h z %.E &.,.G..X X.X[.#XuXqXiX[.,X&X#XvXGXGXKXKXKXKXKXKXKXKXKXKXKXKXKXKXKX",
"KXKXKXKXKXKXKXKXKXKXKXKXKXKXKXKXKXKXKXKXKXGXGXBXs.0 p i c E T &.@.N.G.P..X[.;XsXoX;X[..X>X&XnXZXLXHXJXKXKXKXKXKXKXKXKXKXKXKXKXKX",
"KXKXKXKXKXKXKXKXKXKXKXKXKXKXKXKXKXKXKXKXKXKXGXCXk.( j h I K Z &.1.>.@.9.Z.J.}.%X1X,X}.].[.oXrXfXmXmXmXKXKXKXKXKXKXKXKXKXKXKXKXKX",
"KXKXKXKXKXKXKXKXKXKXKXKXKXKXKXKXKXKXKXJXJXJXKXGX^.q ~ h u %.T *.3.l.B.M 6.t.V.H.V.P.P.J.,XsXMXMX3XmXGXKXKXGXKXKXKXKXKXKXKXKXKXKX",
"KXKXKXKXKXKXGXKXKXKXKXKXKXKXKXKXGXKXJXJXJXKXKXGXBXs.~ h x %.C E <.1.B M 6.5 5 { b.J.y.XX2XW.8X4XkXAXLXGXGXKXGXKXKXKXKXKXKXKXKXKX",
"KXKXKXKXKXKXKXKXKXKXKXKXKXKXKXKXKXKXKXJXJXKXKXGXVX{ p d u L T E W e.n = 3 b.VXp.p.p.b.b.b.m.7XvXVXGXGXGXGXGXKXKXKXKXKXKXKXKXKXKX",
"KXKXKXKXKXKXKXKXKXKXKXKXKXKXKXKXGXKXKXKXJXKXKXZXhXq p h i C T 7.U M = @ $ o T.KXT.w W.3 @ F.qXVXGXGXGXKXKXKXGXGXKXKXKXKXKXKXKXKX",
"KXKXKXKXKXKXKXKXKXKXKXKXKXKXKXKXGXKXKXKXKXKXKXZXhX( ^ m u E 4.Q w.>.* y aXo % mXvXi.S.5 o S.xXGXKXGXGXKXGXKXGXKXKXKXKXKXKXKXKXKX",
"KXKXKXKXKXKXKXKXKXKXKXKXKXKXKXKXKXKXKXKXKXKXKXGXbXq ~ g N t.q.U #.m ` ;XZX. . 3XVXU.` ] $ R.VXCXGXGXKXGXGXKXKXJXKXKXKXKXKXKXKXKX",
"KXKXKXJXKXKXKXKXKXKXKXKXKXKXKXKXKXKXKXKXKXKXKXZXbXq 0 a N C.I.U q.0.9.t # X O a.ZX).~ B.| S.eXjXGXGXKXKXKXKXKXKXKXKXKXKXKXKXKXKX",
"JXKXKXKXJXKXKXKXKXKXKXKXKXKXKXKXKXKXKXKXKXKXKXGXVXs.{ n a C.L.$.4.Y 6.]     O kXBX=X>.$.w.' { ^.GXJXKXGXGXKXGXKXKXKXKXKXKXKXKXHX",
"KXKXJXKXKXKXKXKXKXKXGXKXKXGXKXGXGXKXKXJXKXKXKXFXBX^.w 0 ] K.L.y.! Q 8.C.e # y vXdXH.-.7.0.| k.).GXKXKXKXKXKXKXKXKXKXKXKXKXKXKXKX",
"JXKXJXKXKXKXLXGXGXGXGXGXGXGXGXZXGXGXKXJXJXLXLXGXGXyXr 3 { ,X].N.=.&.8.r.9...b.}.B.7.&.! m ) E.FXGXKXKXKXKXKXKXKXKXKXKXKXKXKXKXKX",
"KXJXKXKXKXLXGXGXGXZXVXAXvXvXvXvXvXNXLXLXKXJXKXGXZXbXU.r { >X1XF.#.2.7.$.6.t.t.@.6.8.8.U o.x.5XHXKXKXKXKXKXKXKXKXKXKXKXKXKXKXKXKX",
"JXKXKXKXKXGXGXGXZXVXvXgX8X9X6X9X8X9XlXvXGXGXGXGXBXVXgXU.M.oXpX{.B.-.7.W Y Y H +.H [ [ ,.H.hXHXHXKXKXKXKXKXKXKXKXKXKXKXKXKXKXKXKX",
"KXKXKXKXGXGXGXZXvXvXgXqX7X7X-X@X$X$X6X9XlXAXVXVXBXnXnXwXoXoX<X1XP.U Y 4.8.$.X.E.D.E.(.wXxXVXFXHXKXKXKXKXKXKXKXKXKXKXKXKXKXKXKXKX",
"KXKXKXGXGXGXZXVXrXrX7X#XqXuXuX>X&X2X<X#X+X8XbXVXnXxXsXwXiX#XqX<X Xy.6.W 7.2.l.hXCXCXCXZXZXZXKXKXKXKXKXHXKXKXKXKXKXKXKXKXKXKXKXKX",
"KXKXKXGXGXZXVXgX7X7X#X-X-X>X>X*XXXXX[.>X-XqXyX0X=X).).!.iX;XqX&X{.L.t.Y *.<.;.MXFXFXDXSXJXJXKXHXKXKXKXKXKXKXKXKXKXKXKXKXKXKXKXKX",
"KXKXKXGXGXZXvX+XrXqXqX<X<X>X&X&X[.|.`.>XpX*XS.( d.} S.D.*X%X<X#X1X}.N.@.B.<.) jXFXKXKXJXJXJXJXHXKXKXKXKXKXKXKXKXKXKXKXKXKXKXKXKX",
"KXKXKXKXZXVXaX-XOX<X>XOX<X-X-XuX2X$X$X#X}.9.o.<.:.c.x.K.XXP._.$X&Xm.F.E.,.B.^ iXCXKXKXKXKXKXKXKXKXKXKXKXKXKXKXKXKXKXKXKXKXKXKXKX",
"KXKXKXGXZXnXuX#XOX>X&XOX<XqX#XqX$X+XlXdX{.X.*.b ; b *.Z.P. XW.f._.%X0X=X~.H.| ~.CXKXKXKXGXLXKXKXKXKXKXKXKXKXKXKXKXKXKXKXKXKXKXKX",
"KXHXKXKXZXvX7X#X_.>X&X&XuX#X7XaXVXVXVXnX~.N B.k ; b <.B.Z.I.F.m._.pXdXwX1X~.F.W.ZXKXKXKXGXGXKXHXKXKXKXKXKXKXKXKXKXKXKXKXKXKXKXKX",
"KXKXKXGXZXzX7XOX>X<X&XOXuXqXqXnXZXVXGXbXH.' 2.v _ b c 8.y.[ N.1X|.2X<XOX1X[.}.:XGXKXKXKXGXKXKXKXKXKXKXKXKXKXKXKXKXKXKXKXKXKXKXKX",
"KXKXKXGXVXzX6X#X<X<X&XOX<XqXsXVXAXGXFXVXA.g : < _ ; - b r.6.r.'.XX|.#XOX,X*Xn.aXGXKXKXKXKXKXHXKXKXKXKXKXKXKXKXKXKXKXKXKXKXKXKXKX",
"KXKXKXGXVXgX@X#X<X<X&XOXaXqXaXVXKXKXKXZXz.h & < b : ; c r.e.B.G.XX`.>XpX2X_.M.aXGXKXKXKXKXKXKXKXKXKXKXKXKXKXKXKXKXKXKXKXKXKXKXKX",
"KXKXKXLXVXrX7X7XuX<XOX-XqX-XrXZXHXKXFXCXA.X.I K P P O.:.1.e.C.K.J.J.[.*X<Xn.T.zXGXKXKXKXKXKXKXKXKXKXKXKXKXKXKXKXKXKXKXKXKXKXKXKX",
"KXKXGXZXVXaXqX-X1X-XOXqXaX7X7XBXKXHXKXZXE.o.0.K E P O.#.>.2.q.Z.L.].F.S.&Xf.aXZXKXKXKXKXKXKXKXKXKXKXKXKXKXKXKXKXKXKXKXKXKXKXKXKX",
"KXKXKXZXVX8X7XuX-XiXiX@X@XaXaX9XKXHXFXBXdXg &.E T K -.3.B.>.U W q.1.>.} g.yXBXGXKXKXKXKXKXJXKXKXKXKXKXKXKXKXKXKXKXKXKXKXKXKXKXKX",
"KXKXGXGXVX8X7X7X-XuXuX-X#XuXqX8XMXKXGXVXwXX.&.R D C h '  .,.G ! 7.O.M ' E.BXGXFXGXKXKXKXKXKXJXJXKXKXKXKXKXKXKXKXKXKXKXKXKXKXKXKX",
"KXKXGXZXZXgX6X#XiXuX<X-X-X-XqXrX3XCXZXxXA.3.E T Z V f A.Q.B.G T %.I x o.E.BXHXFXGXKXKXKXKXJXJXJXKXKXKXKXKXKXKXKXKXKXKXKXKXKXKXKX",
"KXJXKXGXZXzX7X@XiXqX&XqXqX#X7XaX4XvXnXW.} #.&.T 1 G } sXcX:XH R E I I o.D.BXHXKXHXGXKXKXKXKXJXJXKXKXKXKXKXKXKXKXKXKXKXKXKXKXKXKX",
"KXKXKXGXZXvXrX7XiX-X-XiXuX#X#XiXrXsXdX .,.1.2.A V G c.bXVXQ.H 4.T K C #.x.BXHXHXKXGXGXKXKXKXGXGXKXKXKXKXKXKXKXKXKXKXKXKXKXKXKXKX",
"KXKXKXGXZXVXaXqXqX&X-XpX<X&X#X<X;XiX>X} l.3.&.l C J Q.CXBXz.H R R A , M j.ZXHXKXGXGXGXKXHXKXGXGXKXKXKXKXKXKXKXKXKXKXKXKXKXKXKXKX",
"KXKXKXGXZXZXbXqX@X#X<XpX<XOX#X<X!.pXH.' l.*.%.l T H 0XFXFXz.-.S R A , B g.ZXHXKXKXGXGXKXKXKXGXGXKXKXKXKXKXKXKXKXKXKXKXKXKXKXKXKX",
"KXKXKXGXGXZXnXaXoX-X1X1X<X&X#X:X!.dXN.o.w.*.P Z O.h 0XFXMXk.q.S R R 1 [ g.bXFXKXGXGXKXKXKXHXKXGXKXKXKXKXKXKXKXKXKXKXKXKXKXKXKXKX",
"KXKXKXKXGXGXVXnXdX_.m.*X1X!.W.rXGXjX,.-.Q &.*.c L X.sXCXFXk.1.! 4.T V #. .0XBXKXKXKXKXKXKXKXKXKXKXKXKXKXKXKXKXKXKXKXKXKXKXKXKXKX",
"JXKXKXKXKXGXZXnXdX1Xm.e 8 b.;XVXKXMX| Q S T *.c -.o.=XjXBXs.r.T R C V o.) Q.BXCXKXKXJXKXKXKXHXKXKXKXKXKXKXKXKXKXKXKXKXKXKXKXKXKX",
"JXKXKXKXKXZXvXaX_.<X&XF.n.W.;XtXKXhX+.R S R %.l O.H :XbXBXs.q.5.5.S Z L o.x.bXBXGXKXKXJXKXHXKXHXKXKXKXKXKXKXKXKXKXKXKXKXKXKXKXKX",
"KXKXKXKXGXZXzXY.OXOX*X,X1X1X;X@XZXeX+.R S R E V C x G.cXtX{ 7.S D S Z l :.c.eXBXGXKXKXKXKXKXKXKXKXKXKXKXKXKXKXKXKXKXKXKXKXKXKXKX",
"JXGXJXKXGXVX8X+XuXuX_.`.[.pXsX/.VX0XH R S R E I P J B.tXxX} =.D D R Z l <.;.Q.BXGXKXKXKXJXKXKXKXKXKXKXKXKXKXKXKXKXKXKXKXKXKXKXKX",
"LXKXGXKXKXGXAXlX$X$X&X<XuX-X@X/.VX0XM Q R Q &.L L o.' Q.cXg.0.4.S 4.A l :.;.k.jXGXKXKXJXKXJXKXKXKXKXKXKXKXKXKXKXKXKXKXKXKXKXKXKX",
"JXKXJXKXKXGXZXVXlX+XY.#X#X/.6XxXZX0X' *.&.&.w.#.i #.) R.xXg.@.&.E E P x ) d.d.5XGXJXKXJXKXKXHXKXKXKXKXKXKXKXKXKXKXKXKXKXKXKXKXKX",
"KXKXKXJXJXKXKXZXVXVXlX+X8XVXZXCXGXtX} >.1.w.l.>.) ~.(.xXnXf.} w.0.#.B.l.) (.0XCXGXKXKXKXKXKXKXKXKXKXKXKXKXKXKXKXKXKXKXKXKXKXKXKX",
"KXKXKXKXKXKXKXKXGXZXZXZXZXZXGXGXGXjXR.} } } g.{ g.tXbXBXZXyXd.d. .d.d.g.).jXCXCXGXKXJXKXKXKXKXKXKXKXKXKXKXKXKXKXKXKXKXKXKXKXKXKX",
"KXJXKXKXKXKXKXKXGXGXGXGXGXGXKXKXKXKXjXeXeXhXhXhXeXBXZXCXGXGXxXnXxXxXhXhXBXZXGXKXKXKXKXKXKXKXKXHXKXKXKXKXKXKXKXKXKXKXKXKXKXKXKXKX",
"KXKXKXKXKXKXKXKXKXKXGXGXKXKXKXKXSXKXFXFXFXZXZXCXCXFXHXCXJXKXGXFXGXGXGXGXFXFXKXFXKXKXJXKXKXKXKXKXKXKXKXKXKXKXKXKXKXKXKXKXKXKXKXKX",
"KXKXKXKXKXKXHXKXKXKXKXGXKXKXKXKXJXKXKXKXFXFXGXKXKXHXKXKXKXKXHXFXLXKXKXKXKXKXKXKXKXKXKXKXKXKXKXKXKXKXKXKXKXKXKXKXKXKXKXKXKXKXKXKX",
"KXKXKXKXKXKXKXKXKXGXGXKXKXKXKXKXKXKXKXHXKXKXGXKXKXHXKXKXSXJXKXKXKXJXKXKXKXKXKXKXKXKXJXKXKXKXKXKXKXKXKXKXKXKXKXKXKXKXKXKXKXKXKXKX",
"GXGXKXKXKXKXKXKXKXKXKXKXKXKXKXKXJXLXHXHXKXKXJXKXKXHXHXKXLXJXKXKXJXJXJXHXHXKXHXHXKXKXKXLXKXKXKXKXKXKXKXKXKXKXKXKXKXKXKXKXKXKXKXKX",
"ZXGXGXGXKXKXKXKXKXGXGXGXKXKXKXKXGXKXKXHXKXJXJXJXKXKXKXKXJXJXKXHXKXKXKXKXKXKXGXKXGXKXJXKXKXKXKXKXKXKXKXKXKXKXKXKXKXKXKXKXKXKXKXKX",
"ZXZXGXGXKXKXKXKXGXGXGXGXGXKXKXJXJXJXKXKXKXJXLXKXHXJXGXLXLXSXKXKXKXJXKXKXHXFXKXGXKXKXKXJXKXKXKXKXKXKXKXKXKXKXKXKXKXKXKXKXKXKXKXKX"
};
