/* XPM */
static char *_579137468047[] = {
/* columns rows colors chars-per-pixel */
"64 64 256 2 ",
"   c #0E0601",
".  c #1A0B01",
"X  c #160802",
"o  c #1C1409",
"O  c #1D1B13",
"+  c #181514",
"@  c #250C00",
"#  c #231403",
"$  c #241A0D",
"%  c #2B1C0D",
"&  c #26150A",
"*  c #351C08",
"=  c #261C13",
"-  c #2B1E14",
";  c #2B1F1A",
":  c #241B19",
">  c #341E12",
",  c #37220D",
"<  c #2D2114",
"1  c #24221C",
"2  c #2D241B",
"3  c #282216",
"4  c #332314",
"5  c #33251C",
"6  c #34291D",
"7  c #3B2B1B",
"8  c #3A2715",
"9  c #2A220F",
"0  c #2B2422",
"q  c #292723",
"w  c #342B22",
"e  c #3B2D24",
"r  c #352B29",
"t  c #3D3125",
"y  c #3C342B",
"u  c #36322B",
"i  c #393330",
"p  c #24201E",
"a  c #462B17",
"s  c #47321D",
"d  c #55371B",
"f  c #49270D",
"g  c #443323",
"h  c #4B3623",
"j  c #4C3A26",
"k  c #43392E",
"l  c #4C3C2C",
"z  c #46362B",
"x  c #553B27",
"c  c #443D34",
"v  c #483A33",
"b  c #473427",
"n  c #522F14",
"m  c #5B432C",
"M  c #56412C",
"N  c #4B4238",
"B  c #544433",
"V  c #5B4533",
"C  c #5B4B3C",
"Z  c #55483B",
"A  c #674829",
"S  c #634A34",
"D  c #644C39",
"F  c #684B36",
"G  c #6C533E",
"H  c #695139",
"J  c #74553A",
"K  c #7C593C",
"L  c #785437",
"P  c #744D2C",
"I  c #684118",
"U  c #574E42",
"Y  c #5B5247",
"T  c #4E4A41",
"R  c #645343",
"E  c #6A5848",
"W  c #725643",
"Q  c #735A44",
"!  c #7C5C42",
"~  c #745C4B",
"^  c #685C51",
"/  c #6F594D",
"(  c #7C624C",
")  c #786348",
"_  c #6C6358",
"`  c #746354",
"'  c #7C6553",
"]  c #7B6A59",
"[  c #7B7165",
"{  c #835C3C",
"}  c #875A37",
"|  c #8A613F",
" . c #825E43",
".. c #8B5C43",
"X. c #836345",
"o. c #8B6344",
"O. c #83644B",
"+. c #8B664A",
"@. c #8C6B4D",
"#. c #83694B",
"$. c #946C4C",
"%. c #996E4D",
"&. c #946748",
"*. c #9B714F",
"=. c #977047",
"-. c #836B55",
";. c #8C6C53",
":. c #8B6E5B",
">. c #826955",
",. c #976D53",
"<. c #8D735C",
"1. c #8F7257",
"2. c #957255",
"3. c #9C7454",
"4. c #93745B",
"5. c #9B755A",
"6. c #9C7A5B",
"7. c #9A7859",
"8. c #A27555",
"9. c #A37459",
"0. c #A47B5C",
"q. c #AA7D5C",
"w. c #A67758",
"e. c #A76F58",
"r. c #8B7464",
"t. c #897665",
"y. c #957A63",
"u. c #9B7C63",
"i. c #947C6A",
"p. c #987B65",
"a. c #977E71",
"s. c #A27D62",
"d. c #AB7D62",
"f. c #B27F62",
"g. c #AD825E",
"h. c #A5815D",
"j. c #B1835F",
"k. c #9C826C",
"l. c #988268",
"z. c #998776",
"x. c #A58263",
"c. c #AC8364",
"v. c #AD8965",
"b. c #A4846B",
"n. c #AB856A",
"m. c #AC8A6D",
"M. c #A7886E",
"N. c #B28564",
"B. c #B38A66",
"V. c #B1866A",
"C. c #B38B6C",
"Z. c #BA8E6C",
"A. c #BA8C68",
"S. c #BD926D",
"D. c #B4906E",
"F. c #A48972",
"G. c #AB8B73",
"H. c #AB8E7A",
"J. c #A58A77",
"K. c #B38D73",
"L. c #BA8E73",
"P. c #B58E79",
"I. c #AC937C",
"U. c #AA9378",
"Y. c #B49175",
"T. c #BC9373",
"R. c #B4947B",
"E. c #BB957A",
"W. c #BC997D",
"Q. c #B59B7D",
"!. c #BEA07C",
"~. c #C29674",
"^. c #C49A75",
"/. c #C39B7B",
"(. c #C99E7B",
"). c #C4977A",
"_. c #C0926E",
"`. c #C9A17C",
"'. c #D0A27E",
"]. c #9A9182",
"[. c #A89585",
"{. c #B49B83",
"}. c #BB9C83",
"|. c #B99E89",
" X c #B59985",
".X c #AA8D81",
"XX c #BBA284",
"oX c #BDA38B",
"OX c #B8A489",
"+X c #BBA894",
"@X c #ADA496",
"#X c #BDB3A2",
"$X c #C39D82",
"%X c #C89E85",
"&X c #C4A284",
"*X c #CAA484",
"=X c #C3A48A",
"-X c #CAA58A",
";X c #C5AA8C",
":X c #CDA98C",
">X c #CBA986",
",X c #D2AC8D",
"<X c #D4A789",
"1X c #C3A691",
"2X c #C4AC93",
"3X c #CBAC93",
"4X c #CAAD9A",
"5X c #C4AD9A",
"6X c #D2AE93",
"7X c #D8AF91",
"8X c #CCB39C",
"9X c #CAB399",
"0X c #D4B294",
"qX c #D4B49B",
"wX c #DAB69A",
"eX c #D4BB9D",
"rX c #DABA9D",
"tX c #DAB394",
"yX c #D2B18F",
"uX c #C5B3A2",
"iX c #CCB5A3",
"pX c #CDBBA4",
"aX c #CABBAA",
"sX c #D3B6A3",
"dX c #D4BBA4",
"fX c #DABBA4",
"gX c #D3BDAB",
"hX c #DABEAA",
"jX c #CAAEA0",
"kX c #D5C2AB",
"lX c #DAC3AD",
"zX c #D9C2A5",
"xX c #DAC9B7",
"cX c #CFC0AD",
"vX c #E3C6A8",
"bX c #E3CDB8",
"nX c #E4D2BC",
"mX c #E9D2BA",
"MX c #F1D6B9",
"NX c #D3C09F",
"BX c #DCD1C2",
"VX c #E4D5C3",
"CX c #E9D6C3",
"ZX c #E6D9C6",
"AX c #EBDAC5",
"SX c #E6DACA",
"DX c #EADCCA",
"FX c #E0D7C8",
"GX c #F1DEC9",
"HX c #EBDED1",
"JX c #E2CFC0",
"KX c #EDE4D4",
"LX c #EFE8D8",
"PX c #F0E9D9",
"IX c #F0E7D8",
"UX c #ECE1CF",
/* pixels */
"zXNXzXBX[ i r p i i c v e k c T c i y N T N y c c c N Y ^ _ _ _ U / R ` xXDXxXDXZXAXDXDXDXSXSXDXDXZXDXZXDXKXKXKXIXKXIXIXIXIXIXIX",
"eXNXNX#XT + p p u i y e w y v v Z y u y T T i u y c N Y ^ _ _ _ ^ R C Y z.BXVXJXCXAXGXDXDXSXDXSXZXZXSXSXDXDXUXKXIXKXIXIXKXIXPXIX",
"rXzXkXz.0 + p r u u r 5 5 r i c N N r u N Z c i t N Z Y ^ ` ` ` ` Y E R U uXAXxXSXSXGXDXDXSXSXSXDXDXSXSXDXUXUXKXGXKXIXKXKXKXPXPX",
"0XlXpX_ + : 0 i q r 0 2 r i k i r c N u y N Z Y M N N Z Y ~ ` ] ` E ` ' C z.VXVXCXAXDXDXDXSXSXSXZXDXSXDXDXDXUXKXKXKXKXIXLXKXPXKX",
"6XhX1Xv @ 0 0 r ; r ; 5 z r r i q i N u e k U / _ ] t.t.k.[.|.{.t.] R ` / / aXCXZXSXSXUXUXZXDXAXDXAXDXDXDXUXUXKXKXKXLXLXLXLXLXLX",
"4XfX.Xr : 0 0 0 ; r ; ; r r : 0 u u u 2 e v B R ) l.F.I.oX3X4X2X5XU.~ R ' C @XSXCXSXDXDXZXZXZXDXZXSXZXDXSXUXUXUXKXKXLXLXLXLXPXLX",
"4XsXt.; 0 0 0 p ; r ; ; i 0 + 0 u r ; ; y l x R <.F.XX3XrXfXrXqXkX5XJ.] / E z.VXZXSXDXDXUXAXDXGXDXZXUXDXSXUXUXKXKXKXPXPXLXLXLXLX",
"%XjX` & 0 : r 0 : r : 0 r 0 + 0 r 2 : 2 g z V W <.l.Q.>X0XwXwXtX4XeXlXk.C ` :.xXBXZXDXUXUXZXAXUXUXZXZXDXDXDXUXUXKXKXKXPXKXLXLXLX",
"2X[.Z $ : 1 q 1 & 0 2 y 2 o 1 q : ; 0 g g s S ! u.K.$X*X7X7XwXwXqXeXsX+X] B t.cXDXBXKXKXAXDXAXAXSXAXDXSXSXSXSXSXUXKXKXKXKXKXKXKX",
"OXU.N o O 1 O   ; ; # $ 3 O q p 0 0 w e g b W :.n.E.-X7X7XtXtX7XqXqXdXdX{.R E @XSXBXZXSXZXUXDXAXDXSXDXSXSXSXSXSXUXUXKXKXKXKXKXKX",
"+Xl.7 o 3 O o = > - @ < 6 O O O 0 0 r e b S O.p.Y./.%X%X<X7XwXwXqXrX3XdX9X` B z.SXBXBXSXDXDXGXAXDXSXSXSXSXSXSXKXUXUXKXKXKXKXKXKX",
"U.] , 9 t O   X X @ s R M   o q : ; 5 a b W :.d.$X$X%X%X<X<X7X6XtXwX3XsX9X] B [ BXDXSXSXDXAXUXAXDXAXUXSXSXSXSXSXUXUXKXKXKXKXKXKX",
"Q.' * o % & & # x / .X.X' s % < : ; 5 5 b W 4.s.n.L.$X<XtXwXqXqX6X6XqXsX{.] C C #XBXSXDXDXVXGXAXDXAXDXSXSXSXSXSXFXKXKXFXKXKXKXKX",
"OXH # M D l Q i.$X%X%X%XXXI.S . 5 0 e b S ' s.P.%X*X-X:X3X-X3X7X0X,X0XXX<.H B B ].BXBXSXDXnXGXAXDXDXSXSXSXSXSXKXKXFXKXKXKXKXKXKX",
"l.d m Q.|.p..X%X.Xf.f.f.%X4X! @ 5 b v / :.i.G.E.E.L.d.5.+.! ! O.:X7X&XM.>.V M E ].BXBXBXKXnXGXAXAXSXSXSXSXSXKXFXFXKXKXKXKXKXKXKX",
"h.K @.Y.a.P.1Xd.P._.<X<XP.,.x a - 5 U r.J.G.n.m.s.s.P.R.H.s.p.b.W.0X&XY.F.G l [ ].SXxXBXUXCXGXCXDXDXAXSXFXUXFXFXKXFXKXFXKXKXKXKX",
"4.) l.h.h.v.D.v._.tX7X%X..a F > & 5 / r.d.G.d.G.s. XH.k.' x W p.R.0X&X2.1.1.#.F.9XNXbXbXmXAXGXGXGXDXDXDXSXDXUXUXSXSXHXHXKXHXHXHX",
"2.X.1.h.h.v.B.A.).<X<X XW x >.x & 5 / i.d.P.n.G.G.:.m j x h ~ R.R.0X0XE.Y.Q.D.;X;XNXmXAXAXAXZXZXDXDXDXDXDXZXZXSXSXSXDXDXHXHXHXHX",
"@.) h.h.h.v.A.S.%X7X7Xa.W F a.C & 5 W i.b.L.K.P.y.x 8 ' a.V H H.E.:XrX:X>X;X!.XX!.2XNXmXMXZXAXUXDXDXAXZXZXZXAXZXFXSXSXSXHXHXHXHX",
"#.| h.h.6.v.B.^.<X7X6X5.x W r.e > 5 W e.s.C.K.).E.M.O.( >.<. X4X}.-XrX3X&X!.Q.!.;X;XNXxXmXmXnXZXnXZXZXZXDXZXZXZXSXSXSXSXDXHXHXHX",
"L ) 7.h.h.D.B.^.<X3X3XO.b ' >.& 8 7 W ;.5.v.T./.W.qX=XU.F.}.qX=X$X&XqX6X>X>XXXNXXXQ.OXzXZXZXZXAXZXZXZXZXAXAXZXZXCXCXDXCXDXHXHXHX",
"L | 7.6.v.S.D.`.<XqX1XF b a.>.& 8 7 H O.,.g.B.E.:X&X|.4X1X=X0X,X$X%X6X6XNX!.D.OXXXXXXXoXNXkXnXnXmXAXZXAXAXAXZXAXSXCXCXGXAXDXCXGX",
"K =.6.3.D.W.E.>X6XwX|.a a .X>.; < 8 D ! +.8.q.Z.C.$X&X=X=XtXwXZ.$X&X:X,XyXD.K ) Q.!.OXXX!.Q.OX;XkXxXbXnXmXAXAXAXJXCXCXJXJXCXCXCX",
"K @.6.7.D.&X`.0X6XfXa.@ > a.` & - - V ! o.*.8.c.T.C.Y.-X$XE.<X^.E.-X:X0XvXU.I I d #.U.OXOX#X9XOXOX+X9XNXxXmXmXmXCXVXJXmXJXJXCXJX",
"L =.h.h.E.&X:XqX=XdXm X 8 > v = = - x ! +.o.%.8.N.C.Y.T.~.).L.A.T.n.d.P.:X*Xv.@.H A A ) U.9XNX9X9X5XOX9X8X2XzXlXlXbXnXlXiXpXgXgX",
"| =.0.v./.:X:X3X4XI.8   7 - z ; = > h W @.$.%.*.0.c.D.T.).*X<X7XV.n.d.d.K./.>X:X!.v.) I A ) U.yXNXeX+X9X8X2X9X2X8XsXdXiX5X2X1XOX",
"&.*.0.D.&X6X3X=X4X~ @   7 - 5 2 ; - g F @.3.3.3.0.c.m.V.f._.(.'.7X7X%X%X(.`.`.>X>X>X!.M.h.) ) ) OXeXeXeX2XOX9X8X3X8XeX8XsXsX8X9X",
"%.3.N./.%X:X;X|. Xj @ X w 3 = 2 2 ; 7 x O.6.0.8.3.h.v.V._.^.'.'.<X).f.d.V./.`.>X`.>XeXyX!.v.l.J H l.Q.yXeX9X9XQ.2X3X4X2X9XsXdXhX",
"=.8.T.%X&X:X3X X' , & & 5 = 2 2 0 ; 4 h J 2.c.q.c.c.n.C.Z.S._.f.e.&...&.N.).*X'.>X`.`.`.yXyX;X>Xh.l.#.1.XXzXMXvX=XoX;X;X=X1X2X8X",
"&.q.(.<X*X0X3Xa.x % - o 2 3 0 : 0 1 - 8 x  .5.q.C.V.m.v.c.0.=.} &.e.e.A.).'.)._.^.`.`.`.>XyXyXyXyX;XQ.;XNXvXmXrXU.Q.|.=XoXXXoX=X",
"*.g.(.*X-XwX XD a 4 - & 2 3 q O 1 q 6 4 a P +.,.6.s.n.v.C.Z.j.q.e.e.e.f.f._.(.'.`.'.`.T.T.`.>X>XrXvXeXeXyX;XrXvXu.6.k.M.G.M.M.G.",
"q.B.^.*X=XqXk.* b t - o 5 = w O 1 r w % * d J X.2.6.s.c.c.B.N.j.e.e.e.f._.~._._._.^.^.!.`.`.>X>X`.yXrXvXvX0XzXmXF.l.6.l.k.l.l.u.",
"g._.^.>X;X9XG . t Z 9 $ 2 3 6 # 9 6 t 7 , a m K #.@.2.c.B.C.Z.A.).%X~.N.N.A._.~._.`.^.S._.^.`.>X>XyXtXrXfXzXNX8XnXU.E l.Q.U.OXz.",
"j.T.W.&X:X{.C . t N 9 3 w 9 2 $ 9 7 s 7 8 a m H ! K +.3.0.N.A.^.).).S.A.A.B.A._._.^.S.B.S.S.T.`.>X:XtXeXeXzXdX8XnX[.M H l.#XxXNX",
"B.`.`.;X9Xl.l o 6 N 2 6 w $ < % 9 7 t M s j m A H L K | o.&.8.N.f.w.w.N.S.A.S._._.^.S.j.B.S.S.`.>X>XyX0XeXfXgXpXnXNXl.E ) z.OXNX",
"S.^.*X;X2X( s % 4 k 2 2 w 9 = % 9 8 M M V m D H J L K | { } &.8.f.e.%.q.B.S.^.^.^.`.S.j.B.B.S.`.`.:XyX0XqXhXkXhX#XxXaX_ ^ ) z.#X",
"S.`.>X;X XD 7 - 2 z 2 2 t w = % 9 7 j m C H H J J K K { } ..%.q.C.Z.g.0.j.^.`.S.`.`._.g.c.B.L.(.>X:X6X7XsXhXlXxX#XcXNXB R E z.+X",
"W.>X&X=Xl.x g 5 < y w 3 e y 6 - 4 7 M S D G J J ! K L L L { &.w.A.T.S.h.g.^.`.S.^.`.A.g.q.N.Z.$X*X:X6XqXqXfXlXlXnXcXxXB Z B ] z.",
").:X&X=X( z v 5 & y y = w z e 4 7 s M C R J W ! O.! L L L } { &.3.c.B.g.j.S.^.`.^.`.A.w.w.d.C.)./.:X7XwXwXhXhXlXNX#XBX_ N l T [ ",
"$X6X}.=XW h V 5   t y $ ; b 5 - 7 j S E Q Q ( O.O...+.&.&.o.&.&.$.w.B.S.S.A.^.`.(.(.B.8.0.c.Z.$X$X-X7XqXqXfXhXhXcXNXFXl.j B k ) ",
"$X=X1X.Xj b v 5 . 2 e 5 = e z 4 M M S ) ' ( ( 1.:.5.5.,.,.d.d.d.V.V.N.V.S.).(.`.~.(.~.q.,.9.V.).$X%X:X6XwXfXfXhXxXOXJX@X5 U e E ",
"=X$X%XF.s s l 7 o = r e w 6 7 g s H Q J ) 4.y.;.4.4.5.5.s.d.V.L.L.L.L.T.S.T.~.~.^.`.^.N.3.3.d.L.$X%X%X<X:XqXqX8X5XkXuX[.v 7 k Y ",
"-XE.XXy.a v b 4 $ o 9 y z 7 7 h 8 m ) 1.;.-.6.F.s.s.d.K.V.V.L.).L.L.T.~.~.~.~.~.~.^.^.Z.e.&.e.K.L.).$X%X%X6X0XqXgXOXgXxX].^ k c ",
"%XR.;X .8 x g - 3 $ $ 9 e 7 4 , s , , m ( ;.4.4.s.p.d.L.L.K.K.C.C.L.L.L.T.).^.^.S.).^.T.s.$.,.f.f.K.E.$X%X-X:X3X8X{.xX+XE ].[ r ",
"&XQ.;XS * B l $ N C Z 6 8 7 7 , h h f * d ! 4.2.5.5.s.a.f.K.V.K.L.L.L.L.Z.L.T.~.).^.(.).c.,.&.,.s.V.L.E.T./.&X=X;XXX[.aXv v _ Y ",
"&X!.!.m * x M % t [ [ M 8 s M C A ~ :.W s a F +.p.s.d.d.d.V.K.K.L.L.L.L.L.L.T.T.Z.S.T.Z.d.,... .5.d.Z.L.S.E.W.W.M.2X#X{.U T c _ ",
"`.!.Q.G M s l < o B Z 7 6 s m ( :.-.;.4.;.S n n  .s.L.L.G.P.L.P.V.L.L.L._.L.A.A.g.c.N.N.d.9...P { $.q.N.v.C.D.Y.}.l.+X] B y q @X",
"Q.Q.Y.1.J s s % , s 7 s M V S :.u.u.y.u.s.s. .d f  .G..Xf.L.E.E.L.L.L.).L.B.0.8.3.0.q.c.C.V.3.} I } =.3.0.x.x.n.k.l.9X` 7 $ [ cX",
"&X}.F.y.<.1.H f j A ) ) K ) +.7.x.x.v.h.l.h.4.2.A f L D.m.C.W.C.A.A.B.N.q.3.3.7.v.m.Z.Z._.A.A.B.} I P P ;.u.>.l.<.:.t.g 8 V +XiX",
"{.Y.F.x.6.;.K H J X.$.2.7.7.s.v.v.v.v.v.g.h.h.6.7.A f K G.K.s.n.N.g.g.q.0.6.c.V.K.L.T.E.)._._.A._.=.A P d A -.R B z.t.@ h J.vX%X",
"&XY.x.b.7.X.) o.@.@.2.6.x.c.v.v.v.B.C.A.D.v.v.h.c.2.I f J n.K.s.B.B.j.h.0.c.m.Y.Y.E././.(.).~._.S.B.=.=.J x F > ^ +Xz.s y.4XsX%X",
"&XU.b.7.@.{ X.@.2.2.2.6.h.x.x.x.B.B.V.A.v.v.v.v.5.c.u.A f ! Q.n.A.N.N.c.m.C.Y.K.W./.*X*X`.(.(.^.~.S.m.2.s.>.x r.+XkX+Xy.5X1X|.1X",
"W.m.7.X.X.o.@.@.3.7.0.0.0.h.g.g.f.N.N.B.A.V.V.V.n.6.m.s.m f J Y.V.V.c.c.V.E.W.E.$X&X*X-X*X%X/./.^.T.P.u.u.O.>.JXbXbX8XU.=X=X}.}.",
"W.x.@.! X.=.$.&.$.*.3.8.3.3.3.0.q.q.g.N.V.C.P.L.K.M.u.M.u.n f +.T.T.C.n.m.E.W.W.&X=X-X:X-X*X/./.K.P.P.$X:.W .XjXbX8X|.H.P.R.E.K.",
"&Xh.o.{ +.+.+.o.@.=.*.%.%.%.=.*.w.q.d.d.V.N.f.G.n.Y.u.u.K.-.a n x.Y.W.Y.K.Y.W.W.&X=X:X:X-X-X$X$X}. Xd.J.:.s. X>.a.H.H.H.Y.M.n.C.",
"/.7.K o.+.o.| *.=.*.*.*.*.*.*.8.e.q.e.d.w.d.s.s.s.u.s.b.F.p.J * L 2.Y.R.K.Y.}.}.-X-X3X:X:X;X$X$XP. X.X:.|.JXr.@ f r.I.n.M.Y.x.v.",
"W.,.{ { ..o.%.,.%.8.q.8.*.8.8.w.w.f.d.5.,.e.,.,.;.2.4.O.r.b.-.x * +.n.s.H.E.Y.&XW.:X3X=X=X6X-XR.$Xa..X.XsX:.x * :.p.G.G.b.s.v.m.",
"T.$.{ X.&.$.3.3.8.h.q.0.8.w.q.q.d.f.d.e.,.+...! A F F A J ;.r.:., f ;.}.G.M.}.R.-X}.}.=X=XXX}.|..X1XsXbXa.F , a s.a.M.b.s.s.s.q.",
"m.$...$.2.2.0.0.c.c.c.g.q.g.g.g.d.s.2.,.5.,.4.4. .W H F x x S Q W * d :.u.n.}.M.}.}.1X9X3X}. X X+XjXa./ > / ~ W b.s.p.u.6.s.6.0.",
"n.$.+.2.0.d.n.c.n.V.N.N.N.N.c.q.c.2.+.+.+.;.,.y.s.p.i.y.( S V D -.H f s r.H.G.R.F.K.R.H..X2X4X+X@X/ 7 % > h ] r.a.a.u.5.6.6.s.u.",
"b.,.2.s.n.n.m.n.K.C.V.V.V.c.q.0.@.X.K X.;.;.4.k.y.p.k.k.t.~ D x V ( m x ;.4.O.M. XE.P.R.oX1XJ.t.Z @ > > 4 4 -.U.y.y.4.1.;.;.;.$.",
"s.6.s.m.n.K.K.V.K.V.K.C.m.q.6.7.@.#.1.l.Y.Q.|.OX+X1X+X|.|.|.H.i.r.i.i.a.b.i.<.u.M.F.H..Xa.` x Z ; 5 g e g / z.J.k.F.G.M.M.b.M.n.",
"b.u.s.P.K.R.E.K.K.K.K.V.d.6.3.6.Y.Q.XXOX;X2X2XoX1X1X1X1X5XsXsXiXxX5X5XdX4X4X3X}.1X=X1X|.H.a.[.aX@X@X].uXaXkX5X2XjX8XqXsXqXwXsXfX",
"s.u.b.P.P.E.}.K.R.K.K.n.s.2.,.0.Q.XXXXXXXX2X9X2X8X8X8XiXiXjXjXuXjX5XiXiX4XeXfX4XqXqX8XsXgXgXaXaX#XcXBXuXaXaXkXkXhXhXfXfXfXfXfXsX"
};
