/* XPM */
static char *_1d00c92260f410fc21eb62d7780fa8d[] = {
/* columns rows colors chars-per-pixel */
"64 64 189 2 ",
"   c #361D07",
".  c #371708",
"X  c #33190B",
"o  c #3A1D0F",
"O  c #381C11",
"+  c #37210E",
"@  c #3B230F",
"#  c #342110",
"$  c #3C2513",
"%  c #3E2915",
"&  c #3E2318",
"*  c #3F2818",
"=  c #4D290F",
"-  c #492307",
";  c #412414",
":  c #442A14",
">  c #4B2D15",
",  c #42261A",
"<  c #442C1C",
"1  c #4C2F19",
"2  c #522D12",
"3  c #4F3117",
"4  c #46301D",
"5  c #4D331D",
"6  c #553215",
"7  c #5C3315",
"8  c #53341C",
"9  c #5B361B",
"0  c #57391D",
"q  c #5C3A1D",
"w  c #643B1D",
"e  c #693E1E",
"r  c #463121",
"t  c #4B3422",
"y  c #4F3924",
"u  c #4C3928",
"i  c #533621",
"p  c #5A3721",
"a  c #553A24",
"s  c #5B3C24",
"d  c #563B29",
"f  c #5B3E29",
"g  c #623D24",
"h  c #6A3E22",
"j  c #623F29",
"k  c #5E4126",
"l  c #56402B",
"z  c #5D412B",
"x  c #5E4531",
"c  c #644225",
"v  c #6A4326",
"b  c #6B4825",
"n  c #64442B",
"m  c #6B462B",
"M  c #65492D",
"N  c #6C492D",
"B  c #724324",
"V  c #704A26",
"C  c #72472C",
"Z  c #734C2D",
"A  c #7A4D2D",
"S  c #76522E",
"D  c #7B502D",
"F  c #644631",
"G  c #6C4730",
"H  c #664933",
"J  c #6C4B33",
"K  c #674C39",
"L  c #6D4E39",
"P  c #734D33",
"I  c #7A4E33",
"U  c #744F38",
"Y  c #6F5034",
"T  c #6E513A",
"R  c #755135",
"E  c #7B5235",
"W  c #7D5A35",
"Q  c #74533B",
"!  c #7B553A",
"~  c #7D593C",
"^  c #745741",
"/  c #7A5640",
"(  c #755943",
")  c #7D5B42",
"_  c #7E6045",
"`  c #7E6048",
"'  c #804D2C",
"]  c #88562F",
"[  c #824E32",
"{  c #835435",
"}  c #8A5534",
"|  c #825A35",
" . c #8E5A34",
".. c #82563B",
"X. c #89573B",
"o. c #835B3C",
"O. c #8A5C3D",
"+. c #915B36",
"@. c #935E3C",
"#. c #86623C",
"$. c #8B643F",
"%. c #94613E",
"&. c #9A643F",
"*. c #845D42",
"=. c #8A5E42",
"-. c #815E48",
";. c #905D40",
":. c #856145",
">. c #8C6244",
",. c #8D6945",
"<. c #83624A",
"1. c #8C654A",
"2. c #8D694C",
"3. c #936444",
"4. c #9A6544",
"5. c #936946",
"6. c #9D6946",
"7. c #93664A",
"8. c #996749",
"9. c #94694C",
"0. c #9C6B4C",
"q. c #94714C",
"w. c #9E704F",
"e. c #856652",
"r. c #8C6A52",
"t. c #896C5A",
"y. c #956D52",
"u. c #9B6D52",
"i. c #967156",
"p. c #9C7154",
"a. c #93725B",
"s. c #9D755A",
"d. c #9E795F",
"f. c #9B7B55",
"g. c #A26B46",
"h. c #A26D4C",
"j. c #A5714E",
"k. c #A9734D",
"l. c #A16E53",
"z. c #A47353",
"x. c #AA7554",
"c. c #A67857",
"v. c #AC7855",
"b. c #A3755A",
"n. c #A97659",
"m. c #A5795B",
"M. c #AC7B5C",
"N. c #B27B55",
"B. c #B37E5C",
"V. c #B97E5C",
"C. c #9F7A60",
"Z. c #A57C62",
"A. c #AB7D61",
"S. c #B27F62",
"D. c #B5815D",
"F. c #BA835E",
"G. c #AC8264",
"H. c #AD8368",
"J. c #B58363",
"K. c #BB8563",
"L. c #BE8965",
"P. c #B38569",
"I. c #BB8768",
"U. c #B68A6C",
"Y. c #BC8B6B",
"T. c #B68E71",
"R. c #BB8D70",
"E. c #BF9275",
"W. c #BD9479",
"Q. c #C08A66",
"!. c #C38D6C",
"~. c #C18664",
"^. c #C7916B",
"/. c #C8926E",
"(. c #C38F71",
"). c #C59273",
"_. c #CA9473",
"`. c #CD9876",
"'. c #C1967A",
"]. c #CC9779",
"[. c #C4997D",
"{. c #CE997A",
"}. c #D29C7D",
"|. c #CA9E83",
" X c #D49F80",
".X c #CCA083",
"XX c #DDA687",
"oX c #DAA688",
"OX c #DEA98A",
/* pixels */
"i i t i f l a 8 i i 0 0 a k k 0 5 5 5 5 5 > @ + @ % % 4 t t r l % r r < * , 4 t r r r % * $ # X $ X O r r , , O O , & . . ; ; ; ",
"x i t j K F z z i a a a l M J H k l l a a 5 : @ @ % @ % % + # % % % ; & $ # $ # % % % # $ % 4 4 < * , < < u d d i d s i i i s s ",
"( K K K ^ ^ T L z M H H Y T T Q T T M z k l a a l l k l y t t a l f d f d d t i i y i y u l x H K K ^ K x T ( Q L U ^ ( ( ) ) *.",
"K ( ( F f F z s 0 l M H M M M k J M s 5 5 0 a z 0 l 5 5 a 5 5 a t 3 1 1 1 > : : z z l a l l z x K ^ ( ^ T Q ` _ -.-.) _ :.) ) ) ",
"f U L f 8 i i > : 3 0 s z k 0 0 M f 0 8 3 0 s z 0 0 5 5 0 5 5 5 f j g s 8 8 p p p s 0 0 8 8 0 0 s c Y Q Y Y W _ r.,.,.q.q.i.f.f.",
"K F F F F j f s 8 8 8 s k k a k M M v n n c k c k z k k Y T M n P ~ ~ J c n m N N n c s 0 0 0 c c c N Y N b R W S S W W #.,.,.q.",
"n j s j j j f g c s 0 f k k a q v b b n v k g 0 0 q 0 0 M M s 9 I -.>.E b Z R N Z N N N v v b J Q S S b c b S N W W #.#.$.$.#.W ",
"s n j p i s n n L M M Y R Y Y M J J J N N v M b 9 q q 9 0 0 = - b ..=.Z h Z I m e v Z W ~ ~ ..#.#.:.) S b W #.S b W $.$.,.q.$.| ",
") Q Y n s f M L R M Y ~ Q Q L c P -.~ ~ >.o.o.~ P v 9 b Q b J v A 9.X.D O.{ E | Z ..>.| W #.>.! R R U =.o.E ! b ,.#.o.>.,.5.5.q.",
"_ _ :._ ~ R L R <.Q J J H J R Q P ~ R R ! R ! Q ~ N c v E >.:.o.I O.X.o.{ { } A E O.5.>...$.o.E P I m m n m E v W W | o.o.| $.5.",
"W ~ ~ Q N N N J J ~ ) ) ) Q J N -.>.*.:.o.~ 1.o.~ ~ 1...E ..S ! o.o.>.O.w e 7.u.} O.3.>.:.3.5.>.*.! P ! o.I ..1.S I ! o.{ E A { ",
"Y Y N v q s n N c R L N Q P n n m N ! <.:.1.i.2.i.o.#.*.9.f.9.9.O.X.5.3.w 7 { 3.,.$.5.9.9.5.5.o.I G g m ! C m o.R ~ :.3.>.E C C ",
"Y R R R Z b M v m P J m Q ! J J g n J ! ! *.2.o.....o.f.H.M.G.G.p.M.p.>.O.0.A.G.m.i.p.s.p.5.E 9 P *.U n E *./ I ~ ..#.>.=.{ E D ",
"N R W W P b n c n J ! :.r.<.P m I R P R ! ! -.Q 7 R 7.U.G.*.2.9.>.H.7.v I Z.'.T.G.p.7.,.1.1.E w G ! *...*.,.E v Z Z Z D D W ..o.",
"v v M b c c n m v v U -.! P G G n m j J ~ -.:.*.P P E 2.0.>.=.>...Z.p.*.*.u.m.2.9.*.E P E $.*.E N v :.y.2.#.Z S A Z A b b S W | ",
"0 c b b N N P Q m m *.r.Q M m J J E m P :.:.~ P o.I *.! ! o.m I ..o.! =.>.*.1.*.*.! E P R ~ ~ N N c ! R N E ~ W | o.o.W V V D | ",
"q c Y ) R W ) Q U ! ) -.Q L M k c e C P E *.2.1.! *./ / U G G j j U U Q Q G G ! ~ Q R R Q Q ~ ~ Q Q Q M v N Q ~ ..#.o.~ S N E ~ ",
"c c Y W R ~ ) Q ) / ) / Y P Y Y b N ! :.2.s.Z.C.a.i.r.=.r.-.Q j G U U U U P Q *.1.~ Q Q ~ :._ ~ <._ ) :.:.~ ~ W :.,.7.1.>.*.~ ~ ",
"S S W W ~ *.e./ ~ U I G n M N b R ..1.y.u.s.d.y.i.r.=.-.1.-.*.G *.*./ E ! ! *.:.:.~ Q W ~ o.~ E :.Q Q ~ ~ W ~ | o.O.,.,.,.:.o.E ",
"6 q k 6 6 q s 6 j s g g 9 0 q 0 9 w b C n n h p g g g g p s j j P U P j h j v b w 9 7 7 w w w 9 6 = > 2 6 7 w e e e e e h h w q ",
"S ~ ~ Z G P P G G P ..~ R R W E I *.=.=.=.*.=.*.G I P G m m P *.=.9.-...! ..E ! Z P E E D S D E ~ :.:.*.:.0.9.5.%.,.5.>.:.#.:.>.",
"Y W Q P I I I ! E ! ~ ! Y N R R C P E ! I ! *.*.I P P P P P P ! =.=.;.*.O.O.X.O.{ O.3.3.:.} o.O.~ 1.>.{ E 3.9.5.w.w.z.z.0.0.7.9.",
"~ ~ E R *.*.=.u.y.>.:.o.W W ~ W ! I I I ..=.=.*.I U C P I P E ! ;.;.;.=.0.5.3.5.$.0.z.z.0.3.O.O.>.,.O.E { 3.w.z.w.z.z.p.0.>.O.$.",
"W R N P o.*.=.b.b.9.3.,.2.7.7.,.9.=.*.=.9.Z.b.9.y.7.=.=.*...=.9.m.l.8.h.c.z.j.c.x.M.J.J.M.w.4.;.0.9.7.0.z.D.I.Y.).).).U.J.M.c.c.",
"Q Q ~ ~ 1.2.9.p.b.p.9.9.9.3.,.0.y.u.u.7.7.u.b.s.u.u.u.u.u.p.b.m.I.L.F.D.F.D.F.M.v.F.B.M.x.6.%.h.m.0.3.0.h.v.S.I.K.D.c.z.z.p.p.0.",
":.*.:.1.2.y.9.0.p.9.0.9.,.$.o.:.=.=.=.7.7.s.s.l.A.Z.Z.Z.b.m.J.U.B.B.D.D.F.J.J.D.L./.`.`._.!.F.J.B.c.0.0.z.n.B.B.G.D.z.0.w.0.u.u.",
"r.2.:.2.i.s.p.9.0.p.w.q.0.9.7.1.7.;.9.9.u.l.l.l.l.b.A.n.c.z.l.l.x.j.k.k.N.F.L.L.L.!.Q.K.K.K.K.J.I.A.c.c.M.M.n.x.c.k.j.w.0.u.y.9.",
") ) ) :.2.y.9.7.p.p.p.5.:.>.:...*.*.I ! [ =.=.*.[ ;.8.;.O.X.X.}  . . .+.%.&.g.g.L.~.K.x.N.K.L.K.M.M.M.I.)._._./.x.c.m.M.A.m.u.u.",
"K J H G J P R R Z Z C v v Z I P =.=.=.=.7.l.A.b.P.Y.I.n.8.4.4.3.g.k.k.v.k.k.g.g.g.h.x.x.x.V.B.j.;.3.8.z.n.l.l.h.;.;.8.y.7.7.=.*.",
"e.e.<.<.:.-.*.*.*.O.o.*.>.u.d.m.8.7.7.u.Z.S.S.(.R.(.(.K.n.n.z.x.k.g.g.g.6.&.6.g.V.K.~.!./._.(.S.S.S.J.K.S.n.j.l.l.u.u.u.3.=.=.*.",
"t.t.e.t.2.1.:.*...E E E E ! ! *.=.=.=.=.;.7.7.;.l.M.S.S.K.(.(.!.^.Q.F.F.F.~.^./.!.~.!./.(.].}.).(.(.(.(.!.~.I.!.(.(.S.S.A.b.s.s.",
"a.a.a.a.d.a.y.2.2.>.1.u.u.y.i.b.b.Z.b.l.l.b.n.l.l.n.M.z.x.B.S.V.F.D.N.F.Q.F.N.N.x.h.N.~.S.!.].].].R.I.S.S.S.A.S.n.A.b.l.u.1.=.*.",
":.~ W _ 2.2.2.i.i.i.y.9.>.>.9.9.c.w.z.c.z.5.6.z.j.c.B.M.V.S.~.S.F.F.~.F.V.V.N.N.g.v.V.K.!.}.oXOXoX_.S.x.x.n.B.M.I.l.3.>.>.*...E ",
"#.#.,.,.:.~ :.2.:.1.1.1.3.9.z.M.U.c.w.z.M.M.x.z.c.M.F.F.B.V.V.V.k.k.N.N.N.N.N.N.k.v.V.K.(.{.oXOX}./.K.V.B.n.l.h.z.u.0.7.7.*.*.*.",
"D W :.,.W b P :.1.2.9.7.7.u.c.D.J.G.9.w.M.I.J.c.F.S.K.I.Q.K.S.~.F.F.N.V.F.F.k.k.k.k.v.S.K.(.]. X).~.S.S.S.N.z.l.h.l.u.0.*.*.*.=.",
"| S S #.~ Y J W ! ! ~ o.o.>.9.u.c.c.c.w.p.m.B.M.J.M.J.I.!.L.I.(.^.~.F.F.~.F.N.k.F.B.K.Q.!.(.).].n.h.g.g.6.6.8.6.b.b.l.7.=.*.1.9.",
"S b e N Q S R R ( ~ ..*.9.p.c.M.q.M.G.z.l.l.b.m.S.M.M.J.S.I.S.~.~.K.V.L.~.^.^.^.~.~.Q.!.(.~.V.~.x.g.4.3.4.5.0.l.8.u.u.;.;.=.1.7.",
"R b b N R R Q ~ ~ ~ o.o.>.9.9.0.9.p.b.z.l.Z.A.n.J.J.J.K.S.S.I.S.B.v.x.x.N.F.F.F.~.~.K.L.S.n.n.l.h.8.4.4.3.3.;.>.7.8.u.;.;.8.8.;.",
"~ W Y R Q ~ *.<.1.<.1.>.:.O.=.=.>.7.9.i.b.b.b.b.A.A.A.S.S.S.S.n.S.S.V.V.V.F.F.F.V.S.V.S.n.n.k.h.z.z.x.c.c.0.9.0.8.l.b.u.8.l.l.l.",
"R Y N c c N P N N E ~ ~ ~ ! ..o.7.9.y.0.9.7.=.=.7.8.l.u.l.l.l.7.@.;.&.&.6.g.g.g.k.x.n.k.h.h.l.;.[ } { O.} { E { h *.;.*.[ =.8.8.",
"5 6 0 c m N n v v c b R P v b P G P ! g I U h h g h h h [ [ =.[ [ } ' ' } } ] %. .%.%.%.;.[ } } } B A B w w e ..[ *.[ [ X.X.[ [ ",
"l 0 0 f M P ! ) :.*.1.i.i.2.) #.2.u.Z.s.u.7.=.[ I [ =.l.A.S.S.S./.(.n.x.L.^.D.k.v.N.K.K.~.V.n.x.x.g.0.o.A A I =.y.l.Z.Z.n.l.z.V.",
"3 > 3 0 b Q ~ ~ R W :.2.2.:.r.d.Z.y.Z.Z.A.|.|.S.Z.A.u.7.u.b.A.b.l.S.n.l.M.Y.L.M.k.k.x.x.n.x.k.l.6.w.z.O.A { ..>.*.7.u.l.8.;.@.;.",
": : 1 s J Q ( ~ ~ o.1.:.Q Z ~ i.i.2.i.u.W.W.|.|.P.9.=.P.S.l.l.S.l.S.S.n.j.z.z.j.j.j.j.j.x.l.k.k.6.6.0.@.I C P ~ 1.7.7.y.x.h.+.} ",
"5 1 5 8 n J Q ! :.o.~ ~ ~ R J P y.b.r.2 -.u.A.W.[.|.).P.A.Z.Z.7.l.;.;.l.S.n.x.j.} %.h.x.k.g.8.8.x.k.c.c.7.I ..1.2.1.O.3.u.h.%. .",
"< 5 5 a s M n c v v N N J R R Q 2.-.A.m.C.- p T.[.'.P.A.n.b.S.P.S.8.8.A.S.n.6.3.%.g.x.v.x.l.k.x.k.j.j.G.u.! o.7.7.2.>.O.;.3.$.%.",
"t i z H H N c q h N J b s c N R P Q =.*.C.W.S.S.m.T.P.b.l.P.U.l.l.*.;.S.B.l.h.j.6.h.h.h.g.h.l.k.j.j.0.p.=.C C P ! ! E D ' D ' ] ",
"i d d s p s s w s c b n v v c g P j G *.J C.Z.A.A.s.=.3.8.7.Z.S.A.l.A.I.S.l.h.6.j.j.j.j.g.;.;.&.&.h.%.3.X.P ! E J E ! o.5.3.+.%.",
"d d s s j G J m G j g p g j v n h n m n C ..i.S.Z.I h ;.7.7.r.;.=.X.=.x.J.v.g.g.g.g.4.@.@.6.0.h.g.j.x.z.3.! I C *.*./ [ =.8.8.X.",
"s f j n F n j 8 g j m G G G n h s b E ~ *.=.9.s.i.*.[ *.I C *.*.;.{ } 0.K.F.x.k.g.&.&.4.6.h.h.j.x.k.c.c.3.E ! *.Q E I *.=.;.X.X.",
"s f p i 1 8 9 i 8 g G G G G j 7 g c Z E ..y.m.H.b.b.s.=...*.7.8.m.0.3.0.z.k.6.%.&.+.+.4.g.4.4.0.x.3.$.O...! ! U U C I [ { [ ' } ",
"> i p d s s p 6 9 n m g h m j g b N Q ..*.......7.;.*.! I ! *.*.9.8.0.6.0.0.6.4.4.&.4.8.h.6.6.4.w.%.] B C ! U g U P P P I A A ' ",
"i p j F J L T L U ^ U g g G U P P ! 1.i.b.C.p.y.u.u.7.7.y.7.7.e...O.3.0.j.z.z.j.&.g.l.6.4.0.z.9.z.c.u.O.! *.=.! I Q E P I { { A ",
"F F f i d J ) <.-.<./ G g j G G ~ o.1.2.y.u.9.7.s.l.l.u.l.y.1.u.>.=.=.u.m.M.w.4.4.h.c.6.8.u.z.0.3.! I I I G P G J R I Z { 3.O.V ",
"i a a s z F J H / ) ! J s g j m c Z *.y.s.m.u.u.7.u.7.=.7.=.-.7.=.! ..7.b.z.0.3.0.c.c.z.0.z.l.u.3.C h P ..-.*./ J N v b E O.} D ",
"d i 5 5 a n F H f j n n j n U o.-.o...~ ~ *.=.>.7.7.-.I e.u.7.9.>.*.*.7.7.#.} X.3.3.3.7.3.=.o...E C m G Q 1.r.r.P n w 9 v D ! W ",
"i y 8 5 a a l l i F J n p j ^ -.~ R ~ _ ~ E I 1.3.! *.I m ~ ! Q Q I P E *.=.=.X.=.3.O.o.I Z ! E ..C G j E U -.( n n c m ! >.#.R ",
"x z i i s F Y ^ F J F n j j m j Y N R W R R ! 2.=.*.>.>.*.o.E :.G U ! ~ ! ..o.*.E =.1.7.o.m P I G j j j G j J Q *.J g s N E ~ o.",
"l a a l x H T ( ( ^ F j j s p 8 s q N Y ! *.~ >.r.1.*.! ~ Z g / J L m j g C ! >.>.9.9.i.u.o.! Z j j G G L j G U J s 9 g N R ~ ) ",
"5 5 t f l F F H L F d i 8 1 p F k k M N / 2.<.*.i.r./ Q ! R M L G J G M j n m C p.f.i.s.s.r.<.Q G j j P ^ G F H M n n P Q ( ) :.",
"4 : > 5 y i z F d p p s f n L ` J M M z K -.-./ j j G G G G J a Q ^ Q Q m j w g P 1.1.*.Q P ! P U H F U Q J M m J U U K H J Q Q ",
"% % 5 5 i y y a a i d F L P Y L l z H M j G j j p g L U j J ` Q L ^ Q G s 9 g m p I Q J n M J n H J J L n n d F j L L j a s z z ",
"@ % 5 l f y i i i a a d f n s 3 y a H H F F p i i j f s 8 i T ^ d z J F f p g G P Q P ! ! J Y H s z s z 3 0 p f F H K K f f j x ",
"4 4 4 5 f a l F n H F f d f M z F a d a j K j f i j i s F i z L ^ K f p q g P ~ P P J Q m 8 p M M N f k a J G H Q F j j f d d F "
};
