/* XPM */
static char *a0f94469b06d4479f6a123c86411eadb[] = {
/* columns rows colors chars-per-pixel */
"64 64 93 2 ",
"   c #3D2304",
".  c #3F2608",
"X  c #412706",
"o  c #412807",
"O  c #4A2906",
"+  c #402708",
"@  c #442B0B",
"#  c #4B2D0B",
"$  c #502F0D",
"%  c #4C300E",
"&  c #54330E",
"*  c #472E10",
"=  c #4C3212",
"-  c #543513",
";  c #583714",
":  c #563915",
">  c #5B3B15",
",  c #543719",
"<  c #563A1A",
"1  c #5B3D1B",
"2  c #603F1C",
"3  c #5C3F20",
"4  c #603F20",
"5  c #5D411D",
"6  c #624216",
"7  c #6C4617",
"8  c #62431D",
"9  c #6B471C",
"0  c #6D4B1D",
"q  c #724C1E",
"w  c #76501F",
"e  c #5D4323",
"r  c #5E442B",
"t  c #5F4828",
"y  c #624423",
"u  c #694721",
"i  c #644925",
"p  c #6D4B24",
"a  c #61472C",
"s  c #644A2B",
"d  c #6C4E2A",
"f  c #714E24",
"g  c #784F23",
"h  c #714E29",
"j  c #6D512D",
"k  c #745225",
"l  c #7A5425",
"z  c #7D5927",
"x  c #74532B",
"c  c #7A552B",
"v  c #7C592C",
"b  c #654B32",
"n  c #694E32",
"m  c #6E5231",
"M  c #755631",
"N  c #795631",
"B  c #765935",
"V  c #7B5A33",
"C  c #765C39",
"Z  c #7C5D3A",
"A  c #7F6034",
"S  c #7C603E",
"D  c #7D6243",
"F  c #7E6348",
"G  c #805827",
"H  c #815B2D",
"J  c #825D33",
"K  c #815E38",
"L  c #846133",
"P  c #896537",
"I  c #84623A",
"U  c #89653B",
"Y  c #8A683B",
"T  c #826646",
"R  c #846947",
"E  c #83664A",
"W  c #856A4C",
"Q  c #8A6C4C",
"!  c #8E704E",
"~  c #876E50",
"^  c #8A6F51",
"/  c #8D7253",
"(  c #927454",
")  c #967856",
"_  c #927759",
"`  c #957A5C",
"'  c #997D5C",
"]  c #997E61",
"[  c #9A805F",
"{  c #9D8262",
"}  c #9E8368",
"|  c #A28565",
" . c #A1866A",
/* pixels */
"W R R T E Q E Q Q Q Q E T U T T Q W E E W W W E E E E E E T E E ~ W F W W ~ F W W W W ~ F F F W D D F W R W R R / Q R R R W R R ",
"R R Q Q ! ! Q Q ( Q Q Q ( ( Q W / ( ( ) ) ( ^ Q Q Q ! ( ( / / Q / ^ ! / / _ / / ) / W R R W ! W ( ( ( ( ( ) ) ) Q Q ! ( ) ' ) ) ",
"B M c x h h h h g 4 h h h x x M V x V v N x x x f p f u f k k f h x f d d d d i 5 j V N j x M M d j d x j f p i f d f j x M x x ",
"p k f x h N J J J H N c V J I K Y L v l c v H v J J v H v V J L J V V v v v v v A z x l v A A v A v x x x x x c c N N c x c N v ",
"l l v v c l g u g G H H l g c J J H l z z w w 7 k w l G z z G G v z z z z v v A P L P L z l z J v v z l x k k k g h c v V v c l ",
"k k z z v z G G g G J H v l l k J H H H H G z g w l l g l l l c H H v G z z z A J H l L Y L H l v z k z l l c l c H H H H z H c ",
"v z G G G g G g g w q w G H l 7 g g g c z c c c G H c g g l l c c c c c z c z l g g g c v H J J A z 0 q f l J L H z g g g g g G ",
"q w l G G G G G G G G l l l G H g c J H H G c z v v c H H v N g g l c J K L J v c c c J K J c p 0 0 0 w v J z q f q q g g c G c ",
"l f f l H H H g g g c G H z l l V V J U K J v V c N x l l V v z c c c h x c V V c x V J x p f x k k k A A k k q f g v V P L P J ",
"q q q q q g z H H g q q l J H V l l V J J K J J V c c c c c v A V h h h c c l d K V V V V l l x A z A v k v 0 k l J Y U J v z l ",
"f k k c c H V v H H N h f p f l A A J v H c k k f 9 0 k k f k A A c g f k l k p 0 k k l k 0 f V v A v j f k c x V U L l p l c x ",
"v k k h H J H H g c g l c l k f w k z c G H H v z l z z k q 0 f v v c l k k k f 9 6 6 k v L V V v A k k x 0 V V J V x 0 0 x c c ",
"k p k k f f g H z c l k k z k c c H J z z k l f z z z k k l k q 0 f l c l x f 0 z k l v J H l l A k j k x V l A V x d h x x h h ",
"z l c z H H J J H J H c k k 0 q f g k l k l c g 0 p q q k x z c f 0 0 f l l g f 6 0 c J v c H K x x k j V V x N x x l N x l f h ",
"J l 0 9 q f g H H c l c L L k f p f f h l x c N N c x x x l x c c x p f x x N c c c N N N N h p j v k A c k V l x k l c c g l N ",
"L v v z g q f g G c G H P P L L H c h c c x h c c x l c l f k x c N V c x h h h h p h h h l c c k v A k x c x x l c v V v V v c ",
"l c v c l g f h f g k l l c x c J V v c c c c x k v V v x f k 0 h l c c v V l 9 p h c l g p h l A z c l c c z c v v v v c l l c ",
"f l z V V l l c f f f h h l l l l x x c c V v V A A k x k k k 0 c l h f f f x V v l u 9 p c c c A c c x c v c c c c x l c c J K ",
"i i x M N x M h M x x x x M x M M V Z N x x d p M x v M A M j d d h M N c h d x N x x M N M x h c x j x M N c M N N M M N x M N ",
"M x M Z Z Z Z Z d d d d d d d d j j M M M m j i 5 d m B B B M M d i d d Z Z Z Z B V M j d p M B j j j M M B M M M d j x M M B M ",
"j d d m M M M M M m d d d d m d j m m m B B B m m j s m C S S C T Z V M B S C M Z M d s d M C Z M B B C B B B B B B M m B Z D I ",
".     . . + @ * @ @ + + @ @ @ @ . . . . . * . . * @ . . @ * @ @ X @ * * = = = + +   . @ @ = * @ o * % @ @ @ . X . o . @ @ * @ @ ",
"/ ~ W F W W ~ ^ ^ W W W ~ ~ Q W ~ F F / F [ [ / ~ / _ / ~ W Q ^ ^ / / W F W ~ W W ~ Q ^ W ~ ^ / ~ / / / Q ^ W W F D F F ~ / / ^ ",
"s t 3 3 3 3 3 e e r e e y r a e t t t t s s s t m b s e t t a a t e 3 3 3 3 3 e e e 3 3 3 3 e a s s s s b m n s s e 3 , , 3 i a ",
"= e i 3 - - , , 1 e e e 5 1 < 1 5 5 5 5 y e a e y e y e y 3 3 < , , , , , , ; , - < < < < < < 3 1 < , 1 < 5 5 5 , - - = - < 4 a ",
", 1 y y e 1 < , 1 1 3 3 y 5 3 3 t 5 5 5 5 e y e 3 y e i y e e e y e y 1 y 4 e 1 - : , 1 1 1 1 1 y 1 y e e 5 = & 3 1 < 1 < , , ; ",
"; ; 1 4 u 8 5 : ; : ; > 1 1 > 5 5 5 5 5 y y y i i i i i i i u y y 8 1 y y y 2 1 5 > & # # # $ & $ - ; 1 5 5 5 5 1 1 1 > 2 2 i i ",
"1 > > ; > 8 6 : 1 ; ; ; > > > : , 5 5 5 y i i y y 3 y 4 5 5 5 5 2 2 2 2 8 2 1 ; % & # o # - > 2 ; ; > 1 > : : 6 > ; - - ; ; 2 2 ",
"2 y 5 & : 5 5 : 2 8 5 5 5 5 5 6 5 5 5 5 5 5 5 5 > 1 1 1 5 8 y y 9 6 5 5 8 8 > > & & 6 6 5 5 6 5 1 5 5 > = 6 % % 6 5 5 5 2 8 > ; ",
"8 > > 5 5 & 6 5 8 1 5 5 > > : : 5 5 5 : 5 5 5 5 2 y y 8 y u y i 5 5 5 5 8 1 > ; 5 5 5 5 6 5 : & ; ; : 5 6 6 5 5 & & & & 1 1 > > ",
"> - : 5 5 : 5 5 5 5 : : : : : : 5 , , 5 5 5 5 5 3 e 1 e 1 1 5 5 5 5 : 5 5 : : : & % % & : 5 5 5 5 5 5 5 5 5 5 5 5 5 5 5 5 5 5 5 ",
"1 5 5 < 5 5 5 : 5 1 1 : : > 5 5 5 5 5 e 5 e e 5 > 1 1 1 1 1 < 1 5 5 5 : 5 5 : 5 : 6 5 : 5 : 5 5 5 5 : & % 5 % % 6 5 5 5 5 5 5 : ",
"y 8 1 8 y 1 1 1 1 , 1 1 1 8 y y y y 8 > 3 3 1 > 1 1 8 8 3 1 3 1 : 5 > 5 > 5 > : > ; ; > 2 2 2 > 2 & ; ; , ; 1 1 < 1 > , 1 y 1 y ",
"; 1 1 6 y 8 1 > 1 > 1 > 1 1 2 > 5 > 1 5 y u y 8 y y i 6 y y 1 1 5 5 > 5 : : > > 2 2 2 2 2 2 > > & 2 ; ; 1 4 3 2 $ 1 3 4 1 1 1 y ",
"1 > > ; > > 1 2 > > 6 > > > > 2 8 2 2 2 2 6 2 2 > > > > 2 8 u u : 5 > & > > > 5 & > ; > > ; ; > ; ; ; > 1 2 > 1 8 ; O O $ ; > > ",
"8 8 8 8 8 8 2 > > > > > > > 2 8 6 2 2 > > ; - ; ; ; > & ; > > > 6 8 6 5 > & & & > > > 2 ; ; > > ; ; ; ; > ; ; ; 1 ; > ; - $ $ ; ",
"u y y 2 2 2 1 1 8 2 > 1 1 1 2 1 - ; ; ; ; ; ; ; > > > 1 > ; ; ; & > 5 5 6 6 8 8 2 2 > ; ; ; - $ ; ; ; > > > > > - 1 2 1 ; - - - ",
"y y 1 ; 1 1 4 y y 1 3 1 1 < , - - $ - - 1 < 3 3 y 4 4 4 3 1 < < 8 8 8 8 8 5 > > 1 ; ; ; ; ; ; ; ; ; , > ; 1 > 1 2 1 ; - ; ; ; - ",
"1 e 4 y e e 5 e 1 1 1 < < : = * - - , , 1 5 y e i i i y e 1 , = > : 5 5 5 5 5 1 1 > 1 1 2 2 4 4 1 , 1 , < < < , , 1 3 1 < - ; 1 ",
"y 1 , ; - - 1 , 1 1 ; 1 : : = = , : < 1 y y y 5 3 1 y y i 5 5 < 1 , < < < 1 1 1 y y y 1 1 - - , , , , 1 3 1 3 , - = = , 3 3 3 < ",
"< < < < 5 t t s e e e e e 5 e 5 < e t t t t i t t e t e i t e e e 5 < e e e e e e 5 5 = < 3 e 3 3 3 e e 3 3 3 < 3 e e e 3 e 3 e ",
"@ @ @ @ . * * @ * * . . * . * . . . . * @ = = = = = @ @ . @ * . @ @ . . * . . * . . . . * @ @   .           + @ * + . . . . .   ",
"b r r r r a n n r r r t t a a r b a a r a a t r r r a a t a a r t t t s e e e e t e t t i e a s a t i t r a s b b s e e t t r r ",
"` { } } } { _ ~ ^ ^ / ( ] _ ` _ ` _ ] _ ] _ ] _ / / _ / _ ] ] _ / _ [ { [ ` [ [ / / ` { | { ] ] { } } } ] ' ] ) ] ` ] ` ` _ { { ",
"i e y 8 s i j d y 8 y i i p s d 5 5 1 1 < 5 5 : y i i i p i y e 5 5 5 t p i i i i t e y i d d M M B C B m n b s a d m m m d d m ",
"V v N x x j j 0 x h p p d j l x c x k p d p j x x x x x x p p p m j j M M A M x x x x Z S N x i M B Z S N M h h u d h M B B M m ",
"N x h p i f c c M h h h x x x x j x h h x c V Z V x p i p p x V M M j j j j k j c M x x l x x d u p x M N x h u p u p h N Z V N ",
"x x h h h j p j p p p d h h x h M N N M h p p u u u h N V N x d p 0 0 0 p p x c x V V v N V M l h h p h h N x x h h u u p h N V ",
"d p f x k i u f x N x j x x x N N N N N x x d x x x x d p p j j x f p u u u u u i i p p 9 i 0 f h h d h x j k x x x h h f h x V ",
"u u j x m f j x j j M M j p u u u p j x M V V V x x x M x x f f p h N M x x h M c x f u i 9 p j x x h h p j p h N i u x N h h N ",
"8 i p j x x x j V V V N x j j j i 0 d f x N x x V c p u 8 p f x x v V c h h c N h h x x x c v x V Z Z K B c x j f x x d h h c h ",
"k x k j x x j p p j x V V x x u j f x x x x x j i p i h x M M c x x l h u i i h d h x M l j d 9 u p h M N V c V h h h N c h h h ",
"x v k f f f f p 8 u p h x h i u p f x M x x V V l N A I U T I v v c N N x M x x x x h p 0 f p p p 0 9 i k j x v x p f x V N g p ",
"x x j p 0 d d p h f d h x M V V j x c c V v V v J V l x f f k j c c M V V V N N h h p p 0 j k k x x x x x c k d k x k p p N c h ",
"l x x k x f f q u f h N N N c x A A A A v A V V x x l x x x k x k q 9 i u k h h h h f p f p 0 8 p j j c A A x k x p p h g u h J ",
"N v A Z A M x j p f h f i u p h f f f k j j p p p p d p p p d f k f j k x x h p h x h x M N c x l x k x x c V x x v c x N V V h ",
"x v v x x x x l l h h h h h p p k f p d f p p 0 0 p f j x x V V V x c M c V V Z x h h N N g f l k d d f x x x V N v c M v v Z J ",
"v V x c x f d p p i p h h h x h j f p f k j x l V A I I U L V x x v v v M j u 0 u 4 4 f V K I Z V l j f f f x x x x f f j x x k ",
"j k f j c V x x p f x x x N x x x x j x x x x x j j x N N N N N x k j j p p i u h x x h y u h l V x f j x x x x f x k x x l l h ",
"v x x V A V Z c h h x M N N h d p u p k j k j j c c x k j j h M j 0 0 8 y p d l x h h h h c c N v j k j k x h l S L S L V V x h ",
"M A V V c M x j p p d x N V M x i 8 i p j M V N V Z B V M h h d h h p p f h h h b h h N V V V V x V V V N c h M p h h N N V K K ",
"0 i j j x x j f p u u u h M N M x f u u p f j x x B A S Z V N N u h 4 u p d p d h x h u 2 8 8 8 j x v M N V N N h h h p u p h c ",
"Z A A A V V N x x x x M N Z Z Z S S Z B M j j j N B B B M M x h J N h N M M M N N c d f x K V c V v A A J J K K V V v c c c K K ",
"> > > > 5 > : & % & ; > > > > > > 1 5 8 5 : : : - ; > 5 < ; ; - ; 2 2 2 2 4 ; ; - $ - 4 p 8 6 5 5 5 5 = & ; 2 ; 2 ; ; ; ; 2 ; - "
};
