/* XPM */
static char *_1af5d89faf24dcd994dcbfa70a8ea2e[] = {
/* columns rows colors chars-per-pixel */
"64 64 73 1 ",
"  c #482915",
". c #4D2E19",
"X c #4F3014",
"o c #4F311B",
"O c #523216",
"+ c #54351C",
"@ c #58361B",
"# c #57381C",
"$ c #5A3A1E",
"% c #4C3326",
"& c #4E3529",
"* c #4F382A",
"= c #533623",
"- c #553924",
"; c #5B3C24",
": c #513629",
"> c #553A2C",
", c #5B3E2B",
"< c #563E31",
"1 c #5A3E32",
"2 c #613F24",
"3 c #5E4024",
"4 c #5E412C",
"5 c #574032",
"6 c #5D4234",
"7 c #5E4539",
"8 c #5F483A",
"9 c #624226",
"0 c #684726",
"q c #694827",
"w c #63442B",
"e c #69472B",
"r c #66482D",
"t c #6B4A2E",
"y c #704F2E",
"u c #71502F",
"i c #634633",
"p c #694731",
"a c #664934",
"s c #6B4C33",
"d c #624639",
"f c #654A3C",
"g c #6B4D3B",
"h c #704E34",
"j c #714F39",
"k c #6E5034",
"l c #6E513D",
"z c #735235",
"x c #74533B",
"c c #79563C",
"v c #77583B",
"b c #7B593D",
"n c #664C40",
"m c #6A4E41",
"M c #675042",
"N c #6D5243",
"B c #6F5548",
"V c #745542",
"C c #795641",
"Z c #765845",
"A c #7B5A43",
"S c #725649",
"D c #76594A",
"F c #7B5D4A",
"G c #7B5E50",
"H c #7F604E",
"J c #7E6151",
"K c #815E44",
"L c #836046",
"P c #83624B",
"I c #88644B",
"U c #816252",
"Y c #886851",
/* pixels */
"<7n*1nnn71dBmSG11UDDSd:j1dm1:fmdmm11mmddm11mmfd1&11<77*%<777%&Mn",
"57n*1nnn71dBBSG11DUGSd>mndm1%mmdmm11SSmmmnnNmfdd&11177<%77<7%&Mn",
"77n&7nnn71dBBSSddUGUDn>NdmSd:mmmfmddSmmmm11mffmf&77187<&<7<<&&MM",
"77n*7nmm71dBBSG7dGGDDm1NmmSd>mmddm1dmmddm1nnmfdd&17787<*<7<<%&Mn",
"nnn>7nmmdddSmSU71YUUDg1NmmSm1mmdmmppmmmmf11mNN11&7n7n1<*55<<%%nn",
"nnn>7mmnd1dSSSU7mUKDDf,VdSSm1mmfmmd1SSmmm1gNNVm1&7n78n<*77<<%%M7",
"Bmn*nmmnd1dSSSSd1UDKVg>NmSKm>md1fm11mSmmp11NSSg1&7nnnn<>77<<%%n7",
"mmn<7BBnd1mSSSUdgUDCSg,NjmSm:mmdmm11mSmd11mNNNV1&7nnn1>:77<5%&87",
"BSB>dNVNm11KUSU1gUCFCfiVmmDg:gdijj11SSmmf=jSSmg1,7f77f::7755:&df",
"SSS1dNNmm1dSSUU1gUFFCf1jNVDg>gfimm11SSmjf:jSCVm1,7f7ff<:5761::ff",
"SBm,fNNNj1jmSCUfgUCFVpiNjVFm,gfijm11KSNj1:mSDmj1>7f76d,<7866::fn",
"Snf1fNgNm1mKCCU1pUCFVpiVjNCV1mf6mK21SKNSj:mKDmj1:7f67f66fn76:*df",
"Smf,ggfgj1VSSNK1pFCFVdixVVDCwgfimj11IPNN1,mKSmg1:pf6ddd6fd61:&7d",
"Smm,gNmNg1VDDVY1pFVVjp2mVVFV6gfpmm21SKNj1>NSKmV1:ff7ddd,dfdi,,fg",
"NgmimVNNg1VDKCUmpFVCViijDCFV4gfdjN11KSmjj,KKKm12>ndipdd:ifdf66mg",
"NlV6mVNggjVSSKI1pFCFVppCFDFV4gaaKm12KSNS12NUSmj1:gddfdd:6dif11dd",
"xlFgaVfxVfxFVFFasKVCZa2DCFFV,agplVwwNZZla-fHDlf4>Nad484>6ia5>o86",
"VNAgaCggjpVFCZFapGVZZa2VVFFc2afplV44lvZZa-lHHla4-mfi8a5-8af55-fa",
"AxZsgZgsggDGVZFjpFVZCs1VVFAV1sgpjx44llZZl-lJHfa6:lii4a3-4aa43-gg",
"ZVZfgCjgjgCKCFFaiFxFDf2VZAZV2fgpgl44vZVVl-fDHai6-li6645%6if4*%ga",
"CjAgsCggVpVKCFDipZxFCa2VAZAV,pgagxwivVZVV+aZBai6-l84843%4af45%a8",
"VVFjgjgjgpVFCAC2wFxAFa2VZZZC,pssgxwwVZVVZ5allai,-Na4385-48a84+a8",
"VVFsfCgjjpVUCDAp6ZxFFg1VAZCV2psgVx,ivZZll5aaaaa,-Na8344568a455aa",
"CjAjgCjjfpCKCFFawFVFAg2xZZZZ4aggVC12vHZvl3aggga,>Ng6455344444-ga",
"VxVpCCxjsaAPAAKjwVCZUg2VKCZC,gjKAx,wFKVVg-igafi,-Zl4445;4aa44-a8",
"CjVpVAVxxscFVCAgwCCAKsiVFCZC;jxFFCw2ZKjVp=wjasa,3Zl4644;aak44-ar",
"jcCtjCCCcsjAjcChwVZCKg4xZAVC;xxLPAwwZAgVp=wsagp,-Nlar44-48s84-aa",
"CcCpjCCKCpjCjCKjwcVCFswcAZcA;gxFFcw2AFjji=wgajpi3lllga4-44a44+s8",
"ccAtjbAKcpjbcbKjwCcZPswVAAZA;sgCVxw2CFhsp=wsrgg45lZlgaf>iaga4o84",
"cxApcbKKKhjCcCbjwVcAPxwcVccV;ssxxj,wAZxsp=ifpgp4-ala4pk4iagi5oas",
"jcCpxCKKKphbxcAhwxVAYxwVxxcV;gsxjj2,cFxsp-agagk4-glkwif;wwaw3%al",
"jxcexbKKKppcxcAj2xCFYVpvsxVc;apsjj4;cAlxw;wlpsl4-kNZgpg>paga4#al",
"CCK21CKKKhjcjcKh2jCKIc2Khcjx;sarsxw2VKjsp=psxpsa-llpala-4aa64o8a",
"jKj2jKCKKpjCjxCh2jcKIcjKjCxc;prasgw,cFxgp#asxssr;gkiaka54raar+ia",
"jj1jjKVjKpjKccKh2bKKIczKjKbA-waresw2cZxja$pslsga-ga4rsao4aaa8oia",
"1jK21KCVCphCccChebCKIc2CjKAb;parpg2,xbjgp$apkxxw-ga48r8+44a643ia",
"jjK2sKVKKthcjcKj2cbKIc2CcKxx;pswps2;xvszp;rszvlr$aa84r834r844%4a",
"jjC2sACKKphchcch2ccKIcjCcKcj$sawsp;;xZsxr;epxZvt#karr4634aai43ia",
"jjj2jKCcKshCzcbh2zbKIbhcjKKj#pswst;;xAsxr;wrxZbs-ar444r44aa445ia",
"jjj2jKbcKsjCzcbt9cbKIbhcjKKc#prwzs;;vvssp$wrxbAs-a44834#44ir43ii",
"jjj2jIKKKheKhcch9cbbKcyzcbKc@2s4wp;9xvgsr#wplvvs#r834r3#3544354a",
"jjj22IKjKheKcbch2cbbLcyzcbKj2jswwr;;xvskr#wwkvZk*ar3rr5-3r45-3ra",
"2jj22LjKKh2Kjbbh2vKKIbhzccbz@es20w$$kzkkr@wrkvvk#rr35r3-3ra3%38r",
"jjj2jKCjKeebcKct3zKKKceczcbc;2p29w##kksvt$9wrkk3#r834r3*5aa4#4aa",
"c2j2jICCKe0bcbcy2cKbKzebzccj$wh2rr##tktkt#99tsrr#8r3r433aa83+35a",
"cjc22IccKeeKcKcy0cbcbu2czzcz$9e2rr$#kzrkr+99ttkr#rk34453aka3355r",
"cjz22KccKeqKcbby2cKcchqczzcz$we2rr$$zvtk0O9rttks#rr54r34kar3+538",
"c2j2hKccKeqbcbcu2cKccy2zzjcc$9e2tr$$zvst9+9rr9tt#rr3r43rka45333r",
"jh22uIccbu2Lczcu2Kbbb22Kcccz22h2st$$vzkr0Xrw99rr+rrrr03rvrrr535r",
"hhh22LccKu2bzccu2KcbKh2bcccc22h2st3$vktrw+9993k0+8rr3r3rvkkkr33r",
"h2h2yKccKu2Kzucy2Kbbb22ccccc2hzhkk3$vkktrO033rk3Orrr3r3rvkkkr38r",
"hhh22KccK22Kbccy2CccKhhcbccc22z2zv3#kvvk0Or933t9Orrr0033krrk835k",
"hhh22Kccbyqbbbby2bcjbh2ccccz22z2vv3+kzvk4+9399r3*rrrrr#*krar3#4a",
"uhu22KucbyqKbbuy2bzzbh2zzucz22z2kk3Xtkkr9O3039r9#rrkrr##rrkr3#3a",
"hhz22KzcbuqKbbby2bzzc22zyhzz22h2kk$Xtrrk3X0339t3#r8krr##rrar3#4r",
"2hu2yKccbyqKubuy2bzzb222hezz@222kt#Xtrrk3X0439r3#33rrr##33rr-#48",
"qyy02Kzzbyybuuby2cyhz22hhhhh$e22wt$+rrtr3+3933w9$wtspp+@53ar#=4a",
"yyy02Lzubuybuuuy2cyhz2@httht$20$wr$+rqtr3O9399r0#waaspo=34ar#3ra",
"2hy$$buubyqbuuuu2chhc2@hehhh@2929r$Orrtr3Or393r9+9tkar.=34a4o3rr",
"huy$0byybyquuuuy@zhhz2@2ehzz$292r9$Otrr03#9390rr#rtaww.+-443+3ar",
"eey20uyyuyqbuyy0@chhz@@thhzh@90209##krrq3X333rr3#rrrw2o>-44$o36r",
"yyy2$byyuqqbuyq0@zehz2@tthhh+29293##krr03O039ry3O3rr21=,443%o+44",
"qyu2@uuuuy0uuyuy@zeeh2@2ehe2O29393+#zrt4$O930rr3+3r4;2o;4,5#o+33",
"yycq0uyuuq0buuuy2zeeh@@eete2O90393#$krr9$+939rr3+0rr,; =,=-3oo33"
};
