/* XPM */
static char *f3fa8a1710d54cb7a293ff13fe8badfa[] = {
/* columns rows colors chars-per-pixel */
"64 64 241 2 ",
"   c #250700",
".  c #3B1807",
"X  c #2E1813",
"o  c #320C00",
"O  c #3B221A",
"+  c #441C0C",
"@  c #4B1C0A",
"#  c #471905",
"$  c #521E07",
"%  c #441E11",
"&  c #501F10",
"*  c #4B240A",
"=  c #53220C",
"-  c #5C280F",
";  c #4C2313",
":  c #49281A",
">  c #532412",
",  c #5C2B12",
"<  c #5C2C1B",
"1  c #562919",
"2  c #5C331D",
"3  c #54311E",
"4  c #662D0B",
"5  c #6A2C0D",
"6  c #672904",
"7  c #712D0E",
"8  c #6D310D",
"9  c #693209",
"0  c #72330D",
"q  c #77390D",
"w  c #78390D",
"e  c #632613",
"r  c #632C14",
"t  c #6C2C14",
"y  c #632D1A",
"u  c #6A2E19",
"i  c #712F14",
"p  c #792F12",
"a  c #6C3313",
"s  c #64331D",
"d  c #6B351A",
"f  c #6D391B",
"g  c #653418",
"h  c #743313",
"j  c #7A3514",
"k  c #763A14",
"l  c #7B3C15",
"z  c #733619",
"x  c #743B1C",
"c  c #7C3D1A",
"v  c #7B3619",
"b  c #4A2C22",
"n  c #5D2F21",
"m  c #4D3228",
"M  c #5C3422",
"N  c #5C362A",
"B  c #5A3727",
"V  c #5C3B31",
"C  c #553830",
"Z  c #633423",
"A  c #693623",
"S  c #653A22",
"D  c #6C3B25",
"F  c #633B2A",
"G  c #6B3E2A",
"H  c #63372C",
"J  c #743D23",
"K  c #7A3E22",
"L  c #743E29",
"P  c #653D33",
"I  c #7D4215",
"U  c #7C421C",
"Y  c #77441E",
"T  c #6B401E",
"R  c #5F4234",
"E  c #6C412D",
"W  c #67422B",
"Q  c #764225",
"!  c #7C4323",
"~  c #7E4A25",
"^  c #74422B",
"/  c #7B452A",
"(  c #7D492B",
")  c #654132",
"_  c #6C4332",
"`  c #68463B",
"'  c #734532",
"]  c #7D4B32",
"[  c #7B4C3B",
"{  c #734B36",
"}  c #7A513A",
"|  c #7C5243",
" . c #813D16",
".. c #823D1A",
"X. c #81371A",
"o. c #824315",
"O. c #83441C",
"+. c #89451C",
"@. c #86491C",
"#. c #8B4B1D",
"$. c #884816",
"%. c #914D1E",
"&. c #94521D",
"*. c #9A581E",
"=. c #894C18",
"-. c #834522",
";. c #8A4622",
":. c #844A24",
">. c #8B4C24",
",. c #844C2B",
"<. c #8A4E2A",
"1. c #824729",
"2. c #914E23",
"3. c #914D28",
"4. c #855125",
"5. c #8D5225",
"6. c #86512B",
"7. c #8C532B",
"8. c #8F592D",
"9. c #935324",
"0. c #995524",
"q. c #955925",
"w. c #9C5B25",
"e. c #93542B",
"r. c #945A2C",
"t. c #9B5C2C",
"y. c #98552A",
"u. c #844E32",
"i. c #894F33",
"p. c #855233",
"a. c #8B5433",
"s. c #8D5933",
"d. c #83533C",
"f. c #8C563B",
"g. c #8E5B3B",
"h. c #935631",
"j. c #945B33",
"k. c #9B5D32",
"l. c #935B3B",
"z. c #995E3B",
"x. c #935739",
"c. c #A25E24",
"v. c #A15D2A",
"b. c #A05D31",
"n. c #9D602D",
"m. c #9F6127",
"M. c #966136",
"N. c #9D6234",
"B. c #96613C",
"V. c #9B633C",
"C. c #9D693C",
"Z. c #8C603D",
"A. c #A46126",
"S. c #A3632C",
"D. c #A9672D",
"F. c #AA6A2E",
"G. c #A6692D",
"H. c #A36533",
"J. c #A56934",
"K. c #AB6C33",
"L. c #A3653A",
"P. c #A46B3C",
"I. c #AB6D3C",
"U. c #A96736",
"Y. c #B06E36",
"T. c #AE7136",
"R. c #AE713C",
"E. c #B47436",
"W. c #B3743B",
"Q. c #B5783C",
"!. c #BA7B3D",
"~. c #B77737",
"^. c #835543",
"/. c #8C5B44",
"(. c #8C5D49",
"). c #885844",
"_. c #915E44",
"`. c #946144",
"'. c #9B6443",
"]. c #9D6A42",
"[. c #94644B",
"{. c #9A654B",
"}. c #9C6A4B",
"|. c #9D714D",
" X c #9B6C52",
".X c #996B53",
"XX c #9F7158",
"oX c #8E6144",
"OX c #A26642",
"+X c #A46B44",
"@X c #AB6D43",
"#X c #A36C4B",
"$X c #AA6F4A",
"%X c #A57146",
"&X c #AD7244",
"*X c #A6724D",
"=X c #AD734B",
"-X c #A9784F",
";X c #B27544",
":X c #B57944",
">X c #BA7C44",
",X c #B2764B",
"<X c #B57A4B",
"1X c #B97D4C",
"2X c #A46E53",
"3X c #A96E50",
"4X c #A47354",
"5X c #AC7553",
"6X c #AD7954",
"7X c #A6755A",
"8X c #AD7A5C",
"9X c #A9775B",
"0X c #B17651",
"qX c #B47A53",
"wX c #B97E53",
"eX c #B47D5B",
"rX c #B97F59",
"tX c #A87A61",
"yX c #B17E61",
"uX c #BD824B",
"iX c #BF8245",
"pX c #BC8354",
"aX c #BB825C",
"sX c #B9835A",
"dX c #AE805F",
"fX c #B48263",
"gX c #BA8665",
"hX c #C2854B",
"jX c #C78B4C",
"kX c #C38A54",
"lX c #C38C5B",
"zX c #C78B56",
"xX c #CD9154",
"cX c #D2965B",
"vX c #C48D63",
"bX c #C89264",
"nX c #D49B68",
"mX c #CC9971",
"MX c #DCA56E",
"NX c #D8A16A",
"BX c #DAA779",
/* pixels */
"# 2 x Y Y ~ :.~ 4.4.4.4.4.4.:.6.6.6.6.6.7.6.4.6.6.6.6.5.<.:.,.6.<.~ :.:.,.:.~ :.~ ~ U :.! ! ! ~ ! Y ! ! K 1./ Q Q ! Q / Q E s 1 ",
"S D ^ ( p.d.s.s.s.s.l.s.s.s.s.s.a.7.6.p.6.8.s.p.s.6.a.a.p.p.6.( 6.6.7.p.p.7.u.,.<.! 1.1.~ ( ( ,.( ( / ,.u.u./ u.] u.] / Q ^ { ^ ",
"oX|.d.* @ @ @ * * * @ @ = > * * @ = = @ > , = = = = * = = e & L y = = $ - $ = $ $ $ - = @ # @ # . # @ @ # # # + @ + @ @ * [. X[.",
"|.XX}.g ^.| ^.).(.).(.^.' ' (.(.(.(.(.(.} ] (./.(.(.).).).^ J {.d.A / ).).).d.^.[.f.y [ ).d.d.| | | H G | | ^.| | [ G 1 g tXfX X",
"|.7X}.g.7X.X/.gX[.gX X2X^.[./.9X.X.X X(.[.[.4X}.fX/.yX{.9X_._.5X2X/.}.{.3XyXd.gX4XdXQ .X_.9X_.tX}..X).).|. XtX[.tX/./.d.] dXfX|.",
"|.-X].B.6X|.4X8X8XfX6X8X/._.7X8X7X5X2X2X[.#XgX0X6X=X8XvXgX}._.eX9X}.#XfXgXeX8XmXBXgXg. XyX8XyXyX8XfX`./.fXfXgXfXyXtX{._.p.6XdX].",
"].-X].B.dX*XqX6XsXsXrXeX_._.3X8X5X8X2X4X`.#XbXwX=XaXaXbXvX+X'.eX9X2X#XrXrXqXgXmXBXvXl. XrXyXrXeXdXaX'.l.gXgXvXvXeX8X X/.6.4X6X].",
"].-X].Z.-X%X6X0XsXsX<XqXOX'.3X0X0X=X3X2XB.#XlX,X&XqX<XlXvX+X+XeX3X}.+XqXqXrXaXnXBXvXf.OXrXrXqXqXqXrX].`.gXrXaXaXeX8X{.f.~ -X6X].",
"].%X].B.=X%X0X0XqX1X<X<Xz.z.+X3X$X$XOXOX_.OXbX>X$X;X;XlXvXC.+XrX9X#XOX0X0XsXpXnXnXlXs._.qXqXqX0X0XeXOXz.yXrXaXrX0X3X/.x.1.*X6XV.",
"C.].].M.%X@X=X=XwX1X:X,Xz.z.OX;X$X@Xz.z._.OXzX>XI.,X<XkXlX@XH.rX5X_.'.qX<XwXpXnXMXvXa.V.qX0X,X3X=XrX'.z.rXqXrXrX0X3Xl.x.:.%X-XM.",
"C.C.C.B.@XP.=X;X<X1X;X,Xy.x.@X$X3XOXb._.x.z.xX>XI.<X1XqXpXP.N.qX5XB.L.qX<XwX1XnXnXlX<.z.,X,X$X,X$X0X_.x.0X0X0XqX3X$Xx.a.! ].*Xj.",
"C.C.V.M.P.P.;X;X=X;XR.,Xk.k.L.&X$Xb.x.z.x.x.zX:XU.;X:X1XpXL.j.qX5Xl.z.wX1X<X1XnXnXlX7.z.@X&X=X+X=XaX#XOX,X,X,XqX=X$Xx.a.U C.%X8.",
"M.M.M.M.L.N.;X@X,X&X@X&Xj.k.b.@X@Xb.i._.h.j.kX:XJ.I.;X:XkXL.t.;X5Xa.k.qX1X:XuXMXMXzX5.z.$X;X$X,X0XsX#Xh.<X<X,X<X,X$Xx.<.U P.OXr.",
"M.M.8.j.L.k.;X$X;X;XI.@Xy.h.k.@X@Xx.3.x.x.h.hXQ.U.I.I.W.1XL.9.=X#Xh.j.<X1X>X>XnXMXlX-.z.;X@X@X,X=XqX'.<.,XwX0X,X<X@Xh.,.c V.V.8.",
"j.a.a.j.L.b.I.;X;X@XI.U.h.h.b.@X@Xy.<.x.i.e.hXQ.I.Y.R.W.1Xt.O.$X#Xa.t.;X:X;XhXcXMXbX7.l.$X@X$X5XqX=Xj.7.,XwX1X,X<X@Xh.<.O.V.z.9.",
"a.8.j.k.b.b.U.&X&XI.@XL.y.y.b.@XL.h.;.i.<.h.hX>X;XI.I.I.1Xt.+.$XOX<.k.<X:X>XhXcXcXkXh.OX@X@XL.=X=X#XV.<.wXwX@X,X,X&Xe.;.U k.k.>.",
"8.e.j.j.N.N.L.@X;XL.L.L.>.y.b.L.L.k.;.,.i.7.kX>XR.I.R.I.:XN.#.,X+X5.r.:XQ.!.hXxXcXpX:.+X,X@XV.@X0X,X].a.sX&X&X;X&XI.e.-.l j.y.>.",
"h.a.e.h.N.r.P.I.=XH.@X+X<.h.L.OXOXa.1.i.a.t.kXuXR.&XI.&X<XN.#.&X+Xj.k.:X>X>XhXkXxXuXO.h.aX6X+XOX$XeX#Xj.,X$X@X@XI.OXe.-.c k.y.;.",
"r.8.8.j.N.5.:.V.<.].:.z.y.j.:.l.x./ L J j.C.&Xr.&X4.&X5.P.N.4.&X+Xj.N.8.H.R.#.kXn.<Xr.s.7.4X)./.a.,.z.<.<.j.OXO.@XO.;.-.l z.e.-.",
"e.7.7.j.r.7.j.V.V.].M.B.e.x.[.(.(.^.| d.Z.P.uX,X=XV.L.k.-XN.#.=XP.5.r.&XR.;X:XuXpXpXB.x.[..XXXXX.X[.V.<.V.].OXOX$Xj.<.-. .k.3...",
"<.8.8.r.r.5.N.P.@XN.L.z.7./ m b b : b b ( 8.uXiX;XU.U.;X;XM.@.;XV.#.q.R.R.Q.Q.hXcXkXM.d.R m m | V C p.-.L.P.L.L.@Xb.<.-. .h.<...",
":.7.5.7.k.#.t.N.P.H.t.y.:./ X X b V X O } #.>XQ.Q.Y.D.Q.:Xn.#.;XL.5.w.W.W.W.E.zXcXuXI } m O m C X : p.k L.k.b.U.U.t.>...l y.<...",
"<.<.5.8.t.#.y.z.L.H.y.9.>.! % b M _ m ; p.@.Q.!.Q.U.U.W.:XH.5.:XC.#.q.Q.T.E.iXxXhXQ.w ( W ) N N b B p.k L.k.k.U.U.t.+.U j h.3.l ",
":.5.5.e.r.>.t.H.U.k.k.e.>./ + : 2 _ 3 ; p.I Q.!.Y.D.F.W.:Xm.=.&XH.=.q.Q.I.&XiXjXhXR.q ~ 2 ) 2 M : m p.k U.t.y.b.H.k.>.....y.<.v ",
"5.6.5.8.e.#.t.n.U.k.N.r.O.,.+ b S ' M ; p.O.T.E.K.F.K.E.:Xm.o.:XL.@.&.:XZ.T pXxXhXT.8 ,.2 G 2 Z : B p.h L.v.v.v.S.v.+.O.O.9.<.v ",
":.5.<.7.q.5.r.t.H.H.b.e.O.1.* : 2 E 3 ; ,.o.E.E.K.S.D.E.>Xq.O.:XH.@.5.uX{ . %XxXxXW.k f.; V M M : F u.h U.t.v.U.v.v.+...l e.;.j ",
"5.:.<.5.9.#.e.r.H.n.t.9.O.Q ; : M W : ; u.I F.~.D.c.D.Y.Q.n.$.&XN.@.n.6XW . C.iXcXiXO.u.; N M F 3 3 ,.q U.0.0.v.v.v... .l 3.;.j ",
"<.:.5.5.e.#.9.9.N.N.9.e.O.D ; : W W ; : p. .F.~.S.w.D.Y.>Xq.@.&Xk.5.q.|.} * M.T.zXiXc / 1 B B N ; B f.q U.c.0.v.c.0... . .3.;.j ",
":.:.4.7.5.+.5.9.t.n.q.9.c f o   . .   . ^ l F.~.c.0.S.S.:Xt.$.I.P.4.I C.R 3 M.T.hX:XU ^ . o . .   O ( q H.c.c.c.c.0.$. . .3...X.",
">.:.:.5.5.@.5.9.t.n.q.>.U x s M M M M D ( l K.~.A.0.w.J.:Xq.#.=XuX8.q.C.3 . C.m.!.R.l p.W M Z 2 ; M ~ l b.c.%.0.0.%.+. . .;...j ",
">.O.<.5.>.@.9.9.S.G.9.5.;.-.a.a.g.j.a.x.<.I T.E.c.v.w.G.Q.q.e.+Xs.~ G.pXT . C.G.!.K.6 <.*X+XL.N.1.<.7.q v.c.0.v.&.%.+.X. .;.X.p ",
"-.O.5.<.#.#.e.9.H.N.t.e.O.O.3.e.M.r.e.9.;.O.T.Q.w.I.m.I.:Xr.j.V.8.Y M.pXC.~ C.m.iXW.o.>.N.H.I.0.>.;.>.O.b.2.;.b.0.y.+.X. .;...p ",
"O.U <.6.5.I Y :.@.C.U <.O.O.Y <.6.( 1.-.7.#.n.q.N.4.N.4.P.4.@.#X} , ~ R.C.M.~ G.q.C.>.9.U 7.7.<.:.c <.>.<.l <.c y.k c l ..;.X.p ",
";.O.:.7.<.Y U :.4.L.Y <.>.>.c ,.6.:.! U 8.5.N.r.n.8.N.7.I.q.k }.} . ~ R.m.M.=.M.n.J.$.5.-.8.:.<.-.:.3.U 7.U 8.:.h.O...k  .;.X.p ",
"-.U :.7.>.O.e.9.G.J.9.7.l O.<.9.N.r.>.j.5.I R.E.q.R.R.;XuX8.o.V.} * ~ iXT.A.m.m.hXW.o.%.k.9.y.r.;.k.O.k b.3.2.b.9.9.-.j ..-.v p ",
"-.O.<.5.5.o.9.*.m.S.9.>.q v ;.9.e.9.>.#.>.I T.D.m.:XH.S.pXN.O.].} 9 4.!.T.G.*.G.!.~.o.#.9.%.y.0.2.y.O.q v.2.0.c.0.2...j j X.v p ",
":.U :.<.:.o.9.q.S.G.5.9.k k y.k.9.9.O.O.<.I I.S.H.R.q.J.uXN.8.+X7.I $.!.F.A.A.A.!.~.I =.2.9.9.y.3.>.-.h t.0.0.0.0.y...7 j j v p ",
"U U ~ :.<.I #.9.n.S.&.e.h <.h.>.9.<.O.-.<.I J.G.J.H.n.R.&Xr.k.&X7.I $.!.F.A.m.A.~.E.o.#.2.2.2.3.e.>.-.k v.%.0.&.2.2.l p j j v z ",
"-.U ~ -.:.l O.e.S.S.q.e.-.,.;.3.e.3.l :.<.I S.S.t.H.I.J.R.M.e.L.e.l $.~.E.A.c.c.E.T.o.+.2.%.0.+.;.;.! h y.2.0.2.&.%.X.p p v z z ",
":.~ c :.>.l o.5.w.S.&.N.;.k -.;.5.;.l 1.s.5.R.S.q.J.R.J.=XN.w L.7.w =.~.F.A.*.m.E.E.o.+.0.%.2. .O.l ..0 y.2.0.0.%.%.j 7 z p i i ",
"-.-.x -.>.I c >.n.n.9.H.h ..O...#.;.;.x.B.8.<XI.n.H.Q.;XpX4.l L.5.I 5.E.F.A.*.A.~.T.w #.y.$.%.;.O.>.O.7 0.&.2.%.%.2.p 7 p h t t ",
"-.U Y -.;.l l O.t.q.q.L.h c -.:.<.j.i.i.p.:.;XR.n.n.R.iX:X5.l N.>.w =.E.F.A.*.*.~.T.6 #.2.+.%.+.+.3.c 0 9.&.0.%.%.;. .0 0 p i t ",
"O.~ c -.>.o.c ;.9.w.t.V.h x -.;.j.V.,.-.<.Y U.T.C.m.K.T.R.8.I k.>.0 =.E.F.A.*.w.~.T.w $.+.#.;.+.o.;.l h 3.9.%.=.+. .X.7 i i i t ",
"Y c ! :.O.l O.#.9.q.L.N.k x -.a.V.e.v Y :.I N.J.T.m.G.F.R.8.w r.5.q =.T.A.c.*.*.~.F.w O.+.%.2.O.O.;.c 0 2.+.%.#.%. .p 7 5 p i z ",
"Y Y ! Y -.l O.>.9.q.N.C.x Y h.x.7.>.h ~ 6.I n.G.P.m.G.T.T.5.c e.:.q =.G.A.A.*.*.T.G.w @.#.2.;.+.+.;.K 7 ..+.%.%. .+.7 7 7 i i i ",
"x x x ! ~ I <.5.8.5.V.].B.x.u./ <.<.! ~ s.:.N.T.T.G.K.T.R.5.l 7.>.w =.U.A.v.w.q.J.N.9 :.>.>.O.-.l -.c h O.O.3.5.%.;.p t t t i u ",
"x x f x ~ Y ~ ! ,.6.6.j.8.,./ J ,.p.Q / 6.4.M.P.P.C.J.T.+X7.k 7.>.q >.J.w.t.9.5.8.M.q :.:.1.! z r J x a ,.1.h.:.;.<.i i i i u u ",
"x x x Y :.0 a Y g 6.4 ~ Y x g D Y x Y g 6.Y 4.Y -XI P.=.8.s.c 7.:.w 5.q.o.q.8 #.9 U q U 8 ! a f g r x h ~ a ,.5 :.a t t t u t t ",
"f x f Y :.q :.c 5.:.5.7.l x x K 5.,.1.c <.k M.iXT.n.T.T.I.7.I e.:.l #.U.c.w.%. .>.O.0 O.>.O.@.;.c h v h 3.;.7.;.+.;.7 e t t t u ",
"f f x Y U I I o.5.5.#.#.k x v l ;.>.c x 1.c H.iXG.S.T.J.P.q.k e.O.q =.D.c.*.&.%.&.9.6 l >.2.#.3.-.;.U h 9.+.#.+. ...5 t t e e e ",
"f d J Q U o.O.o.5.5.#.>.c v v K -.<.z x 1.O.R.R.F.A.F.J.P.5.k 3.-.h $.J.&.%.*.=.w.H.6 -.#.2.>.;.;.:.k k 9.+.+.+.+.j t e t e e e ",
"f d f x O.o.O.:.>.5.5.>.k z z x 1.<.z z 6.8.H.J.J.m.G.T.P.7.h h.:.0 @.A.&.%.&.&.w.t.6 -.9.+.+.;.O.v j h ;.2.+.O.....i e u y e e ",
"f g d x Y o.O.:.5.5.>.+.h h ! / ( p.! u.a.Y t.J.G.m.m.J.P.8.0 7.1.h O.m.&.q.&.0.*.#.6 -.<...c -.v c z i ;.>.#.#.+...i t u y e e ",
"d g d x c I U -.r.5.>.>.h a K u.f.'.u.1.! 0 t.J.H.n.G.C.C.5.7 1.x 5 O.t.#.&.0.9.q.5.5 U ;.;.K K K 1.h 5 >.>.>.;...l i e y y - y ",
"g g g J k c U ~ s.5.5.<.j d K K ! u.! x ! h r.N.H.N.n.N.C.4.0 :.x 4 @.t.5.#.9.>.5.5.9 -.-.,.K J x <.z t :.>.>.>.+...i y y y e y ",
"g g d x k U <.6.g.7.5.<.z h J L Q u./ K ! 8 r.r.n.J.m.n.C.6.k 1.z a @.t.9.#.:.#.5.5.5 ! :.<.J J ! ,.x 5 U >.<.>.;.-.i e e y e < ",
"s 2 g f k U a.s.B.s.e.5.d a L J L u.L ! 1.a e.r.n.C.n.n.N.6.k ,.x a I N.5.9.e.<.5.r.4 ~ ,.,.! z ! ,.z 5 -.3.5.9.;...z e y s < y ",
"s g d x x l 6.s.l.5.<.7.a u / L J u.1.K K 5 8.r.n.N.G.G.P.6.a <.x a @.N.7.h.a.5.5.8.4 ! c <.i.z z ! z t :.<.9.3.;.-.u , u s y A ",
"g s g ^ x k 5.7.j.:.:.4.z g / L J / ! K Q z 7.9.n.N.J.T.%X~ 5 <.K 8 @.N.h.x.f.d.l.7.4 ! K i.-.K z -.x a -.3.;.3.;.X.u u s Z < S ",
"W 2 g D f h :.6.j.,.6.6.x a J J ^ K L J Q a 7.q.M.M.N.J.C.:.5 ,.K r I V.7.f./._.g.a.a 1.! / z J z / K d :.;.:.3.O.K A u A D < G ",
"S T B W x a ~ 6.u.,.u.f.a r J L L D L L D r 6.j.M.M.N.P.V.~ a <.J 4 Y j.a.i.).d.g.i.e f K 1.L L J 1.J d u.u.u.i.1.i.u - < A Z Z ",
"s 2 f W D , , / r L r L D d d Z A Z A A D , ( Q Z.Y C.6.p./ g p.J r / p.^ ] G ^ D u.r J A / D A Z D A A L L ] L ] D Z > < Z Z H ",
"B 2 B _ ' @ # @ @ , & > A Z @ @ @ & & @ < y s = d = g 2 s ^ d u.E S F > + 1 @ 1 . M H n # % . % . % G H 1 ; 1 & 1 @ ; n < G Z M ",
"T 3 W W P B n M n < n n L P Z n n Z Z Z H ' Z < < y < 2 2 ' ^ ] _ G P n N N N V V P | P P P P P V P | ` P P P P H N H _ Z E M Z "
};
